<svg xmlns="http://www.w3.org/2000/svg" viewBox="0 0 50.01 50"><defs><style>.a{opacity:0;}.b{fill:#606060;}.c,.e{fill:none;stroke:#fff;stroke-miterlimit:10;}.c{stroke-width:3px;}.d{fill:#fff;}.e{stroke-linecap:round;stroke-width:2px;}</style></defs><title>icon_lecture</title><g class="a"><rect class="b" x="0.01" width="50" height="50"/></g><polyline class="c" points="20.79 20.77 20.79 9.5 48.5 9.5 48.5 34.5 20.79 34.5 20.79 29.66"/><path class="d" d="M11.77,46.89l-2.86,0a2.18,2.18,0,0,1-2-2L4.57,23.67c-.35-3.26.86-6.24,2.74-6.26l5.39-.06c1.88,0,3.16,2.93,2.88,6.2L13.75,44.8A2.18,2.18,0,0,1,11.77,46.89Z" transform="translate(0.01)"/><circle class="d" cx="10.06" cy="10.64" r="4.61"/><rect class="d" x="17.54" y="23.55" width="7.68" height="3.07" rx="1.5"/><rect class="d" x="10.9" y="20.79" width="10.4" height="3.07" rx="1.5" transform="translate(22.52 -4.45) rotate(49.26)"/><rect class="d" x="-5.24" y="25.09" width="18.15" height="2.84" rx="1.39" transform="translate(30.22 31.25) rotate(108.42)"/><line class="e" x1="24.4" y1="24.47" x2="30.55" y2="18.32"/></svg>