<svg xmlns="http://www.w3.org/2000/svg" xmlns:xlink="http://www.w3.org/1999/xlink" viewBox="0 0 35 35"><defs><style>.a{fill:none;}.b{fill:#606060;opacity:0;}.c{clip-path:url(#a);}.d{fill:#fff;}</style><clipPath id="a"><circle class="a" cx="17.5" cy="17.5" r="17.2"/></clipPath></defs><title>icon_sp_eng</title><rect class="b" width="35" height="35"/><g class="c"><path class="d" d="M-7-7V43.4H43.4V-7ZM22.2,35.45l-4,1.37-3.05-1.15-.72-3.41,1.88-1.73,1.23,1.15,1.6-.79L20,29.51l2.2,1,1.05,2.64Zm-7.78-8.18a20.65,20.65,0,0,1,2.74-1.52l2-1.16s0,1.3-.37,1.66-3.11,2-3.11,2Zm6.92,1.18-.91-.92h3.19l-.29.65Zm-.91-11.61,1.74-2.61v2.25Zm1.77-3.47,1.05-.87.37.87-.71.58Zm1.85,21h-.43L25,32l.36,1.19ZM21.88,7.57,18.33,13.8l.51,1.3-.44.44-1.16-.8.66,2-4.2,2.53.94,2.39-.87.8-3.33-2.54-.87-1.81L6.75,22.85,3.63,17.71,2.4,17.13l-.94,6.59L-.13,27.34l-1.59-17,6.15-4L12.1,1.06l.51,1.52,3,.65,6.66-.72,4.06.86.5,1.81Z"/></g><path class="d" d="M17.5.5a17,17,0,1,1-17,17,17,17,0,0,1,17-17m0-.5A17.5,17.5,0,1,0,35,17.5,17.51,17.51,0,0,0,17.5,0Z"/></svg>