<svg xmlns="http://www.w3.org/2000/svg" height="24" viewBox="0 -960 960 960" width="24" fill="#ffeeee"><path d="M476-21.435 685.283-571.76h95.521L990.326-21.435h-97.522l-48-141.761H623.761l-52 141.761H476Zm173.522-221.282h165.521l-80-227.283h-4l-81.521 227.283Zm-536.326 83.521-63.522-65.521 231.283-231.044q-42.24-48.239-75-99.88-32.761-51.642-56.761-107.642h95.521q21 40.761 44.5 74.142 23.5 33.38 55.261 69.38 51-55.761 84.881-113.141 33.88-57.381 56.88-122.141H-24.326v-91.761h321.043v-91.761h91.522v91.761h321.044v91.761H577.761q-24 80.76-65.881 157.141Q470-521.522 410-453.761l109.761 113.283-33.522 93.761-143.761-141.522-229.282 229.043Z"/></svg>