<svg id="biology" xmlns="http://www.w3.org/2000/svg" viewBox="0 0 124.31 80.11"><defs><style>.cls-1,.cls-3{fill:none;}.cls-1,.cls-2{stroke:#fff;stroke-width:4px;}.cls-1,.cls-2,.cls-3,.cls-4,.cls-5{stroke-miterlimit:10;}.cls-2,.cls-4{fill:#3a58a7;}.cls-3,.cls-4{stroke:#fc9;}.cls-3{stroke-width:3px;}.cls-5,.cls-6{fill:#fc9;}.cls-5{stroke:#000;}</style></defs><title>biology</title><path class="cls-1" d="M30.17,2.43C16.08,10.59,8.45,21.26,10.78,28.48a9.32,9.32,0,0,0,3.7,4.89,10.67,10.67,0,0,0,4.59,1.48c2.62.53,4.51,1,6.81,1.33C37.43,37.67,49.53,39.24,52.67,46a9.79,9.79,0,0,1,.74,4.74c-.37,13-18,22.12-20.58,23.39" transform="translate(-8.36 -0.7)"/><path class="cls-1" d="M41.42,10.28A91.24,91.24,0,0,0,21.14,33.07a17.22,17.22,0,0,0-1.33,2.22c-2.14,4.42-2.53,10.88.74,14.81,1.51,1.81,3.3,2.5,5.77,3.4C32.42,55.74,37,56,42.16,56.31c.64,0,1.34.1,2.09.18a30.41,30.41,0,0,1,6.2,1.3,11.3,11.3,0,0,1,6.08,4.14c2.77,3.69.56,8.18.3,8.6-2.73,4.32-8.11,8.73-8.11,8.73" transform="translate(-8.36 -0.7)"/><line class="cls-1" x1="9.31" y1="11.74" x2="30.73" y2="11.74"/><line class="cls-1" x1="2.17" y1="21.94" x2="20.53" y2="21.94"/><path class="cls-1" d="M24.48,52.8,35.32,37.46" transform="translate(-8.36 -0.7)"/><path class="cls-1" d="M35.54,56.19l9.7-15.91" transform="translate(-8.36 -0.7)"/><path class="cls-1" d="M44.67,56.84c10.65-13.8,7.51-10,7.51-10" transform="translate(-8.36 -0.7)"/><line class="cls-1" x1="36.85" y1="64.78" x2="49.09" y2="64.78"/><line class="cls-1" x1="30.73" y1="69.88" x2="49.09" y2="69.88"/><path class="cls-2" d="M41,10.38" transform="translate(-8.36 -0.7)"/><path class="cls-3" d="M30.17,2.43C16.08,10.59,8.45,21.26,10.78,28.48a9.32,9.32,0,0,0,3.7,4.89,10.67,10.67,0,0,0,4.59,1.48c2.62.53,4.51,1,6.81,1.33C37.43,37.67,49.53,39.24,52.67,46a9.79,9.79,0,0,1,.74,4.74c-.37,13-18,22.12-20.58,23.39" transform="translate(-8.36 -0.7)"/><path class="cls-3" d="M41.42,10.28A91.24,91.24,0,0,0,21.14,33.07a17.22,17.22,0,0,0-1.33,2.22c-2.14,4.42-2.53,10.88.74,14.81,1.51,1.81,3.3,2.5,5.77,3.4C32.42,55.74,37,56,42.16,56.31c.64,0,1.34.1,2.09.18a30.41,30.41,0,0,1,6.2,1.3,11.3,11.3,0,0,1,6.08,4.14c2.77,3.69.56,8.18.3,8.6-2.73,4.32-8.11,8.73-8.11,8.73" transform="translate(-8.36 -0.7)"/><line class="cls-3" x1="9.31" y1="11.74" x2="30.73" y2="11.74"/><line class="cls-3" x1="2.17" y1="21.94" x2="20.53" y2="21.94"/><path class="cls-3" d="M24.48,52.8,35.32,37.46" transform="translate(-8.36 -0.7)"/><path class="cls-3" d="M35.54,56.19l9.7-15.91" transform="translate(-8.36 -0.7)"/><path class="cls-3" d="M44.67,56.84c10.65-13.8,7.51-10,7.51-10" transform="translate(-8.36 -0.7)"/><line class="cls-3" x1="36.85" y1="64.78" x2="49.09" y2="64.78"/><line class="cls-3" x1="30.73" y1="69.88" x2="49.09" y2="69.88"/><path class="cls-4" d="M41,10.38" transform="translate(-8.36 -0.7)"/><path class="cls-5" d="M64.51,22.3a13.65,13.65,0,0,1,2.71,1.38,6.27,6.27,0,0,1,1.7,1.6,3.32,3.32,0,0,1,.49,3.14,4.15,4.15,0,0,1-3,2.75,8,8,0,0,1-2.7.22,17.92,17.92,0,0,1-3.44-.66c-.76-.21-1.5-.45-2.21-.67-1-.32-1.7-.49-2-.58-.77-.18-1.9-.42-3.36-.73-.13,0-.17-.14-.13-.33s.12-.27.26-.25c.67.07,1.08.11,1.24.11a1.07,1.07,0,0,0,.72-.32,8.35,8.35,0,0,0,1.06-3l1-4.24,1-4.23a22.38,22.38,0,0,0,.47-2.28,1.63,1.63,0,0,0-.12-.88,1.28,1.28,0,0,0-.73-.61c-.18-.08-.62-.23-1.32-.44a.26.26,0,0,1-.18-.35c.05-.22.17-.32.35-.27,1.23.29,2.52.63,3.81.95l1.19.26,1.15.26c1.07.27,1.85.45,2.28.57a18.43,18.43,0,0,1,3.63,1.39,6.61,6.61,0,0,1,2.14,1.65A3.07,3.07,0,0,1,71,19.77a3.18,3.18,0,0,1-2.1,2,11.09,11.09,0,0,1-4.37.39Zm-4.39-1.64c.27.09.57.17.91.26a8.25,8.25,0,0,0,4.37.26,3.23,3.23,0,0,0,2.21-2.3A2.87,2.87,0,0,0,67.08,16a5.66,5.66,0,0,0-2.88-1.61c-1.06-.29-1.79-.3-2.12,0A8.18,8.18,0,0,0,61,17.25Zm-.22.86-1.08,4.16c-.24.91-.37,1.52-.42,1.82a2.62,2.62,0,0,0,0,1.17,1.46,1.46,0,0,0,.76.82,7,7,0,0,0,1.23.44,4.81,4.81,0,0,0,4.18-.36,4,4,0,0,0,1.54-2.21,3.21,3.21,0,0,0-.28-2.91A5.1,5.1,0,0,0,64.11,23a13.63,13.63,0,0,0-3-1.16Z" transform="translate(-8.36 -0.7)"/><path class="cls-5" d="M73.66,27.65a8.92,8.92,0,0,0,.59-1.94.75.75,0,0,0-.58-.74l-.2-.07-.68-.2-.15-.06c-.1,0-.13-.14-.09-.31s0-.12,0-.14.16-.15.36-.11c1.54.23,3.06.41,4.57.55.2.08.27.19.21.35-.64,1.42-1.2,2.73-1.66,3.91l-1.16,2.92a9.13,9.13,0,0,0-.78,2.45.73.73,0,0,0,.39.51c.11.07.4.2.82.42.1.06.11.18,0,.35s-.17.25-.27.21l-.87-.38c-.79-.35-1.38-.6-1.74-.74l-2.73-.94c-.16-.06-.21-.18-.14-.36s.18-.26.32-.21a5.39,5.39,0,0,0,.9.22.75.75,0,0,0,.51-.14,3.32,3.32,0,0,0,.73-1.35l.37-1Zm5-9.75a2,2,0,0,1,1.08,1,1.39,1.39,0,0,1,.11,1.18,1.52,1.52,0,0,1-1.06.85,1.9,1.9,0,0,1-1.29,0,2,2,0,0,1-1.12-1,1.4,1.4,0,0,1-.13-1.18,1.46,1.46,0,0,1,1-.87A2.11,2.11,0,0,1,78.66,17.9Z" transform="translate(-8.36 -0.7)"/><path class="cls-5" d="M87,28.65a6.93,6.93,0,0,1,2.22,1.62,5.72,5.72,0,0,1,1.25,2.23A5.4,5.4,0,0,1,90,36.73a5.7,5.7,0,0,1-3.68,3A6.22,6.22,0,0,1,82,39.21a6.8,6.8,0,0,1-2.08-1.49,5.8,5.8,0,0,1-1.24-2.11,5.64,5.64,0,0,1,.18-4.17,5.43,5.43,0,0,1,3.55-3.22A6.23,6.23,0,0,1,87,28.65Zm-.31.65a2.62,2.62,0,0,0-2.94.47,7.63,7.63,0,0,0-2.06,2.88,7.46,7.46,0,0,0-.83,3.87,2.43,2.43,0,0,0,1.41,2,2.58,2.58,0,0,0,2.84-.49,8,8,0,0,0,2.14-2.77,7,7,0,0,0,1-3.86A2.58,2.58,0,0,0,86.69,29.3Z" transform="translate(-8.36 -0.7)"/><path class="cls-5" d="M91.91,39.88l1.84-3.28,1.61-2.86,1.84-3.27a7.89,7.89,0,0,0,.8-1.82.76.76,0,0,0-.48-.89l-.09-.05-.69-.33-.11-.06c-.12-.06-.14-.18-.07-.34l0-.11c.06-.11.19-.13.38-.07,1.38.49,2.93,1,4.66,1.44.19.11.26.21.21.31-.81,1.28-1.47,2.34-2,3.17s-.89,1.45-1.13,1.85L96.49,37.4l-2.25,3.83a9.49,9.49,0,0,0-1.15,2.3.84.84,0,0,0,.28.58c.1.1.35.29.71.57.09.07.1.18,0,.33s-.2.2-.31.13c-.79-.54-1.58-1-2.36-1.47s-1.74-.94-2.56-1.36a.25.25,0,0,1-.12-.38.24.24,0,0,1,.35-.12,5.27,5.27,0,0,0,.87.31.69.69,0,0,0,.52-.1A8.81,8.81,0,0,0,91.91,39.88Z" transform="translate(-8.36 -0.7)"/><path class="cls-5" d="M106,39.5a7,7,0,0,1,2,1.92,5.78,5.78,0,0,1,.9,2.4,5.41,5.41,0,0,1-1.08,4.11,5.66,5.66,0,0,1-4.08,2.39,6.18,6.18,0,0,1-4.25-1.13,6.81,6.81,0,0,1-1.84-1.78,5.9,5.9,0,0,1-.91-2.27,5.66,5.66,0,0,1,.8-4.09,5.44,5.44,0,0,1,4-2.67A6.24,6.24,0,0,1,106,39.5Zm-.4.59a2.63,2.63,0,0,0-3,0,7.58,7.58,0,0,0-2.45,2.54,7.52,7.52,0,0,0-1.4,3.71A2.43,2.43,0,0,0,99.8,48.6a2.6,2.6,0,0,0,2.88-.07,7.84,7.84,0,0,0,2.53-2.42,7,7,0,0,0,1.53-3.68A2.57,2.57,0,0,0,105.55,40.09Z" transform="translate(-8.36 -0.7)"/><path class="cls-5" d="M108.05,55.08c-.83-1.11-1-2-.48-2.67a1.68,1.68,0,0,1,1.47-.58,8.43,8.43,0,0,1,2.24.47,5.3,5.3,0,0,1-1.19-2.53,2.88,2.88,0,0,1,.63-2.19,3.24,3.24,0,0,1,2.92-1.24,5.65,5.65,0,0,1,3.36,1.4,15.37,15.37,0,0,1,2,2.39,22.22,22.22,0,0,0,3.46,2.81c.09.09.1.17,0,.25l-.79.29a.27.27,0,0,1-.27,0c-.46-.48-1.16-1.14-2.11-2a2.72,2.72,0,0,1-.57,2.55,3.25,3.25,0,0,1-2.85,1.13,6.15,6.15,0,0,1-3.28-1.55,8.27,8.27,0,0,1-.67-.61c-1-.19-1.63-.08-1.94.31s-.08.92.72,1.57,1.11.89,1.84,1.5a6.62,6.62,0,0,1,2.33,3.06,2.66,2.66,0,0,1-.7,2.64,3.75,3.75,0,0,1-3.15,1.3,6,6,0,0,1-2.19-.65,13.22,13.22,0,0,1-2.43-1.63,7.53,7.53,0,0,1-2.5-3.26,2.32,2.32,0,0,1,.22-2.26,2.21,2.21,0,0,1,1.66-.91A5.78,5.78,0,0,1,108.05,55.08Zm.59.71a3.82,3.82,0,0,0-.69,0,2.92,2.92,0,0,0-1.7,1.05,2.21,2.21,0,0,0-.38,2.12,4.06,4.06,0,0,0,1.38,1.93A4.33,4.33,0,0,0,110,62.07a2.33,2.33,0,0,0,1.87-.85,1.63,1.63,0,0,0,.49-1.49,4.54,4.54,0,0,0-1.64-2.12l-.78-.66C109.55,56.65,109.13,56.26,108.64,55.79Zm8.1-7.39a2,2,0,0,0-2-.4A3.7,3.7,0,0,0,113,49.29a3.52,3.52,0,0,0-.91,2.22,2,2,0,0,0,.76,1.56,1.93,1.93,0,0,0,1.89.37,3.88,3.88,0,0,0,1.76-1.27,3.42,3.42,0,0,0,.95-2.19A2,2,0,0,0,116.74,48.4Z" transform="translate(-8.36 -0.7)"/><path class="cls-5" d="M119.07,65.26q.68-1.92,1.2-3.33c.7-1.87,1-2.81,1.69-4.7a12.82,12.82,0,0,0,.66-2.61,2,2,0,0,0-.74-1.36c-.1-.1-.09-.22,0-.37s.25-.17.36-.07c.74.73,1.51,1.47,2.31,2.24s1.67,1.57,2.44,2.27c.11.11.1.24,0,.38s-.26.16-.36.06c-.65-.57-1.11-.81-1.37-.74a.48.48,0,0,0-.22.15,7.45,7.45,0,0,0-1,2.1c-.49,1.31-.75,2-1.27,3.26a16.52,16.52,0,0,1-.72,1.57l.75-.29,1-.39c1.27-.51,1.91-.76,3.2-1.25a5.2,5.2,0,0,0,1.52-.87,1,1,0,0,0,.33-.56c.08-.34-.13-.79-.57-1.32a.26.26,0,0,1,0-.39.25.25,0,0,1,.4,0c1,1.06,1.56,1.73,1.72,1.9.56.6,1.11,1.16,1.67,1.7.11.12.09.25-.06.38a.26.26,0,0,1-.39,0,2.12,2.12,0,0,0-1.18-.58,5.8,5.8,0,0,0-2.76.5c-1.86.66-2.78,1-4.61,1.71s-3.23,1.24-3.89,1.46a14.66,14.66,0,0,1-4.36,1,4,4,0,0,1-2.81-1c-.52-.48-.63-.88-.34-1.19a1.81,1.81,0,0,1,1.21-.56,1.34,1.34,0,0,1,1.1.32,1.73,1.73,0,0,1,.38.54,1.51,1.51,0,0,0,.32.53,1.2,1.2,0,0,0,1,.33A15.51,15.51,0,0,0,119.07,65.26Z" transform="translate(-8.36 -0.7)"/><path class="cls-6" d="M64.81,22.52a13.4,13.4,0,0,1,2.71,1.37,6.58,6.58,0,0,1,1.7,1.6,3.32,3.32,0,0,1,.49,3.13,4.13,4.13,0,0,1-2.94,2.76,7.66,7.66,0,0,1-2.69.23A17.66,17.66,0,0,1,60.65,31c-.76-.21-1.5-.45-2.21-.67-1-.31-1.7-.48-2-.56-.76-.19-1.89-.42-3.35-.72-.13,0-.17-.14-.13-.33s.13-.27.26-.25a11.84,11.84,0,0,0,1.24.1,1,1,0,0,0,.71-.32,8.21,8.21,0,0,0,1.05-3l1-4.25,1-4.24c.28-1.23.44-2,.47-2.27a1.74,1.74,0,0,0-.13-.88,1.31,1.31,0,0,0-.73-.61,12.56,12.56,0,0,0-1.32-.43.27.27,0,0,1-.18-.36c0-.22.16-.31.34-.27,1.23.29,2.52.63,3.82.94.27.07.67.15,1.19.26l1.14.25c1.08.27,1.86.45,2.28.57a18.23,18.23,0,0,1,3.64,1.37,6.74,6.74,0,0,1,2.14,1.64,3.07,3.07,0,0,1,.49,3,3.18,3.18,0,0,1-2.09,2,11.23,11.23,0,0,1-4.36.4ZM60.42,20.9c.27.09.57.17.91.26a8.31,8.31,0,0,0,4.37.24,3.22,3.22,0,0,0,2.19-2.31,2.87,2.87,0,0,0-.53-2.89,5.73,5.73,0,0,0-2.88-1.6c-1.06-.29-1.79-.29-2.12,0a8,8,0,0,0-1.06,2.89Zm-.22.86-1.06,4.16c-.23.92-.37,1.53-.41,1.83a2.62,2.62,0,0,0,0,1.17,1.46,1.46,0,0,0,.75.81,7.21,7.21,0,0,0,1.24.44,4.79,4.79,0,0,0,4.16-.38,4.12,4.12,0,0,0,1.54-2.22,3.22,3.22,0,0,0-.29-2.9,5.1,5.1,0,0,0-1.74-1.47,13.18,13.18,0,0,0-3-1.14C61.05,22,60.65,21.86,60.2,21.76Z" transform="translate(-8.36 -0.7)"/><path class="cls-6" d="M74,27.85a9.77,9.77,0,0,0,.59-2,.76.76,0,0,0-.58-.74l-.2-.07-.68-.2-.15-.05c-.1,0-.13-.14-.09-.32a.53.53,0,0,0,0-.13c0-.11.16-.15.37-.11,1.53.22,3.05.4,4.56.53.2.08.27.2.21.35-.64,1.43-1.19,2.73-1.66,3.92L75.2,32a10,10,0,0,0-.78,2.45.76.76,0,0,0,.39.51c.11.07.41.2.82.42.1,0,.12.17.05.35s-.17.25-.28.2l-.86-.37c-.8-.35-1.38-.6-1.74-.73l-2.73-.94c-.15,0-.2-.18-.13-.36s.17-.26.31-.21a4.31,4.31,0,0,0,.91.21.68.68,0,0,0,.5-.13A3.31,3.31,0,0,0,72.39,32l.37-1Zm5-9.76a1.93,1.93,0,0,1,1.09,1,1.43,1.43,0,0,1,.11,1.18,1.5,1.5,0,0,1-1.05.85,2,2,0,0,1-1.3,0,2.08,2.08,0,0,1-1.12-1,1.41,1.41,0,0,1-.13-1.17,1.46,1.46,0,0,1,1-.87A2.08,2.08,0,0,1,78.92,18.09Z" transform="translate(-8.36 -0.7)"/><path class="cls-6" d="M87.27,28.81a7.06,7.06,0,0,1,2.22,1.61,5.87,5.87,0,0,1,1.24,2.24,5.45,5.45,0,0,1-.46,4.23,5.7,5.7,0,0,1-3.68,3,6.11,6.11,0,0,1-4.35-.49,6.62,6.62,0,0,1-2.08-1.48,5.82,5.82,0,0,1-1.23-2.1,5.64,5.64,0,0,1,.18-4.17,5.4,5.4,0,0,1,3.54-3.23A6.26,6.26,0,0,1,87.27,28.81Zm-.31.65a2.64,2.64,0,0,0-2.94.48,7.51,7.51,0,0,0-2,2.88,7.46,7.46,0,0,0-.83,3.87,2.44,2.44,0,0,0,1.4,2,2.6,2.6,0,0,0,2.84-.5,8,8,0,0,0,2.14-2.77,7,7,0,0,0,1-3.86A2.57,2.57,0,0,0,87,29.46Z" transform="translate(-8.36 -0.7)"/><path class="cls-6" d="M92.16,40,94,36.75l1.61-2.86,1.84-3.28a7.85,7.85,0,0,0,.8-1.81.76.76,0,0,0-.48-.89l-.08-.05-.7-.33-.11-.06c-.11-.06-.14-.18-.07-.34l.06-.11c.06-.11.18-.13.38-.07,1.37.49,2.92,1,4.65,1.43.19.12.26.22.21.31-.81,1.28-1.47,2.34-2,3.18s-.9,1.45-1.13,1.84l-2.25,3.83-2.25,3.83a9.49,9.49,0,0,0-1.15,2.3.86.86,0,0,0,.28.59,7.86,7.86,0,0,0,.71.56q.14.1,0,.33c-.09.15-.2.2-.31.13-.79-.53-1.57-1-2.35-1.47s-1.73-.93-2.55-1.35a.24.24,0,0,1-.12-.37.24.24,0,0,1,.35-.13,5.27,5.27,0,0,0,.87.31.71.71,0,0,0,.51-.1A8.51,8.51,0,0,0,92.16,40Z" transform="translate(-8.36 -0.7)"/><path class="cls-6" d="M106.18,39.64a7,7,0,0,1,1.95,1.92A5.65,5.65,0,0,1,109,44a5.43,5.43,0,0,1-1.09,4.12,5.67,5.67,0,0,1-4.08,2.38,6.11,6.11,0,0,1-4.24-1.13,6.91,6.91,0,0,1-1.83-1.78,5.84,5.84,0,0,1-.9-2.26,5.66,5.66,0,0,1,.8-4.09,5.47,5.47,0,0,1,4-2.67A6.2,6.2,0,0,1,106.18,39.64Zm-.4.59a2.62,2.62,0,0,0-3,0,7.6,7.6,0,0,0-2.46,2.54,7.52,7.52,0,0,0-1.4,3.7A2.43,2.43,0,0,0,100,48.73a2.58,2.58,0,0,0,2.88-.07,7.9,7.9,0,0,0,2.53-2.41A7.17,7.17,0,0,0,107,42.57,2.57,2.57,0,0,0,105.78,40.23Z" transform="translate(-8.36 -0.7)"/><path class="cls-6" d="M108.24,55.21c-.82-1.11-1-2-.47-2.67a1.67,1.67,0,0,1,1.46-.58,8.43,8.43,0,0,1,2.24.47,5.28,5.28,0,0,1-1.18-2.52,2.91,2.91,0,0,1,.64-2.2,3.26,3.26,0,0,1,2.92-1.23,5.63,5.63,0,0,1,3.35,1.4,14.89,14.89,0,0,1,2,2.4,23.31,23.31,0,0,0,3.45,2.81.16.16,0,0,1,0,.25l-.79.29c-.12,0-.21,0-.27,0-.46-.48-1.15-1.14-2.1-2a2.72,2.72,0,0,1-.57,2.54A3.24,3.24,0,0,1,116,55.3a6.15,6.15,0,0,1-3.27-1.55c-.19-.16-.41-.36-.66-.61-1-.19-1.63-.08-1.94.31s-.08.92.71,1.57,1.11.89,1.84,1.5A6.57,6.57,0,0,1,115,59.58a2.67,2.67,0,0,1-.71,2.63,3.71,3.71,0,0,1-3.15,1.29,5.83,5.83,0,0,1-2.18-.64,13.35,13.35,0,0,1-2.42-1.63A7.39,7.39,0,0,1,104.08,58a2.32,2.32,0,0,1,.22-2.25A2.21,2.21,0,0,1,106,54.8,6,6,0,0,1,108.24,55.21Zm.58.7a4.69,4.69,0,0,0-.69,0,2.83,2.83,0,0,0-1.69,1,2.21,2.21,0,0,0-.4,2.12A4.06,4.06,0,0,0,107.42,61a4.34,4.34,0,0,0,2.71,1.18,2.38,2.38,0,0,0,1.88-.85,1.62,1.62,0,0,0,.49-1.49,4.52,4.52,0,0,0-1.62-2.12l-.78-.65C109.73,56.78,109.31,56.39,108.82,55.91Zm8.12-7.37a2,2,0,0,0-2-.4,3.74,3.74,0,0,0-1.69,1.28,3.54,3.54,0,0,0-.92,2.22,2,2,0,0,0,.76,1.56,1.89,1.89,0,0,0,1.88.37,3.88,3.88,0,0,0,1.76-1.27,3.44,3.44,0,0,0,1-2.18A2,2,0,0,0,116.94,48.54Z" transform="translate(-8.36 -0.7)"/><path class="cls-6" d="M119.2,65.39c.46-1.28.86-2.39,1.22-3.33.7-1.86,1-2.8,1.7-4.69a12.44,12.44,0,0,0,.67-2.61,2,2,0,0,0-.74-1.36c-.1-.1-.09-.22,0-.37s.25-.17.36-.07c.73.73,1.49,1.48,2.3,2.24s1.66,1.58,2.42,2.28c.12.11.1.24,0,.37s-.27.17-.37.07c-.65-.57-1.11-.82-1.37-.74a.5.5,0,0,0-.22.14,7.77,7.77,0,0,0-1,2.1c-.5,1.31-.76,2-1.28,3.26-.2.5-.45,1-.73,1.56L123,64l1-.38c1.27-.51,1.91-.76,3.2-1.25a4.76,4.76,0,0,0,1.52-.86,1,1,0,0,0,.34-.56c.08-.34-.13-.79-.57-1.32a.27.27,0,0,1,.05-.39.25.25,0,0,1,.4,0c1,1.06,1.55,1.74,1.71,1.91.56.59,1.11,1.16,1.66,1.7.11.12.09.25,0,.38a.26.26,0,0,1-.39,0,2.08,2.08,0,0,0-1.18-.58,5.9,5.9,0,0,0-2.77.48c-1.85.66-2.78,1-4.61,1.7S120,66,119.34,66.25a15.11,15.11,0,0,1-4.35.94,4,4,0,0,1-2.81-1c-.51-.48-.62-.87-.33-1.19a1.76,1.76,0,0,1,1.21-.55,1.34,1.34,0,0,1,1.1.32,1.47,1.47,0,0,1,.37.54,1.61,1.61,0,0,0,.32.53,1.25,1.25,0,0,0,1,.33A16.23,16.23,0,0,0,119.2,65.39Z" transform="translate(-8.36 -0.7)"/></svg>