<svg id="chemistry" xmlns="http://www.w3.org/2000/svg" viewBox="0 0 122.21 78.04"><defs><style>.cls-1,.cls-3{fill:none;}.cls-1,.cls-2{stroke:#fff;stroke-width:3px;}.cls-1,.cls-2,.cls-3,.cls-4,.cls-5{stroke-miterlimit:10;}.cls-2,.cls-4,.cls-5,.cls-6{fill:#f4b2ce;}.cls-3,.cls-4{stroke:#f4b2ce;stroke-width:2px;}.cls-5{stroke:#231815;}</style></defs><title>chem</title><g id="futi"><path class="cls-1" d="M64.48,27.16" transform="translate(-10.41 -1.36)"/><path class="cls-1" d="M51,27.16" transform="translate(-10.41 -1.36)"/><path class="cls-1" d="M64.6,27.16" transform="translate(-10.41 -1.36)"/><path class="cls-1" d="M51,27.16" transform="translate(-10.41 -1.36)"/><path class="cls-1" d="M72.57,43.27h0Z" transform="translate(-10.41 -1.36)"/><path class="cls-1" d="M72.57,43.26l-7.34-14.6a7.18,7.18,0,0,1-.75-3.18V11.85a3.51,3.51,0,0,0-3.75-3.2h-6A3.54,3.54,0,0,0,51,11.87V25.48a7.18,7.18,0,0,1-.75,3.18L42.92,43.25" transform="translate(-10.41 -1.36)"/><path class="cls-2" d="M42.92,43.25l-12.57,25c-2.26,4.49,1.33,9.6,6.73,9.6H78.4c5.4,0,9-5.11,6.73-9.6l-12.56-25Z" transform="translate(-10.41 -1.36)"/><circle class="cls-2" cx="12.27" cy="12.27" r="10.77"/><circle class="cls-2" cx="19.22" cy="34.74" r="3.59"/></g><path class="cls-3" d="M64.48,27.16" transform="translate(-10.41 -1.36)"/><path class="cls-3" d="M51,27.16" transform="translate(-10.41 -1.36)"/><path class="cls-3" d="M64.6,27.16" transform="translate(-10.41 -1.36)"/><path class="cls-3" d="M51,27.16" transform="translate(-10.41 -1.36)"/><path class="cls-3" d="M72.57,43.27h0Z" transform="translate(-10.41 -1.36)"/><path class="cls-3" d="M72.57,43.26l-7.34-14.6a7.18,7.18,0,0,1-.75-3.18V11.85a3.51,3.51,0,0,0-3.75-3.2h-6A3.54,3.54,0,0,0,51,11.87V25.48a7.18,7.18,0,0,1-.75,3.18L42.92,43.25" transform="translate(-10.41 -1.36)"/><path class="cls-4" d="M42.92,43.25l-12.57,25c-2.26,4.49,1.33,9.6,6.73,9.6H78.4c5.4,0,9-5.11,6.73-9.6l-12.56-25Z" transform="translate(-10.41 -1.36)"/><circle class="cls-4" cx="12.27" cy="12.27" r="10.77"/><circle class="cls-4" cx="19.22" cy="34.74" r="3.59"/><path class="cls-5" d="M90,11.12q-.12,2-.18,3.6v.07q0,.15-.42.09a.27.27,0,0,1-.22-.19,6,6,0,0,0-1.79-2.87,6.68,6.68,0,0,0-3.56-1.31,6.15,6.15,0,0,0-5.32,1.93,7.4,7.4,0,0,0-1.83,5,7.38,7.38,0,0,0,1.91,5.3,6.15,6.15,0,0,0,4.11,2.06,7.27,7.27,0,0,0,3.56-.44,7.35,7.35,0,0,0,2.5-1.82.26.26,0,0,1,.25-.06.45.45,0,0,1,.29.16c.08.07.12.14.11.2a.41.41,0,0,1-.1.18,7.66,7.66,0,0,1-7,3,8.64,8.64,0,0,1-6-2.92,8.29,8.29,0,0,1-2.11-5.62,7.13,7.13,0,0,1,3-6.12,9.67,9.67,0,0,1,6.69-1.63,12.28,12.28,0,0,1,3.12.69,11.39,11.39,0,0,0,2.07.6C89.33,11.08,89.64,11.1,90,11.12Z" transform="translate(-10.41 -1.36)"/><path class="cls-5" d="M95,19.66a4.35,4.35,0,0,1,4.25-1,3.7,3.7,0,0,1,2.3,1.57,2.79,2.79,0,0,1,.19,2.36c-.31.91-.47,1.36-.77,2.27l-.43,1.33a7.91,7.91,0,0,0-.52,2.19q0,.32,1.08.78a.24.24,0,0,1,.1.32.21.21,0,0,1-.28.16c-.84-.3-1.53-.55-2.05-.72s-1.27-.35-2.15-.59a.19.19,0,0,1-.15-.28c0-.16.14-.23.28-.2.65.1,1.09.12,1.25-.06a7.41,7.41,0,0,0,.82-2.11l1-3.27a2.42,2.42,0,0,0,.11-1.24,2.22,2.22,0,0,0-1.78-1.65,3,3,0,0,0-2.78.55,2.67,2.67,0,0,0-.89,1.54l-.64,2.75a9.4,9.4,0,0,0-.38,2.22c0,.21.45.44,1.2.7a.23.23,0,0,1,.13.31c0,.16-.13.22-.25.18l-2-.53c-.59-.13-1.37-.27-2.31-.43-.11,0-.16-.11-.13-.27s.11-.24.23-.23a6.75,6.75,0,0,0,.93,0,.54.54,0,0,0,.34-.18A7,7,0,0,0,92.27,24c.8-3.79,1.21-5.69,2-9.48a4.86,4.86,0,0,0,.17-1.81.77.77,0,0,0-.65-.59L92.88,12c-.15,0-.2-.13-.17-.31s.16-.23.38-.23c1,0,2.23,0,3.67-.12.19,0,.27.11.25.21-.5,1.74-.93,3.43-1.32,5.07Z" transform="translate(-10.41 -1.36)"/><path class="cls-5" d="M106.7,25.65a6.37,6.37,0,0,0-.39.8,4.51,4.51,0,0,0-.06,3.44,3.1,3.1,0,0,0,1.63,1.8,3.81,3.81,0,0,0,3.48-.1.19.19,0,0,1,.18,0,.46.46,0,0,1,.19.22.25.25,0,0,1,0,.21.47.47,0,0,1-.25.19,4.61,4.61,0,0,1-4.32.26,4.92,4.92,0,0,1-2.8-2.84,5.22,5.22,0,0,1,.06-3.75,4.89,4.89,0,0,1,3-3.08,5,5,0,0,1,3.86.16,4.28,4.28,0,0,1,2.47,2.52,4,4,0,0,1-.08,2.91.39.39,0,0,1-.23.19.41.41,0,0,1-.27,0q-2.16-1.12-4.28-2C107.91,26.1,107.17,25.82,106.7,25.65Zm.42-.67,1.84.77q1.52.64,2.91,1.2c.14.07.25,0,.34-.16a2.87,2.87,0,0,0,0-2.06A2.24,2.24,0,0,0,111,23.54a2.72,2.72,0,0,0-2.15,0A4.21,4.21,0,0,0,107.12,25Z" transform="translate(-10.41 -1.36)"/><path class="cls-5" d="M125.21,33.2a4.5,4.5,0,0,1,4.41.48,3.5,3.5,0,0,1,1.5,2.29,2.71,2.71,0,0,1-.68,2.2L128.89,40,128,41.11A8.88,8.88,0,0,0,126.7,43c0,.2.22.59.77,1.16a.21.21,0,0,1,0,.3c-.1.12-.2.14-.29.07-.63-.55-1.19-1-1.66-1.43s-1.07-.81-1.87-1.39c-.11-.08-.11-.18,0-.31a.23.23,0,0,1,.31-.08c.58.37,1,.52,1.22.43A7.3,7.3,0,0,0,126.67,40l2.07-2.66a2.48,2.48,0,0,0,.55-1.17,2,2,0,0,0-.91-2.11,2.9,2.9,0,0,0-2.69-.38,2.59,2.59,0,0,0-.83.38,3.29,3.29,0,0,0-.59.68l-1.6,2.32a7.32,7.32,0,0,0-1.13,2c0,.23.29.6.88,1.11a.23.23,0,0,1,0,.32c-.09.12-.18.14-.27.07-.74-.54-1.34-1-1.78-1.29s-1.17-.75-2-1.23c-.09-.06-.11-.16,0-.28a.24.24,0,0,1,.31-.12c.63.33,1,.44,1.24.33a7.74,7.74,0,0,0,1.39-1.78l1.88-2.85a2.4,2.4,0,0,0,.46-1.16,2.08,2.08,0,0,0-1.1-2.05,2.86,2.86,0,0,0-2.68-.15,2.67,2.67,0,0,0-1.29,1.19l-1.42,2.44a10,10,0,0,0-1,2c0,.21.28.54.91,1,.08.07.08.17,0,.29s-.17.17-.26.12c-.73-.46-1.36-.86-1.88-1.15s-1.14-.61-2-1c-.1,0-.12-.15,0-.29a.21.21,0,0,1,.27-.14c.6.27,1,.34,1.23.22a6.61,6.61,0,0,0,1.27-1.88l1.5-2.69a5.73,5.73,0,0,0,.7-1.63.69.69,0,0,0-.4-.77l-.78-.37c-.12-.07-.14-.19,0-.37s.19-.14.4-.1c1.08.32,2.18.58,3.29.8.16.09.2.2.14.31-.41.66-.74,1.17-.94,1.52a4.29,4.29,0,0,1,4.21.16,3.35,3.35,0,0,1,1.45,1.7A2.76,2.76,0,0,1,125.21,33.2Z" transform="translate(-10.41 -1.36)"/><path class="cls-5" d="M131.67,45.43a1.34,1.34,0,0,1,.45,1,1.27,1.27,0,0,1-.38.92,1.21,1.21,0,0,1-1,.37,1.4,1.4,0,0,1-.89-.37,1.41,1.41,0,0,1-.47-1,1.25,1.25,0,0,1,.32-.87,1.27,1.27,0,0,1,1-.45A1.39,1.39,0,0,1,131.67,45.43Z" transform="translate(-10.41 -1.36)"/><path class="cls-6" d="M89.71,10.63c-.08,1.41-.14,2.68-.19,3.82v.07c0,.11-.15.14-.42.1a.28.28,0,0,1-.23-.19,6.32,6.32,0,0,0-1.82-3A6.64,6.64,0,0,0,83.41,10,6.16,6.16,0,0,0,78,12.13a8,8,0,0,0-1.84,5.35,8,8,0,0,0,2,5.59,6.08,6.08,0,0,0,4.17,2.15,7,7,0,0,0,3.61-.5,7.77,7.77,0,0,0,2.54-1.95.24.24,0,0,1,.25-.07.47.47,0,0,1,.29.16.27.27,0,0,1,.11.22.38.38,0,0,1-.11.19,7.67,7.67,0,0,1-7.09,3.23,8.55,8.55,0,0,1-6.09-3,9,9,0,0,1-2.17-5.94,7.62,7.62,0,0,1,3-6.5,9.55,9.55,0,0,1,6.82-1.78,11.55,11.55,0,0,1,3.19.7,10.71,10.71,0,0,0,2.12.62A8.42,8.42,0,0,0,89.71,10.63Z" transform="translate(-10.41 -1.36)"/><path class="cls-6" d="M94.77,19.62a4.37,4.37,0,0,1,4.33-1.11,3.67,3.67,0,0,1,2.34,1.64,3,3,0,0,1,.16,2.48c-.32,1-.49,1.45-.81,2.41l-.45,1.41a8.82,8.82,0,0,0-.56,2.32c0,.22.39.49,1.09.81.12.06.15.17.1.33s-.16.22-.29.17c-.85-.3-1.55-.56-2.07-.72s-1.28-.36-2.18-.59q-.21-.06-.15-.3c0-.16.15-.24.29-.22.66.11,1.1.11,1.27-.07a8.71,8.71,0,0,0,.86-2.24l1-3.47a2.6,2.6,0,0,0,.12-1.31,2.21,2.21,0,0,0-1.79-1.72,3,3,0,0,0-2.84.61,3,3,0,0,0-.92,1.64l-.67,2.91a10.61,10.61,0,0,0-.4,2.36c0,.22.45.46,1.21.73a.24.24,0,0,1,.13.32c0,.16-.13.23-.26.2-.9-.24-1.6-.43-2.06-.53s-1.39-.27-2.33-.44c-.12,0-.16-.11-.13-.28s.11-.25.23-.25a6.86,6.86,0,0,0,.94,0,.62.62,0,0,0,.34-.2,7.55,7.55,0,0,0,.69-2.3l2.1-10a5.31,5.31,0,0,0,.18-1.92.79.79,0,0,0-.66-.62l-.94-.13c-.15,0-.21-.14-.17-.33s.16-.25.39-.25c1,0,2.28,0,3.75-.17.2.05.28.12.26.23-.52,1.84-1,3.64-1.38,5.37Z" transform="translate(-10.41 -1.36)"/><path class="cls-6" d="M106.65,25.77a8.25,8.25,0,0,0-.42.86,5,5,0,0,0-.12,3.62,3.07,3.07,0,0,0,1.63,1.86A3.78,3.78,0,0,0,111.3,32a.19.19,0,0,1,.18,0,.39.39,0,0,1,.19.24.32.32,0,0,1,0,.22.57.57,0,0,1-.26.2A4.6,4.6,0,0,1,107,33a4.86,4.86,0,0,1-2.8-2.94,5.71,5.71,0,0,1,.12-4,5.28,5.28,0,0,1,3.08-3.29,5,5,0,0,1,3.94.11,4.34,4.34,0,0,1,2.49,2.62,4.19,4.19,0,0,1-.14,3.05.39.39,0,0,1-.23.21.38.38,0,0,1-.28,0q-2.19-1.15-4.34-2.08C107.87,26.24,107.13,26,106.65,25.77Zm.43-.71,1.87.79c1,.44,2,.84,3,1.22.15.07.27,0,.35-.18a3,3,0,0,0,.06-2.16,2.18,2.18,0,0,0-1.2-1.24,2.7,2.7,0,0,0-2.19,0A4.51,4.51,0,0,0,107.08,25.06Z" transform="translate(-10.41 -1.36)"/><path class="cls-6" d="M125.47,33.4a4.56,4.56,0,0,1,4.54.43,3.48,3.48,0,0,1,1.49,2.36,3,3,0,0,1-.76,2.31l-1.65,2-.94,1.14a9.71,9.71,0,0,0-1.4,1.94c0,.22.2.61.76,1.19.08.1.07.2,0,.32s-.21.15-.3.07c-.64-.56-1.2-1.06-1.68-1.45s-1.07-.82-1.88-1.41c-.11-.08-.11-.19,0-.33a.23.23,0,0,1,.32-.08c.59.37,1,.52,1.25.42a7.61,7.61,0,0,0,1.61-1.76L129,37.7a2.69,2.69,0,0,0,.61-1.22,2.09,2.09,0,0,0-.89-2.19,2.91,2.91,0,0,0-2.77-.35,3,3,0,0,0-.87.4,3.85,3.85,0,0,0-.62.73l-1.7,2.45a8.48,8.48,0,0,0-1.22,2.07c0,.24.28.62.88,1.14.08.09.08.2,0,.33s-.19.15-.28.08c-.75-.55-1.35-1-1.79-1.31s-1.18-.76-2-1.25c-.1-.06-.11-.16,0-.29s.2-.19.32-.13c.64.32,1.06.43,1.26.31a8.31,8.31,0,0,0,1.47-1.88l2-3a2.79,2.79,0,0,0,.5-1.22,2.12,2.12,0,0,0-1.09-2.13,3,3,0,0,0-4.1,1.16L117.19,34a11,11,0,0,0-1.09,2.13c0,.22.28.56.92,1,.07.07.07.17,0,.3s-.18.19-.26.13c-.74-.46-1.38-.87-1.9-1.17s-1.15-.61-2-1c-.1,0-.11-.16,0-.3s.17-.19.29-.15c.61.27,1,.34,1.25.2a7.45,7.45,0,0,0,1.34-2l1.59-2.86a6.56,6.56,0,0,0,.76-1.71.71.71,0,0,0-.4-.81l-.79-.38q-.2-.09,0-.39c.06-.11.19-.15.4-.1,1.11.31,2.23.57,3.37.79.16.09.21.2.14.31-.43.7-.79,1.25-1,1.61a4.37,4.37,0,0,1,4.33.1,3.35,3.35,0,0,1,1.46,1.77A3,3,0,0,1,125.47,33.4Z" transform="translate(-10.41 -1.36)"/><path class="cls-6" d="M131.8,46a1.32,1.32,0,0,1,.44,1,1.36,1.36,0,0,1-.42,1,1.27,1.27,0,0,1-1,.4,1.33,1.33,0,0,1-.91-.37,1.34,1.34,0,0,1-.45-1,1.31,1.31,0,0,1,.35-.91,1.36,1.36,0,0,1,2-.09Z" transform="translate(-10.41 -1.36)"/></svg>