<svg xmlns="http://www.w3.org/2000/svg" viewBox="0 0 144 81">
  <defs>
    <style>
      .a {
        opacity: 0;
      }

      .b, .d {
        fill: #fff;
      }

      .c, .h, .i {
        fill: #a3d2a1;
      }

      .c, .d, .e, .f {
        stroke: #a3d2a1;
        stroke-width: 2px;
      }

      .c, .d, .f {
        stroke-miterlimit: 10;
      }

      .e, .f, .g {
        fill: none;
      }

      .e {
        stroke-linejoin: round;
      }

      .g {
        stroke: #fff;
        stroke-width: 3px;
      }

      .h {
        stroke: #000;
      }
    </style>
  </defs>
  <title>culture</title>
  <g class="a">
    <rect class="b" width="144" height="81"/>
  </g>
  <g>
    <g>
      <g>
        <path class="c" d="M96.28,66.44A4.55,4.55,0,0,1,95,68.64a6.07,6.07,0,0,1-2.54,1.24L62.3,45.37l3.85-3.44Z"/>
        <polygon class="d" points="66.03 41.84 62.18 45.27 55.86 40.13 59.71 36.69 66.03 41.84"/>
        <path class="e" d="M55.62,39.95s-4-1.08-4.71-2c-1.5-1.89-1.5-3.77-1.3-5.85.15-1.55,1.78-4.45,2.72-5.85A56.37,56.37,0,0,1,58.11,20s-.63,4.71-.59,6a8.4,8.4,0,0,0,1.39,4.56,6.53,6.53,0,0,1,1.4,3.15,4,4,0,0,1-.59,3Z"/>
        <polyline class="e" points="49.54 34.41 51.14 31.34 53.06 33.84 55.09 30.98 57.24 31.98 58.9 30.55"/>
        <ellipse class="f" cx="33.4" cy="55.68" rx="6.82" ry="5.56"/>
        <path class="f" d="M80.25,17.11c12.18,9,14.25,25.25,1.8,33.3-3,1.94-19.69-1.53-25.72,2.22-2.08,1.3-6.3,6.09-8.52,8.87C45,65,44.15,68.65,38.54,70.34c-7.4,2.23-19.28-1.1-23.09-5.53-2.58-3,.45-6.89-2-11.48-7.65-14.47-1.33-26.43,17-36.5C48,7.17,69.15,8.9,80.25,17.11Z"/>
      </g>
      <g>
        <path class="g" d="M96.28,66.44A4.55,4.55,0,0,1,95,68.64a6.07,6.07,0,0,1-2.54,1.24L62.3,45.37l3.85-3.44Z"/>
        <polygon class="g" points="66.03 41.84 62.18 45.27 55.86 40.13 59.71 36.69 66.03 41.84"/>
        <path class="g" d="M55.62,39.95s-4-1.08-4.71-2c-1.5-1.89-1.5-3.77-1.3-5.85.15-1.55,1.78-4.45,2.72-5.85A56.37,56.37,0,0,1,58.11,20s-.63,4.71-.59,6a8.4,8.4,0,0,0,1.39,4.56,6.53,6.53,0,0,1,1.4,3.15,4,4,0,0,1-.59,3Z"/>
        <polyline class="g" points="49.54 34.41 51.14 31.34 53.06 33.84 55.09 30.98 57.24 31.98 58.9 30.55"/>
        <ellipse class="g" cx="33.4" cy="55.68" rx="6.82" ry="5.56"/>
        <path class="g" d="M80.25,17.11c12.18,9,14.25,25.25,1.8,33.3-3,1.94-19.69-1.53-25.72,2.22-2.08,1.3-6.3,6.09-8.52,8.87C45,65,44.15,68.65,38.54,70.34c-7.4,2.23-19.28-1.1-23.09-5.53-2.58-3,.45-6.89-2-11.48-7.65-14.47-1.33-26.43,17-36.5C48,7.17,69.15,8.9,80.25,17.11Z"/>
      </g>
    </g>
    <g>
      <path class="c" d="M95.28,66.44A4.55,4.55,0,0,1,94,68.64a6.07,6.07,0,0,1-2.54,1.24L61.3,45.37l3.85-3.44Z"/>
      <polygon class="d" points="65.03 41.84 61.18 45.27 54.86 40.13 58.71 36.69 65.03 41.84"/>
      <path class="e" d="M54.62,39.95s-4-1.08-4.71-2c-1.5-1.89-1.5-3.77-1.3-5.85.15-1.55,1.78-4.45,2.72-5.85A56.37,56.37,0,0,1,57.11,20s-.63,4.71-.59,6a8.4,8.4,0,0,0,1.39,4.56,6.53,6.53,0,0,1,1.4,3.15,4,4,0,0,1-.59,3Z"/>
      <polyline class="e" points="48.54 34.41 50.14 31.34 52.06 33.84 54.09 30.98 56.24 31.98 57.9 30.55"/>
      <ellipse class="f" cx="32.4" cy="55.68" rx="6.82" ry="5.56"/>
      <path class="f" d="M79.25,17.11c12.18,9,14.25,25.25,1.8,33.3-3,1.94-19.69-1.53-25.72,2.22-2.08,1.3-6.3,6.09-8.52,8.87C44,65,43.15,68.65,37.54,70.34c-7.4,2.23-19.28-1.1-23.09-5.53-2.58-3,.45-6.89-2-11.48-7.65-14.47-1.33-26.43,17-36.5C47,7.17,68.15,8.9,79.25,17.11Z"/>
    </g>
    <g>
      <path class="h" d="M99.36,19.18c0,.08,0,.11-.11.13a.13.13,0,0,1-.18-.08,3.45,3.45,0,0,0-.93-1.32,2.58,2.58,0,0,0-1.47-.47c-1.64,0-2.84,1.46-2.84,3.71,0,2,1.22,3.52,2.91,3.52a2.93,2.93,0,0,0,2.71-1.52c0-.06.09-.08.22,0a.13.13,0,0,1,.08.2,3.41,3.41,0,0,1-3.16,2,3.89,3.89,0,0,1-4-4.13,3.92,3.92,0,0,1,4-4.1,5.53,5.53,0,0,1,1.34.17,2.5,2.5,0,0,0,1.22.12C99.22,17.93,99.29,18.61,99.36,19.18Z"/>
      <path class="h" d="M105.86,19.2a3.48,3.48,0,0,0-.19-1.35c-.12-.22-.46-.26-.85-.31-.08,0-.09,0-.09-.14s0-.17.09-.17c.44,0,.89.06,1.29.06s.84,0,1.24-.06c.08,0,.1,0,.1.17s0,.13-.1.14c-.36,0-.62.1-.76.32a3.06,3.06,0,0,0-.22,1.34v1.36c0,.69,0,1.38,0,2a2.52,2.52,0,0,1-.84,2,3,3,0,0,1-2.06.7,3.47,3.47,0,0,1-2.48-.86,2.14,2.14,0,0,1-.65-1.69c0-.65,0-1.42,0-2.13V19.2c0-1,0-1.15-.12-1.39s-.44-.23-.86-.27c-.08,0-.1,0-.1-.14s0-.17.1-.17c.45,0,1,.06,1.46.06s1,0,1.47-.06c.08,0,.1,0,.1.17s0,.13-.1.14c-.38,0-.68,0-.8.27a3.61,3.61,0,0,0-.13,1.39v1.43c0,.47,0,1,0,1.45,0,1,.05,1.55.54,2a2.39,2.39,0,0,0,1.64.6,2.34,2.34,0,0,0,1.79-.62,2.18,2.18,0,0,0,.55-1.69c0-.54,0-1.09,0-1.8Z"/>
      <path class="h" d="M109.25,23.12a3.11,3.11,0,0,0,.15,1.32c.18.29.57.3,1.07.3a3,3,0,0,0,1.92-.46,3.37,3.37,0,0,0,.83-1.1c0-.08.05-.1.18-.07s.13.09.11.15a14.46,14.46,0,0,1-.57,1.86c-1,0-1.89,0-2.78,0s-1.94,0-2.87,0c-.07,0-.09,0-.09-.14s0-.13.09-.14c.39,0,.68-.05.81-.26a3.61,3.61,0,0,0,.13-1.45V19.21c0-1,0-1.18-.12-1.41s-.43-.22-.85-.26c-.08,0-.1,0-.1-.13s0-.18.1-.18c.45,0,1,.07,1.47.07s1,0,1.45-.07c.09,0,.11,0,.11.18s0,.12-.11.13c-.37,0-.67.06-.79.26a3.74,3.74,0,0,0-.13,1.41Z"/>
      <path class="h" d="M116.11,19.21c0-1,0-1.17-.12-1.39s-.43-.2-.7-.2A2,2,0,0,0,114,18a2.67,2.67,0,0,0-.74,1.13c0,.07-.06.1-.17.08S113,19.13,113,19c.08-.55.15-1.25.2-1.82,1.21.06,2.33.06,3.47.06s2.29,0,3.5-.06c0,.56.12,1.27.19,1.82,0,.08,0,.11-.11.13s-.15,0-.18-.08a2.52,2.52,0,0,0-.73-1.13,2,2,0,0,0-1.32-.34c-.28,0-.56,0-.72.22a3.14,3.14,0,0,0-.14,1.36v3.91c0,1.09,0,1.21.12,1.44s.5.22.89.26c.08,0,.1,0,.1.14s0,.15-.1.15c-.46,0-1.08,0-1.52,0s-1,0-1.44,0c-.08,0-.1,0-.1-.14s0-.14.1-.15c.36,0,.68-.06.8-.26a3.86,3.86,0,0,0,.12-1.44Z"/>
      <path class="h" d="M126.49,19.2a3.43,3.43,0,0,0-.19-1.35c-.12-.22-.46-.26-.85-.31-.08,0-.09,0-.09-.14s0-.17.09-.17c.44,0,.89.06,1.29.06s.84,0,1.24-.06c.08,0,.1,0,.1.17s0,.13-.1.14c-.36,0-.62.1-.76.32A3.06,3.06,0,0,0,127,19.2v1.36c0,.69,0,1.38,0,2a2.52,2.52,0,0,1-.84,2,3,3,0,0,1-2.06.7,3.48,3.48,0,0,1-2.48-.86,2.14,2.14,0,0,1-.65-1.69c0-.65,0-1.42,0-2.13V19.2c0-1,0-1.15-.12-1.39s-.44-.23-.86-.27c-.08,0-.1,0-.1-.14s0-.17.1-.17c.45,0,1,.06,1.46.06s1,0,1.47-.06c.08,0,.1,0,.1.17s0,.13-.1.14c-.38,0-.68,0-.8.27A3.64,3.64,0,0,0,122,19.2v1.43c0,.47,0,1,0,1.45,0,1,.06,1.55.54,2a2.4,2.4,0,0,0,1.64.6,2.34,2.34,0,0,0,1.79-.62,2.18,2.18,0,0,0,.55-1.69c0-.54,0-1.09,0-1.8Z"/>
      <path class="h" d="M129.85,23.11c0,1.09,0,1.24.12,1.46s.44.22.85.26c.09,0,.11,0,.11.15s0,.13-.11.13c-.47,0-1,0-1.46,0s-1,0-1.43,0c-.09,0-.11,0-.11-.13s0-.14.11-.15c.37,0,.68-.05.8-.26a3.92,3.92,0,0,0,.13-1.46V19.2c0-1,0-1.17-.12-1.4s-.51-.23-.92-.27c-.07,0-.09,0-.09-.13s0-.17.09-.17c.47,0,1,0,1.49,0s1.09-.05,1.8-.05c2,0,2.82.88,2.82,2a2.08,2.08,0,0,1-1.77,2c.44.85.95,1.75,1.53,2.67a2.5,2.5,0,0,0,.66.83,1.82,1.82,0,0,0,.67.15c.07,0,.09,0,.09.14s0,.14-.1.14c-.41,0-.73,0-1,0h-.83a7.4,7.4,0,0,0-.41-.85c-.54-1-1.07-1.93-1.59-2.89l-.48,0c-.28,0-.53,0-.79,0Zm0-2.15a5.93,5.93,0,0,0,.79.06c1.56,0,2.15-.78,2.15-1.73s-.59-1.69-1.91-1.69c-.36,0-.74,0-.88.21a3.34,3.34,0,0,0-.14,1.4Z"/>
      <path class="h" d="M136.42,23.12a3.13,3.13,0,0,0,.15,1.32c.18.29.59.3,1.09.3a2.91,2.91,0,0,0,1.91-.45,3.43,3.43,0,0,0,.85-1.11c0-.07.06-.1.17-.07s.13.09.11.15a11.62,11.62,0,0,1-.57,1.86c-.95,0-1.88,0-2.77,0s-1.95,0-2.88,0c-.07,0-.09,0-.09-.14s0-.13.09-.14c.38,0,.65-.05.78-.26a3.83,3.83,0,0,0,.13-1.45V19.21c0-1,0-1.18-.12-1.42s-.43-.21-.85-.25c-.08,0-.1,0-.1-.13s0-.18.1-.18c.91.06,1.89.06,2.79.06s1.77,0,2.72-.06c0,.56.11,1.23.19,1.78,0,.07,0,.11-.1.13s-.16,0-.19-.08a2.48,2.48,0,0,0-.71-1.09,2.43,2.43,0,0,0-1.64-.35c-.42,0-.79,0-.95.28a3.45,3.45,0,0,0-.11,1.31v1.57h.68a2.61,2.61,0,0,0,1.42-.23,1,1,0,0,0,.36-.71c0-.07,0-.1.13-.1s.15,0,.15.1c0,.38,0,.74,0,1.11s0,.85,0,1.24c0,.08,0,.11-.15.11s-.12,0-.13-.11a1.26,1.26,0,0,0-.38-.81,3.06,3.06,0,0,0-1.4-.23h-.68Z"/>
      <path class="h" d="M122.33,41.32c-.37,0-.85,0-1.26,0s-.89,0-1.38,0l-.44,1.21a1.85,1.85,0,0,0-.18,1.24c.1.22.47.26.88.31.07,0,.1,0,.1.14s0,.14-.11.14c-.41,0-.95,0-1.34,0s-.77,0-1.12,0c-.09,0-.11,0-.11-.14s0-.13.11-.14a1,1,0,0,0,.63-.29,4.64,4.64,0,0,0,.66-1.31L120.08,39c.54-1.46.65-1.77.81-2.33l.7-.34a.11.11,0,0,1,.12.09c.21.68.39,1.23.87,2.64l1.24,3.52a5.13,5.13,0,0,0,.54,1.23c.18.22.37.24.77.28.1,0,.12,0,.12.14s0,.14-.12.14c-.44,0-1,0-1.47,0s-1,0-1.44,0c-.08,0-.1,0-.1-.14s0-.13.1-.14c.36,0,.72-.05.79-.28s0-.55-.21-1.13Zm-.77-2.26c-.25-.71-.37-1.1-.52-1.51-.14.41-.29.8-.54,1.5l-.66,1.83c.38,0,.81,0,1.22,0s.78,0,1.12,0Z"/>
      <path class="h" d="M126,37.65l0,4.73a3.34,3.34,0,0,0,.2,1.42c.14.22.47.25.84.3.08,0,.09,0,.09.13s0,.13-.09.13c-.44,0-.87,0-1.27,0s-.9,0-1.28,0c-.09,0-.11,0-.11-.12s0-.13.1-.14c.33,0,.62-.08.76-.31a3.16,3.16,0,0,0,.22-1.41l.07-3.93a2.65,2.65,0,0,0-.18-1.33,1.35,1.35,0,0,0-.9-.32c-.09,0-.11,0-.11-.14s0-.18.11-.18l1.06,0h1.1a14.52,14.52,0,0,0,.85,1.33L130,41.51c.37.54.68,1,1,1.54v-4.6a3.08,3.08,0,0,0-.22-1.37c-.13-.22-.46-.24-.81-.29-.09,0-.11,0-.11-.14s0-.17.1-.17c.41,0,.85,0,1.24,0s.89,0,1.24,0c.09,0,.11,0,.11.17s0,.13-.11.14c-.33,0-.6.07-.74.29a3.36,3.36,0,0,0-.21,1.38l-.07,3.93c0,.74,0,1.28,0,1.86-.54.3-.56.31-.59.31a.11.11,0,0,1-.09-.06c-.34-.56-.59-.93-1.25-1.89l-3.4-5Z"/>
      <path class="h" d="M133.37,38.45c0-1,0-1.18-.11-1.41s-.47-.21-.89-.25c-.08,0-.1,0-.1-.14s0-.17.1-.17c.45,0,.91,0,1.4,0s1.46-.07,2.18-.07c3,0,4.51,1.56,4.51,3.88s-1.57,4-4.6,4c-.64,0-1.42-.07-2.07-.07-.48,0-.95,0-1.35,0-.08,0-.1,0-.1-.14s0-.13.1-.14c.37,0,.69-.07.83-.28a4.15,4.15,0,0,0,.11-1.44Zm1,3.92a2.45,2.45,0,0,0,.18,1.32c.21.26.67.33,1.25.33,2.31,0,3.44-1.48,3.44-3.63s-1.21-3.54-3.37-3.54c-.76,0-1.22.07-1.36.29a2.87,2.87,0,0,0-.14,1.32Z"/>
      <path class="h" d="M119.78,60.57c-.37,0-.85,0-1.26,0s-.89,0-1.38,0l-.44,1.21a1.85,1.85,0,0,0-.18,1.24c.1.22.47.26.88.31.07,0,.1,0,.1.14s0,.14-.11.14c-.41,0-.95,0-1.34,0s-.77,0-1.12,0c-.09,0-.11,0-.11-.14s0-.13.11-.14a1,1,0,0,0,.63-.29,4.65,4.65,0,0,0,.66-1.31l1.31-3.49c.54-1.46.65-1.77.81-2.33l.7-.34a.11.11,0,0,1,.12.09c.21.68.39,1.23.87,2.64l1.24,3.52a5.14,5.14,0,0,0,.54,1.23c.18.22.37.24.77.28.1,0,.12,0,.12.14s0,.14-.12.14c-.44,0-1,0-1.47,0s-1,0-1.44,0c-.08,0-.1,0-.1-.14s0-.13.1-.14c.36,0,.72-.06.79-.28s0-.55-.21-1.13ZM119,58.32c-.25-.72-.37-1.1-.52-1.51-.14.41-.29.8-.54,1.5l-.66,1.83c.38,0,.81,0,1.22,0s.78,0,1.12,0Z"/>
      <path class="h" d="M124,61.61c0,1.09,0,1.24.12,1.46s.44.22.85.26c.09,0,.11,0,.11.15s0,.13-.11.13c-.47,0-1,0-1.46,0s-1,0-1.43,0c-.09,0-.11,0-.11-.13s0-.14.11-.15c.37,0,.68-.06.8-.26a3.92,3.92,0,0,0,.13-1.46V57.7c0-1,0-1.17-.12-1.4s-.51-.23-.92-.28c-.07,0-.09,0-.09-.13s0-.17.09-.17c.47,0,1,0,1.49,0s1.09-.05,1.8-.05c2,0,2.82.88,2.82,2a2.08,2.08,0,0,1-1.77,2c.44.85.95,1.75,1.53,2.67a2.49,2.49,0,0,0,.66.83,1.84,1.84,0,0,0,.67.15c.07,0,.09,0,.09.14s0,.14-.1.14c-.41,0-.73,0-1,0h-.83a7.45,7.45,0,0,0-.41-.85c-.54-1-1.07-1.92-1.59-2.89l-.48,0c-.28,0-.53,0-.79,0Zm0-2.15a5.93,5.93,0,0,0,.79.05c1.56,0,2.15-.78,2.15-1.73s-.59-1.69-1.91-1.69c-.36,0-.74,0-.88.21a3.34,3.34,0,0,0-.14,1.4Z"/>
      <path class="h" d="M131.46,57.71c0-1,0-1.17-.12-1.39s-.43-.2-.7-.2a2,2,0,0,0-1.29.34,2.67,2.67,0,0,0-.74,1.13c0,.07-.06.1-.17.08s-.12-.05-.12-.13c.08-.55.15-1.25.2-1.82,1.21.05,2.33.05,3.47.05s2.29,0,3.5-.05c0,.56.12,1.27.19,1.82,0,.08,0,.11-.11.13s-.15,0-.18-.08a2.52,2.52,0,0,0-.73-1.13,2,2,0,0,0-1.32-.34c-.28,0-.56,0-.71.22a3.12,3.12,0,0,0-.14,1.36v3.91c0,1.09,0,1.21.12,1.44s.5.22.89.26c.08,0,.1,0,.1.14s0,.15-.1.15c-.46,0-1.08,0-1.52,0s-1,0-1.44,0c-.08,0-.1,0-.1-.14s0-.14.1-.15c.36,0,.68-.05.8-.26a3.86,3.86,0,0,0,.12-1.44Z"/>
      <path class="h" d="M137.33,59.73c-1.1-.56-1.71-1.1-1.71-2.21a2.1,2.1,0,0,1,2.33-2,3.06,3.06,0,0,1,1,.15,2.71,2.71,0,0,0,1.07.05c0,.55.08,1.19.12,1.76,0,.06,0,.09-.13.11s-.12,0-.13-.08A2.12,2.12,0,0,0,138,55.91a1.3,1.3,0,0,0-1.37,1.36c0,.54.26,1,1.23,1.49l.56.26c1.29.6,2,1.15,2,2.44s-.84,2.33-2.76,2.33a6.1,6.1,0,0,1-2-.38,14.54,14.54,0,0,1-.36-1.77.12.12,0,0,1,.11-.13c.12,0,.15,0,.18.07a2.6,2.6,0,0,0,2.18,1.87,1.53,1.53,0,0,0,1.65-1.55c0-.89-.53-1.35-1.61-1.9Z"/>
    </g>
    <g>
      <path class="i" d="M99.36,19.18c0,.08,0,.11-.11.13a.13.13,0,0,1-.18-.08,3.45,3.45,0,0,0-.93-1.32,2.58,2.58,0,0,0-1.47-.47c-1.64,0-2.84,1.46-2.84,3.71,0,2,1.22,3.52,2.91,3.52a2.93,2.93,0,0,0,2.71-1.52c0-.06.09-.08.22,0a.13.13,0,0,1,.08.2,3.41,3.41,0,0,1-3.16,2,3.89,3.89,0,0,1-4-4.13,3.92,3.92,0,0,1,4-4.1,5.53,5.53,0,0,1,1.34.17,2.5,2.5,0,0,0,1.22.12C99.22,17.93,99.29,18.61,99.36,19.18Z"/>
      <path class="i" d="M105.86,19.2a3.48,3.48,0,0,0-.19-1.35c-.12-.22-.46-.26-.85-.31-.08,0-.09,0-.09-.14s0-.17.09-.17c.44,0,.89.06,1.29.06s.84,0,1.24-.06c.08,0,.1,0,.1.17s0,.13-.1.14c-.36,0-.62.1-.76.32a3.06,3.06,0,0,0-.22,1.34v1.36c0,.69,0,1.38,0,2a2.52,2.52,0,0,1-.84,2,3,3,0,0,1-2.06.7,3.47,3.47,0,0,1-2.48-.86,2.14,2.14,0,0,1-.65-1.69c0-.65,0-1.42,0-2.13V19.2c0-1,0-1.15-.12-1.39s-.44-.23-.86-.27c-.08,0-.1,0-.1-.14s0-.17.1-.17c.45,0,1,.06,1.46.06s1,0,1.47-.06c.08,0,.1,0,.1.17s0,.13-.1.14c-.38,0-.68,0-.8.27a3.61,3.61,0,0,0-.13,1.39v1.43c0,.47,0,1,0,1.45,0,1,.05,1.55.54,2a2.39,2.39,0,0,0,1.64.6,2.34,2.34,0,0,0,1.79-.62,2.18,2.18,0,0,0,.55-1.69c0-.54,0-1.09,0-1.8Z"/>
      <path class="i" d="M109.25,23.12a3.11,3.11,0,0,0,.15,1.32c.18.29.57.3,1.07.3a3,3,0,0,0,1.92-.46,3.37,3.37,0,0,0,.83-1.1c0-.08.05-.1.18-.07s.13.09.11.15a14.46,14.46,0,0,1-.57,1.86c-1,0-1.89,0-2.78,0s-1.94,0-2.87,0c-.07,0-.09,0-.09-.14s0-.13.09-.14c.39,0,.68-.05.81-.26a3.61,3.61,0,0,0,.13-1.45V19.21c0-1,0-1.18-.12-1.41s-.43-.22-.85-.26c-.08,0-.1,0-.1-.13s0-.18.1-.18c.45,0,1,.07,1.47.07s1,0,1.45-.07c.09,0,.11,0,.11.18s0,.12-.11.13c-.37,0-.67.06-.79.26a3.74,3.74,0,0,0-.13,1.41Z"/>
      <path class="i" d="M116.11,19.21c0-1,0-1.17-.12-1.39s-.43-.2-.7-.2A2,2,0,0,0,114,18a2.67,2.67,0,0,0-.74,1.13c0,.07-.06.1-.17.08S113,19.13,113,19c.08-.55.15-1.25.2-1.82,1.21.06,2.33.06,3.47.06s2.29,0,3.5-.06c0,.56.12,1.27.19,1.82,0,.08,0,.11-.11.13s-.15,0-.18-.08a2.52,2.52,0,0,0-.73-1.13,2,2,0,0,0-1.32-.34c-.28,0-.56,0-.72.22a3.14,3.14,0,0,0-.14,1.36v3.91c0,1.09,0,1.21.12,1.44s.5.22.89.26c.08,0,.1,0,.1.14s0,.15-.1.15c-.46,0-1.08,0-1.52,0s-1,0-1.44,0c-.08,0-.1,0-.1-.14s0-.14.1-.15c.36,0,.68-.06.8-.26a3.86,3.86,0,0,0,.12-1.44Z"/>
      <path class="i" d="M126.49,19.2a3.43,3.43,0,0,0-.19-1.35c-.12-.22-.46-.26-.85-.31-.08,0-.09,0-.09-.14s0-.17.09-.17c.44,0,.89.06,1.29.06s.84,0,1.24-.06c.08,0,.1,0,.1.17s0,.13-.1.14c-.36,0-.62.1-.76.32A3.06,3.06,0,0,0,127,19.2v1.36c0,.69,0,1.38,0,2a2.52,2.52,0,0,1-.84,2,3,3,0,0,1-2.06.7,3.48,3.48,0,0,1-2.48-.86,2.14,2.14,0,0,1-.65-1.69c0-.65,0-1.42,0-2.13V19.2c0-1,0-1.15-.12-1.39s-.44-.23-.86-.27c-.08,0-.1,0-.1-.14s0-.17.1-.17c.45,0,1,.06,1.46.06s1,0,1.47-.06c.08,0,.1,0,.1.17s0,.13-.1.14c-.38,0-.68,0-.8.27A3.64,3.64,0,0,0,122,19.2v1.43c0,.47,0,1,0,1.45,0,1,.06,1.55.54,2a2.4,2.4,0,0,0,1.64.6,2.34,2.34,0,0,0,1.79-.62,2.18,2.18,0,0,0,.55-1.69c0-.54,0-1.09,0-1.8Z"/>
      <path class="i" d="M129.85,23.11c0,1.09,0,1.24.12,1.46s.44.22.85.26c.09,0,.11,0,.11.15s0,.13-.11.13c-.47,0-1,0-1.46,0s-1,0-1.43,0c-.09,0-.11,0-.11-.13s0-.14.11-.15c.37,0,.68-.05.8-.26a3.92,3.92,0,0,0,.13-1.46V19.2c0-1,0-1.17-.12-1.4s-.51-.23-.92-.27c-.07,0-.09,0-.09-.13s0-.17.09-.17c.47,0,1,0,1.49,0s1.09-.05,1.8-.05c2,0,2.82.88,2.82,2a2.08,2.08,0,0,1-1.77,2c.44.85.95,1.75,1.53,2.67a2.5,2.5,0,0,0,.66.83,1.82,1.82,0,0,0,.67.15c.07,0,.09,0,.09.14s0,.14-.1.14c-.41,0-.73,0-1,0h-.83a7.4,7.4,0,0,0-.41-.85c-.54-1-1.07-1.93-1.59-2.89l-.48,0c-.28,0-.53,0-.79,0Zm0-2.15a5.93,5.93,0,0,0,.79.06c1.56,0,2.15-.78,2.15-1.73s-.59-1.69-1.91-1.69c-.36,0-.74,0-.88.21a3.34,3.34,0,0,0-.14,1.4Z"/>
      <path class="i" d="M136.42,23.12a3.13,3.13,0,0,0,.15,1.32c.18.29.59.3,1.09.3a2.91,2.91,0,0,0,1.91-.45,3.43,3.43,0,0,0,.85-1.11c0-.07.06-.1.17-.07s.13.09.11.15a11.62,11.62,0,0,1-.57,1.86c-.95,0-1.88,0-2.77,0s-1.95,0-2.88,0c-.07,0-.09,0-.09-.14s0-.13.09-.14c.38,0,.65-.05.78-.26a3.83,3.83,0,0,0,.13-1.45V19.21c0-1,0-1.18-.12-1.42s-.43-.21-.85-.25c-.08,0-.1,0-.1-.13s0-.18.1-.18c.91.06,1.89.06,2.79.06s1.77,0,2.72-.06c0,.56.11,1.23.19,1.78,0,.07,0,.11-.1.13s-.16,0-.19-.08a2.48,2.48,0,0,0-.71-1.09,2.43,2.43,0,0,0-1.64-.35c-.42,0-.79,0-.95.28a3.45,3.45,0,0,0-.11,1.31v1.57h.68a2.61,2.61,0,0,0,1.42-.23,1,1,0,0,0,.36-.71c0-.07,0-.1.13-.1s.15,0,.15.1c0,.38,0,.74,0,1.11s0,.85,0,1.24c0,.08,0,.11-.15.11s-.12,0-.13-.11a1.26,1.26,0,0,0-.38-.81,3.06,3.06,0,0,0-1.4-.23h-.68Z"/>
      <path class="i" d="M122.33,41.32c-.37,0-.85,0-1.26,0s-.89,0-1.38,0l-.44,1.21a1.85,1.85,0,0,0-.18,1.24c.1.22.47.26.88.31.07,0,.1,0,.1.14s0,.14-.11.14c-.41,0-.95,0-1.34,0s-.77,0-1.12,0c-.09,0-.11,0-.11-.14s0-.13.11-.14a1,1,0,0,0,.63-.29,4.64,4.64,0,0,0,.66-1.31L120.08,39c.54-1.46.65-1.77.81-2.33l.7-.34a.11.11,0,0,1,.12.09c.21.68.39,1.23.87,2.64l1.24,3.52a5.13,5.13,0,0,0,.54,1.23c.18.22.37.24.77.28.1,0,.12,0,.12.14s0,.14-.12.14c-.44,0-1,0-1.47,0s-1,0-1.44,0c-.08,0-.1,0-.1-.14s0-.13.1-.14c.36,0,.72-.05.79-.28s0-.55-.21-1.13Zm-.77-2.26c-.25-.71-.37-1.1-.52-1.51-.14.41-.29.8-.54,1.5l-.66,1.83c.38,0,.81,0,1.22,0s.78,0,1.12,0Z"/>
      <path class="i" d="M126,37.65l0,4.73a3.34,3.34,0,0,0,.2,1.42c.14.22.47.25.84.3.08,0,.09,0,.09.13s0,.13-.09.13c-.44,0-.87,0-1.27,0s-.9,0-1.28,0c-.09,0-.11,0-.11-.12s0-.13.1-.14c.33,0,.62-.08.76-.31a3.16,3.16,0,0,0,.22-1.41l.07-3.93a2.65,2.65,0,0,0-.18-1.33,1.35,1.35,0,0,0-.9-.32c-.09,0-.11,0-.11-.14s0-.18.11-.18l1.06,0h1.1a14.52,14.52,0,0,0,.85,1.33L130,41.51c.37.54.68,1,1,1.54v-4.6a3.08,3.08,0,0,0-.22-1.37c-.13-.22-.46-.24-.81-.29-.09,0-.11,0-.11-.14s0-.17.1-.17c.41,0,.85,0,1.24,0s.89,0,1.24,0c.09,0,.11,0,.11.17s0,.13-.11.14c-.33,0-.6.07-.74.29a3.36,3.36,0,0,0-.21,1.38l-.07,3.93c0,.74,0,1.28,0,1.86-.54.3-.56.31-.59.31a.11.11,0,0,1-.09-.06c-.34-.56-.59-.93-1.25-1.89l-3.4-5Z"/>
      <path class="i" d="M133.37,38.45c0-1,0-1.18-.11-1.41s-.47-.21-.89-.25c-.08,0-.1,0-.1-.14s0-.17.1-.17c.45,0,.91,0,1.4,0s1.46-.07,2.18-.07c3,0,4.51,1.56,4.51,3.88s-1.57,4-4.6,4c-.64,0-1.42-.07-2.07-.07-.48,0-.95,0-1.35,0-.08,0-.1,0-.1-.14s0-.13.1-.14c.37,0,.69-.07.83-.28a4.15,4.15,0,0,0,.11-1.44Zm1,3.92a2.45,2.45,0,0,0,.18,1.32c.21.26.67.33,1.25.33,2.31,0,3.44-1.48,3.44-3.63s-1.21-3.54-3.37-3.54c-.76,0-1.22.07-1.36.29a2.87,2.87,0,0,0-.14,1.32Z"/>
      <path class="i" d="M119.78,60.57c-.37,0-.85,0-1.26,0s-.89,0-1.38,0l-.44,1.21a1.85,1.85,0,0,0-.18,1.24c.1.22.47.26.88.31.07,0,.1,0,.1.14s0,.14-.11.14c-.41,0-.95,0-1.34,0s-.77,0-1.12,0c-.09,0-.11,0-.11-.14s0-.13.11-.14a1,1,0,0,0,.63-.29,4.65,4.65,0,0,0,.66-1.31l1.31-3.49c.54-1.46.65-1.77.81-2.33l.7-.34a.11.11,0,0,1,.12.09c.21.68.39,1.23.87,2.64l1.24,3.52a5.14,5.14,0,0,0,.54,1.23c.18.22.37.24.77.28.1,0,.12,0,.12.14s0,.14-.12.14c-.44,0-1,0-1.47,0s-1,0-1.44,0c-.08,0-.1,0-.1-.14s0-.13.1-.14c.36,0,.72-.06.79-.28s0-.55-.21-1.13ZM119,58.32c-.25-.72-.37-1.1-.52-1.51-.14.41-.29.8-.54,1.5l-.66,1.83c.38,0,.81,0,1.22,0s.78,0,1.12,0Z"/>
      <path class="i" d="M124,61.61c0,1.09,0,1.24.12,1.46s.44.22.85.26c.09,0,.11,0,.11.15s0,.13-.11.13c-.47,0-1,0-1.46,0s-1,0-1.43,0c-.09,0-.11,0-.11-.13s0-.14.11-.15c.37,0,.68-.06.8-.26a3.92,3.92,0,0,0,.13-1.46V57.7c0-1,0-1.17-.12-1.4s-.51-.23-.92-.28c-.07,0-.09,0-.09-.13s0-.17.09-.17c.47,0,1,0,1.49,0s1.09-.05,1.8-.05c2,0,2.82.88,2.82,2a2.08,2.08,0,0,1-1.77,2c.44.85.95,1.75,1.53,2.67a2.49,2.49,0,0,0,.66.83,1.84,1.84,0,0,0,.67.15c.07,0,.09,0,.09.14s0,.14-.1.14c-.41,0-.73,0-1,0h-.83a7.45,7.45,0,0,0-.41-.85c-.54-1-1.07-1.92-1.59-2.89l-.48,0c-.28,0-.53,0-.79,0Zm0-2.15a5.93,5.93,0,0,0,.79.05c1.56,0,2.15-.78,2.15-1.73s-.59-1.69-1.91-1.69c-.36,0-.74,0-.88.21a3.34,3.34,0,0,0-.14,1.4Z"/>
      <path class="i" d="M131.46,57.71c0-1,0-1.17-.12-1.39s-.43-.2-.7-.2a2,2,0,0,0-1.29.34,2.67,2.67,0,0,0-.74,1.13c0,.07-.06.1-.17.08s-.12-.05-.12-.13c.08-.55.15-1.25.2-1.82,1.21.05,2.33.05,3.47.05s2.29,0,3.5-.05c0,.56.12,1.27.19,1.82,0,.08,0,.11-.11.13s-.15,0-.18-.08a2.52,2.52,0,0,0-.73-1.13,2,2,0,0,0-1.32-.34c-.28,0-.56,0-.71.22a3.12,3.12,0,0,0-.14,1.36v3.91c0,1.09,0,1.21.12,1.44s.5.22.89.26c.08,0,.1,0,.1.14s0,.15-.1.15c-.46,0-1.08,0-1.52,0s-1,0-1.44,0c-.08,0-.1,0-.1-.14s0-.14.1-.15c.36,0,.68-.05.8-.26a3.86,3.86,0,0,0,.12-1.44Z"/>
      <path class="i" d="M137.33,59.73c-1.1-.56-1.71-1.1-1.71-2.21a2.1,2.1,0,0,1,2.33-2,3.06,3.06,0,0,1,1,.15,2.71,2.71,0,0,0,1.07.05c0,.55.08,1.19.12,1.76,0,.06,0,.09-.13.11s-.12,0-.13-.08A2.12,2.12,0,0,0,138,55.91a1.3,1.3,0,0,0-1.37,1.36c0,.54.26,1,1.23,1.49l.56.26c1.29.6,2,1.15,2,2.44s-.84,2.33-2.76,2.33a6.1,6.1,0,0,1-2-.38,14.54,14.54,0,0,1-.36-1.77.12.12,0,0,1,.11-.13c.12,0,.15,0,.18.07a2.6,2.6,0,0,0,2.18,1.87,1.53,1.53,0,0,0,1.65-1.55c0-.89-.53-1.35-1.61-1.9Z"/>
    </g>
  </g>
</svg>
