<svg id="economics" xmlns="http://www.w3.org/2000/svg" viewBox="0 0 102.44 80.56"><defs><style>.cls-1,.cls-2{fill:#c0b8e0;}.cls-1{stroke:#000;}.cls-1,.cls-10,.cls-3,.cls-4,.cls-5,.cls-6,.cls-7,.cls-8,.cls-9{stroke-miterlimit:10;}.cls-10,.cls-3,.cls-5,.cls-6,.cls-7,.cls-9{fill:none;}.cls-3,.cls-4,.cls-5,.cls-6{stroke:#fff;stroke-width:4px;}.cls-4,.cls-8{fill:#fff;}.cls-5,.cls-9{font-size:51.93px;}.cls-10,.cls-5,.cls-6,.cls-9{font-family:KozGoPr6N-Light-90ms-RKSJ-H, Kozuka Gothic Pr6N;}.cls-10,.cls-6{font-size:34.32px;}.cls-10,.cls-7,.cls-8,.cls-9{stroke:#c0b8e0;stroke-width:3px;}</style></defs><title>economics</title><path class="cls-1" d="M37.09,8.26a2,2,0,0,0-.06.47,2.9,2.9,0,0,0,.71,2,1.6,1.6,0,0,0,1.18.57A2.2,2.2,0,0,0,40,11.09a2.49,2.49,0,0,0,.72-.7.16.16,0,0,1,.13-.06.36.36,0,0,1,.13.05c.06.06.1.1.1.14a.33.33,0,0,1-.07.14,2.76,2.76,0,0,1-1.12,1A2.93,2.93,0,0,1,38.6,12a2.86,2.86,0,0,1-2.31-1,3.23,3.23,0,0,1-.74-2.15,3.26,3.26,0,0,1,1-2.42,2.89,2.89,0,0,1,2.09-.84,2.4,2.4,0,0,1,2,1A2.66,2.66,0,0,1,41.19,8a.45.45,0,0,1-.07.23.27.27,0,0,1-.2.06c-.88,0-1.73,0-2.54,0Zm.06-.48h1q.72,0,1.5-.06c.08,0,.12-.07.12-.2a2.33,2.33,0,0,0-.33-1.14.91.91,0,0,0-.8-.46,1.18,1.18,0,0,0-1,.58A3.41,3.41,0,0,0,37.15,7.78Z" transform="translate(-21.58 -1.41)"/><path class="cls-1" d="M45.11,5.54a4,4,0,0,1,1.61.3c.35.14.53.35.53.62,0,.58-.19.87-.58.87s-.52-.27-.79-.82c-.2-.36-.44-.55-.7-.55a1.29,1.29,0,0,0-1.2.88,4.58,4.58,0,0,0-.33,1.89,2.94,2.94,0,0,0,.66,2,1.56,1.56,0,0,0,1.17.56,1.85,1.85,0,0,0,1-.25,2.71,2.71,0,0,0,.68-.68c0-.05.06-.07.1-.07a.28.28,0,0,1,.13.06c.07,0,.1.08.1.12a.12.12,0,0,1,0,.08A2.6,2.6,0,0,1,45.09,12a2.81,2.81,0,0,1-2.27-1,3.23,3.23,0,0,1-.73-2.16,3.27,3.27,0,0,1,1-2.43A2.8,2.8,0,0,1,45.11,5.54Z" transform="translate(-21.58 -1.41)"/><path class="cls-1" d="M51.23,5.54a2.87,2.87,0,0,1,2.32,1,3.21,3.21,0,0,1,.77,2.18,3.19,3.19,0,0,1-1,2.38,3,3,0,0,1-2.14.83,2.9,2.9,0,0,1-2.32-1,3.18,3.18,0,0,1-.75-2.15,3.2,3.2,0,0,1,1-2.4A2.88,2.88,0,0,1,51.23,5.54Zm0,.39A1.31,1.31,0,0,0,50,6.85a4.78,4.78,0,0,0-.33,1.91,4.34,4.34,0,0,0,.42,2.12,1.24,1.24,0,0,0,1.1.69,1.31,1.31,0,0,0,1.2-.92,4.6,4.6,0,0,0,.34-1.89,4.41,4.41,0,0,0-.42-2.14A1.24,1.24,0,0,0,51.23,5.93Z" transform="translate(-21.58 -1.41)"/><path class="cls-1" d="M57.52,6.79a2.23,2.23,0,0,1,2-1.25,2.05,2.05,0,0,1,1.2.37,1.69,1.69,0,0,1,.73,1.51V9.8a5.12,5.12,0,0,0,.1,1.4.35.35,0,0,0,.26.19,2.45,2.45,0,0,0,.43.06c.07,0,.1.07.1.16s0,.14-.1.14l-.79,0H60l-.72,0c-.07,0-.1,0-.1-.14s0-.16.1-.16a3,3,0,0,0,.45-.06A.4.4,0,0,0,60,11.2a5,5,0,0,0,.1-1.4V8a2.84,2.84,0,0,0-.16-1.13,1,1,0,0,0-1-.66,1.24,1.24,0,0,0-.71.24A1.63,1.63,0,0,0,57.8,7,2,2,0,0,0,57.52,8V9.8a5.62,5.62,0,0,0,.08,1.4.37.37,0,0,0,.27.19,2.33,2.33,0,0,0,.45.06c.08,0,.12.06.12.16s0,.14-.12.14h-.47c-.44,0-.75,0-.94,0h-.8l-.72,0c-.06,0-.09,0-.09-.14s0-.15.09-.16a2.47,2.47,0,0,0,.48-.07.33.33,0,0,0,.22-.18,5.48,5.48,0,0,0,.09-1.4v-2a4.09,4.09,0,0,0-.09-1.11.38.38,0,0,0-.36-.28h0l-.35,0h-.07q-.1,0-.12-.15V6.28c0-.07,0-.12.16-.14a14,14,0,0,0,2.09-.58c.1,0,.15,0,.15.11C57.53,5.92,57.52,6.29,57.52,6.79Z" transform="translate(-21.58 -1.41)"/><path class="cls-1" d="M66.19,5.54a2.9,2.9,0,0,1,2.32,1,3.26,3.26,0,0,1,.76,2.18,3.16,3.16,0,0,1-1,2.38,3,3,0,0,1-2.13.83,2.91,2.91,0,0,1-2.33-1,3.18,3.18,0,0,1-.75-2.15,3.2,3.2,0,0,1,1-2.4A2.89,2.89,0,0,1,66.19,5.54Zm0,.39a1.32,1.32,0,0,0-1.2.92,4.78,4.78,0,0,0-.33,1.91,4.34,4.34,0,0,0,.42,2.12,1.24,1.24,0,0,0,1.11.69,1.31,1.31,0,0,0,1.2-.92,4.77,4.77,0,0,0,.34-1.89,4.28,4.28,0,0,0-.43-2.14A1.23,1.23,0,0,0,66.19,5.93Z" transform="translate(-21.58 -1.41)"/><path class="cls-1" d="M76.22,6.84a2.3,2.3,0,0,1,2.06-1.3,2,2,0,0,1,1.17.37,1.71,1.71,0,0,1,.7,1.51V9.8a5.6,5.6,0,0,0,.09,1.4.42.42,0,0,0,.3.19,2.64,2.64,0,0,0,.44.06.13.13,0,0,1,.11.14c0,.11,0,.16-.11.16l-1.45,0h-.8l-.73,0c-.08,0-.12-.05-.12-.16s0-.14.12-.14a2.16,2.16,0,0,0,.46-.07.35.35,0,0,0,.23-.18,5,5,0,0,0,.1-1.4V8a3.23,3.23,0,0,0-.15-1.13.9.9,0,0,0-.92-.66A1.29,1.29,0,0,0,76.58,7a1.87,1.87,0,0,0-.28,1V9.8a5.6,5.6,0,0,0,.09,1.4.36.36,0,0,0,.29.19,3,3,0,0,0,.46.06c.06,0,.09.06.09.16s0,.14-.1.14l-.8,0H74.88l-.71,0c-.07,0-.11-.05-.11-.16s0-.14.11-.14a3,3,0,0,0,.45-.06.4.4,0,0,0,.23-.19A5,5,0,0,0,75,9.8V7.74a2.19,2.19,0,0,0-.15-.87.91.91,0,0,0-.93-.66A1.3,1.3,0,0,0,72.76,7,2,2,0,0,0,72.47,8V9.8a6.24,6.24,0,0,0,.08,1.4.36.36,0,0,0,.29.19l.45.06c.07,0,.1.07.1.17s0,.13-.1.13l-1.46,0h-.78l-.71,0c-.07,0-.11,0-.11-.14s0-.15.11-.16a2.31,2.31,0,0,0,.47-.07A.35.35,0,0,0,71,11.2a2,2,0,0,0,.1-.79V7.85a4,4,0,0,0-.09-1.1.38.38,0,0,0-.38-.27h-.09l-.31,0H70.2c-.06,0-.1,0-.11-.15V6.29c0-.07,0-.11.15-.14a20,20,0,0,0,2.12-.58c.09,0,.14,0,.14.11q0,.75,0,1.11a2.41,2.41,0,0,1,.9-1,1.81,1.81,0,0,1,1-.28,2.07,2.07,0,0,1,1.18.32A1.79,1.79,0,0,1,76.22,6.84Z" transform="translate(-21.58 -1.41)"/><path class="cls-1" d="M82.58,7.9a5.5,5.5,0,0,0-.07-1.11.36.36,0,0,0-.38-.28H82l-.34,0H81.6s-.08,0-.09-.15V6.32c0-.07,0-.11.15-.13a21.82,21.82,0,0,0,2.14-.6c.1,0,.15,0,.15.13,0,.86,0,1.64,0,2.34V9.79A5.76,5.76,0,0,0,84,11.2a.35.35,0,0,0,.28.18l.47,0c.06,0,.09.06.09.16s0,.16-.09.16h-.49c-.45,0-.77,0-1,0l-1.5,0c-.08,0-.12-.05-.12-.16s0-.16.11-.16a3.7,3.7,0,0,0,.48-.06.43.43,0,0,0,.22-.17,2,2,0,0,0,.11-.84V7.9Zm.57-6a.8.8,0,0,1,.63.31A.8.8,0,0,1,84,2.8a.89.89,0,0,1-.31.65.85.85,0,0,1-.57.24.89.89,0,0,1-.66-.31.83.83,0,0,1,.07-1.23A.88.88,0,0,1,83.15,1.91Z" transform="translate(-21.58 -1.41)"/><path class="cls-1" d="M88.64,5.54a4,4,0,0,1,1.61.3c.36.14.53.35.53.62,0,.58-.19.87-.58.87s-.52-.27-.79-.82c-.2-.36-.43-.55-.7-.55a1.3,1.3,0,0,0-1.2.88,4.58,4.58,0,0,0-.33,1.89,2.94,2.94,0,0,0,.66,2,1.56,1.56,0,0,0,1.18.56,1.81,1.81,0,0,0,1-.25,2.56,2.56,0,0,0,.68-.68c0-.05.06-.07.1-.07a.28.28,0,0,1,.13.06c.07,0,.1.08.1.12a.12.12,0,0,1,0,.08A2.59,2.59,0,0,1,88.62,12a2.81,2.81,0,0,1-2.27-1,3.23,3.23,0,0,1-.73-2.16,3.24,3.24,0,0,1,1-2.43A2.76,2.76,0,0,1,88.64,5.54Z" transform="translate(-21.58 -1.41)"/><path class="cls-1" d="M95.73,5.67q.06,1.05.12,1.53c0,.07,0,.11-.15.13h-.06s-.09,0-.13-.09c-.44-.9-1-1.35-1.55-1.35s-1,.31-1,.94c0,.35.33.66,1,.94l.47.2a4.13,4.13,0,0,1,1.39.85A1.76,1.76,0,0,1,96.19,10a1.73,1.73,0,0,1-.63,1.37,2.5,2.5,0,0,1-1.69.54A4.81,4.81,0,0,1,92,11.58a11.28,11.28,0,0,1-.29-1.43c0-.07,0-.11.13-.12h.09s.07,0,.1.08a2.92,2.92,0,0,0,.9,1.1,1.55,1.55,0,0,0,1,.36,1.08,1.08,0,0,0,.9-.37,1.21,1.21,0,0,0,.25-.81.85.85,0,0,0-.36-.69,4.82,4.82,0,0,0-.85-.48L93.35,9a3.85,3.85,0,0,1-1.18-.75,1.75,1.75,0,0,1-.35-1.15A1.41,1.41,0,0,1,92.38,6a2.35,2.35,0,0,1,1.53-.46,5.36,5.36,0,0,1,1,.13,2,2,0,0,0,.43,0Z" transform="translate(-21.58 -1.41)"/><path class="cls-2" d="M37.09,8.26a2,2,0,0,0-.06.47,2.9,2.9,0,0,0,.71,2,1.6,1.6,0,0,0,1.18.57A2.2,2.2,0,0,0,40,11.09a2.49,2.49,0,0,0,.72-.7.16.16,0,0,1,.13-.06.36.36,0,0,1,.13.05c.06.06.1.1.1.14a.33.33,0,0,1-.07.14,2.76,2.76,0,0,1-1.12,1A2.93,2.93,0,0,1,38.6,12a2.86,2.86,0,0,1-2.31-1,3.23,3.23,0,0,1-.74-2.15,3.26,3.26,0,0,1,1-2.42,2.89,2.89,0,0,1,2.09-.84,2.4,2.4,0,0,1,2,1A2.66,2.66,0,0,1,41.19,8a.45.45,0,0,1-.07.23.27.27,0,0,1-.2.06c-.88,0-1.73,0-2.54,0Zm.06-.48h1q.72,0,1.5-.06c.08,0,.12-.07.12-.2a2.33,2.33,0,0,0-.33-1.14.91.91,0,0,0-.8-.46,1.18,1.18,0,0,0-1,.58A3.41,3.41,0,0,0,37.15,7.78Z" transform="translate(-21.58 -1.41)"/><path class="cls-2" d="M45.11,5.54a4,4,0,0,1,1.61.3c.35.14.53.35.53.62,0,.58-.19.87-.58.87s-.52-.27-.79-.82c-.2-.36-.44-.55-.7-.55a1.29,1.29,0,0,0-1.2.88,4.58,4.58,0,0,0-.33,1.89,2.94,2.94,0,0,0,.66,2,1.56,1.56,0,0,0,1.17.56,1.85,1.85,0,0,0,1-.25,2.71,2.71,0,0,0,.68-.68c0-.05.06-.07.1-.07a.28.28,0,0,1,.13.06c.07,0,.1.08.1.12a.12.12,0,0,1,0,.08A2.6,2.6,0,0,1,45.09,12a2.81,2.81,0,0,1-2.27-1,3.23,3.23,0,0,1-.73-2.16,3.27,3.27,0,0,1,1-2.43A2.8,2.8,0,0,1,45.11,5.54Z" transform="translate(-21.58 -1.41)"/><path class="cls-2" d="M51.23,5.54a2.87,2.87,0,0,1,2.32,1,3.21,3.21,0,0,1,.77,2.18,3.19,3.19,0,0,1-1,2.38,3,3,0,0,1-2.14.83,2.9,2.9,0,0,1-2.32-1,3.18,3.18,0,0,1-.75-2.15,3.2,3.2,0,0,1,1-2.4A2.88,2.88,0,0,1,51.23,5.54Zm0,.39A1.31,1.31,0,0,0,50,6.85a4.78,4.78,0,0,0-.33,1.91,4.34,4.34,0,0,0,.42,2.12,1.24,1.24,0,0,0,1.1.69,1.31,1.31,0,0,0,1.2-.92,4.6,4.6,0,0,0,.34-1.89,4.41,4.41,0,0,0-.42-2.14A1.24,1.24,0,0,0,51.23,5.93Z" transform="translate(-21.58 -1.41)"/><path class="cls-2" d="M57.52,6.79a2.23,2.23,0,0,1,2-1.25,2.05,2.05,0,0,1,1.2.37,1.69,1.69,0,0,1,.73,1.51V9.8a5.12,5.12,0,0,0,.1,1.4.35.35,0,0,0,.26.19,2.45,2.45,0,0,0,.43.06c.07,0,.1.07.1.16s0,.14-.1.14l-.79,0H60l-.72,0c-.07,0-.1,0-.1-.14s0-.16.1-.16a3,3,0,0,0,.45-.06A.4.4,0,0,0,60,11.2a5,5,0,0,0,.1-1.4V8a2.84,2.84,0,0,0-.16-1.13,1,1,0,0,0-1-.66,1.24,1.24,0,0,0-.71.24A1.63,1.63,0,0,0,57.8,7,2,2,0,0,0,57.52,8V9.8a5.62,5.62,0,0,0,.08,1.4.37.37,0,0,0,.27.19,2.33,2.33,0,0,0,.45.06c.08,0,.12.06.12.16s0,.14-.12.14h-.47c-.44,0-.75,0-.94,0h-.8l-.72,0c-.06,0-.09,0-.09-.14s0-.15.09-.16a2.47,2.47,0,0,0,.48-.07.33.33,0,0,0,.22-.18,5.48,5.48,0,0,0,.09-1.4v-2a4.09,4.09,0,0,0-.09-1.11.38.38,0,0,0-.36-.28h0l-.35,0h-.07q-.1,0-.12-.15V6.28c0-.07,0-.12.16-.14a14,14,0,0,0,2.09-.58c.1,0,.15,0,.15.11C57.53,5.92,57.52,6.29,57.52,6.79Z" transform="translate(-21.58 -1.41)"/><path class="cls-2" d="M66.19,5.54a2.9,2.9,0,0,1,2.32,1,3.26,3.26,0,0,1,.76,2.18,3.16,3.16,0,0,1-1,2.38,3,3,0,0,1-2.13.83,2.91,2.91,0,0,1-2.33-1,3.18,3.18,0,0,1-.75-2.15,3.2,3.2,0,0,1,1-2.4A2.89,2.89,0,0,1,66.19,5.54Zm0,.39a1.32,1.32,0,0,0-1.2.92,4.78,4.78,0,0,0-.33,1.91,4.34,4.34,0,0,0,.42,2.12,1.24,1.24,0,0,0,1.11.69,1.31,1.31,0,0,0,1.2-.92,4.77,4.77,0,0,0,.34-1.89,4.28,4.28,0,0,0-.43-2.14A1.23,1.23,0,0,0,66.19,5.93Z" transform="translate(-21.58 -1.41)"/><path class="cls-2" d="M76.22,6.84a2.3,2.3,0,0,1,2.06-1.3,2,2,0,0,1,1.17.37,1.71,1.71,0,0,1,.7,1.51V9.8a5.6,5.6,0,0,0,.09,1.4.42.42,0,0,0,.3.19,2.64,2.64,0,0,0,.44.06.13.13,0,0,1,.11.14c0,.11,0,.16-.11.16l-1.45,0h-.8l-.73,0c-.08,0-.12-.05-.12-.16s0-.14.12-.14a2.16,2.16,0,0,0,.46-.07.35.35,0,0,0,.23-.18,5,5,0,0,0,.1-1.4V8a3.23,3.23,0,0,0-.15-1.13.9.9,0,0,0-.92-.66A1.29,1.29,0,0,0,76.58,7a1.87,1.87,0,0,0-.28,1V9.8a5.6,5.6,0,0,0,.09,1.4.36.36,0,0,0,.29.19,3,3,0,0,0,.46.06c.06,0,.09.06.09.16s0,.14-.1.14l-.8,0H74.88l-.71,0c-.07,0-.11-.05-.11-.16s0-.14.11-.14a3,3,0,0,0,.45-.06.4.4,0,0,0,.23-.19A5,5,0,0,0,75,9.8V7.74a2.19,2.19,0,0,0-.15-.87.91.91,0,0,0-.93-.66A1.3,1.3,0,0,0,72.76,7,2,2,0,0,0,72.47,8V9.8a6.24,6.24,0,0,0,.08,1.4.36.36,0,0,0,.29.19l.45.06c.07,0,.1.07.1.17s0,.13-.1.13l-1.46,0h-.78l-.71,0c-.07,0-.11,0-.11-.14s0-.15.11-.16a2.31,2.31,0,0,0,.47-.07A.35.35,0,0,0,71,11.2a2,2,0,0,0,.1-.79V7.85a4,4,0,0,0-.09-1.1.38.38,0,0,0-.38-.27h-.09l-.31,0H70.2c-.06,0-.1,0-.11-.15V6.29c0-.07,0-.11.15-.14a20,20,0,0,0,2.12-.58c.09,0,.14,0,.14.11q0,.75,0,1.11a2.41,2.41,0,0,1,.9-1,1.81,1.81,0,0,1,1-.28,2.07,2.07,0,0,1,1.18.32A1.79,1.79,0,0,1,76.22,6.84Z" transform="translate(-21.58 -1.41)"/><path class="cls-2" d="M82.58,7.9a5.5,5.5,0,0,0-.07-1.11.36.36,0,0,0-.38-.28H82l-.34,0H81.6s-.08,0-.09-.15V6.32c0-.07,0-.11.15-.13a21.82,21.82,0,0,0,2.14-.6c.1,0,.15,0,.15.13,0,.86,0,1.64,0,2.34V9.79A5.76,5.76,0,0,0,84,11.2a.35.35,0,0,0,.28.18l.47,0c.06,0,.09.06.09.16s0,.16-.09.16h-.49c-.45,0-.77,0-1,0l-1.5,0c-.08,0-.12-.05-.12-.16s0-.16.11-.16a3.7,3.7,0,0,0,.48-.06.43.43,0,0,0,.22-.17,2,2,0,0,0,.11-.84V7.9Zm.57-6a.8.8,0,0,1,.63.31A.8.8,0,0,1,84,2.8a.89.89,0,0,1-.31.65.85.85,0,0,1-.57.24.89.89,0,0,1-.66-.31.83.83,0,0,1,.07-1.23A.88.88,0,0,1,83.15,1.91Z" transform="translate(-21.58 -1.41)"/><path class="cls-2" d="M88.64,5.54a4,4,0,0,1,1.61.3c.36.14.53.35.53.62,0,.58-.19.87-.58.87s-.52-.27-.79-.82c-.2-.36-.43-.55-.7-.55a1.3,1.3,0,0,0-1.2.88,4.58,4.58,0,0,0-.33,1.89,2.94,2.94,0,0,0,.66,2,1.56,1.56,0,0,0,1.18.56,1.81,1.81,0,0,0,1-.25,2.56,2.56,0,0,0,.68-.68c0-.05.06-.07.1-.07a.28.28,0,0,1,.13.06c.07,0,.1.08.1.12a.12.12,0,0,1,0,.08A2.59,2.59,0,0,1,88.62,12a2.81,2.81,0,0,1-2.27-1,3.23,3.23,0,0,1-.73-2.16,3.24,3.24,0,0,1,1-2.43A2.76,2.76,0,0,1,88.64,5.54Z" transform="translate(-21.58 -1.41)"/><path class="cls-2" d="M95.73,5.67q.06,1.05.12,1.53c0,.07,0,.11-.15.13h-.06s-.09,0-.13-.09c-.44-.9-1-1.35-1.55-1.35s-1,.31-1,.94c0,.35.33.66,1,.94l.47.2a4.13,4.13,0,0,1,1.39.85A1.76,1.76,0,0,1,96.19,10a1.73,1.73,0,0,1-.63,1.37,2.5,2.5,0,0,1-1.69.54A4.81,4.81,0,0,1,92,11.58a11.28,11.28,0,0,1-.29-1.43c0-.07,0-.11.13-.12h.09s.07,0,.1.08a2.92,2.92,0,0,0,.9,1.1,1.55,1.55,0,0,0,1,.36,1.08,1.08,0,0,0,.9-.37,1.21,1.21,0,0,0,.25-.81.85.85,0,0,0-.36-.69,4.82,4.82,0,0,0-.85-.48L93.35,9a3.85,3.85,0,0,1-1.18-.75,1.75,1.75,0,0,1-.35-1.15A1.41,1.41,0,0,1,92.38,6a2.35,2.35,0,0,1,1.53-.46,5.36,5.36,0,0,1,1,.13,2,2,0,0,0,.43,0Z" transform="translate(-21.58 -1.41)"/><g id="economics-futi"><rect class="cls-3" x="2" y="13.61" width="92.38" height="51.46"/><ellipse class="cls-4" cx="78.01" cy="54.02" rx="22.43" ry="22.03"/><text class="cls-5" transform="translate(18.21 59.51) scale(1.18 1)">¥</text><text class="cls-6" transform="translate(66.16 66.96) scale(1.18 1)">¢</text></g><g id="economcs"><rect class="cls-7" x="2" y="13.61" width="92.38" height="51.46"/><ellipse class="cls-8" cx="78.01" cy="54.02" rx="22.43" ry="22.03"/><text class="cls-9" transform="translate(18.21 59.51) scale(1.18 1)">¥</text><text class="cls-10" transform="translate(66.16 66.96) scale(1.18 1)">¢</text></g></svg>