<svg id="education" xmlns="http://www.w3.org/2000/svg" viewBox="0 0 114 75.7"><defs><style>.cls-1,.cls-3,.cls-7,.cls-8{fill:none;}.cls-1,.cls-2{stroke:#fff;stroke-width:4px;}.cls-1,.cls-2,.cls-3,.cls-4,.cls-5,.cls-7,.cls-8{stroke-miterlimit:10;}.cls-2,.cls-4,.cls-5,.cls-6{fill:#f4b2ce;}.cls-3,.cls-4,.cls-8{stroke:#f4b2ce;}.cls-3,.cls-4{stroke-width:3px;}.cls-5,.cls-7{stroke:#231815;}.cls-7{stroke-width:2px;}</style></defs><title>education</title><g id="futi-edu"><rect class="cls-1" x="2" y="19.84" width="110" height="53.86"/><rect class="cls-1" x="70.75" y="59.22" width="30.74" height="14.48"/><rect class="cls-2" x="82.88" y="59.22" width="6.74" height="14.48"/><line class="cls-1" x1="2" y1="32.69" x2="11.84" y2="19.8"/><line class="cls-1" x1="2" y1="45.2" x2="21.34" y2="19.84"/><line class="cls-1" x1="2" y1="58.03" x2="31.13" y2="19.84"/><line class="cls-1" x1="2" y1="70.71" x2="40.81" y2="19.84"/><line class="cls-1" x1="9.36" y1="73.7" x2="50.46" y2="19.84"/><line class="cls-1" x1="19.09" y1="73.7" x2="60.18" y2="19.85"/><line class="cls-1" x1="28.7" y1="73.7" x2="69.79" y2="19.84"/><line class="cls-1" x1="38.53" y1="73.7" x2="79.62" y2="19.84"/><line class="cls-1" x1="48.2" y1="73.7" x2="89.29" y2="19.84"/><line class="cls-1" x1="57.93" y1="73.7" x2="99.02" y2="19.84"/><line class="cls-1" x1="78.6" y1="59.22" x2="108.64" y2="19.84"/><line class="cls-1" x1="67.55" y1="73.7" x2="70.75" y2="69.5"/><line class="cls-1" x1="88.34" y1="59.22" x2="112" y2="28.21"/><line class="cls-1" x1="98.17" y1="59.22" x2="112" y2="41.09"/><line class="cls-1" x1="101.48" y1="67.68" x2="112" y2="53.9"/><line class="cls-1" x1="106.56" y1="73.7" x2="112" y2="66.58"/></g><rect class="cls-3" x="2" y="19.84" width="110" height="53.86"/><rect class="cls-3" x="70.75" y="59.22" width="30.74" height="14.48"/><rect class="cls-4" x="82.88" y="59.22" width="6.74" height="14.48"/><line class="cls-3" x1="2" y1="32.69" x2="11.84" y2="19.8"/><line class="cls-3" x1="2" y1="45.2" x2="21.34" y2="19.84"/><line class="cls-3" x1="2" y1="58.03" x2="31.13" y2="19.84"/><line class="cls-3" x1="2" y1="70.71" x2="40.81" y2="19.84"/><line class="cls-3" x1="9.36" y1="73.7" x2="50.46" y2="19.84"/><line class="cls-3" x1="19.09" y1="73.7" x2="60.18" y2="19.85"/><line class="cls-3" x1="28.7" y1="73.7" x2="69.79" y2="19.84"/><line class="cls-3" x1="38.53" y1="73.7" x2="79.62" y2="19.84"/><line class="cls-3" x1="48.2" y1="73.7" x2="89.29" y2="19.84"/><line class="cls-3" x1="57.93" y1="73.7" x2="99.02" y2="19.84"/><line class="cls-3" x1="78.6" y1="59.22" x2="108.64" y2="19.84"/><line class="cls-3" x1="67.55" y1="73.7" x2="70.75" y2="69.5"/><line class="cls-3" x1="88.34" y1="59.22" x2="112" y2="28.21"/><line class="cls-3" x1="98.17" y1="59.22" x2="112" y2="41.09"/><line class="cls-3" x1="101.48" y1="67.68" x2="112" y2="53.9"/><line class="cls-3" x1="106.56" y1="73.7" x2="112" y2="66.58"/><path class="cls-5" d="M48.77,15.76c-1.23,0-2.46,0-3.68,0s-2.58,0-3.82,0c-.09,0-.13-.06-.13-.17s0-.17.13-.18a3.33,3.33,0,0,0,.63-.1.54.54,0,0,0,.29-.27,5.38,5.38,0,0,0,.18-1.86V8.1q0-1.06,0-1.35a1.42,1.42,0,0,0-.14-.48A.53.53,0,0,0,41.83,6c-.1,0-.31,0-.65-.08-.09,0-.13-.07-.13-.18s0-.2.13-.2q1.65.06,3.72.06c1.3,0,2.5,0,3.59-.06.07.88.16,1.68.27,2.38V8c0,.07,0,.11-.16.13h-.07c-.09,0-.15,0-.17-.1a3.23,3.23,0,0,0-1-1.43,3.18,3.18,0,0,0-2.1-.51c-.61,0-1,.12-1.11.35a2.69,2.69,0,0,0-.15,1.15v2.59h.79a3.19,3.19,0,0,0,1.76-.31,1.51,1.51,0,0,0,.55-.95c0-.08.08-.13.21-.13s.17.05.17.14c0,.65,0,1.15,0,1.48s0,1,0,1.62a.15.15,0,0,1-.17.16.2.2,0,0,1-.21-.14,1.73,1.73,0,0,0-.56-1,3.34,3.34,0,0,0-1.75-.34h-.79v2.53a4.16,4.16,0,0,0,.2,1.7.8.8,0,0,0,.57.35,3.86,3.86,0,0,0,.78,0A3.69,3.69,0,0,0,48,14.61a5.6,5.6,0,0,0,1.12-1.42c0-.08.08-.12.13-.12l.09,0c.11,0,.17.08.17.13a.35.35,0,0,0,0,.07A14.85,14.85,0,0,1,48.77,15.76Z" transform="translate(-15 -2.75)"/><path class="cls-5" d="M55.09,9.87V7.39A6.78,6.78,0,0,0,55,6.18c-.05-.18-.2-.28-.45-.28h0l-.34,0H54.1c-.07,0-.11,0-.12-.16v0c0-.08.06-.14.17-.16a17.55,17.55,0,0,0,2.3-.62c.11,0,.16.07.16.14,0,1-.08,2.09-.08,3.4v5.25a5.43,5.43,0,0,0,.1,1.46c.06.13.21.2.43.22l.32,0c.09,0,.13.05.13.15s0,.17-.13.18A17.51,17.51,0,0,0,55.2,16c-.09,0-.14-.06-.14-.17,0-.45,0-.76,0-.95A2.05,2.05,0,0,1,53.26,16a2.78,2.78,0,0,1-2.34-1.06,3.66,3.66,0,0,1-.69-2.3,3.51,3.51,0,0,1,1-2.63,3,3,0,0,1,2.22-.86A2.21,2.21,0,0,1,55.09,9.87Zm-1.47-.25a1.45,1.45,0,0,0-1.33.92,4.48,4.48,0,0,0-.41,2,3.56,3.56,0,0,0,.54,2.13,1.41,1.41,0,0,0,1.18.62,1.53,1.53,0,0,0,1.21-.75,1.26,1.26,0,0,0,.24-.56,2.66,2.66,0,0,0,0-.57v-1.8a4.37,4.37,0,0,0,0-.65,1.94,1.94,0,0,0-.23-.58A1.32,1.32,0,0,0,53.62,9.62Z" transform="translate(-15 -2.75)"/><path class="cls-5" d="M63,16a.15.15,0,0,1-.17-.17c0-.41,0-.77,0-1.09A2.27,2.27,0,0,1,60.8,16a2.3,2.3,0,0,1-1.34-.39A1.78,1.78,0,0,1,58.7,14l0-1.5V11.39a6.32,6.32,0,0,0,0-1.08.41.41,0,0,0-.44-.36h-.36c-.08,0-.13,0-.14,0s0-.06,0-.13V9.73c0-.08,0-.12.14-.13q1.28-.16,2.25-.39c.11,0,.17,0,.17.14,0,.89-.06,1.7-.06,2.45v1.47a3.7,3.7,0,0,0,.16,1.34,1,1,0,0,0,1,.68,1.41,1.41,0,0,0,1.23-.81,2.09,2.09,0,0,0,.29-1.11v-2a5.13,5.13,0,0,0-.08-1.06c-.06-.27-.2-.39-.43-.38L62,10h0c-.07,0-.11-.06-.12-.17V9.73c0-.07.05-.11.16-.12.57-.07,1.31-.2,2.2-.4q.15,0,.15.12c0,.68,0,1.5,0,2.47v1.93a6.22,6.22,0,0,0,.08,1.39c.06.17.23.26.52.28h.26c.1,0,.14.07.14.17s0,.15-.12.15Q64.19,15.79,63,16Z" transform="translate(-15 -2.75)"/><path class="cls-5" d="M69.24,9.16A4.14,4.14,0,0,1,71,9.49c.37.15.56.37.56.66,0,.61-.21.92-.62.92s-.55-.29-.84-.87c-.21-.39-.46-.58-.74-.58a1.37,1.37,0,0,0-1.27.92,5,5,0,0,0-.35,2,3.08,3.08,0,0,0,.7,2.15,1.64,1.64,0,0,0,1.24.6A2,2,0,0,0,70.7,15a3,3,0,0,0,.72-.72.12.12,0,0,1,.11-.08.3.3,0,0,1,.14.06c.07,0,.1.09.1.13a.16.16,0,0,1,0,.09A2.76,2.76,0,0,1,69.22,16a3,3,0,0,1-2.42-1.07,3.49,3.49,0,0,1-.77-2.3,3.42,3.42,0,0,1,1-2.57A3,3,0,0,1,69.24,9.16Z" transform="translate(-15 -2.75)"/><path class="cls-5" d="M76.22,15.16a3,3,0,0,1-.86.63,2.81,2.81,0,0,1-1.1.2,1.81,1.81,0,0,1-1.46-.57,1.39,1.39,0,0,1-.33-.92A1.8,1.8,0,0,1,73,13.25a2.56,2.56,0,0,1,.79-.44c.12-.05.45-.16,1-.32A3.36,3.36,0,0,0,75.83,12a.69.69,0,0,0,.33-.55V11c0-1-.28-1.49-.84-1.49a1,1,0,0,0-.74.28,1.05,1.05,0,0,0-.24.79.58.58,0,0,1-.31.51,1.52,1.52,0,0,1-.77.17c-.37,0-.55-.15-.55-.45s.29-.79.86-1.16a3.55,3.55,0,0,1,1.94-.53,2.12,2.12,0,0,1,1.82.63A2.34,2.34,0,0,1,77.58,11v.21l0,2.93q0,1.23.51,1.23a1,1,0,0,0,.41-.1h.06a.14.14,0,0,1,.11.08.29.29,0,0,1,0,.1s0,.07-.09.11a1.92,1.92,0,0,1-1.19.32A1.16,1.16,0,0,1,76.22,15.16Zm-.06-2.95a2.85,2.85,0,0,1-1.12.61,1.47,1.47,0,0,0-1,1.47,1.21,1.21,0,0,0,.33.89.79.79,0,0,0,.55.26,1.21,1.21,0,0,0,.94-.41,1.16,1.16,0,0,0,.31-.81Z" transform="translate(-15 -2.75)"/><path class="cls-5" d="M79.89,10H79c-.1,0-.15-.06-.15-.2A.16.16,0,0,1,79,9.6,2.17,2.17,0,0,0,80.24,9,2.7,2.7,0,0,0,81,8a.23.23,0,0,1,.24-.13c.13,0,.2,0,.2.13,0,.91,0,1.39,0,1.43.73,0,1.39,0,2,0a.05.05,0,0,1,.06.06v0l-.15.41a.13.13,0,0,1-.14.09c-.69,0-1.29-.05-1.78-.05l0,3.58A2.78,2.78,0,0,0,81.56,15a.94.94,0,0,0,.76.37,1.36,1.36,0,0,0,.89-.37.12.12,0,0,1,.08,0,.22.22,0,0,1,.15.08.25.25,0,0,1,.09.15s0,.07-.07.12a2.31,2.31,0,0,1-1.69.72,2,2,0,0,1-1.47-.48A2.22,2.22,0,0,1,79.83,14c0-.4,0-1.05,0-2Z" transform="translate(-15 -2.75)"/><path class="cls-5" d="M85,11.67A7.32,7.32,0,0,0,85,10.49a.39.39,0,0,0-.41-.29h-.11l-.36,0H84s-.08-.05-.09-.16a.32.32,0,0,1,0-.08c0-.07,0-.11.16-.13.77-.18,1.53-.39,2.27-.64.11,0,.16,0,.16.14,0,.91,0,1.74,0,2.48v1.84a6.48,6.48,0,0,0,.09,1.49.4.4,0,0,0,.3.19,4.1,4.1,0,0,0,.5.05c.07,0,.1.07.1.18s0,.17-.1.17h-.52l-1,0-1.58,0c-.1,0-.14-.06-.14-.17s0-.18.12-.18a3.9,3.9,0,0,0,.51-.06.43.43,0,0,0,.23-.18,2,2,0,0,0,.12-.89V11.67Zm.6-6.35a.88.88,0,0,1,.67.32.89.89,0,0,1,.26.63.93.93,0,0,1-.32.68A.87.87,0,0,1,85,6.88a.86.86,0,0,1-.26-.61A.88.88,0,0,1,85,5.58.92.92,0,0,1,85.64,5.32Z" transform="translate(-15 -2.75)"/><path class="cls-5" d="M91.52,9.16A3.05,3.05,0,0,1,94,10.27a3.42,3.42,0,0,1,.82,2.31,3.38,3.38,0,0,1-1,2.53,3.16,3.16,0,0,1-2.27.88,3.07,3.07,0,0,1-2.46-1.1,3.39,3.39,0,0,1-.8-2.28,3.4,3.4,0,0,1,1-2.55A3,3,0,0,1,91.52,9.16Zm0,.42a1.38,1.38,0,0,0-1.26,1,4.94,4.94,0,0,0-.36,2,4.63,4.63,0,0,0,.45,2.26,1.31,1.31,0,0,0,1.17.73,1.38,1.38,0,0,0,1.27-1,4.7,4.7,0,0,0,.37-2,4.65,4.65,0,0,0-.45-2.27A1.32,1.32,0,0,0,91.52,9.58Z" transform="translate(-15 -2.75)"/><path class="cls-5" d="M98.19,10.5a2.4,2.4,0,0,1,2.17-1.34,2.25,2.25,0,0,1,1.27.4,1.83,1.83,0,0,1,.77,1.61v2.52a5.07,5.07,0,0,0,.11,1.48.4.4,0,0,0,.27.21,3,3,0,0,0,.46.06c.07,0,.11.07.11.16s0,.16-.11.16l-.84,0h-1.53l-.76,0c-.07,0-.11,0-.11-.16s0-.16.11-.16a2.24,2.24,0,0,0,.48-.07.4.4,0,0,0,.24-.2,5.38,5.38,0,0,0,.11-1.48V11.78a3.17,3.17,0,0,0-.17-1.2,1,1,0,0,0-1-.7,1.32,1.32,0,0,0-.76.25,2,2,0,0,0-.5.54,2.24,2.24,0,0,0-.29,1.13v1.89a7,7,0,0,0,.08,1.48.4.4,0,0,0,.29.21l.48.06c.09,0,.13.06.13.16s0,.16-.13.16h-.5l-1,0H96.7l-.77,0c-.06,0-.09,0-.09-.16s0-.15.09-.16a2.35,2.35,0,0,0,.51-.08.36.36,0,0,0,.24-.19,6.11,6.11,0,0,0,.09-1.48V11.62a4.59,4.59,0,0,0-.09-1.18.4.4,0,0,0-.39-.29h-.05l-.38,0H95.8c-.08,0-.13-.06-.13-.16V10c0-.08,0-.13.17-.15a15.74,15.74,0,0,0,2.21-.62c.11,0,.17,0,.17.12C98.2,9.57,98.19,10,98.19,10.5Z" transform="translate(-15 -2.75)"/><path class="cls-6" d="M48.77,15.76c-1.23,0-2.46,0-3.68,0s-2.58,0-3.82,0c-.09,0-.13-.06-.13-.17s0-.17.13-.18a3.33,3.33,0,0,0,.63-.1.54.54,0,0,0,.29-.27,5.38,5.38,0,0,0,.18-1.86V8.1q0-1.06,0-1.35a1.42,1.42,0,0,0-.14-.48A.53.53,0,0,0,41.83,6c-.1,0-.31,0-.65-.08-.09,0-.13-.07-.13-.18s0-.2.13-.2q1.65.06,3.72.06c1.3,0,2.5,0,3.59-.06.07.88.16,1.68.27,2.38V8c0,.07,0,.11-.16.13h-.07c-.09,0-.15,0-.17-.1a3.23,3.23,0,0,0-1-1.43,3.18,3.18,0,0,0-2.1-.51c-.61,0-1,.12-1.11.35a2.69,2.69,0,0,0-.15,1.15v2.59h.79a3.19,3.19,0,0,0,1.76-.31,1.51,1.51,0,0,0,.55-.95c0-.08.08-.13.21-.13s.17.05.17.14c0,.65,0,1.15,0,1.48s0,1,0,1.62a.15.15,0,0,1-.17.16.2.2,0,0,1-.21-.14,1.73,1.73,0,0,0-.56-1,3.34,3.34,0,0,0-1.75-.34h-.79v2.53a4.16,4.16,0,0,0,.2,1.7.8.8,0,0,0,.57.35,3.86,3.86,0,0,0,.78,0A3.69,3.69,0,0,0,48,14.61a5.6,5.6,0,0,0,1.12-1.42c0-.08.08-.12.13-.12l.09,0c.11,0,.17.08.17.13a.35.35,0,0,0,0,.07A14.85,14.85,0,0,1,48.77,15.76Z" transform="translate(-15 -2.75)"/><path class="cls-6" d="M55.09,9.87V7.39A6.78,6.78,0,0,0,55,6.18c-.05-.18-.2-.28-.45-.28h0l-.34,0H54.1c-.07,0-.11,0-.12-.16v0c0-.08.06-.14.17-.16a17.55,17.55,0,0,0,2.3-.62c.11,0,.16.07.16.14,0,1-.08,2.09-.08,3.4v5.25a5.43,5.43,0,0,0,.1,1.46c.06.13.21.2.43.22l.32,0c.09,0,.13.05.13.15s0,.17-.13.18A17.51,17.51,0,0,0,55.2,16c-.09,0-.14-.06-.14-.17,0-.45,0-.76,0-.95A2.05,2.05,0,0,1,53.26,16a2.78,2.78,0,0,1-2.34-1.06,3.66,3.66,0,0,1-.69-2.3,3.51,3.51,0,0,1,1-2.63,3,3,0,0,1,2.22-.86A2.21,2.21,0,0,1,55.09,9.87Zm-1.47-.25a1.45,1.45,0,0,0-1.33.92,4.48,4.48,0,0,0-.41,2,3.56,3.56,0,0,0,.54,2.13,1.41,1.41,0,0,0,1.18.62,1.53,1.53,0,0,0,1.21-.75,1.26,1.26,0,0,0,.24-.56,2.66,2.66,0,0,0,0-.57v-1.8a4.37,4.37,0,0,0,0-.65,1.94,1.94,0,0,0-.23-.58A1.32,1.32,0,0,0,53.62,9.62Z" transform="translate(-15 -2.75)"/><path class="cls-6" d="M63,16a.15.15,0,0,1-.17-.17c0-.41,0-.77,0-1.09A2.27,2.27,0,0,1,60.8,16a2.3,2.3,0,0,1-1.34-.39A1.78,1.78,0,0,1,58.7,14l0-1.5V11.39a6.32,6.32,0,0,0,0-1.08.41.41,0,0,0-.44-.36h-.36c-.08,0-.13,0-.14,0s0-.06,0-.13V9.73c0-.08,0-.12.14-.13q1.28-.16,2.25-.39c.11,0,.17,0,.17.14,0,.89-.06,1.7-.06,2.45v1.47a3.7,3.7,0,0,0,.16,1.34,1,1,0,0,0,1,.68,1.41,1.41,0,0,0,1.23-.81,2.09,2.09,0,0,0,.29-1.11v-2a5.13,5.13,0,0,0-.08-1.06c-.06-.27-.2-.39-.43-.38L62,10h0c-.07,0-.11-.06-.12-.17V9.73c0-.07.05-.11.16-.12.57-.07,1.31-.2,2.2-.4q.15,0,.15.12c0,.68,0,1.5,0,2.47v1.93a6.22,6.22,0,0,0,.08,1.39c.06.17.23.26.52.28h.26c.1,0,.14.07.14.17s0,.15-.12.15Q64.19,15.79,63,16Z" transform="translate(-15 -2.75)"/><path class="cls-6" d="M69.24,9.16A4.14,4.14,0,0,1,71,9.49c.37.15.56.37.56.66,0,.61-.21.92-.62.92s-.55-.29-.84-.87c-.21-.39-.46-.58-.74-.58a1.37,1.37,0,0,0-1.27.92,5,5,0,0,0-.35,2,3.08,3.08,0,0,0,.7,2.15,1.64,1.64,0,0,0,1.24.6A2,2,0,0,0,70.7,15a3,3,0,0,0,.72-.72.12.12,0,0,1,.11-.08.3.3,0,0,1,.14.06c.07,0,.1.09.1.13a.16.16,0,0,1,0,.09A2.76,2.76,0,0,1,69.22,16a3,3,0,0,1-2.42-1.07,3.49,3.49,0,0,1-.77-2.3,3.42,3.42,0,0,1,1-2.57A3,3,0,0,1,69.24,9.16Z" transform="translate(-15 -2.75)"/><path class="cls-6" d="M76.22,15.16a3,3,0,0,1-.86.63,2.81,2.81,0,0,1-1.1.2,1.81,1.81,0,0,1-1.46-.57,1.39,1.39,0,0,1-.33-.92A1.8,1.8,0,0,1,73,13.25a2.56,2.56,0,0,1,.79-.44c.12-.05.45-.16,1-.32A3.36,3.36,0,0,0,75.83,12a.69.69,0,0,0,.33-.55V11c0-1-.28-1.49-.84-1.49a1,1,0,0,0-.74.28,1.05,1.05,0,0,0-.24.79.58.58,0,0,1-.31.51,1.52,1.52,0,0,1-.77.17c-.37,0-.55-.15-.55-.45s.29-.79.86-1.16a3.55,3.55,0,0,1,1.94-.53,2.12,2.12,0,0,1,1.82.63A2.34,2.34,0,0,1,77.58,11v.21l0,2.93q0,1.23.51,1.23a1,1,0,0,0,.41-.1h.06a.14.14,0,0,1,.11.08.29.29,0,0,1,0,.1s0,.07-.09.11a1.92,1.92,0,0,1-1.19.32A1.16,1.16,0,0,1,76.22,15.16Zm-.06-2.95a2.85,2.85,0,0,1-1.12.61,1.47,1.47,0,0,0-1,1.47,1.21,1.21,0,0,0,.33.89.79.79,0,0,0,.55.26,1.21,1.21,0,0,0,.94-.41,1.16,1.16,0,0,0,.31-.81Z" transform="translate(-15 -2.75)"/><path class="cls-6" d="M79.89,10H79c-.1,0-.15-.06-.15-.2A.16.16,0,0,1,79,9.6,2.17,2.17,0,0,0,80.24,9,2.7,2.7,0,0,0,81,8a.23.23,0,0,1,.24-.13c.13,0,.2,0,.2.13,0,.91,0,1.39,0,1.43.73,0,1.39,0,2,0a.05.05,0,0,1,.06.06v0l-.15.41a.13.13,0,0,1-.14.09c-.69,0-1.29-.05-1.78-.05l0,3.58A2.78,2.78,0,0,0,81.56,15a.94.94,0,0,0,.76.37,1.36,1.36,0,0,0,.89-.37.12.12,0,0,1,.08,0,.22.22,0,0,1,.15.08.25.25,0,0,1,.09.15s0,.07-.07.12a2.31,2.31,0,0,1-1.69.72,2,2,0,0,1-1.47-.48A2.22,2.22,0,0,1,79.83,14c0-.4,0-1.05,0-2Z" transform="translate(-15 -2.75)"/><path class="cls-6" d="M85,11.67A7.32,7.32,0,0,0,85,10.49a.39.39,0,0,0-.41-.29h-.11l-.36,0H84s-.08-.05-.09-.16a.32.32,0,0,1,0-.08c0-.07,0-.11.16-.13.77-.18,1.53-.39,2.27-.64.11,0,.16,0,.16.14,0,.91,0,1.74,0,2.48v1.84a6.48,6.48,0,0,0,.09,1.49.4.4,0,0,0,.3.19,4.1,4.1,0,0,0,.5.05c.07,0,.1.07.1.18s0,.17-.1.17h-.52l-1,0-1.58,0c-.1,0-.14-.06-.14-.17s0-.18.12-.18a3.9,3.9,0,0,0,.51-.06.43.43,0,0,0,.23-.18,2,2,0,0,0,.12-.89V11.67Zm.6-6.35a.88.88,0,0,1,.67.32.89.89,0,0,1,.26.63.93.93,0,0,1-.32.68A.87.87,0,0,1,85,6.88a.86.86,0,0,1-.26-.61A.88.88,0,0,1,85,5.58.92.92,0,0,1,85.64,5.32Z" transform="translate(-15 -2.75)"/><path class="cls-6" d="M91.52,9.16A3.05,3.05,0,0,1,94,10.27a3.42,3.42,0,0,1,.82,2.31,3.38,3.38,0,0,1-1,2.53,3.16,3.16,0,0,1-2.27.88,3.07,3.07,0,0,1-2.46-1.1,3.39,3.39,0,0,1-.8-2.28,3.4,3.4,0,0,1,1-2.55A3,3,0,0,1,91.52,9.16Zm0,.42a1.38,1.38,0,0,0-1.26,1,4.94,4.94,0,0,0-.36,2,4.63,4.63,0,0,0,.45,2.26,1.31,1.31,0,0,0,1.17.73,1.38,1.38,0,0,0,1.27-1,4.7,4.7,0,0,0,.37-2,4.65,4.65,0,0,0-.45-2.27A1.32,1.32,0,0,0,91.52,9.58Z" transform="translate(-15 -2.75)"/><path class="cls-6" d="M98.19,10.5a2.4,2.4,0,0,1,2.17-1.34,2.25,2.25,0,0,1,1.27.4,1.83,1.83,0,0,1,.77,1.61v2.52a5.07,5.07,0,0,0,.11,1.48.4.4,0,0,0,.27.21,3,3,0,0,0,.46.06c.07,0,.11.07.11.16s0,.16-.11.16l-.84,0h-1.53l-.76,0c-.07,0-.11,0-.11-.16s0-.16.11-.16a2.24,2.24,0,0,0,.48-.07.4.4,0,0,0,.24-.2,5.38,5.38,0,0,0,.11-1.48V11.78a3.17,3.17,0,0,0-.17-1.2,1,1,0,0,0-1-.7,1.32,1.32,0,0,0-.76.25,2,2,0,0,0-.5.54,2.24,2.24,0,0,0-.29,1.13v1.89a7,7,0,0,0,.08,1.48.4.4,0,0,0,.29.21l.48.06c.09,0,.13.06.13.16s0,.16-.13.16h-.5l-1,0H96.7l-.77,0c-.06,0-.09,0-.09-.16s0-.15.09-.16a2.35,2.35,0,0,0,.51-.08.36.36,0,0,0,.24-.19,6.11,6.11,0,0,0,.09-1.48V11.62a4.59,4.59,0,0,0-.09-1.18.4.4,0,0,0-.39-.29h-.05l-.38,0H95.8c-.08,0-.13-.06-.13-.16V10c0-.08,0-.13.17-.15a15.74,15.74,0,0,0,2.21-.62c.11,0,.17,0,.17.12C98.2,9.57,98.19,10,98.19,10.5Z" transform="translate(-15 -2.75)"/><rect class="cls-7" x="22.41" y="1" width="69.17" height="14.5"/><rect class="cls-8" x="22.41" y="1" width="69.17" height="14.5"/></svg>