<svg xmlns="http://www.w3.org/2000/svg" viewBox="0 0 144 81">
  <defs>
    <style>
      .a {
        opacity: 0;
      }

      .b, .d, .f {
        fill: #fff;
      }

      .c, .e, .g, .h {
        fill: #fc9;
      }

      .c, .d {
        stroke: #fff;
        stroke-width: 3px;
      }

      .c, .d, .e, .f {
        stroke-miterlimit: 10;
      }

      .e, .f {
        stroke: #fc9;
        stroke-width: 2px;
      }

      .h {
        stroke: #000;
      }
    </style>
  </defs>
  <title>engineering</title>
  <g class="a">
    <rect class="b" width="144" height="81"/>
  </g>
  <g>
    <g>
      <circle class="c" cx="36.31" cy="34.75" r="23.16" transform="translate(-10.54 16.54) rotate(-22.5)"/>
      <rect class="c" x="30.73" y="5.3" width="10.53" height="58.4" transform="translate(-9.65 54.56) rotate(-67.5)"/>
      <rect class="c" x="30.73" y="5.3" width="10.53" height="58.4" transform="translate(82.46 52.6) rotate(157.5)"/>
      <rect class="c" x="6.8" y="29.23" width="58.4" height="10.53" transform="translate(-9.65 54.56) rotate(-67.5)"/>
      <rect class="c" x="30.73" y="5.3" width="10.53" height="58.4" transform="translate(17.9 80.96) rotate(-112.5)"/>
      <circle class="d" cx="36.5" cy="34.65" r="14.77" transform="translate(-10.48 16.61) rotate(-22.5)"/>
    </g>
    <g>
      <circle class="e" cx="36.31" cy="34.75" r="23.16" transform="translate(-10.54 16.54) rotate(-22.5)"/>
      <rect class="e" x="30.73" y="5.3" width="10.53" height="58.4" transform="translate(-9.65 54.56) rotate(-67.5)"/>
      <rect class="e" x="30.73" y="5.3" width="10.53" height="58.4" transform="translate(82.46 52.6) rotate(157.5)"/>
      <rect class="e" x="6.8" y="29.23" width="58.4" height="10.53" transform="translate(-9.65 54.56) rotate(-67.5)"/>
      <rect class="e" x="30.73" y="5.3" width="10.53" height="58.4" transform="translate(17.9 80.96) rotate(-112.5)"/>
      <circle class="f" cx="36.5" cy="34.65" r="14.77" transform="translate(-10.48 16.61) rotate(-22.5)"/>
    </g>
    <g>
      <g>
        <circle class="c" cx="96.19" cy="34.85" r="23.16"/>
        <rect class="c" x="90.73" y="5.3" width="10.53" height="58.4" transform="translate(3.72 77.99) rotate(-45)"/>
        <rect class="c" x="90.73" y="5.3" width="10.53" height="58.4"/>
        <rect class="c" x="66.8" y="29.23" width="58.4" height="10.53" transform="translate(3.72 77.99) rotate(-45)"/>
        <rect class="c" x="66.8" y="29.23" width="58.4" height="10.53"/>
        <circle class="d" cx="96.4" cy="34.83" r="14.77"/>
      </g>
      <g>
        <circle class="g" cx="96.19" cy="34.85" r="23.16"/>
        <rect class="g" x="90.73" y="5.3" width="10.53" height="58.4" transform="translate(3.72 77.99) rotate(-45)"/>
        <rect class="g" x="90.73" y="5.3" width="10.53" height="58.4"/>
        <rect class="g" x="66.8" y="29.23" width="58.4" height="10.53" transform="translate(3.72 77.99) rotate(-45)"/>
        <rect class="g" x="66.8" y="29.23" width="58.4" height="10.53"/>
        <circle class="g" cx="96.4" cy="34.83" r="14.77"/>
      </g>
    </g>
    <g>
      <circle class="e" cx="96.19" cy="34.85" r="23.16"/>
      <rect class="e" x="90.73" y="5.3" width="10.53" height="58.4" transform="translate(3.72 77.99) rotate(-45)"/>
      <rect class="e" x="90.73" y="5.3" width="10.53" height="58.4" transform="translate(192 69) rotate(180)"/>
      <rect class="e" x="66.8" y="29.23" width="58.4" height="10.53" transform="translate(3.72 77.99) rotate(-45)"/>
      <rect class="e" x="90.73" y="5.3" width="10.53" height="58.4" transform="translate(61.5 130.5) rotate(-90)"/>
      <circle class="f" cx="96.4" cy="34.83" r="14.77"/>
    </g>
    <g>
      <path class="h" d="M50.11,75.59A3.48,3.48,0,0,0,50.28,77c.19.32.62.35,1.15.35a3,3,0,0,0,2.06-.58,4.88,4.88,0,0,0,1-1.22c0-.08.07-.12.19-.08s.14.1.13.17a14.84,14.84,0,0,1-.62,2.12c-1.06,0-2.16,0-3.15,0s-2.21,0-3.27,0c-.08,0-.11,0-.11-.14s0-.14.11-.16c.46,0,.66-.06.79-.31a4.15,4.15,0,0,0,.16-1.59V71.24c0-1.15,0-1.31-.14-1.57s-.37-.24-.88-.29c-.08,0-.11,0-.11-.16s0-.17.11-.17c1.06,0,2.16,0,3.18,0s2,0,3.08,0c0,.61.13,1.42.23,2,0,.07,0,.12-.13.14s-.18,0-.2-.08A3.14,3.14,0,0,0,53,69.92a2.62,2.62,0,0,0-1.8-.43c-.43,0-.8,0-1,.3a3.89,3.89,0,0,0-.12,1.45V73h.67a3,3,0,0,0,1.51-.26,1.29,1.29,0,0,0,.47-.82c0-.07,0-.11.18-.11s.14,0,.14.12c0,.43,0,.85,0,1.26s0,1,0,1.39c0,.1,0,.13-.14.13s-.16,0-.18-.12a1.58,1.58,0,0,0-.48-.9,3.19,3.19,0,0,0-1.5-.29h-.67Z"/>
      <path class="h" d="M57.37,70.35l.06,5.25a3.17,3.17,0,0,0,.25,1.52,1.27,1.27,0,0,0,.9.37c.1,0,.11,0,.11.16s0,.14-.12.14c-.46,0-.91,0-1.4,0s-1,0-1.44,0c-.1,0-.11,0-.11-.13s0-.14.1-.16a1.11,1.11,0,0,0,.83-.38,2.91,2.91,0,0,0,.3-1.52l.06-4.37a2.91,2.91,0,0,0-.19-1.46,1.4,1.4,0,0,0-1-.37c-.08,0-.11,0-.11-.18s0-.17.11-.17c.43,0,.9,0,1.26,0h1.46a17.14,17.14,0,0,0,.92,1.48l2.75,4.09c.42.64.67,1,1,1.55V74.82l0-3.59a3,3,0,0,0-.29-1.48c-.14-.25-.53-.32-.85-.36-.11,0-.14,0-.14-.17s0-.18.11-.18c.38,0,.92,0,1.39,0s1.06,0,1.38,0c.08,0,.11,0,.11.17s0,.16-.11.17a1,1,0,0,0-.78.37,3,3,0,0,0-.29,1.48l-.07,4.35c0,.83,0,1.33,0,2-.77.41-.82.42-.88.42a.13.13,0,0,1-.11-.06c-.38-.61-.6-1-1.36-2.1l-3.66-5.49Z"/>
      <path class="h" d="M73.84,71.25c0,.1,0,.13-.11.17s-.16,0-.2-.1a4.06,4.06,0,0,0-1.05-1.45,2.67,2.67,0,0,0-1.73-.6c-1.75,0-3.12,1.76-3.12,4.14s1.33,4.16,3.29,4.16a2.65,2.65,0,0,0,1.83-.71,5.44,5.44,0,0,0,.06-.83c0-1.21,0-1.34-.13-1.62s-.41-.25-.91-.3c-.08,0-.11,0-.11-.16s0-.14.11-.14c.55,0,1.15,0,1.68,0s1,0,1.55,0c.08,0,.1,0,.1.14s0,.14-.1.16c-.44,0-.6,0-.74.3a4.54,4.54,0,0,0-.13,1.45,13.91,13.91,0,0,0,.07,1.77s0,.08-.13.08a4.93,4.93,0,0,0-.74,0c-.6,0-1.34.32-2.6.32A4.37,4.37,0,0,1,66,73.43a4.47,4.47,0,0,1,4.74-4.57,6,6,0,0,1,1.55.23,3.39,3.39,0,0,0,1.36.1C73.68,69.81,73.76,70.63,73.84,71.25Z"/>
      <path class="h" d="M78.55,75.59c0,1.2,0,1.37.12,1.61s.44.25.94.3c.08,0,.11,0,.11.16s0,.14-.12.14c-.59,0-1.21,0-1.76,0s-1.15,0-1.68,0c-.07,0-.1,0-.1-.14s0-.14.08-.16c.46,0,.72,0,.86-.3a4.37,4.37,0,0,0,.13-1.61V71.24c0-1.15,0-1.29-.12-1.56s-.43-.25-.94-.3c-.06,0-.08,0-.08-.17s0-.16.1-.16c.58,0,1.21,0,1.74,0s1.17,0,1.71,0c.08,0,.11,0,.11.17s0,.14-.11.16c-.46,0-.73.06-.86.3a4.24,4.24,0,0,0-.13,1.56Z"/>
      <path class="h" d="M82.63,70.35l.06,5.25a3.17,3.17,0,0,0,.25,1.52,1.27,1.27,0,0,0,.9.37c.1,0,.11,0,.11.16s0,.14-.12.14c-.46,0-.91,0-1.4,0s-1,0-1.44,0c-.1,0-.11,0-.11-.13s0-.14.1-.16a1.11,1.11,0,0,0,.83-.38,2.91,2.91,0,0,0,.3-1.52l.06-4.37A2.9,2.9,0,0,0,82,69.77a1.4,1.4,0,0,0-1-.37c-.08,0-.11,0-.11-.18s0-.17.11-.17c.43,0,.9,0,1.26,0h1.46a17,17,0,0,0,.92,1.48l2.75,4.09c.42.64.67,1,1,1.55V74.82l0-3.59A3,3,0,0,0,88,69.76c-.14-.25-.53-.32-.85-.36-.11,0-.14,0-.14-.17s0-.18.11-.18c.38,0,.92,0,1.39,0s1.05,0,1.38,0c.08,0,.11,0,.11.17s0,.16-.11.17a1,1,0,0,0-.78.37,3,3,0,0,0-.29,1.48l-.07,4.35c0,.83,0,1.33,0,2C88,78,88,78,87.92,78a.12.12,0,0,1-.11-.06c-.38-.61-.6-1-1.36-2.1L82.8,70.35Z"/>
      <path class="h" d="M93.78,75.59A3.47,3.47,0,0,0,93.95,77c.19.32.62.35,1.15.35a3,3,0,0,0,2.06-.58,4.9,4.9,0,0,0,1-1.22c0-.08.07-.12.19-.08s.14.1.13.17a14.78,14.78,0,0,1-.62,2.12c-1.06,0-2.16,0-3.15,0s-2.21,0-3.27,0c-.08,0-.11,0-.11-.14s0-.14.11-.16c.46,0,.66-.06.79-.31a4.16,4.16,0,0,0,.16-1.59V71.24c0-1.15,0-1.31-.14-1.57s-.37-.24-.87-.29c-.08,0-.11,0-.11-.16s0-.17.11-.17c1.05,0,2.16,0,3.18,0s2,0,3.08,0c0,.61.13,1.42.23,2,0,.07,0,.12-.13.14s-.18,0-.2-.08a3.14,3.14,0,0,0-.82-1.24,2.62,2.62,0,0,0-1.8-.43c-.43,0-.8,0-1,.3a3.9,3.9,0,0,0-.12,1.45V73h.67A3,3,0,0,0,96,72.74a1.28,1.28,0,0,0,.47-.82c0-.07,0-.11.18-.11s.14,0,.14.12c0,.43,0,.85,0,1.26s0,1,0,1.39c0,.1,0,.13-.14.13s-.16,0-.18-.12a1.57,1.57,0,0,0-.48-.9,3.19,3.19,0,0,0-1.5-.29h-.67Z"/>
      <path class="h" d="M102,75.59a3.47,3.47,0,0,0,.17,1.45c.19.32.62.35,1.15.35a3,3,0,0,0,2.06-.58,4.9,4.9,0,0,0,1-1.22c0-.08.07-.12.19-.08s.14.1.13.17A14.78,14.78,0,0,1,106,77.8c-1.06,0-2.16,0-3.15,0s-2.21,0-3.27,0c-.08,0-.11,0-.11-.14s0-.14.11-.16c.46,0,.66-.06.79-.31a4.16,4.16,0,0,0,.16-1.59V71.24c0-1.15,0-1.31-.14-1.57s-.37-.24-.87-.29c-.08,0-.11,0-.11-.16s0-.17.11-.17c1.05,0,2.16,0,3.18,0s2,0,3.08,0c0,.61.13,1.42.23,2,0,.07,0,.12-.13.14s-.18,0-.2-.08a3.14,3.14,0,0,0-.82-1.24,2.62,2.62,0,0,0-1.8-.43c-.43,0-.8,0-1,.3a3.9,3.9,0,0,0-.12,1.45V73h.67a3,3,0,0,0,1.51-.26,1.28,1.28,0,0,0,.47-.82c0-.07,0-.11.18-.11s.14,0,.14.12c0,.43,0,.85,0,1.26s0,1,0,1.39c0,.1,0,.13-.14.13s-.16,0-.18-.12a1.57,1.57,0,0,0-.48-.9,3.19,3.19,0,0,0-1.5-.29H102Z"/>
      <path class="h" d="M110.15,75.58c0,1.2,0,1.37.13,1.59s.42.26.92.31c.08,0,.1,0,.1.17s0,.14-.12.14c-.55,0-1.16,0-1.71,0s-1.14,0-1.66,0c-.1,0-.12,0-.12-.14s0-.16.12-.17c.44,0,.71-.06.83-.31a4.21,4.21,0,0,0,.14-1.59V71.24c0-1.15,0-1.29-.12-1.56s-.48-.25-1-.3c-.08,0-.11,0-.11-.17s0-.16.11-.16c.56,0,1.19,0,1.71,0s1.22,0,2,0c2.37,0,3.27,1,3.27,2.24a2.3,2.3,0,0,1-2,2.15c.52.94,1.09,1.94,1.73,3a2.85,2.85,0,0,0,.71.9,1.57,1.57,0,0,0,.73.18c.07,0,.1,0,.1.16s0,.16-.1.16c-.5,0-.89,0-1.27,0h-1.1a6.44,6.44,0,0,0-.43-.94c-.59-1.08-1.13-2.09-1.73-3.17h-.4c-.24,0-.44,0-.74,0Zm0-2.34a6,6,0,0,0,.78,0c1.62,0,2.21-.85,2.21-1.93s-.61-1.91-2-1.91c-.31,0-.7,0-.86.23a4.12,4.12,0,0,0-.13,1.56Z"/>
      <path class="h" d="M119.09,75.59c0,1.2,0,1.37.12,1.61s.44.25.94.3c.08,0,.11,0,.11.16s0,.14-.12.14c-.59,0-1.21,0-1.76,0s-1.15,0-1.68,0c-.07,0-.1,0-.1-.14s0-.14.08-.16c.46,0,.72,0,.86-.3a4.37,4.37,0,0,0,.13-1.61V71.24c0-1.15,0-1.29-.12-1.56s-.43-.25-.94-.3c-.06,0-.08,0-.08-.17s0-.16.1-.16c.58,0,1.21,0,1.74,0s1.17,0,1.71,0c.08,0,.11,0,.11.17s0,.14-.11.16c-.46,0-.73.06-.86.3a4.24,4.24,0,0,0-.13,1.56Z"/>
      <path class="h" d="M123.17,70.35l.06,5.25a3.17,3.17,0,0,0,.25,1.52,1.27,1.27,0,0,0,.9.37c.1,0,.11,0,.11.16s0,.14-.12.14c-.46,0-.91,0-1.4,0s-1,0-1.44,0c-.1,0-.11,0-.11-.13s0-.14.1-.16a1.11,1.11,0,0,0,.83-.38,2.91,2.91,0,0,0,.3-1.52l.06-4.37a2.9,2.9,0,0,0-.19-1.46,1.4,1.4,0,0,0-1-.37c-.08,0-.11,0-.11-.18s0-.17.11-.17c.43,0,.9,0,1.26,0h1.46a17,17,0,0,0,.92,1.48l2.75,4.09c.42.64.67,1,1,1.55V74.82l0-3.59a3,3,0,0,0-.29-1.48c-.14-.25-.53-.32-.85-.36-.11,0-.14,0-.14-.17s0-.18.11-.18c.38,0,.92,0,1.39,0s1.05,0,1.38,0c.08,0,.11,0,.11.17s0,.16-.11.17a1,1,0,0,0-.78.37,3,3,0,0,0-.29,1.48l-.07,4.35c0,.83,0,1.33,0,2-.77.41-.82.42-.88.42a.12.12,0,0,1-.11-.06c-.38-.61-.6-1-1.36-2.1l-3.66-5.49Z"/>
      <path class="h" d="M139.64,71.25c0,.1,0,.13-.11.17s-.16,0-.2-.1a4.07,4.07,0,0,0-1.06-1.45,2.67,2.67,0,0,0-1.73-.6c-1.75,0-3.12,1.76-3.12,4.14s1.33,4.16,3.29,4.16a2.66,2.66,0,0,0,1.83-.71,5.57,5.57,0,0,0,.06-.83c0-1.21,0-1.34-.13-1.62s-.41-.25-.91-.3c-.08,0-.11,0-.11-.16s0-.14.11-.14c.55,0,1.15,0,1.68,0s1,0,1.55,0c.08,0,.1,0,.1.14s0,.14-.1.16c-.44,0-.6,0-.74.3a4.54,4.54,0,0,0-.13,1.45,14.13,14.13,0,0,0,.07,1.77s0,.08-.13.08a4.93,4.93,0,0,0-.74,0c-.6,0-1.34.32-2.6.32a4.37,4.37,0,0,1-4.7-4.57,4.47,4.47,0,0,1,4.74-4.57,6,6,0,0,1,1.55.23,3.39,3.39,0,0,0,1.36.1C139.47,69.81,139.55,70.63,139.64,71.25Z"/>
    </g>
    <g>
      <path class="g" d="M50.11,75.59A3.48,3.48,0,0,0,50.28,77c.19.32.62.35,1.15.35a3,3,0,0,0,2.06-.58,4.88,4.88,0,0,0,1-1.22c0-.08.07-.12.19-.08s.14.1.13.17a14.84,14.84,0,0,1-.62,2.12c-1.06,0-2.16,0-3.15,0s-2.21,0-3.27,0c-.08,0-.11,0-.11-.14s0-.14.11-.16c.46,0,.66-.06.79-.31a4.15,4.15,0,0,0,.16-1.59V71.24c0-1.15,0-1.31-.14-1.57s-.37-.24-.88-.29c-.08,0-.11,0-.11-.16s0-.17.11-.17c1.06,0,2.16,0,3.18,0s2,0,3.08,0c0,.61.13,1.42.23,2,0,.07,0,.12-.13.14s-.18,0-.2-.08A3.14,3.14,0,0,0,53,69.92a2.62,2.62,0,0,0-1.8-.43c-.43,0-.8,0-1,.3a3.89,3.89,0,0,0-.12,1.45V73h.67a3,3,0,0,0,1.51-.26,1.29,1.29,0,0,0,.47-.82c0-.07,0-.11.18-.11s.14,0,.14.12c0,.43,0,.85,0,1.26s0,1,0,1.39c0,.1,0,.13-.14.13s-.16,0-.18-.12a1.58,1.58,0,0,0-.48-.9,3.19,3.19,0,0,0-1.5-.29h-.67Z"/>
      <path class="g" d="M57.37,70.35l.06,5.25a3.17,3.17,0,0,0,.25,1.52,1.27,1.27,0,0,0,.9.37c.1,0,.11,0,.11.16s0,.14-.12.14c-.46,0-.91,0-1.4,0s-1,0-1.44,0c-.1,0-.11,0-.11-.13s0-.14.1-.16a1.11,1.11,0,0,0,.83-.38,2.91,2.91,0,0,0,.3-1.52l.06-4.37a2.91,2.91,0,0,0-.19-1.46,1.4,1.4,0,0,0-1-.37c-.08,0-.11,0-.11-.18s0-.17.11-.17c.43,0,.9,0,1.26,0h1.46a17.14,17.14,0,0,0,.92,1.48l2.75,4.09c.42.64.67,1,1,1.55V74.82l0-3.59a3,3,0,0,0-.29-1.48c-.14-.25-.53-.32-.85-.36-.11,0-.14,0-.14-.17s0-.18.11-.18c.38,0,.92,0,1.39,0s1.06,0,1.38,0c.08,0,.11,0,.11.17s0,.16-.11.17a1,1,0,0,0-.78.37,3,3,0,0,0-.29,1.48l-.07,4.35c0,.83,0,1.33,0,2-.77.41-.82.42-.88.42a.13.13,0,0,1-.11-.06c-.38-.61-.6-1-1.36-2.1l-3.66-5.49Z"/>
      <path class="g" d="M73.84,71.25c0,.1,0,.13-.11.17s-.16,0-.2-.1a4.06,4.06,0,0,0-1.05-1.45,2.67,2.67,0,0,0-1.73-.6c-1.75,0-3.12,1.76-3.12,4.14s1.33,4.16,3.29,4.16a2.65,2.65,0,0,0,1.83-.71,5.44,5.44,0,0,0,.06-.83c0-1.21,0-1.34-.13-1.62s-.41-.25-.91-.3c-.08,0-.11,0-.11-.16s0-.14.11-.14c.55,0,1.15,0,1.68,0s1,0,1.55,0c.08,0,.1,0,.1.14s0,.14-.1.16c-.44,0-.6,0-.74.3a4.54,4.54,0,0,0-.13,1.45,13.91,13.91,0,0,0,.07,1.77s0,.08-.13.08a4.93,4.93,0,0,0-.74,0c-.6,0-1.34.32-2.6.32A4.37,4.37,0,0,1,66,73.43a4.47,4.47,0,0,1,4.74-4.57,6,6,0,0,1,1.55.23,3.39,3.39,0,0,0,1.36.1C73.68,69.81,73.76,70.63,73.84,71.25Z"/>
      <path class="g" d="M78.55,75.59c0,1.2,0,1.37.12,1.61s.44.25.94.3c.08,0,.11,0,.11.16s0,.14-.12.14c-.59,0-1.21,0-1.76,0s-1.15,0-1.68,0c-.07,0-.1,0-.1-.14s0-.14.08-.16c.46,0,.72,0,.86-.3a4.37,4.37,0,0,0,.13-1.61V71.24c0-1.15,0-1.29-.12-1.56s-.43-.25-.94-.3c-.06,0-.08,0-.08-.17s0-.16.1-.16c.58,0,1.21,0,1.74,0s1.17,0,1.71,0c.08,0,.11,0,.11.17s0,.14-.11.16c-.46,0-.73.06-.86.3a4.24,4.24,0,0,0-.13,1.56Z"/>
      <path class="g" d="M82.63,70.35l.06,5.25a3.17,3.17,0,0,0,.25,1.52,1.27,1.27,0,0,0,.9.37c.1,0,.11,0,.11.16s0,.14-.12.14c-.46,0-.91,0-1.4,0s-1,0-1.44,0c-.1,0-.11,0-.11-.13s0-.14.1-.16a1.11,1.11,0,0,0,.83-.38,2.91,2.91,0,0,0,.3-1.52l.06-4.37A2.9,2.9,0,0,0,82,69.77a1.4,1.4,0,0,0-1-.37c-.08,0-.11,0-.11-.18s0-.17.11-.17c.43,0,.9,0,1.26,0h1.46a17,17,0,0,0,.92,1.48l2.75,4.09c.42.64.67,1,1,1.55V74.82l0-3.59A3,3,0,0,0,88,69.76c-.14-.25-.53-.32-.85-.36-.11,0-.14,0-.14-.17s0-.18.11-.18c.38,0,.92,0,1.39,0s1.05,0,1.38,0c.08,0,.11,0,.11.17s0,.16-.11.17a1,1,0,0,0-.78.37,3,3,0,0,0-.29,1.48l-.07,4.35c0,.83,0,1.33,0,2C88,78,88,78,87.92,78a.12.12,0,0,1-.11-.06c-.38-.61-.6-1-1.36-2.1L82.8,70.35Z"/>
      <path class="g" d="M93.78,75.59A3.47,3.47,0,0,0,93.95,77c.19.32.62.35,1.15.35a3,3,0,0,0,2.06-.58,4.9,4.9,0,0,0,1-1.22c0-.08.07-.12.19-.08s.14.1.13.17a14.78,14.78,0,0,1-.62,2.12c-1.06,0-2.16,0-3.15,0s-2.21,0-3.27,0c-.08,0-.11,0-.11-.14s0-.14.11-.16c.46,0,.66-.06.79-.31a4.16,4.16,0,0,0,.16-1.59V71.24c0-1.15,0-1.31-.14-1.57s-.37-.24-.87-.29c-.08,0-.11,0-.11-.16s0-.17.11-.17c1.05,0,2.16,0,3.18,0s2,0,3.08,0c0,.61.13,1.42.23,2,0,.07,0,.12-.13.14s-.18,0-.2-.08a3.14,3.14,0,0,0-.82-1.24,2.62,2.62,0,0,0-1.8-.43c-.43,0-.8,0-1,.3a3.9,3.9,0,0,0-.12,1.45V73h.67A3,3,0,0,0,96,72.74a1.28,1.28,0,0,0,.47-.82c0-.07,0-.11.18-.11s.14,0,.14.12c0,.43,0,.85,0,1.26s0,1,0,1.39c0,.1,0,.13-.14.13s-.16,0-.18-.12a1.57,1.57,0,0,0-.48-.9,3.19,3.19,0,0,0-1.5-.29h-.67Z"/>
      <path class="g" d="M102,75.59a3.47,3.47,0,0,0,.17,1.45c.19.32.62.35,1.15.35a3,3,0,0,0,2.06-.58,4.9,4.9,0,0,0,1-1.22c0-.08.07-.12.19-.08s.14.1.13.17A14.78,14.78,0,0,1,106,77.8c-1.06,0-2.16,0-3.15,0s-2.21,0-3.27,0c-.08,0-.11,0-.11-.14s0-.14.11-.16c.46,0,.66-.06.79-.31a4.16,4.16,0,0,0,.16-1.59V71.24c0-1.15,0-1.31-.14-1.57s-.37-.24-.87-.29c-.08,0-.11,0-.11-.16s0-.17.11-.17c1.05,0,2.16,0,3.18,0s2,0,3.08,0c0,.61.13,1.42.23,2,0,.07,0,.12-.13.14s-.18,0-.2-.08a3.14,3.14,0,0,0-.82-1.24,2.62,2.62,0,0,0-1.8-.43c-.43,0-.8,0-1,.3a3.9,3.9,0,0,0-.12,1.45V73h.67a3,3,0,0,0,1.51-.26,1.28,1.28,0,0,0,.47-.82c0-.07,0-.11.18-.11s.14,0,.14.12c0,.43,0,.85,0,1.26s0,1,0,1.39c0,.1,0,.13-.14.13s-.16,0-.18-.12a1.57,1.57,0,0,0-.48-.9,3.19,3.19,0,0,0-1.5-.29H102Z"/>
      <path class="g" d="M110.15,75.58c0,1.2,0,1.37.13,1.59s.42.26.92.31c.08,0,.1,0,.1.17s0,.14-.12.14c-.55,0-1.16,0-1.71,0s-1.14,0-1.66,0c-.1,0-.12,0-.12-.14s0-.16.12-.17c.44,0,.71-.06.83-.31a4.21,4.21,0,0,0,.14-1.59V71.24c0-1.15,0-1.29-.12-1.56s-.48-.25-1-.3c-.08,0-.11,0-.11-.17s0-.16.11-.16c.56,0,1.19,0,1.71,0s1.22,0,2,0c2.37,0,3.27,1,3.27,2.24a2.3,2.3,0,0,1-2,2.15c.52.94,1.09,1.94,1.73,3a2.85,2.85,0,0,0,.71.9,1.57,1.57,0,0,0,.73.18c.07,0,.1,0,.1.16s0,.16-.1.16c-.5,0-.89,0-1.27,0h-1.1a6.44,6.44,0,0,0-.43-.94c-.59-1.08-1.13-2.09-1.73-3.17h-.4c-.24,0-.44,0-.74,0Zm0-2.34a6,6,0,0,0,.78,0c1.62,0,2.21-.85,2.21-1.93s-.61-1.91-2-1.91c-.31,0-.7,0-.86.23a4.12,4.12,0,0,0-.13,1.56Z"/>
      <path class="g" d="M119.09,75.59c0,1.2,0,1.37.12,1.61s.44.25.94.3c.08,0,.11,0,.11.16s0,.14-.12.14c-.59,0-1.21,0-1.76,0s-1.15,0-1.68,0c-.07,0-.1,0-.1-.14s0-.14.08-.16c.46,0,.72,0,.86-.3a4.37,4.37,0,0,0,.13-1.61V71.24c0-1.15,0-1.29-.12-1.56s-.43-.25-.94-.3c-.06,0-.08,0-.08-.17s0-.16.1-.16c.58,0,1.21,0,1.74,0s1.17,0,1.71,0c.08,0,.11,0,.11.17s0,.14-.11.16c-.46,0-.73.06-.86.3a4.24,4.24,0,0,0-.13,1.56Z"/>
      <path class="g" d="M123.17,70.35l.06,5.25a3.17,3.17,0,0,0,.25,1.52,1.27,1.27,0,0,0,.9.37c.1,0,.11,0,.11.16s0,.14-.12.14c-.46,0-.91,0-1.4,0s-1,0-1.44,0c-.1,0-.11,0-.11-.13s0-.14.1-.16a1.11,1.11,0,0,0,.83-.38,2.91,2.91,0,0,0,.3-1.52l.06-4.37a2.9,2.9,0,0,0-.19-1.46,1.4,1.4,0,0,0-1-.37c-.08,0-.11,0-.11-.18s0-.17.11-.17c.43,0,.9,0,1.26,0h1.46a17,17,0,0,0,.92,1.48l2.75,4.09c.42.64.67,1,1,1.55V74.82l0-3.59a3,3,0,0,0-.29-1.48c-.14-.25-.53-.32-.85-.36-.11,0-.14,0-.14-.17s0-.18.11-.18c.38,0,.92,0,1.39,0s1.05,0,1.38,0c.08,0,.11,0,.11.17s0,.16-.11.17a1,1,0,0,0-.78.37,3,3,0,0,0-.29,1.48l-.07,4.35c0,.83,0,1.33,0,2-.77.41-.82.42-.88.42a.12.12,0,0,1-.11-.06c-.38-.61-.6-1-1.36-2.1l-3.66-5.49Z"/>
      <path class="g" d="M139.64,71.25c0,.1,0,.13-.11.17s-.16,0-.2-.1a4.07,4.07,0,0,0-1.06-1.45,2.67,2.67,0,0,0-1.73-.6c-1.75,0-3.12,1.76-3.12,4.14s1.33,4.16,3.29,4.16a2.66,2.66,0,0,0,1.83-.71,5.57,5.57,0,0,0,.06-.83c0-1.21,0-1.34-.13-1.62s-.41-.25-.91-.3c-.08,0-.11,0-.11-.16s0-.14.11-.14c.55,0,1.15,0,1.68,0s1,0,1.55,0c.08,0,.1,0,.1.14s0,.14-.1.16c-.44,0-.6,0-.74.3a4.54,4.54,0,0,0-.13,1.45,14.13,14.13,0,0,0,.07,1.77s0,.08-.13.08a4.93,4.93,0,0,0-.74,0c-.6,0-1.34.32-2.6.32a4.37,4.37,0,0,1-4.7-4.57,4.47,4.47,0,0,1,4.74-4.57,6,6,0,0,1,1.55.23,3.39,3.39,0,0,0,1.36.1C139.47,69.81,139.55,70.63,139.64,71.25Z"/>
    </g>
  </g>
</svg>
