<svg xmlns="http://www.w3.org/2000/svg" viewBox="0 0 144 81">
  <defs>
    <style>
      .a {
        opacity: 0;
      }

      .b {
        fill: #fff;
      }

      .c, .e {
        fill: #fc9;
      }

      .d {
        fill: none;
        stroke: #fff;
      }

      .e {
        stroke: #000;
        stroke-miterlimit: 10;
      }
    </style>
  </defs>
  <title>environmental</title>
  <g class="a">
    <rect class="b" width="144" height="81"/>
  </g>
  <g>
    <g>
      <polygon class="c" points="104.54 16.38 83.83 54.33 73.76 35.87 52.64 74.57 72.79 74.57 94.87 74.57 136.29 74.57 104.54 16.38"/>
      <g>
        <polygon class="b" points="104.54 16.38 83.83 54.33 73.76 35.87 52.64 74.57 72.79 74.57 94.87 74.57 136.29 74.57 104.54 16.38"/>
        <polygon class="b" points="104.54 16.38 83.83 54.33 73.76 35.87 52.64 74.57 72.79 74.57 94.87 74.57 136.29 74.57 104.54 16.38"/>
        <polygon class="b" points="104.54 16.38 83.83 54.33 73.76 35.87 52.64 74.57 72.79 74.57 94.87 74.57 136.29 74.57 104.54 16.38"/>
      </g>
      <g>
        <polygon class="d" points="104.54 16.38 83.83 54.33 73.76 35.87 52.64 74.57 72.79 74.57 94.87 74.57 136.29 74.57 104.54 16.38"/>
        <polygon class="d" points="104.54 16.38 83.83 54.33 73.76 35.87 52.64 74.57 72.79 74.57 94.87 74.57 136.29 74.57 104.54 16.38"/>
        <polygon class="d" points="104.54 16.38 83.83 54.33 73.76 35.87 52.64 74.57 72.79 74.57 94.87 74.57 136.29 74.57 104.54 16.38"/>
      </g>
    </g>
    <g>
      <polygon class="c" points="104.54 16.38 83.83 54.33 73.76 35.87 52.64 74.57 72.79 74.57 94.87 74.57 136.29 74.57 104.54 16.38"/>
      <g>
        <polygon class="c" points="104.54 16.38 83.83 54.33 73.76 35.87 52.64 74.57 72.79 74.57 94.87 74.57 136.29 74.57 104.54 16.38"/>
        <polygon class="c" points="104.54 16.38 83.83 54.33 73.76 35.87 52.64 74.57 72.79 74.57 94.87 74.57 136.29 74.57 104.54 16.38"/>
        <polygon class="c" points="104.54 16.38 83.83 54.33 73.76 35.87 52.64 74.57 72.79 74.57 94.87 74.57 136.29 74.57 104.54 16.38"/>
      </g>
    </g>
    <g>
      <g>
        <path class="e" d="M10.26,43.4a4,4,0,0,0,.85,1.13c.3.17.62,0,1-.24a2.41,2.41,0,0,0,1.2-1.42,5,5,0,0,0,.1-1.46c0-.09,0-.13.1-.16s.15,0,.18.08a16.9,16.9,0,0,1,.58,2.07c-.77.45-1.57.94-2.28,1.39s-1.57,1-2.32,1.54c-.06,0-.09,0-.15-.07s-.06-.13,0-.18c.3-.25.44-.36.41-.63a4.71,4.71,0,0,0-.69-1.4L7,40.45c-.58-1-.67-1.09-.9-1.24s-.4,0-.79.18c-.07,0-.09,0-.16-.08s-.07-.15,0-.19c.8-.48,1.62-1,2.38-1.48s1.51-1,2.27-1.48c.33.49.79,1.13,1.16,1.61,0,.06,0,.12,0,.18s-.14.07-.19,0a3.1,3.1,0,0,0-1.21-.66A2.13,2.13,0,0,0,8,37.79c-.32.2-.58.4-.56.7a4.23,4.23,0,0,0,.64,1.27L9,41.23l.5-.3a2.45,2.45,0,0,0,1-.92,1.38,1.38,0,0,0-.06-.9c0-.07,0-.11.08-.17s.13,0,.17,0c.2.36.4.73.6,1.07s.49.8.7,1.16c0,.08.06.12,0,.18s-.13,0-.19,0a1.52,1.52,0,0,0-.79-.54,2.38,2.38,0,0,0-1.24.45c-.15.09-.35.22-.48.32Z"/>
        <path class="e" d="M12.82,35.81l2.55,4.43a3.45,3.45,0,0,0,.91,1.18,1,1,0,0,0,.83-.07c.08,0,.1,0,.15.09s0,.14,0,.17c-.33.18-.68.36-1,.58s-.73.47-1,.66c-.07,0-.09,0-.14-.06s-.06-.13,0-.17a1,1,0,0,0,.42-.69,3.43,3.43,0,0,0-.51-1.42l-2-3.73A3.08,3.08,0,0,0,12,35.62a1.13,1.13,0,0,0-.93.14c-.07,0-.1,0-.17-.1s-.06-.15,0-.19c.32-.19.69-.38,1-.54l1.1-.67c.43.3.71.45,1.39.84,1.6.91,2.39,1.37,4,2.3.61.37,1,.58,1.44.91l-.63-1.17-1.67-3.07a3.25,3.25,0,0,0-.9-1.14.93.93,0,0,0-.81.06c-.09,0-.12,0-.19-.08s-.06-.17,0-.2c.29-.15.73-.36,1.08-.56s.8-.49,1-.63c.06,0,.09,0,.16.1s.05.14,0,.19a.89.89,0,0,0-.43.65,3.47,3.47,0,0,0,.46,1.39l1.94,3.77c.37.72.61,1.14.93,1.7-.38.67-.41.7-.45.73a.1.1,0,0,1-.11,0c-.56-.36-.88-.57-2-1.23-2.1-1.26-3.17-1.87-5.31-3.08Z"/>
        <path class="e" d="M24,34.69c.55.56.79.82,1.06,1.13-.07-.41-.17-.81-.3-1.58-.26-1.48-.38-2.22-.63-3.71a2.74,2.74,0,0,0-.46-1.34c-.2-.17-.49-.16-.85,0-.08,0-.12,0-.18-.09s0-.17,0-.22c.38-.19.79-.36,1.17-.55s.7-.4,1-.58c.06,0,.09,0,.16.1s.06.17,0,.2a1.06,1.06,0,0,0-.47.7,4.59,4.59,0,0,0,0,1.56c.25,1.75.38,2.62.65,4.36.18,1.19.25,1.49.37,2.11-.42.61-.48.66-.53.69s-.05,0-.09,0c-.51-.56-1-1-1.66-1.72-1.24-1.24-1.87-1.86-3.12-3.09a5.93,5.93,0,0,0-1.2-1c-.26-.12-.38-.12-.78.06-.07,0-.09,0-.16-.1s-.06-.17,0-.2c.43-.22.9-.44,1.32-.67s.91-.53,1.3-.76c.06,0,.1,0,.17.11s0,.16,0,.2c-.31.22-.52.36-.48.6s.42.62,1,1.17C22.38,33.06,22.91,33.6,24,34.69Z"/>
        <path class="e" d="M29.87,32.35c.5,1.06.56,1.21.76,1.37s.44.06.83-.08c.07,0,.1,0,.15.1s0,.14,0,.17c-.44.21-.93.42-1.35.62s-.86.46-1.25.66c-.05,0-.08,0-.13-.09s-.05-.13,0-.17c.32-.22.53-.32.53-.59a4.84,4.84,0,0,0-.57-1.46L27,29.05c-.48-1-.54-1.15-.75-1.33s-.44-.05-.86.1c0,0-.08,0-.14-.11s0-.15,0-.18c.45-.22,1-.43,1.38-.64s.91-.49,1.33-.7c.06,0,.1,0,.15.11s0,.14,0,.18c-.34.22-.55.34-.55.6a4.59,4.59,0,0,0,.54,1.43Z"/>
        <path class="e" d="M33.46,30.62c.48,1.07.56,1.22.74,1.37s.43.09.83,0c.07,0,.09,0,.14.12s0,.14,0,.17c-.42.18-.91.37-1.33.56s-.86.45-1.24.64c-.07,0-.11,0-.15-.08s0-.15,0-.19c.32-.2.51-.32.5-.58a5,5,0,0,0-.53-1.47l-1.75-3.86c-.46-1-.52-1.16-.72-1.34s-.48,0-.89.1c-.07,0-.1,0-.15-.11s0-.15,0-.18l1.37-.61c.36-.17,1-.49,1.55-.77,1.89-.86,3-.29,3.47.84a2.22,2.22,0,0,1-.74,2.63c.77.65,1.61,1.36,2.5,2.06a2.75,2.75,0,0,0,.89.57,1.2,1.2,0,0,0,.63-.09c.06,0,.08,0,.13.11s0,.15,0,.17c-.38.15-.7.26-1,.39l-.84.39a6.67,6.67,0,0,0-.7-.69c-.87-.76-1.69-1.47-2.58-2.22l-.3.15c-.19.09-.35.16-.59.25Zm-.93-2.08a4.67,4.67,0,0,0,.63-.24,1.73,1.73,0,0,0,1-2.51,1.57,1.57,0,0,0-2.32-1c-.25.11-.56.25-.59.52a4.4,4.4,0,0,0,.52,1.44Z"/>
        <path class="e" d="M44.79,23.51c.92,2.42.07,4.77-2,5.63s-4.33-.24-5.32-2.6-.18-4.79,2-5.68S43.86,21.07,44.79,23.51ZM38.73,26c.94,2.28,2.47,3.37,3.87,2.8s1.75-2.43.88-4.7S41,20.65,39.59,21.24,37.81,23.73,38.73,26Z"/>
        <path class="e" d="M45.94,19.89l1.82,4.79A3.53,3.53,0,0,0,48.47,26a1,1,0,0,0,.84.08c.08,0,.1,0,.14.11s0,.14,0,.17c-.35.12-.73.23-1.12.38s-.79.32-1.12.46c-.07,0-.09,0-.13-.09s0-.13,0-.17a.94.94,0,0,0,.52-.6,3.42,3.42,0,0,0-.28-1.48l-1.43-4a3.14,3.14,0,0,0-.65-1.28,1.14,1.14,0,0,0-.95,0c-.07,0-.1,0-.15-.13s0-.16,0-.19l1-.35,1.19-.45c.38.37.63.57,1.24,1.08,1.44,1.18,2.15,1.77,3.56,3,.54.47.86.74,1.28,1.15L52,22.35,50.87,19a3.32,3.32,0,0,0-.7-1.28.94.94,0,0,0-.82-.09c-.09,0-.13,0-.17-.11s0-.18,0-.2c.31-.1.78-.22,1.16-.35s.87-.33,1.12-.43c.07,0,.1,0,.14.13s0,.15,0,.19a.86.86,0,0,0-.53.56,3.46,3.46,0,0,0,.23,1.44l1.32,4c.25.77.42,1.23.65,1.83-.48.59-.52.61-.56.63a.1.1,0,0,1-.1,0c-.5-.46-.78-.72-1.75-1.56-1.88-1.61-2.83-2.41-4.76-4Z"/>
        <path class="e" d="M59.13,15.8c0-.52,0-1,0-1.58l1.1-.31c.37-.11.83-.26,1.19-.37.07,0,.1,0,.13.12s0,.15,0,.18c-.42.17-.58.22-.63.48a3.74,3.74,0,0,0,.28,1.5l1.25,4.06c.35,1.12.42,1.25.58,1.45s.39.16.81.09c.07,0,.1,0,.13.12s0,.14-.06.16c-.44.11-1,.25-1.46.37s-.95.29-1.36.43c-.06,0-.08,0-.12-.12s0-.13,0-.16c.36-.16.55-.22.59-.49a4.5,4.5,0,0,0-.33-1.53l-1.5-4.9-.09,0c-.11,1.78-.15,2.66-.23,4.44-.06,1.37-.11,2.18-.14,3.14,0,.1,0,.14-.14.18s-.17,0-.23-.06c-.56-.79-1.06-1.44-1.75-2.31C56,19.23,55.4,18.49,54.22,17l-.12,0,1.57,4.88a3.86,3.86,0,0,0,.65,1.37,1.07,1.07,0,0,0,.82.12c.09,0,.11,0,.14.1s0,.15-.06.18c-.36.1-.71.19-1.11.32s-.75.27-1.1.4c-.06,0-.1,0-.14-.1s0-.14,0-.18c.22-.12.48-.28.53-.56a3.73,3.73,0,0,0-.24-1.5L54,18a3.35,3.35,0,0,0-.6-1.4c-.21-.19-.52-.09-.89,0-.06,0-.1,0-.14-.13s0-.15,0-.17c.41-.11.83-.23,1.15-.34l1.17-.39a13.7,13.7,0,0,0,.82,1.15c1,1.32,1.54,2,2.55,3.3.38.5.53.7.9,1.22,0-.6,0-.8,0-1.48C59.06,18.17,59.08,17.38,59.13,15.8Z"/>
        <path class="e" d="M66.25,18.84a4.08,4.08,0,0,0,.51,1.33c.24.25.6.2,1,.09a2.29,2.29,0,0,0,1.55-1,4.76,4.76,0,0,0,.49-1.35c0-.09,0-.13.14-.12s.14.06.15.13a16.34,16.34,0,0,1,0,2.13c-.87.19-1.77.4-2.58.61s-1.8.49-2.65.74c-.07,0-.09,0-.13-.11s0-.14,0-.17c.36-.15.52-.2.56-.47a4.72,4.72,0,0,0-.29-1.53l-1.14-4.09c-.3-1.08-.35-1.23-.53-1.44s-.38-.14-.81-.07c-.07,0-.1,0-.13-.12s0-.16,0-.18c.9-.21,1.83-.44,2.69-.67s1.72-.45,2.6-.7c.19.57.46,1.31.69,1.88,0,.07,0,.12-.08.16s-.15,0-.19,0a3.29,3.29,0,0,0-1-1,2.16,2.16,0,0,0-1.63,0c-.36.09-.67.2-.73.49a4.24,4.24,0,0,0,.27,1.39l.45,1.65.56-.13a2.35,2.35,0,0,0,1.19-.57,1.32,1.32,0,0,0,.19-.87c0-.07,0-.11.12-.14s.13,0,.15.08c.1.4.19.81.29,1.19s.25.91.36,1.31c0,.09,0,.13-.09.15s-.14,0-.18-.08a1.59,1.59,0,0,0-.62-.75,2.4,2.4,0,0,0-1.32,0l-.55.16Z"/>
        <path class="e" d="M70.78,12.46l1.26,5a3.55,3.55,0,0,0,.56,1.4,1,1,0,0,0,.83.19c.08,0,.1,0,.12.13s0,.14-.07.16c-.37.07-.76.13-1.16.23s-.83.22-1.17.31c-.08,0-.09,0-.12-.1s0-.14,0-.17a.93.93,0,0,0,.59-.52,3.38,3.38,0,0,0-.11-1.5l-1-4.15a3.15,3.15,0,0,0-.5-1.35,1.17,1.17,0,0,0-.94-.15c-.07,0-.1,0-.13-.15s0-.16.05-.18l1.08-.22,1.24-.29c.34.42.56.64,1.12,1.22,1.3,1.35,1.94,2,3.21,3.39.49.53.78.84,1.15,1.3l-.29-1.3-.78-3.41a3.34,3.34,0,0,0-.56-1.35,1,1,0,0,0-.8-.19c-.1,0-.13,0-.16-.13s0-.18.05-.19c.32-.06.8-.12,1.2-.2s.91-.22,1.17-.28c.07,0,.1,0,.13.14s0,.15-.06.18a.85.85,0,0,0-.59.49,3.41,3.41,0,0,0,.06,1.45l.85,4.16c.16.79.28,1.27.44,1.89-.55.52-.59.54-.64.55a.11.11,0,0,1-.1,0c-.45-.52-.7-.81-1.57-1.76-1.69-1.83-2.55-2.74-4.3-4.54Z"/>
        <path class="e" d="M80.75,11.33c-.21-1.05-.25-1.24-.4-1.45s-.37-.15-.63-.1a1.82,1.82,0,0,0-1.14.63,3.62,3.62,0,0,0-.48,1.36c0,.06,0,.1-.15.1s-.12,0-.14-.1c0-.6-.14-1.43-.22-2L81,9.17l3.43-.61c.15.58.37,1.39.54,2,0,.07,0,.11-.09.14s-.16,0-.19,0a3.41,3.41,0,0,0-.95-1.12,1.88,1.88,0,0,0-1.34-.2c-.26,0-.47.06-.57.33A3.76,3.76,0,0,0,82,11.11l.8,4.17c.22,1.15.23,1.28.38,1.51s.44.17.83.16c.07,0,.1,0,.12.13s0,.15-.07.17c-.42.06-1,.13-1.44.21s-1,.2-1.37.28c-.07,0-.09,0-.12-.12s0-.15.06-.18c.34-.11.57-.17.63-.41a5,5,0,0,0-.21-1.54Z"/>
        <path class="e" d="M90.18,13.09c-.34,0-.78.06-1.17.11s-.83.14-1.26.22l-.18,1.26A2,2,0,0,0,87.68,16c.13.23.48.26.85.26.06,0,.09,0,.12.14s0,.16-.09.17l-1.26.16-1,.18c-.09,0-.11,0-.14-.13s0-.15.08-.17a1,1,0,0,0,.53-.45,4,4,0,0,0,.38-1.44c.23-1.56.35-2.35.59-3.91s.28-1.89.35-2.52l.76-.53a.12.12,0,0,1,.15.09c.32.69.6,1.24,1.3,2.69s1,2.17,1.73,3.62a5.42,5.42,0,0,0,.7,1.26c.21.22.33.25.7.22.11,0,.13,0,.15.13s0,.15-.11.17L92,16.07l-1.42.2c-.07,0-.08,0-.1-.14s0-.15.06-.16c.38-.07.62-.15.65-.39a2.43,2.43,0,0,0-.37-1.19ZM89,10.71c-.36-.73-.5-1.05-.68-1.45-.07.47-.11.78-.22,1.55s-.19,1.28-.32,2.13c.34,0,.75-.08,1.14-.14s.73-.1,1-.16Z"/>
        <path class="e" d="M95.82,13.51a4.11,4.11,0,0,0,.32,1.39c.21.29.58.28,1,.24a2.38,2.38,0,0,0,1.67-.75,4.05,4.05,0,0,0,.66-1.23c0-.08.06-.11.17-.08s.12.08.12.15a17.81,17.81,0,0,1-.29,2.1c-.91.05-1.84.13-2.68.21s-1.86.21-2.75.32c-.07,0-.09,0-.11-.13s0-.14.07-.16c.38-.09.57-.12.66-.38a4.38,4.38,0,0,0-.08-1.55L94,9.44c-.15-1.11-.18-1.26-.33-1.5s-.37-.2-.79-.19c-.09,0-.11,0-.13-.14s0-.17.08-.17c.45,0,1-.07,1.5-.12s1-.15,1.49-.2c.08,0,.12,0,.14.15s0,.14-.08.16c-.39.08-.62.11-.7.35a4.55,4.55,0,0,0,.08,1.53Z"/>
        <path class="e" d="M19.54,59.35A2.45,2.45,0,0,1,17,58.06a2.11,2.11,0,0,1,.72-3,2.92,2.92,0,0,1,.9-.38,2.05,2.05,0,0,0,.82-.48c.3.51.74,1.13,1.08,1.65,0,.05,0,.08,0,.15s-.11.06-.16,0c-.86-.73-1.75-1.08-2.4-.66a1.32,1.32,0,0,0-.21,1.88,1.67,1.67,0,0,0,1.66.71H20c1.55,0,2.21.18,2.91,1.38a2.39,2.39,0,0,1-.82,3.49,3.31,3.31,0,0,1-1.7.62c-.33-.11-.94-1-1.29-1.48-.05-.07-.09-.14,0-.22s.12-.07.17,0c1,.77,2,1.17,2.73.74a1.54,1.54,0,0,0,.28-2.17c-.45-.76-1-.94-2.15-.94Z"/>
        <path class="e" d="M23.79,54.05c-.52-.94-.63-1.1-.82-1.25s-.37,0-.57.1a1.64,1.64,0,0,0-.77.95,3.93,3.93,0,0,0,0,1.44c0,.06,0,.1-.09.14s-.12,0-.15-.06c-.23-.56-.59-1.31-.85-1.85,1-.54,1.83-1.06,2.73-1.59S25.07,50.88,26,50.3c.32.51.76,1.2,1.1,1.7,0,.06,0,.09,0,.16s-.13.06-.17,0a3.29,3.29,0,0,0-1.17-.77,1.55,1.55,0,0,0-1.21.22c-.21.12-.38.2-.38.49a4.15,4.15,0,0,0,.6,1.35l2,3.71c.56,1,.62,1.15.82,1.32s.43,0,.75-.1c.06,0,.09,0,.14.09s.06.15,0,.18c-.34.18-.8.43-1.16.64s-.78.49-1.08.68c-.05,0-.08,0-.14-.08s-.06-.14,0-.19c.25-.21.43-.33.4-.58a5.46,5.46,0,0,0-.69-1.4Z"/>
        <path class="e" d="M32.77,49A3.94,3.94,0,0,0,32,47.88a.9.9,0,0,0-.84,0c-.06,0-.09,0-.15-.11s-.06-.16,0-.19c.33-.16.72-.32,1-.5s.63-.37.93-.53c.06,0,.08,0,.14.1s.05.16,0,.2a.77.77,0,0,0-.37.66,3.19,3.19,0,0,0,.41,1.34l.65,1.34c.32.68.64,1.33.94,1.95a3.22,3.22,0,0,1,.35,2.28,2.39,2.39,0,0,1-1.25,1.53,2.5,2.5,0,0,1-3.7-1.15c-.33-.63-.7-1.37-1.06-2L28.4,51.4c-.51-1-.59-1.11-.8-1.27s-.39-.08-.77.08c-.06,0-.08,0-.14-.11s-.07-.15,0-.18c.38-.2.85-.42,1.21-.62s.84-.5,1.21-.71c.06,0,.09,0,.15.1s.05.14,0,.19c-.32.22-.47.32-.45.59a4.8,4.8,0,0,0,.58,1.39l.71,1.37.7,1.37c.48.92.85,1.51,1.44,1.75a1.65,1.65,0,0,0,1.41-.07A1.85,1.85,0,0,0,34.71,54a2.88,2.88,0,0,0-.4-1.86c-.26-.52-.51-1.05-.86-1.74Z"/>
        <path class="e" d="M35.43,47.69c-.48-1-.55-1.15-.76-1.33s-.39-.07-.78.08c-.05,0-.07,0-.13-.1s-.06-.15,0-.18c.39-.18.78-.35,1.19-.56s1.13-.62,1.66-.88c2.4-1.16,4.32-.32,5.39,2.11s.45,4.6-1.84,5.71c-.45.22-1.07.44-1.57.69s-.74.4-1.07.57c-.05,0-.08,0-.13-.09s0-.13,0-.17c.3-.19.47-.36.47-.58a5.62,5.62,0,0,0-.59-1.45ZM38.24,51c.41.87.53,1.07.74,1.23s.55.13,1-.07c1.64-.79,1.94-2.52.92-4.8s-2.49-3.08-4.14-2.28c-.5.24-.79.48-.81.75a3.52,3.52,0,0,0,.5,1.35Z"/>
        <path class="e" d="M45.42,47.7c.46,1.08.52,1.23.7,1.41s.41.09.77,0c.06,0,.09,0,.13.11s0,.14,0,.17c-.41.17-.86.34-1.25.51s-.8.39-1.16.55c0,0-.08,0-.12-.1s0-.13,0-.17c.3-.19.49-.27.49-.54a5.31,5.31,0,0,0-.53-1.48l-1.68-3.9c-.45-1-.5-1.17-.69-1.36s-.41-.09-.79,0c0,0-.07,0-.13-.12s0-.15,0-.17c.42-.18.9-.35,1.28-.52s.85-.42,1.23-.59c.06,0,.09,0,.14.12s0,.14,0,.17c-.31.19-.51.29-.52.54a5,5,0,0,0,.5,1.44Z"/>
        <path class="e" d="M48.77,46.27a4.46,4.46,0,0,0,.65,1.26c.25.23.57.13.94,0a2,2,0,0,0,1.26-1.11A4.93,4.93,0,0,0,51.87,45c0-.09,0-.13.11-.13s.14,0,.15.12a18.21,18.21,0,0,1,.3,2.11c-.76.27-1.54.58-2.25.86s-1.56.67-2.29,1c-.06,0-.08,0-.13-.1s0-.14,0-.17c.3-.18.44-.25.44-.52a5.21,5.21,0,0,0-.48-1.49l-1.61-3.93c-.43-1-.49-1.18-.69-1.37s-.36-.1-.75,0c-.07,0-.09,0-.14-.11s0-.16,0-.18c.79-.3,1.6-.62,2.35-.93s1.5-.62,2.26-1c.25.54.6,1.25.89,1.79a.11.11,0,0,1,0,.17c-.08.05-.14,0-.18,0a3.3,3.3,0,0,0-1-.89,1.82,1.82,0,0,0-1.48.14c-.32.13-.58.26-.6.56a4.67,4.67,0,0,0,.44,1.35l.64,1.58.49-.19a2,2,0,0,0,1-.68,1.41,1.41,0,0,0,0-.88c0-.07,0-.11.09-.15s.12,0,.15.07c.15.39.29.78.43,1.15s.36.87.51,1.26c0,.09,0,.12-.06.16s-.12,0-.17-.06a1.63,1.63,0,0,0-.67-.68,2,2,0,0,0-1.19.18l-.48.21Z"/>
        <path class="e" d="M53.52,42.27a2.54,2.54,0,0,1-2.27-1.79,2,2,0,0,1,1.25-2.73,2.9,2.9,0,0,1,1-.18,2,2,0,0,0,.9-.29c.2.56.52,1.26.76,1.83,0,.06,0,.09,0,.14s-.12,0-.16,0c-.71-.89-1.53-1.41-2.24-1.15s-.87.94-.55,1.78a1.74,1.74,0,0,0,1.5,1l.58.11c1.53.3,2.14.64,2.61,2a2.31,2.31,0,0,1-1.45,3.22,3.28,3.28,0,0,1-1.79.24,6.3,6.3,0,0,1-1-1.71c0-.07-.07-.15,0-.21s.13,0,.17,0c.81,1,1.8,1.57,2.55,1.29a1.49,1.49,0,0,0,.67-2c-.3-.84-.85-1.13-1.94-1.37Z"/>
      </g>
      <g>
        <path class="c" d="M10.26,43.4a4,4,0,0,0,.85,1.13c.3.17.62,0,1-.24a2.41,2.41,0,0,0,1.2-1.42,5,5,0,0,0,.1-1.46c0-.09,0-.13.1-.16s.15,0,.18.08a16.9,16.9,0,0,1,.58,2.07c-.77.45-1.57.94-2.28,1.39s-1.57,1-2.32,1.54c-.06,0-.09,0-.15-.07s-.06-.13,0-.18c.3-.25.44-.36.41-.63a4.71,4.71,0,0,0-.69-1.4L7,40.45c-.58-1-.67-1.09-.9-1.24s-.4,0-.79.18c-.07,0-.09,0-.16-.08s-.07-.15,0-.19c.8-.48,1.62-1,2.38-1.48s1.51-1,2.27-1.48c.33.49.79,1.13,1.16,1.61,0,.06,0,.12,0,.18s-.14.07-.19,0a3.1,3.1,0,0,0-1.21-.66A2.13,2.13,0,0,0,8,37.79c-.32.2-.58.4-.56.7a4.23,4.23,0,0,0,.64,1.27L9,41.23l.5-.3a2.45,2.45,0,0,0,1-.92,1.38,1.38,0,0,0-.06-.9c0-.07,0-.11.08-.17s.13,0,.17,0c.2.36.4.73.6,1.07s.49.8.7,1.16c0,.08.06.12,0,.18s-.13,0-.19,0a1.52,1.52,0,0,0-.79-.54,2.38,2.38,0,0,0-1.24.45c-.15.09-.35.22-.48.32Z"/>
        <path class="c" d="M12.82,35.81l2.55,4.43a3.45,3.45,0,0,0,.91,1.18,1,1,0,0,0,.83-.07c.08,0,.1,0,.15.09s0,.14,0,.17c-.33.18-.68.36-1,.58s-.73.47-1,.66c-.07,0-.09,0-.14-.06s-.06-.13,0-.17a1,1,0,0,0,.42-.69,3.43,3.43,0,0,0-.51-1.42l-2-3.73A3.08,3.08,0,0,0,12,35.62a1.13,1.13,0,0,0-.93.14c-.07,0-.1,0-.17-.1s-.06-.15,0-.19c.32-.19.69-.38,1-.54l1.1-.67c.43.3.71.45,1.39.84,1.6.91,2.39,1.37,4,2.3.61.37,1,.58,1.44.91l-.63-1.17-1.67-3.07a3.25,3.25,0,0,0-.9-1.14.93.93,0,0,0-.81.06c-.09,0-.12,0-.19-.08s-.06-.17,0-.2c.29-.15.73-.36,1.08-.56s.8-.49,1-.63c.06,0,.09,0,.16.1s.05.14,0,.19a.89.89,0,0,0-.43.65,3.47,3.47,0,0,0,.46,1.39l1.94,3.77c.37.72.61,1.14.93,1.7-.38.67-.41.7-.45.73a.1.1,0,0,1-.11,0c-.56-.36-.88-.57-2-1.23-2.1-1.26-3.17-1.87-5.31-3.08Z"/>
        <path class="c" d="M24,34.69c.55.56.79.82,1.06,1.13-.07-.41-.17-.81-.3-1.58-.26-1.48-.38-2.22-.63-3.71a2.74,2.74,0,0,0-.46-1.34c-.2-.17-.49-.16-.85,0-.08,0-.12,0-.18-.09s0-.17,0-.22c.38-.19.79-.36,1.17-.55s.7-.4,1-.58c.06,0,.09,0,.16.1s.06.17,0,.2a1.06,1.06,0,0,0-.47.7,4.59,4.59,0,0,0,0,1.56c.25,1.75.38,2.62.65,4.36.18,1.19.25,1.49.37,2.11-.42.61-.48.66-.53.69s-.05,0-.09,0c-.51-.56-1-1-1.66-1.72-1.24-1.24-1.87-1.86-3.12-3.09a5.93,5.93,0,0,0-1.2-1c-.26-.12-.38-.12-.78.06-.07,0-.09,0-.16-.1s-.06-.17,0-.2c.43-.22.9-.44,1.32-.67s.91-.53,1.3-.76c.06,0,.1,0,.17.11s0,.16,0,.2c-.31.22-.52.36-.48.6s.42.62,1,1.17C22.38,33.06,22.91,33.6,24,34.69Z"/>
        <path class="c" d="M29.87,32.35c.5,1.06.56,1.21.76,1.37s.44.06.83-.08c.07,0,.1,0,.15.1s0,.14,0,.17c-.44.21-.93.42-1.35.62s-.86.46-1.25.66c-.05,0-.08,0-.13-.09s-.05-.13,0-.17c.32-.22.53-.32.53-.59a4.84,4.84,0,0,0-.57-1.46L27,29.05c-.48-1-.54-1.15-.75-1.33s-.44-.05-.86.1c0,0-.08,0-.14-.11s0-.15,0-.18c.45-.22,1-.43,1.38-.64s.91-.49,1.33-.7c.06,0,.1,0,.15.11s0,.14,0,.18c-.34.22-.55.34-.55.6a4.59,4.59,0,0,0,.54,1.43Z"/>
        <path class="c" d="M33.46,30.62c.48,1.07.56,1.22.74,1.37s.43.09.83,0c.07,0,.09,0,.14.12s0,.14,0,.17c-.42.18-.91.37-1.33.56s-.86.45-1.24.64c-.07,0-.11,0-.15-.08s0-.15,0-.19c.32-.2.51-.32.5-.58a5,5,0,0,0-.53-1.47l-1.75-3.86c-.46-1-.52-1.16-.72-1.34s-.48,0-.89.1c-.07,0-.1,0-.15-.11s0-.15,0-.18l1.37-.61c.36-.17,1-.49,1.55-.77,1.89-.86,3-.29,3.47.84a2.22,2.22,0,0,1-.74,2.63c.77.65,1.61,1.36,2.5,2.06a2.75,2.75,0,0,0,.89.57,1.2,1.2,0,0,0,.63-.09c.06,0,.08,0,.13.11s0,.15,0,.17c-.38.15-.7.26-1,.39l-.84.39a6.67,6.67,0,0,0-.7-.69c-.87-.76-1.69-1.47-2.58-2.22l-.3.15c-.19.09-.35.16-.59.25Zm-.93-2.08a4.67,4.67,0,0,0,.63-.24,1.73,1.73,0,0,0,1-2.51,1.57,1.57,0,0,0-2.32-1c-.25.11-.56.25-.59.52a4.4,4.4,0,0,0,.52,1.44Z"/>
        <path class="c" d="M44.79,23.51c.92,2.42.07,4.77-2,5.63s-4.33-.24-5.32-2.6-.18-4.79,2-5.68S43.86,21.07,44.79,23.51ZM38.73,26c.94,2.28,2.47,3.37,3.87,2.8s1.75-2.43.88-4.7S41,20.65,39.59,21.24,37.81,23.73,38.73,26Z"/>
        <path class="c" d="M45.94,19.89l1.82,4.79A3.53,3.53,0,0,0,48.47,26a1,1,0,0,0,.84.08c.08,0,.1,0,.14.11s0,.14,0,.17c-.35.12-.73.23-1.12.38s-.79.32-1.12.46c-.07,0-.09,0-.13-.09s0-.13,0-.17a.94.94,0,0,0,.52-.6,3.42,3.42,0,0,0-.28-1.48l-1.43-4a3.14,3.14,0,0,0-.65-1.28,1.14,1.14,0,0,0-.95,0c-.07,0-.1,0-.15-.13s0-.16,0-.19l1-.35,1.19-.45c.38.37.63.57,1.24,1.08,1.44,1.18,2.15,1.77,3.56,3,.54.47.86.74,1.28,1.15L52,22.35,50.87,19a3.32,3.32,0,0,0-.7-1.28.94.94,0,0,0-.82-.09c-.09,0-.13,0-.17-.11s0-.18,0-.2c.31-.1.78-.22,1.16-.35s.87-.33,1.12-.43c.07,0,.1,0,.14.13s0,.15,0,.19a.86.86,0,0,0-.53.56,3.46,3.46,0,0,0,.23,1.44l1.32,4c.25.77.42,1.23.65,1.83-.48.59-.52.61-.56.63a.1.1,0,0,1-.1,0c-.5-.46-.78-.72-1.75-1.56-1.88-1.61-2.83-2.41-4.76-4Z"/>
        <path class="c" d="M59.13,15.8c0-.52,0-1,0-1.58l1.1-.31c.37-.11.83-.26,1.19-.37.07,0,.1,0,.13.12s0,.15,0,.18c-.42.17-.58.22-.63.48a3.74,3.74,0,0,0,.28,1.5l1.25,4.06c.35,1.12.42,1.25.58,1.45s.39.16.81.09c.07,0,.1,0,.13.12s0,.14-.06.16c-.44.11-1,.25-1.46.37s-.95.29-1.36.43c-.06,0-.08,0-.12-.12s0-.13,0-.16c.36-.16.55-.22.59-.49a4.5,4.5,0,0,0-.33-1.53l-1.5-4.9-.09,0c-.11,1.78-.15,2.66-.23,4.44-.06,1.37-.11,2.18-.14,3.14,0,.1,0,.14-.14.18s-.17,0-.23-.06c-.56-.79-1.06-1.44-1.75-2.31C56,19.23,55.4,18.49,54.22,17l-.12,0,1.57,4.88a3.86,3.86,0,0,0,.65,1.37,1.07,1.07,0,0,0,.82.12c.09,0,.11,0,.14.1s0,.15-.06.18c-.36.1-.71.19-1.11.32s-.75.27-1.1.4c-.06,0-.1,0-.14-.1s0-.14,0-.18c.22-.12.48-.28.53-.56a3.73,3.73,0,0,0-.24-1.5L54,18a3.35,3.35,0,0,0-.6-1.4c-.21-.19-.52-.09-.89,0-.06,0-.1,0-.14-.13s0-.15,0-.17c.41-.11.83-.23,1.15-.34l1.17-.39a13.7,13.7,0,0,0,.82,1.15c1,1.32,1.54,2,2.55,3.3.38.5.53.7.9,1.22,0-.6,0-.8,0-1.48C59.06,18.17,59.08,17.38,59.13,15.8Z"/>
        <path class="c" d="M66.25,18.84a4.08,4.08,0,0,0,.51,1.33c.24.25.6.2,1,.09a2.29,2.29,0,0,0,1.55-1,4.76,4.76,0,0,0,.49-1.35c0-.09,0-.13.14-.12s.14.06.15.13a16.34,16.34,0,0,1,0,2.13c-.87.19-1.77.4-2.58.61s-1.8.49-2.65.74c-.07,0-.09,0-.13-.11s0-.14,0-.17c.36-.15.52-.2.56-.47a4.72,4.72,0,0,0-.29-1.53l-1.14-4.09c-.3-1.08-.35-1.23-.53-1.44s-.38-.14-.81-.07c-.07,0-.1,0-.13-.12s0-.16,0-.18c.9-.21,1.83-.44,2.69-.67s1.72-.45,2.6-.7c.19.57.46,1.31.69,1.88,0,.07,0,.12-.08.16s-.15,0-.19,0a3.29,3.29,0,0,0-1-1,2.16,2.16,0,0,0-1.63,0c-.36.09-.67.2-.73.49a4.24,4.24,0,0,0,.27,1.39l.45,1.65.56-.13a2.35,2.35,0,0,0,1.19-.57,1.32,1.32,0,0,0,.19-.87c0-.07,0-.11.12-.14s.13,0,.15.08c.1.4.19.81.29,1.19s.25.91.36,1.31c0,.09,0,.13-.09.15s-.14,0-.18-.08a1.59,1.59,0,0,0-.62-.75,2.4,2.4,0,0,0-1.32,0l-.55.16Z"/>
        <path class="c" d="M70.78,12.46l1.26,5a3.55,3.55,0,0,0,.56,1.4,1,1,0,0,0,.83.19c.08,0,.1,0,.12.13s0,.14-.07.16c-.37.07-.76.13-1.16.23s-.83.22-1.17.31c-.08,0-.09,0-.12-.1s0-.14,0-.17a.93.93,0,0,0,.59-.52,3.38,3.38,0,0,0-.11-1.5l-1-4.15a3.15,3.15,0,0,0-.5-1.35,1.17,1.17,0,0,0-.94-.15c-.07,0-.1,0-.13-.15s0-.16.05-.18l1.08-.22,1.24-.29c.34.42.56.64,1.12,1.22,1.3,1.35,1.94,2,3.21,3.39.49.53.78.84,1.15,1.3l-.29-1.3-.78-3.41a3.34,3.34,0,0,0-.56-1.35,1,1,0,0,0-.8-.19c-.1,0-.13,0-.16-.13s0-.18.05-.19c.32-.06.8-.12,1.2-.2s.91-.22,1.17-.28c.07,0,.1,0,.13.14s0,.15-.06.18a.85.85,0,0,0-.59.49,3.41,3.41,0,0,0,.06,1.45l.85,4.16c.16.79.28,1.27.44,1.89-.55.52-.59.54-.64.55a.11.11,0,0,1-.1,0c-.45-.52-.7-.81-1.57-1.76-1.69-1.83-2.55-2.74-4.3-4.54Z"/>
        <path class="c" d="M80.75,11.33c-.21-1.05-.25-1.24-.4-1.45s-.37-.15-.63-.1a1.82,1.82,0,0,0-1.14.63,3.62,3.62,0,0,0-.48,1.36c0,.06,0,.1-.15.1s-.12,0-.14-.1c0-.6-.14-1.43-.22-2L81,9.17l3.43-.61c.15.58.37,1.39.54,2,0,.07,0,.11-.09.14s-.16,0-.19,0a3.41,3.41,0,0,0-.95-1.12,1.88,1.88,0,0,0-1.34-.2c-.26,0-.47.06-.57.33A3.76,3.76,0,0,0,82,11.11l.8,4.17c.22,1.15.23,1.28.38,1.51s.44.17.83.16c.07,0,.1,0,.12.13s0,.15-.07.17c-.42.06-1,.13-1.44.21s-1,.2-1.37.28c-.07,0-.09,0-.12-.12s0-.15.06-.18c.34-.11.57-.17.63-.41a5,5,0,0,0-.21-1.54Z"/>
        <path class="c" d="M90.18,13.09c-.34,0-.78.06-1.17.11s-.83.14-1.26.22l-.18,1.26A2,2,0,0,0,87.68,16c.13.23.48.26.85.26.06,0,.09,0,.12.14s0,.16-.09.17l-1.26.16-1,.18c-.09,0-.11,0-.14-.13s0-.15.08-.17a1,1,0,0,0,.53-.45,4,4,0,0,0,.38-1.44c.23-1.56.35-2.35.59-3.91s.28-1.89.35-2.52l.76-.53a.12.12,0,0,1,.15.09c.32.69.6,1.24,1.3,2.69s1,2.17,1.73,3.62a5.42,5.42,0,0,0,.7,1.26c.21.22.33.25.7.22.11,0,.13,0,.15.13s0,.15-.11.17L92,16.07l-1.42.2c-.07,0-.08,0-.1-.14s0-.15.06-.16c.38-.07.62-.15.65-.39a2.43,2.43,0,0,0-.37-1.19ZM89,10.71c-.36-.73-.5-1.05-.68-1.45-.07.47-.11.78-.22,1.55s-.19,1.28-.32,2.13c.34,0,.75-.08,1.14-.14s.73-.1,1-.16Z"/>
        <path class="c" d="M95.82,13.51a4.11,4.11,0,0,0,.32,1.39c.21.29.58.28,1,.24a2.38,2.38,0,0,0,1.67-.75,4.05,4.05,0,0,0,.66-1.23c0-.08.06-.11.17-.08s.12.08.12.15a17.81,17.81,0,0,1-.29,2.1c-.91.05-1.84.13-2.68.21s-1.86.21-2.75.32c-.07,0-.09,0-.11-.13s0-.14.07-.16c.38-.09.57-.12.66-.38a4.38,4.38,0,0,0-.08-1.55L94,9.44c-.15-1.11-.18-1.26-.33-1.5s-.37-.2-.79-.19c-.09,0-.11,0-.13-.14s0-.17.08-.17c.45,0,1-.07,1.5-.12s1-.15,1.49-.2c.08,0,.12,0,.14.15s0,.14-.08.16c-.39.08-.62.11-.7.35a4.55,4.55,0,0,0,.08,1.53Z"/>
        <path class="c" d="M19.54,59.35A2.45,2.45,0,0,1,17,58.06a2.11,2.11,0,0,1,.72-3,2.92,2.92,0,0,1,.9-.38,2.05,2.05,0,0,0,.82-.48c.3.51.74,1.13,1.08,1.65,0,.05,0,.08,0,.15s-.11.06-.16,0c-.86-.73-1.75-1.08-2.4-.66a1.32,1.32,0,0,0-.21,1.88,1.67,1.67,0,0,0,1.66.71H20c1.55,0,2.21.18,2.91,1.38a2.39,2.39,0,0,1-.82,3.49,3.31,3.31,0,0,1-1.7.62c-.33-.11-.94-1-1.29-1.48-.05-.07-.09-.14,0-.22s.12-.07.17,0c1,.77,2,1.17,2.73.74a1.54,1.54,0,0,0,.28-2.17c-.45-.76-1-.94-2.15-.94Z"/>
        <path class="c" d="M23.79,54.05c-.52-.94-.63-1.1-.82-1.25s-.37,0-.57.1a1.64,1.64,0,0,0-.77.95,3.93,3.93,0,0,0,0,1.44c0,.06,0,.1-.09.14s-.12,0-.15-.06c-.23-.56-.59-1.31-.85-1.85,1-.54,1.83-1.06,2.73-1.59S25.07,50.88,26,50.3c.32.51.76,1.2,1.1,1.7,0,.06,0,.09,0,.16s-.13.06-.17,0a3.29,3.29,0,0,0-1.17-.77,1.55,1.55,0,0,0-1.21.22c-.21.12-.38.2-.38.49a4.15,4.15,0,0,0,.6,1.35l2,3.71c.56,1,.62,1.15.82,1.32s.43,0,.75-.1c.06,0,.09,0,.14.09s.06.15,0,.18c-.34.18-.8.43-1.16.64s-.78.49-1.08.68c-.05,0-.08,0-.14-.08s-.06-.14,0-.19c.25-.21.43-.33.4-.58a5.46,5.46,0,0,0-.69-1.4Z"/>
        <path class="c" d="M32.77,49A3.94,3.94,0,0,0,32,47.88a.9.9,0,0,0-.84,0c-.06,0-.09,0-.15-.11s-.06-.16,0-.19c.33-.16.72-.32,1-.5s.63-.37.93-.53c.06,0,.08,0,.14.1s.05.16,0,.2a.77.77,0,0,0-.37.66,3.19,3.19,0,0,0,.41,1.34l.65,1.34c.32.68.64,1.33.94,1.95a3.22,3.22,0,0,1,.35,2.28,2.39,2.39,0,0,1-1.25,1.53,2.5,2.5,0,0,1-3.7-1.15c-.33-.63-.7-1.37-1.06-2L28.4,51.4c-.51-1-.59-1.11-.8-1.27s-.39-.08-.77.08c-.06,0-.08,0-.14-.11s-.07-.15,0-.18c.38-.2.85-.42,1.21-.62s.84-.5,1.21-.71c.06,0,.09,0,.15.1s.05.14,0,.19c-.32.22-.47.32-.45.59a4.8,4.8,0,0,0,.58,1.39l.71,1.37.7,1.37c.48.92.85,1.51,1.44,1.75a1.65,1.65,0,0,0,1.41-.07A1.85,1.85,0,0,0,34.71,54a2.88,2.88,0,0,0-.4-1.86c-.26-.52-.51-1.05-.86-1.74Z"/>
        <path class="c" d="M35.43,47.69c-.48-1-.55-1.15-.76-1.33s-.39-.07-.78.08c-.05,0-.07,0-.13-.1s-.06-.15,0-.18c.39-.18.78-.35,1.19-.56s1.13-.62,1.66-.88c2.4-1.16,4.32-.32,5.39,2.11s.45,4.6-1.84,5.71c-.45.22-1.07.44-1.57.69s-.74.4-1.07.57c-.05,0-.08,0-.13-.09s0-.13,0-.17c.3-.19.47-.36.47-.58a5.62,5.62,0,0,0-.59-1.45ZM38.24,51c.41.87.53,1.07.74,1.23s.55.13,1-.07c1.64-.79,1.94-2.52.92-4.8s-2.49-3.08-4.14-2.28c-.5.24-.79.48-.81.75a3.52,3.52,0,0,0,.5,1.35Z"/>
        <path class="c" d="M45.42,47.7c.46,1.08.52,1.23.7,1.41s.41.09.77,0c.06,0,.09,0,.13.11s0,.14,0,.17c-.41.17-.86.34-1.25.51s-.8.39-1.16.55c0,0-.08,0-.12-.1s0-.13,0-.17c.3-.19.49-.27.49-.54a5.31,5.31,0,0,0-.53-1.48l-1.68-3.9c-.45-1-.5-1.17-.69-1.36s-.41-.09-.79,0c0,0-.07,0-.13-.12s0-.15,0-.17c.42-.18.9-.35,1.28-.52s.85-.42,1.23-.59c.06,0,.09,0,.14.12s0,.14,0,.17c-.31.19-.51.29-.52.54a5,5,0,0,0,.5,1.44Z"/>
        <path class="c" d="M48.77,46.27a4.46,4.46,0,0,0,.65,1.26c.25.23.57.13.94,0a2,2,0,0,0,1.26-1.11A4.93,4.93,0,0,0,51.87,45c0-.09,0-.13.11-.13s.14,0,.15.12a18.21,18.21,0,0,1,.3,2.11c-.76.27-1.54.58-2.25.86s-1.56.67-2.29,1c-.06,0-.08,0-.13-.1s0-.14,0-.17c.3-.18.44-.25.44-.52a5.21,5.21,0,0,0-.48-1.49l-1.61-3.93c-.43-1-.49-1.18-.69-1.37s-.36-.1-.75,0c-.07,0-.09,0-.14-.11s0-.16,0-.18c.79-.3,1.6-.62,2.35-.93s1.5-.62,2.26-1c.25.54.6,1.25.89,1.79a.11.11,0,0,1,0,.17c-.08.05-.14,0-.18,0a3.3,3.3,0,0,0-1-.89,1.82,1.82,0,0,0-1.48.14c-.32.13-.58.26-.6.56a4.67,4.67,0,0,0,.44,1.35l.64,1.58.49-.19a2,2,0,0,0,1-.68,1.41,1.41,0,0,0,0-.88c0-.07,0-.11.09-.15s.12,0,.15.07c.15.39.29.78.43,1.15s.36.87.51,1.26c0,.09,0,.12-.06.16s-.12,0-.17-.06a1.63,1.63,0,0,0-.67-.68,2,2,0,0,0-1.19.18l-.48.21Z"/>
        <path class="c" d="M53.52,42.27a2.54,2.54,0,0,1-2.27-1.79,2,2,0,0,1,1.25-2.73,2.9,2.9,0,0,1,1-.18,2,2,0,0,0,.9-.29c.2.56.52,1.26.76,1.83,0,.06,0,.09,0,.14s-.12,0-.16,0c-.71-.89-1.53-1.41-2.24-1.15s-.87.94-.55,1.78a1.74,1.74,0,0,0,1.5,1l.58.11c1.53.3,2.14.64,2.61,2a2.31,2.31,0,0,1-1.45,3.22,3.28,3.28,0,0,1-1.79.24,6.3,6.3,0,0,1-1-1.71c0-.07-.07-.15,0-.21s.13,0,.17,0c.81,1,1.8,1.57,2.55,1.29a1.49,1.49,0,0,0,.67-2c-.3-.84-.85-1.13-1.94-1.37Z"/>
      </g>
    </g>
  </g>
</svg>
