<svg id="geology" xmlns="http://www.w3.org/2000/svg" viewBox="0 0 135.97 76.23"><defs><style>.cls-1,.cls-3,.cls-8,.cls-9{fill:none;}.cls-1,.cls-2{stroke:#fff;stroke-width:4px;}.cls-1,.cls-2,.cls-3,.cls-4,.cls-5,.cls-8,.cls-9{stroke-miterlimit:10;}.cls-2,.cls-4,.cls-5,.cls-6,.cls-7{fill:#a3d2a1;}.cls-3,.cls-4,.cls-9{stroke:#a3d2a1;}.cls-3,.cls-4{stroke-width:3px;}.cls-5,.cls-8{stroke:#000;}.cls-7{font-size:18px;font-family:YuMincho-Regular, Yu Mincho;}.cls-9{stroke-width:0.5px;}</style></defs><title>geology</title><line class="cls-1" x1="39.9" y1="30.62" x2="38.44" y2="36.09"/><line class="cls-1" x1="38.19" y1="37.82" x2="36.73" y2="43.29"/><line class="cls-1" x1="45.3" y1="31.07" x2="43.84" y2="36.54"/><line class="cls-1" x1="43.59" y1="38.27" x2="42.13" y2="43.74"/><line class="cls-1" x1="50.88" y1="31.34" x2="49.42" y2="36.81"/><line class="cls-1" x1="49.17" y1="38.54" x2="47.71" y2="44.01"/><line class="cls-1" x1="56.28" y1="31.34" x2="54.82" y2="36.81"/><line class="cls-1" x1="54.57" y1="38.54" x2="53.11" y2="44.01"/><path class="cls-1" d="M75.46,23.33c0-2.59-2.58-4.73-5.94-5.09a2.86,2.86,0,0,0,.39-1.42c0-2.38-3.11-4.32-6.95-4.32-3.33,0-6.1,1.45-6.79,3.39a8.38,8.38,0,0,0-5.51-1.79C47,14.1,44,15.93,44,18.18v0c-4.39.22-7.83,2.43-7.83,5.12,0,2.26,2.42,4.17,5.79,4.86a2.3,2.3,0,0,0,0,.45c0,2.31,3.45,4.19,7.7,4.19a10.76,10.76,0,0,0,6.2-1.71c1.35,1.36,4,2.3,7.17,2.3,4.46,0,8.08-1.92,8.08-4.28a2.37,2.37,0,0,0-.22-1C73.53,27.46,75.46,25.56,75.46,23.33Z" transform="translate(-8.03 -4.37)"/><path class="cls-1" d="M8.54,45.44C21.91,41.87,48.63,50.63,64,72.54c1.46,2.08,3,4,4.21,6.12" transform="translate(-8.03 -4.37)"/><path class="cls-1" d="M11.24,67.4c4.89-1.3,14.67,1.91,20.3,9.92.54.76,1.09,1.48,1.55,2.24" transform="translate(-8.03 -4.37)"/><path class="cls-1" d="M9.44,56.93c8.75-2.34,26.23,3.39,36.3,17.73,1,1.36,1.94,2.64,2.76,4" transform="translate(-8.03 -4.37)"/><circle class="cls-2" cx="20.1" cy="40.47" r="5.28"/><circle class="cls-1" cx="49.12" cy="60.04" r="4.46"/><ellipse class="cls-1" cx="28.3" cy="45.32" rx="11.34" ry="2.93" transform="translate(-32.42 32.07) rotate(-48.45)"/><circle class="cls-2" cx="18.58" cy="67.59" r="4.08"/><line class="cls-3" x1="39.9" y1="30.62" x2="38.44" y2="36.09"/><line class="cls-3" x1="38.19" y1="37.82" x2="36.73" y2="43.29"/><line class="cls-3" x1="45.3" y1="31.07" x2="43.84" y2="36.54"/><line class="cls-3" x1="43.59" y1="38.27" x2="42.13" y2="43.74"/><line class="cls-3" x1="50.88" y1="31.34" x2="49.42" y2="36.81"/><line class="cls-3" x1="49.17" y1="38.54" x2="47.71" y2="44.01"/><line class="cls-3" x1="56.28" y1="31.34" x2="54.82" y2="36.81"/><line class="cls-3" x1="54.57" y1="38.54" x2="53.11" y2="44.01"/><path class="cls-3" d="M75.46,23.33c0-2.59-2.58-4.73-5.94-5.09a2.86,2.86,0,0,0,.39-1.42c0-2.38-3.11-4.32-6.95-4.32-3.33,0-6.1,1.45-6.79,3.39a8.38,8.38,0,0,0-5.51-1.79C47,14.1,44,15.93,44,18.18v0c-4.39.22-7.83,2.43-7.83,5.12,0,2.26,2.42,4.17,5.79,4.86a2.3,2.3,0,0,0,0,.45c0,2.31,3.45,4.19,7.7,4.19a10.76,10.76,0,0,0,6.2-1.71c1.35,1.36,4,2.3,7.17,2.3,4.46,0,8.08-1.92,8.08-4.28a2.37,2.37,0,0,0-.22-1C73.53,27.46,75.46,25.56,75.46,23.33Z" transform="translate(-8.03 -4.37)"/><path class="cls-3" d="M8.54,45.44C21.91,41.87,48.63,50.63,64,72.54c1.46,2.08,3,4,4.21,6.12" transform="translate(-8.03 -4.37)"/><path class="cls-3" d="M11.24,67.4c4.89-1.3,14.67,1.91,20.3,9.92.54.76,1.09,1.48,1.55,2.24" transform="translate(-8.03 -4.37)"/><path class="cls-3" d="M9.44,56.93c8.75-2.34,26.23,3.39,36.3,17.73,1,1.36,1.94,2.64,2.76,4" transform="translate(-8.03 -4.37)"/><circle class="cls-4" cx="20.1" cy="40.47" r="5.28"/><circle class="cls-3" cx="49.12" cy="60.04" r="4.46"/><ellipse class="cls-3" cx="28.3" cy="45.32" rx="11.34" ry="2.93" transform="translate(-32.42 32.07) rotate(-48.45)"/><circle class="cls-4" cx="18.58" cy="67.59" r="4.08"/><path class="cls-5" d="M83.13,19.54A2,2,0,0,1,82.2,19a1.16,1.16,0,0,1-.2-.7c0-.64.55-1.21,1.65-1.7a2.49,2.49,0,0,1-.92-4.48,3.28,3.28,0,0,1,2.06-.67,3.89,3.89,0,0,1,1.64.39c1,0,1.92,0,2.79-.12.07,0,.1,0,.1.11l-.21.54a.2.2,0,0,1-.18.13c-.41,0-1-.06-1.79-.06a2.13,2.13,0,0,1,.7,1.6,2.49,2.49,0,0,1-.93,2.06,3.26,3.26,0,0,1-2.12.67,2.27,2.27,0,0,1-.5-.06c-.71.37-1.07.78-1.07,1.23s.4.55,1.21.55l1.82,0c2,0,3,.77,3,2.29A2.67,2.67,0,0,1,88,23.09a5.48,5.48,0,0,1-3.15.79,4.41,4.41,0,0,1-2.68-.75,1.81,1.81,0,0,1-.86-1.5C81.35,20.7,81.94,20,83.13,19.54Zm.63.16a3.51,3.51,0,0,0-.43.27,1.74,1.74,0,0,0-.63,1.39,1.79,1.79,0,0,0,.78,1.54,3,3,0,0,0,1.75.48,3.05,3.05,0,0,0,2.18-.77,2,2,0,0,0,.67-1.5,1.12,1.12,0,0,0-.54-1.06A3,3,0,0,0,86,19.76H84.94A11.22,11.22,0,0,1,83.76,19.7Zm1-7.76a1.52,1.52,0,0,0-1.3.64,2.58,2.58,0,0,0-.41,1.52,2.5,2.5,0,0,0,.55,1.72,1.54,1.54,0,0,0,1.17.5,1.49,1.49,0,0,0,1.27-.66,2.6,2.6,0,0,0,.44-1.56,2.29,2.29,0,0,0-.57-1.66A1.49,1.49,0,0,0,84.79,11.94Z" transform="translate(-8.03 -4.37)"/><path class="cls-5" d="M92.41,14.93a5.34,5.34,0,0,0-.06.73,3.74,3.74,0,0,0,.94,2.62,2.36,2.36,0,0,0,1.74.83,2.85,2.85,0,0,0,2.46-1.27.13.13,0,0,1,.12-.07.29.29,0,0,1,.21.1.19.19,0,0,1,.1.14.43.43,0,0,1-.11.23,3.45,3.45,0,0,1-3,1.68,3.67,3.67,0,0,1-2.92-1.28,4.28,4.28,0,0,1-1-2.88,4.35,4.35,0,0,1,1.25-3.21,3.53,3.53,0,0,1,2.6-1.08,3,3,0,0,1,2.37,1A3.45,3.45,0,0,1,98,14.66a.29.29,0,0,1-.09.22.26.26,0,0,1-.19.09q-1.81-.06-3.54-.06Zm.1-.63,1.48,0c.81,0,1.59,0,2.33-.07.11,0,.17-.08.17-.24a2.48,2.48,0,0,0-.61-1.53A1.53,1.53,0,0,0,94.74,12a1.88,1.88,0,0,0-1.42.67A3.72,3.72,0,0,0,92.51,14.3Z" transform="translate(-8.03 -4.37)"/><path class="cls-5" d="M103.57,11.47a3.63,3.63,0,0,1,2.85,1.26,4.23,4.23,0,0,1,1,2.91,4.29,4.29,0,0,1-1.25,3.22,3.79,3.79,0,0,1-5.49-.24,4.26,4.26,0,0,1-1-2.86A4.33,4.33,0,0,1,101,12.52,3.58,3.58,0,0,1,103.57,11.47Zm0,.54a1.94,1.94,0,0,0-1.75,1,5.24,5.24,0,0,0-.57,2.65,4.7,4.7,0,0,0,.73,2.91,1.89,1.89,0,0,0,1.59.76,2,2,0,0,0,1.77-1.05,4.94,4.94,0,0,0,.59-2.62,4.72,4.72,0,0,0-.75-2.95A2,2,0,0,0,103.57,12Z" transform="translate(-8.03 -4.37)"/><path class="cls-5" d="M110.23,17V9.15a5,5,0,0,0-.14-1.48.54.54,0,0,0-.56-.36l-.64,0c-.09,0-.14-.07-.14-.21a.24.24,0,0,1,.21-.26,18.12,18.12,0,0,0,2.44-.72q.18,0,.18.15c0,1.11-.08,2.53-.08,4.28V17a5.84,5.84,0,0,0,.15,1.86c.1.16.44.26,1,.32.12,0,.17.09.17.22s0,.2-.16.2c-.72,0-1.29,0-1.71,0s-1.11,0-1.87,0c-.1,0-.14-.07-.14-.2s0-.2.14-.22c.55,0,.87-.15,1-.32A5.38,5.38,0,0,0,110.23,17Z" transform="translate(-8.03 -4.37)"/><path class="cls-5" d="M118,11.47a3.63,3.63,0,0,1,2.85,1.26,4.23,4.23,0,0,1,1,2.91,4.32,4.32,0,0,1-1.25,3.22,3.79,3.79,0,0,1-5.49-.24,4.21,4.21,0,0,1-1-2.86,4.33,4.33,0,0,1,1.29-3.24A3.58,3.58,0,0,1,118,11.47Zm0,.54a1.93,1.93,0,0,0-1.75,1,5.24,5.24,0,0,0-.57,2.65,4.7,4.7,0,0,0,.73,2.91,1.89,1.89,0,0,0,1.59.76,2,2,0,0,0,1.77-1.05,5,5,0,0,0,.59-2.62,4.65,4.65,0,0,0-.76-2.95A2,2,0,0,0,118,12Z" transform="translate(-8.03 -4.37)"/><path class="cls-5" d="M125.48,19.54a1.89,1.89,0,0,1-.93-.52,1.1,1.1,0,0,1-.2-.7c0-.64.55-1.21,1.65-1.7a2.46,2.46,0,0,1-2-2.44,2.44,2.44,0,0,1,1.06-2,3.26,3.26,0,0,1,2-.67,3.93,3.93,0,0,1,1.65.39c1,0,1.92,0,2.78-.12a.1.1,0,0,1,.11.11l-.21.54a.22.22,0,0,1-.19.13c-.4,0-1-.06-1.78-.06a2.13,2.13,0,0,1,.7,1.6,2.49,2.49,0,0,1-.93,2.06,3.31,3.31,0,0,1-2.13.67,2.34,2.34,0,0,1-.5-.06c-.71.37-1.06.78-1.06,1.23s.4.55,1.2.55l1.82,0c2,0,3,.77,3,2.29a2.67,2.67,0,0,1-1.23,2.33,5.42,5.42,0,0,1-3.14.79,4.41,4.41,0,0,1-2.68-.75,1.79,1.79,0,0,1-.86-1.5C123.7,20.7,124.29,20,125.48,19.54Zm.62.16a4.48,4.48,0,0,0-.43.27,1.76,1.76,0,0,0-.62,1.39,1.81,1.81,0,0,0,.77,1.54,3,3,0,0,0,1.75.48,3,3,0,0,0,2.18-.77,2,2,0,0,0,.68-1.5,1.11,1.11,0,0,0-.55-1.06,2.94,2.94,0,0,0-1.51-.29h-1.09A11.37,11.37,0,0,1,126.1,19.7Zm1-7.76a1.5,1.5,0,0,0-1.29.64,2.51,2.51,0,0,0-.41,1.52,2.45,2.45,0,0,0,.55,1.72,1.53,1.53,0,0,0,1.17.5,1.49,1.49,0,0,0,1.27-.66,2.59,2.59,0,0,0,.43-1.56,2.29,2.29,0,0,0-.57-1.66A1.48,1.48,0,0,0,127.13,11.94Z" transform="translate(-8.03 -4.37)"/><path class="cls-5" d="M136.4,19.61c-.23-.61-.51-1.31-.84-2.09l-1.32-3.29a7.64,7.64,0,0,0-.86-1.75,1.31,1.31,0,0,0-1-.33c-.09,0-.14-.08-.14-.19s.05-.22.14-.22c.78,0,1.39,0,1.84,0s1.12,0,1.92,0c.09,0,.14.07.14.22s0,.18-.14.19a2.18,2.18,0,0,0-.89.18.34.34,0,0,0-.16.31,6.09,6.09,0,0,0,.48,1.59l.93,2.32c.08.19.19.45.32.8l.25.64c.2-.56.38-1,.55-1.48l.85-2.28a4.79,4.79,0,0,0,.35-1.39.6.6,0,0,0-.22-.53,1.85,1.85,0,0,0-.79-.16c-.09,0-.14-.06-.14-.19s0-.22.14-.22c.7,0,1.24,0,1.61,0s.8,0,1.43,0c.1,0,.15.07.15.22s0,.18-.15.19a1.14,1.14,0,0,0-.79.31,5.59,5.59,0,0,0-.89,1.77L138,17.49l-1.15,2.75q-1.55,3.65-3.56,3.64c-.43,0-.65-.14-.65-.43a1.13,1.13,0,0,1,.35-.76.9.9,0,0,1,.6-.32,1.48,1.48,0,0,1,.44.09,1.65,1.65,0,0,0,.43.08c.16,0,.37-.15.62-.46A9.19,9.19,0,0,0,136.4,19.61Z" transform="translate(-8.03 -4.37)"/><path class="cls-6" d="M83.13,19.54A2,2,0,0,1,82.2,19a1.16,1.16,0,0,1-.2-.7c0-.64.55-1.21,1.65-1.7a2.49,2.49,0,0,1-.92-4.48,3.28,3.28,0,0,1,2.06-.67,3.89,3.89,0,0,1,1.64.39c1,0,1.92,0,2.79-.12.07,0,.1,0,.1.11l-.21.54a.2.2,0,0,1-.18.13c-.41,0-1-.06-1.79-.06a2.13,2.13,0,0,1,.7,1.6,2.49,2.49,0,0,1-.93,2.06,3.26,3.26,0,0,1-2.12.67,2.27,2.27,0,0,1-.5-.06c-.71.37-1.07.78-1.07,1.23s.4.55,1.21.55l1.82,0c2,0,3,.77,3,2.29A2.67,2.67,0,0,1,88,23.09a5.48,5.48,0,0,1-3.15.79,4.41,4.41,0,0,1-2.68-.75,1.81,1.81,0,0,1-.86-1.5C81.35,20.7,81.94,20,83.13,19.54Zm.63.16a3.51,3.51,0,0,0-.43.27,1.74,1.74,0,0,0-.63,1.39,1.79,1.79,0,0,0,.78,1.54,3,3,0,0,0,1.75.48,3.05,3.05,0,0,0,2.18-.77,2,2,0,0,0,.67-1.5,1.12,1.12,0,0,0-.54-1.06A3,3,0,0,0,86,19.76H84.94A11.22,11.22,0,0,1,83.76,19.7Zm1-7.76a1.52,1.52,0,0,0-1.3.64,2.58,2.58,0,0,0-.41,1.52,2.5,2.5,0,0,0,.55,1.72,1.54,1.54,0,0,0,1.17.5,1.49,1.49,0,0,0,1.27-.66,2.6,2.6,0,0,0,.44-1.56,2.29,2.29,0,0,0-.57-1.66A1.49,1.49,0,0,0,84.79,11.94Z" transform="translate(-8.03 -4.37)"/><path class="cls-6" d="M92.41,14.93a5.34,5.34,0,0,0-.06.73,3.74,3.74,0,0,0,.94,2.62,2.36,2.36,0,0,0,1.74.83,2.85,2.85,0,0,0,2.46-1.27.13.13,0,0,1,.12-.07.29.29,0,0,1,.21.1.19.19,0,0,1,.1.14.43.43,0,0,1-.11.23,3.45,3.45,0,0,1-3,1.68,3.67,3.67,0,0,1-2.92-1.28,4.28,4.28,0,0,1-1-2.88,4.35,4.35,0,0,1,1.25-3.21,3.53,3.53,0,0,1,2.6-1.08,3,3,0,0,1,2.37,1A3.45,3.45,0,0,1,98,14.66a.29.29,0,0,1-.09.22.26.26,0,0,1-.19.09q-1.81-.06-3.54-.06Zm.1-.63,1.48,0c.81,0,1.59,0,2.33-.07.11,0,.17-.08.17-.24a2.48,2.48,0,0,0-.61-1.53A1.53,1.53,0,0,0,94.74,12a1.88,1.88,0,0,0-1.42.67A3.72,3.72,0,0,0,92.51,14.3Z" transform="translate(-8.03 -4.37)"/><path class="cls-6" d="M103.57,11.47a3.63,3.63,0,0,1,2.85,1.26,4.23,4.23,0,0,1,1,2.91,4.29,4.29,0,0,1-1.25,3.22,3.79,3.79,0,0,1-5.49-.24,4.26,4.26,0,0,1-1-2.86A4.33,4.33,0,0,1,101,12.52,3.58,3.58,0,0,1,103.57,11.47Zm0,.54a1.94,1.94,0,0,0-1.75,1,5.24,5.24,0,0,0-.57,2.65,4.7,4.7,0,0,0,.73,2.91,1.89,1.89,0,0,0,1.59.76,2,2,0,0,0,1.77-1.05,4.94,4.94,0,0,0,.59-2.62,4.72,4.72,0,0,0-.75-2.95A2,2,0,0,0,103.57,12Z" transform="translate(-8.03 -4.37)"/><path class="cls-6" d="M110.23,17V9.15a5,5,0,0,0-.14-1.48.54.54,0,0,0-.56-.36l-.64,0c-.09,0-.14-.07-.14-.21a.24.24,0,0,1,.21-.26,18.12,18.12,0,0,0,2.44-.72q.18,0,.18.15c0,1.11-.08,2.53-.08,4.28V17a5.84,5.84,0,0,0,.15,1.86c.1.16.44.26,1,.32.12,0,.17.09.17.22s0,.2-.16.2c-.72,0-1.29,0-1.71,0s-1.11,0-1.87,0c-.1,0-.14-.07-.14-.2s0-.2.14-.22c.55,0,.87-.15,1-.32A5.38,5.38,0,0,0,110.23,17Z" transform="translate(-8.03 -4.37)"/><path class="cls-6" d="M118,11.47a3.63,3.63,0,0,1,2.85,1.26,4.23,4.23,0,0,1,1,2.91,4.32,4.32,0,0,1-1.25,3.22,3.79,3.79,0,0,1-5.49-.24,4.21,4.21,0,0,1-1-2.86,4.33,4.33,0,0,1,1.29-3.24A3.58,3.58,0,0,1,118,11.47Zm0,.54a1.93,1.93,0,0,0-1.75,1,5.24,5.24,0,0,0-.57,2.65,4.7,4.7,0,0,0,.73,2.91,1.89,1.89,0,0,0,1.59.76,2,2,0,0,0,1.77-1.05,5,5,0,0,0,.59-2.62,4.65,4.65,0,0,0-.76-2.95A2,2,0,0,0,118,12Z" transform="translate(-8.03 -4.37)"/><path class="cls-6" d="M125.48,19.54a1.89,1.89,0,0,1-.93-.52,1.1,1.1,0,0,1-.2-.7c0-.64.55-1.21,1.65-1.7a2.46,2.46,0,0,1-2-2.44,2.44,2.44,0,0,1,1.06-2,3.26,3.26,0,0,1,2-.67,3.93,3.93,0,0,1,1.65.39c1,0,1.92,0,2.78-.12a.1.1,0,0,1,.11.11l-.21.54a.22.22,0,0,1-.19.13c-.4,0-1-.06-1.78-.06a2.13,2.13,0,0,1,.7,1.6,2.49,2.49,0,0,1-.93,2.06,3.31,3.31,0,0,1-2.13.67,2.34,2.34,0,0,1-.5-.06c-.71.37-1.06.78-1.06,1.23s.4.55,1.2.55l1.82,0c2,0,3,.77,3,2.29a2.67,2.67,0,0,1-1.23,2.33,5.42,5.42,0,0,1-3.14.79,4.41,4.41,0,0,1-2.68-.75,1.79,1.79,0,0,1-.86-1.5C123.7,20.7,124.29,20,125.48,19.54Zm.62.16a4.48,4.48,0,0,0-.43.27,1.76,1.76,0,0,0-.62,1.39,1.81,1.81,0,0,0,.77,1.54,3,3,0,0,0,1.75.48,3,3,0,0,0,2.18-.77,2,2,0,0,0,.68-1.5,1.11,1.11,0,0,0-.55-1.06,2.94,2.94,0,0,0-1.51-.29h-1.09A11.37,11.37,0,0,1,126.1,19.7Zm1-7.76a1.5,1.5,0,0,0-1.29.64,2.51,2.51,0,0,0-.41,1.52,2.45,2.45,0,0,0,.55,1.72,1.53,1.53,0,0,0,1.17.5,1.49,1.49,0,0,0,1.27-.66,2.59,2.59,0,0,0,.43-1.56,2.29,2.29,0,0,0-.57-1.66A1.48,1.48,0,0,0,127.13,11.94Z" transform="translate(-8.03 -4.37)"/><path class="cls-6" d="M136.4,19.61c-.23-.61-.51-1.31-.84-2.09l-1.32-3.29a7.64,7.64,0,0,0-.86-1.75,1.31,1.31,0,0,0-1-.33c-.09,0-.14-.08-.14-.19s.05-.22.14-.22c.78,0,1.39,0,1.84,0s1.12,0,1.92,0c.09,0,.14.07.14.22s0,.18-.14.19a2.18,2.18,0,0,0-.89.18.34.34,0,0,0-.16.31,6.09,6.09,0,0,0,.48,1.59l.93,2.32c.08.19.19.45.32.8l.25.64c.2-.56.38-1,.55-1.48l.85-2.28a4.79,4.79,0,0,0,.35-1.39.6.6,0,0,0-.22-.53,1.85,1.85,0,0,0-.79-.16c-.09,0-.14-.06-.14-.19s0-.22.14-.22c.7,0,1.24,0,1.61,0s.8,0,1.43,0c.1,0,.15.07.15.22s0,.18-.15.19a1.14,1.14,0,0,0-.79.31,5.59,5.59,0,0,0-.89,1.77L138,17.49l-1.15,2.75q-1.55,3.65-3.56,3.64c-.43,0-.65-.14-.65-.43a1.13,1.13,0,0,1,.35-.76.9.9,0,0,1,.6-.32,1.48,1.48,0,0,1,.44.09,1.65,1.65,0,0,0,.43.08c.16,0,.37-.15.62-.46A9.19,9.19,0,0,0,136.4,19.61Z" transform="translate(-8.03 -4.37)"/><text class="cls-7" transform="translate(72.48 15.84)">geology</text><line class="cls-8" x1="72.47" y1="22.63" x2="133.47" y2="22.63"/><line class="cls-9" x1="72.47" y1="22.63" x2="133.47" y2="22.63"/></svg>