<svg id="history" xmlns="http://www.w3.org/2000/svg" viewBox="0 0 120.26 79.38"><defs><style>.cls-1,.cls-4{fill:none;}.cls-1,.cls-2,.cls-3{stroke:#fff;stroke-width:4px;}.cls-1,.cls-2,.cls-3,.cls-4,.cls-5,.cls-6,.cls-7{stroke-miterlimit:10;}.cls-2,.cls-5,.cls-7,.cls-8{fill:#fc9;}.cls-3,.cls-6{fill:#fff;}.cls-4,.cls-5,.cls-6{stroke:#fc9;stroke-width:3px;}.cls-7{stroke:#000;}</style></defs><title>history</title><g id="futi"><path class="cls-1" d="M71.89,33.67c3,3,9.66,14,5.57,26.17-2.09,6.21-5.74,10.78-7.86,12.45" transform="translate(-13.62 -0.32)"/><polygon class="cls-1" points="58.54 71.56 55.63 72.17 56.55 69.35 58.54 71.56"/><rect class="cls-2" x="27.96" y="13.01" width="4.62" height="7.19"/><ellipse class="cls-2" cx="29.72" cy="10.22" rx="6.81" ry="3.86"/><ellipse class="cls-1" cx="29.72" cy="9.84" rx="12.28" ry="7.84"/><circle class="cls-3" cx="29.72" cy="49.66" r="27.72"/><path class="cls-1" d="M44.29,46.38l11-11" transform="translate(-13.62 -0.32)"/><path class="cls-1" d="M42.79,48.26,60.55,66" transform="translate(-13.62 -0.32)"/><circle class="cls-2" cx="29.95" cy="47.49" r="2.89"/><line class="cls-1" x1="29.88" y1="24.18" x2="29.88" y2="31.18"/><line class="cls-1" x1="29.88" y1="68.18" x2="29.88" y2="75.18"/><line class="cls-1" x1="5.38" y1="47.68" x2="11.38" y2="47.68"/><line class="cls-1" x1="54.38" y1="47.68" x2="48.38" y2="47.68"/></g><g id="illust"><path class="cls-4" d="M71.89,33.67c3,3,9.66,14,5.57,26.17-2.09,6.21-5.74,10.78-7.86,12.45" transform="translate(-13.62 -0.32)"/><polygon class="cls-4" points="58.54 71.56 55.63 72.17 56.55 69.35 58.54 71.56"/><rect class="cls-5" x="27.96" y="13.01" width="4.62" height="7.19"/><ellipse class="cls-5" cx="29.72" cy="10.22" rx="6.81" ry="3.86"/><ellipse class="cls-4" cx="29.72" cy="9.84" rx="12.28" ry="7.84"/><circle class="cls-6" cx="29.72" cy="49.66" r="27.72"/><path class="cls-4" d="M44.29,46.38l11-11" transform="translate(-13.62 -0.32)"/><path class="cls-4" d="M42.79,48.26,60.55,66" transform="translate(-13.62 -0.32)"/><circle class="cls-5" cx="29.95" cy="47.49" r="2.89"/><line class="cls-4" x1="29.88" y1="24.18" x2="29.88" y2="31.18"/><line class="cls-4" x1="29.88" y1="68.18" x2="29.88" y2="75.18"/><line class="cls-4" x1="5.38" y1="47.68" x2="11.38" y2="47.68"/><line class="cls-4" x1="54.38" y1="47.68" x2="48.38" y2="47.68"/></g><g id="history-ver2-futi"><path class="cls-7" d="M77.36,11.32v4.13a3,3,0,0,0,.14,1.15.79.79,0,0,0,.53.33l.83.1c.1,0,.14.07.14.2s0,.2-.16.2H78l-1.67,0c-.82,0-1.62,0-2.4.05-.08,0-.12-.06-.12-.19s0-.2.12-.21a7,7,0,0,0,.83-.12.58.58,0,0,0,.37-.31,2,2,0,0,0,.21-.93c0-.2,0-.66,0-1.37V8.14c0-.87,0-1.42,0-1.65a1.7,1.7,0,0,0-.19-.59.59.59,0,0,0-.45-.3,7.66,7.66,0,0,0-.81-.1c-.09,0-.13-.09-.13-.22s0-.24.13-.24l1.33,0,1.13,0c.31,0,.74,0,1.29,0l1.08,0q.21,0,.21.24c0,.13,0,.2-.16.22l-.83.11a.76.76,0,0,0-.4.29,8.08,8.08,0,0,0-.17,2.24v2.41c.73,0,1.74,0,3,0s2.24,0,2.95,0V8.14c0-.9,0-1.45,0-1.65a1.71,1.71,0,0,0-.14-.59.69.69,0,0,0-.5-.31l-.81-.09c-.09,0-.14-.09-.14-.22s.05-.24.15-.24l1.35,0,1.16,0c.29,0,.7,0,1.24,0l1.1,0c.14,0,.21.08.21.23a.2.2,0,0,1-.19.23,5.85,5.85,0,0,0-.88.13.58.58,0,0,0-.29.27,5.9,5.9,0,0,0-.24,2.24V14.3c0,.91,0,1.48,0,1.71a1.36,1.36,0,0,0,.18.59.75.75,0,0,0,.51.33,7.24,7.24,0,0,0,.82.1c.08,0,.11.08.11.21s-.05.19-.14.19H86l-1.63,0L82,17.43c-.1,0-.15-.06-.15-.19s0-.2.15-.21a7.54,7.54,0,0,0,.81-.12.61.61,0,0,0,.36-.31,7.06,7.06,0,0,0,.2-2.3v-3c-.71-.05-1.69-.07-2.95-.07S78.09,11.27,77.36,11.32Z" transform="translate(-13.62 -0.32)"/><path class="cls-7" d="M89.41,22.75a9,9,0,0,0-.08-1.44.48.48,0,0,0-.5-.35H88.7l-.45,0h-.09c-.07,0-.11-.07-.12-.2a.46.46,0,0,1,0-.1c0-.08.06-.13.19-.15q1.41-.33,2.76-.78c.13,0,.2.05.2.17-.05,1.11-.07,2.11-.07,3v2.23A7.28,7.28,0,0,0,91.23,27a.46.46,0,0,0,.36.23c.08,0,.29,0,.61.06.08,0,.11.08.11.21s0,.21-.11.21l-.63,0-1.26,0-1.92.05c-.11,0-.17-.07-.17-.21s0-.21.15-.21a4.55,4.55,0,0,0,.62-.08.47.47,0,0,0,.28-.21,2.64,2.64,0,0,0,.14-1.08V22.75ZM90.15,15a1.08,1.08,0,0,1,.81.39,1.06,1.06,0,0,1,.32.75,1.12,1.12,0,0,1-.4.83,1.07,1.07,0,0,1-.73.32,1.16,1.16,0,0,1-.85-.4,1.07,1.07,0,0,1,.09-1.59A1.13,1.13,0,0,1,90.15,15Z" transform="translate(-13.62 -0.32)"/><path class="cls-7" d="M100.71,27.15q.08,1.35.15,2c0,.09-.07.14-.19.16h-.08a.21.21,0,0,1-.17-.12c-.57-1.16-1.23-1.74-2-1.74s-1.33.41-1.33,1.22c0,.44.42.85,1.28,1.2l.59.26a5.64,5.64,0,0,1,1.8,1.09,2.3,2.3,0,0,1,.53,1.58,2.25,2.25,0,0,1-.81,1.77,3.26,3.26,0,0,1-2.18.7,6.23,6.23,0,0,1-2.42-.49,12.22,12.22,0,0,1-.37-1.84c0-.09.06-.14.17-.15h.11s.09,0,.13.11a3.91,3.91,0,0,0,1.15,1.42,2,2,0,0,0,1.23.47,1.42,1.42,0,0,0,1.16-.49,1.59,1.59,0,0,0,.32-1,1.1,1.1,0,0,0-.47-.9,6.63,6.63,0,0,0-1.09-.61l-.58-.28a4.84,4.84,0,0,1-1.52-1A2.21,2.21,0,0,1,95.67,29a1.79,1.79,0,0,1,.72-1.45,3.08,3.08,0,0,1,2-.59,6.22,6.22,0,0,1,1.22.17,2.6,2.6,0,0,0,.56.06C100.31,27.19,100.5,27.17,100.71,27.15Z" transform="translate(-13.62 -0.32)"/><path class="cls-7" d="M104.16,38.5h-1.09c-.13,0-.19-.08-.19-.24a.2.2,0,0,1,.2-.23,2.66,2.66,0,0,0,1.5-.73,3.35,3.35,0,0,0,.88-1.21.28.28,0,0,1,.29-.17c.16,0,.24.06.24.17,0,1.1,0,1.68,0,1.73.89,0,1.69,0,2.41,0,.05,0,.07,0,.07.08v0l-.19.5a.15.15,0,0,1-.17.11c-.84,0-1.56-.06-2.15-.06l0,4.34a3.19,3.19,0,0,0,.32,1.76,1.11,1.11,0,0,0,.92.46,1.65,1.65,0,0,0,1.08-.46.21.21,0,0,1,.1,0,.24.24,0,0,1,.17.1.26.26,0,0,1,.11.18.21.21,0,0,1-.07.14,2.82,2.82,0,0,1-2.06.88,2.49,2.49,0,0,1-1.79-.58,2.77,2.77,0,0,1-.57-1.9c0-.48,0-1.28,0-2.4Z" transform="translate(-13.62 -0.32)"/><path class="cls-7" d="M113.81,45.89a3.73,3.73,0,0,1,3,1.35,4.17,4.17,0,0,1,1,2.8,4.12,4.12,0,0,1-1.23,3.08,3.84,3.84,0,0,1-2.75,1.06,3.72,3.72,0,0,1-3-1.34,4.06,4.06,0,0,1-1-2.76A4.16,4.16,0,0,1,111.1,47,3.73,3.73,0,0,1,113.81,45.89Zm0,.51a1.66,1.66,0,0,0-1.53,1.19,6,6,0,0,0-.43,2.45,5.66,5.66,0,0,0,.54,2.74,1.58,1.58,0,0,0,1.42.89,1.7,1.7,0,0,0,1.55-1.19A6,6,0,0,0,115.8,50a5.63,5.63,0,0,0-.55-2.75A1.59,1.59,0,0,0,113.81,46.4Z" transform="translate(-13.62 -0.32)"/><path class="cls-7" d="M120,58.83c.7-1.25,1.43-1.87,2.2-1.87a1.37,1.37,0,0,1,.72.17.41.41,0,0,1,.21.36,1.39,1.39,0,0,1-.34.93.75.75,0,0,1-.58.34,1,1,0,0,1-.5-.21.94.94,0,0,0-.44-.16,1.11,1.11,0,0,0-.79.5A2.3,2.3,0,0,0,120,60.4v2.07a6.84,6.84,0,0,0,.12,1.8.51.51,0,0,0,.37.25c.07,0,.29,0,.64.08q.12,0,.12.21t-.12.18l-.66,0-1.26,0-2,0c-.09,0-.14-.06-.14-.18s.05-.2.14-.21l.63-.09a.41.41,0,0,0,.27-.24,5.4,5.4,0,0,0,.17-1.8V60a5.16,5.16,0,0,0-.14-1.4.47.47,0,0,0-.51-.37h-.07l-.42,0h-.09c-.09,0-.14-.06-.15-.19V58c0-.1.07-.16.21-.19a18.29,18.29,0,0,0,2.72-.76c.14,0,.21.05.21.16C120,58.1,120,58.65,120,58.83Z" transform="translate(-13.62 -0.32)"/><path class="cls-7" d="M128.71,74.3c-.39-.87-.72-1.63-1-2.29l-1.29-3.22a11,11,0,0,0-.81-1.67,1.22,1.22,0,0,0-.91-.36c-.09,0-.13-.07-.13-.22s0-.2.13-.2c.64,0,1.3,0,2,0s1.4,0,2,0c.1,0,.15.07.15.2s0,.22-.14.22c-.53,0-.83.14-.92.31a.42.42,0,0,0,0,.18,5.63,5.63,0,0,0,.49,1.54l.89,2.27c.14.35.27.74.39,1.15l.21-.53c.1-.29.18-.51.24-.67l.84-2.24a3.89,3.89,0,0,0,.27-1.2.83.83,0,0,0-.11-.45,1,1,0,0,0-.83-.36c-.1,0-.15-.08-.15-.22s.06-.2.17-.2l1.57,0c.49,0,1,0,1.45,0,.1,0,.15.07.15.2s0,.21-.15.22a1.25,1.25,0,0,0-.76.34,4.3,4.3,0,0,0-.94,1.67L130.28,72c-.53,1.35-.9,2.25-1.1,2.69a9.68,9.68,0,0,1-1.65,2.65,2.58,2.58,0,0,1-1.89.85c-.49,0-.73-.15-.73-.46a1.29,1.29,0,0,1,.36-.87.91.91,0,0,1,.69-.36,1.29,1.29,0,0,1,.45.09.93.93,0,0,0,.4.12.84.84,0,0,0,.67-.34A10.18,10.18,0,0,0,128.71,74.3Z" transform="translate(-13.62 -0.32)"/></g><g id="history-ver2"><path class="cls-8" d="M77.36,11.32v4.13a3,3,0,0,0,.14,1.15.79.79,0,0,0,.53.33l.83.1c.1,0,.14.07.14.2s0,.2-.16.2H78l-1.67,0c-.82,0-1.62,0-2.4.05-.08,0-.12-.06-.12-.19s0-.2.12-.21a7,7,0,0,0,.83-.12.58.58,0,0,0,.37-.31,2,2,0,0,0,.21-.93c0-.2,0-.66,0-1.37V8.14c0-.87,0-1.42,0-1.65a1.7,1.7,0,0,0-.19-.59.59.59,0,0,0-.45-.3,7.66,7.66,0,0,0-.81-.1c-.09,0-.13-.09-.13-.22s0-.24.13-.24l1.33,0,1.13,0c.31,0,.74,0,1.29,0l1.08,0q.21,0,.21.24c0,.13,0,.2-.16.22l-.83.11a.76.76,0,0,0-.4.29,8.08,8.08,0,0,0-.17,2.24v2.41c.73,0,1.74,0,3,0s2.24,0,2.95,0V8.14c0-.9,0-1.45,0-1.65a1.71,1.71,0,0,0-.14-.59.69.69,0,0,0-.5-.31l-.81-.09c-.09,0-.14-.09-.14-.22s.05-.24.15-.24l1.35,0,1.16,0c.29,0,.7,0,1.24,0l1.1,0c.14,0,.21.08.21.23a.2.2,0,0,1-.19.23,5.85,5.85,0,0,0-.88.13.58.58,0,0,0-.29.27,5.9,5.9,0,0,0-.24,2.24V14.3c0,.91,0,1.48,0,1.71a1.36,1.36,0,0,0,.18.59.75.75,0,0,0,.51.33,7.24,7.24,0,0,0,.82.1c.08,0,.11.08.11.21s-.05.19-.14.19H86l-1.63,0L82,17.43c-.1,0-.15-.06-.15-.19s0-.2.15-.21a7.54,7.54,0,0,0,.81-.12.61.61,0,0,0,.36-.31,7.06,7.06,0,0,0,.2-2.3v-3c-.71-.05-1.69-.07-2.95-.07S78.09,11.27,77.36,11.32Z" transform="translate(-13.62 -0.32)"/><path class="cls-8" d="M89.41,22.75a9,9,0,0,0-.08-1.44.48.48,0,0,0-.5-.35H88.7l-.45,0h-.09c-.07,0-.11-.07-.12-.2a.46.46,0,0,1,0-.1c0-.08.06-.13.19-.15q1.41-.33,2.76-.78c.13,0,.2.05.2.17-.05,1.11-.07,2.11-.07,3v2.23A7.28,7.28,0,0,0,91.23,27a.46.46,0,0,0,.36.23c.08,0,.29,0,.61.06.08,0,.11.08.11.21s0,.21-.11.21l-.63,0-1.26,0-1.92.05c-.11,0-.17-.07-.17-.21s0-.21.15-.21a4.55,4.55,0,0,0,.62-.08.47.47,0,0,0,.28-.21,2.64,2.64,0,0,0,.14-1.08V22.75ZM90.15,15a1.08,1.08,0,0,1,.81.39,1.06,1.06,0,0,1,.32.75,1.12,1.12,0,0,1-.4.83,1.07,1.07,0,0,1-.73.32,1.16,1.16,0,0,1-.85-.4,1.07,1.07,0,0,1,.09-1.59A1.13,1.13,0,0,1,90.15,15Z" transform="translate(-13.62 -0.32)"/><path class="cls-8" d="M100.71,27.15q.08,1.35.15,2c0,.09-.07.14-.19.16h-.08a.21.21,0,0,1-.17-.12c-.57-1.16-1.23-1.74-2-1.74s-1.33.41-1.33,1.22c0,.44.42.85,1.28,1.2l.59.26a5.64,5.64,0,0,1,1.8,1.09,2.3,2.3,0,0,1,.53,1.58,2.25,2.25,0,0,1-.81,1.77,3.26,3.26,0,0,1-2.18.7,6.23,6.23,0,0,1-2.42-.49,12.22,12.22,0,0,1-.37-1.84c0-.09.06-.14.17-.15h.11s.09,0,.13.11a3.91,3.91,0,0,0,1.15,1.42,2,2,0,0,0,1.23.47,1.42,1.42,0,0,0,1.16-.49,1.59,1.59,0,0,0,.32-1,1.1,1.1,0,0,0-.47-.9,6.63,6.63,0,0,0-1.09-.61l-.58-.28a4.84,4.84,0,0,1-1.52-1A2.21,2.21,0,0,1,95.67,29a1.79,1.79,0,0,1,.72-1.45,3.08,3.08,0,0,1,2-.59,6.22,6.22,0,0,1,1.22.17,2.6,2.6,0,0,0,.56.06C100.31,27.19,100.5,27.17,100.71,27.15Z" transform="translate(-13.62 -0.32)"/><path class="cls-8" d="M104.16,38.5h-1.09c-.13,0-.19-.08-.19-.24a.2.2,0,0,1,.2-.23,2.66,2.66,0,0,0,1.5-.73,3.35,3.35,0,0,0,.88-1.21.28.28,0,0,1,.29-.17c.16,0,.24.06.24.17,0,1.1,0,1.68,0,1.73.89,0,1.69,0,2.41,0,.05,0,.07,0,.07.08v0l-.19.5a.15.15,0,0,1-.17.11c-.84,0-1.56-.06-2.15-.06l0,4.34a3.19,3.19,0,0,0,.32,1.76,1.11,1.11,0,0,0,.92.46,1.65,1.65,0,0,0,1.08-.46.21.21,0,0,1,.1,0,.24.24,0,0,1,.17.1.26.26,0,0,1,.11.18.21.21,0,0,1-.07.14,2.82,2.82,0,0,1-2.06.88,2.49,2.49,0,0,1-1.79-.58,2.77,2.77,0,0,1-.57-1.9c0-.48,0-1.28,0-2.4Z" transform="translate(-13.62 -0.32)"/><path class="cls-8" d="M113.81,45.89a3.73,3.73,0,0,1,3,1.35,4.17,4.17,0,0,1,1,2.8,4.12,4.12,0,0,1-1.23,3.08,3.84,3.84,0,0,1-2.75,1.06,3.72,3.72,0,0,1-3-1.34,4.06,4.06,0,0,1-1-2.76A4.16,4.16,0,0,1,111.1,47,3.73,3.73,0,0,1,113.81,45.89Zm0,.51a1.66,1.66,0,0,0-1.53,1.19,6,6,0,0,0-.43,2.45,5.66,5.66,0,0,0,.54,2.74,1.58,1.58,0,0,0,1.42.89,1.7,1.7,0,0,0,1.55-1.19A6,6,0,0,0,115.8,50a5.63,5.63,0,0,0-.55-2.75A1.59,1.59,0,0,0,113.81,46.4Z" transform="translate(-13.62 -0.32)"/><path class="cls-8" d="M120,58.83c.7-1.25,1.43-1.87,2.2-1.87a1.37,1.37,0,0,1,.72.17.41.41,0,0,1,.21.36,1.39,1.39,0,0,1-.34.93.75.75,0,0,1-.58.34,1,1,0,0,1-.5-.21.94.94,0,0,0-.44-.16,1.11,1.11,0,0,0-.79.5A2.3,2.3,0,0,0,120,60.4v2.07a6.84,6.84,0,0,0,.12,1.8.51.51,0,0,0,.37.25c.07,0,.29,0,.64.08q.12,0,.12.21t-.12.18l-.66,0-1.26,0-2,0c-.09,0-.14-.06-.14-.18s.05-.2.14-.21l.63-.09a.41.41,0,0,0,.27-.24,5.4,5.4,0,0,0,.17-1.8V60a5.16,5.16,0,0,0-.14-1.4.47.47,0,0,0-.51-.37h-.07l-.42,0h-.09c-.09,0-.14-.06-.15-.19V58c0-.1.07-.16.21-.19a18.29,18.29,0,0,0,2.72-.76c.14,0,.21.05.21.16C120,58.1,120,58.65,120,58.83Z" transform="translate(-13.62 -0.32)"/><path class="cls-8" d="M128.71,74.3c-.39-.87-.72-1.63-1-2.29l-1.29-3.22a11,11,0,0,0-.81-1.67,1.22,1.22,0,0,0-.91-.36c-.09,0-.13-.07-.13-.22s0-.2.13-.2c.64,0,1.3,0,2,0s1.4,0,2,0c.1,0,.15.07.15.2s0,.22-.14.22c-.53,0-.83.14-.92.31a.42.42,0,0,0,0,.18,5.63,5.63,0,0,0,.49,1.54l.89,2.27c.14.35.27.74.39,1.15l.21-.53c.1-.29.18-.51.24-.67l.84-2.24a3.89,3.89,0,0,0,.27-1.2.83.83,0,0,0-.11-.45,1,1,0,0,0-.83-.36c-.1,0-.15-.08-.15-.22s.06-.2.17-.2l1.57,0c.49,0,1,0,1.45,0,.1,0,.15.07.15.2s0,.21-.15.22a1.25,1.25,0,0,0-.76.34,4.3,4.3,0,0,0-.94,1.67L130.28,72c-.53,1.35-.9,2.25-1.1,2.69a9.68,9.68,0,0,1-1.65,2.65,2.58,2.58,0,0,1-1.89.85c-.49,0-.73-.15-.73-.46a1.29,1.29,0,0,1,.36-.87.91.91,0,0,1,.69-.36,1.29,1.29,0,0,1,.45.09.93.93,0,0,0,.4.12.84.84,0,0,0,.67-.34A10.18,10.18,0,0,0,128.71,74.3Z" transform="translate(-13.62 -0.32)"/></g></svg>