<svg xmlns="http://www.w3.org/2000/svg" viewBox="0 0 144 81"><defs><style>.cls-1{opacity:0;}.cls-2{fill:#fff;}.cls-3{fill:#fcfcfc;stroke:#c0b8e0;stroke-linejoin:bevel;}.cls-3,.cls-4{stroke-width:2px;}.cls-4{fill:none;stroke:#fff;}.cls-5,.cls-6{fill:#c0b8e0;}.cls-5{stroke:#000;stroke-miterlimit:10;}</style></defs><title>Info</title><g id="レイヤー_8" data-name="レイヤー 8" class="cls-1"><rect class="cls-2" width="144" height="81"/></g><g id="情報"><g id="情報のコピー"><rect class="cls-3" x="16.07" y="9.34" width="76.01" height="42.6"/><polygon class="cls-3" points="102.07 71.63 91.02 52.63 16.82 52.38 5.07 71.66 102.07 71.63"/><polygon class="cls-3" points="92.14 64 87.21 55.91 20.25 55.69 14.95 64 92.14 64"/><rect class="cls-3" x="24.57" y="17.04" width="59.57" height="27.22"/><rect class="cls-4" x="16.07" y="9.34" width="76.01" height="42.6"/><polygon class="cls-4" points="102.07 71.63 91.02 52.63 16.82 52.38 5.07 71.66 102.07 71.63"/><polygon class="cls-4" points="92.14 64 87.21 55.91 20.25 55.69 14.95 64 92.14 64"/><rect class="cls-4" x="24.57" y="17.04" width="59.57" height="27.22"/></g><g id="情報-2" data-name="情報"><rect class="cls-3" x="16.07" y="9.34" width="76.01" height="42.6"/><polygon class="cls-3" points="102.07 71.63 91.02 52.63 16.82 52.38 5.07 71.66 102.07 71.63"/><polygon class="cls-3" points="92.14 64 87.21 55.91 20.25 55.69 14.95 64 92.14 64"/><rect class="cls-3" x="24.57" y="17.04" width="59.57" height="27.22"/></g><path class="cls-5" d="M96.92,45.08q.87-.11,1-.15a.88.88,0,0,0,.53-.4,3.11,3.11,0,0,0,.23-1.2c0-.25,0-.83,0-1.76v-8c0-1.15,0-1.86,0-2.11a2.07,2.07,0,0,0-.19-.76.9.9,0,0,0-.65-.41c-.15,0-.51-.08-1.07-.13q-.15,0-.15-.3c0-.2.06-.29.17-.29l1.74.05,1.45,0c.42,0,1,0,1.71,0l1.45,0c.13,0,.2.1.2.31s-.07.26-.2.28a5.61,5.61,0,0,0-1.06.16.89.89,0,0,0-.53.38,9.89,9.89,0,0,0-.23,2.87v8c0,1.26,0,2,0,2.22a1.79,1.79,0,0,0,.2.74.92.92,0,0,0,.66.42c.14,0,.5.07,1.06.13.13,0,.19.1.19.28s-.07.26-.22.26l-1.09,0c-1,0-1.7,0-2.14,0l-3.09.06c-.11,0-.17-.08-.17-.26S96.82,45.09,96.92,45.08Z"/><path class="cls-5" d="M108.76,37.35a3.77,3.77,0,0,1,3.4-2.09,3.48,3.48,0,0,1,2,.62,2.85,2.85,0,0,1,1.22,2.53l0,2.44v1.52a8.12,8.12,0,0,0,.18,2.33A.63.63,0,0,0,116,45a5.65,5.65,0,0,0,.72.1c.11,0,.17.11.17.26s-.06.24-.17.24l-1.31,0-1.09,0-1.32,0-1.19,0q-.18,0-.18-.24c0-.17.06-.26.18-.26a3.77,3.77,0,0,0,.75-.11.58.58,0,0,0,.37-.31,8,8,0,0,0,.18-2.33v-3a4.83,4.83,0,0,0-.27-1.89,1.63,1.63,0,0,0-1.6-1.1,2.08,2.08,0,0,0-1.2.4,2.87,2.87,0,0,0-.78.85,3.35,3.35,0,0,0-.46,1.76v3a10,10,0,0,0,.13,2.33.62.62,0,0,0,.46.32c.09,0,.34.06.75.1.13,0,.19.1.19.26s-.06.24-.19.24l-.79,0c-.73,0-1.25,0-1.56,0l-1.33,0-1.21,0q-.15,0-.15-.24c0-.15,0-.24.15-.26A3.78,3.78,0,0,0,106,45a.56.56,0,0,0,.37-.3,8.45,8.45,0,0,0,.16-2.33V39.11a6.2,6.2,0,0,0-.16-1.84.61.61,0,0,0-.6-.47h-.08l-.59.05H105c-.12,0-.19-.08-.21-.25v-.1c0-.12.09-.2.27-.23a24.08,24.08,0,0,0,3.48-1c.18,0,.26.06.26.18C108.77,35.89,108.76,36.51,108.76,37.35Z"/><path class="cls-5" d="M121.71,36.51v5.82a8,8,0,0,0,.18,2.33c.1.21.59.35,1.46.44.11,0,.17.11.17.26s-.06.26-.17.26l-.94,0c-.86,0-1.45,0-1.77,0l-2.66.06c-.15,0-.23-.08-.23-.26a.23.23,0,0,1,.23-.26c.75-.06,1.18-.21,1.3-.44a8,8,0,0,0,.19-2.33V39.14c0-1.22,0-2.08,0-2.58-.48,0-1.09,0-1.85.06-.09,0-.13,0-.13-.15l.17-.64c0-.09.1-.13.22-.13l1.59,0,0-1.12a6.26,6.26,0,0,1,1.82-4.4,4.43,4.43,0,0,1,3.39-1.52c.86,0,1.3.24,1.3.71a2.19,2.19,0,0,1-.37,1.29.78.78,0,0,1-.62.4.89.89,0,0,1-.56-.17,3.39,3.39,0,0,1-.37-.38c-.39-.44-.68-.65-.87-.65h-.05c-.66.1-1.07.87-1.24,2.31q-.12,1.06-.12,3.51c.88,0,1.78,0,2.68-.07.1,0,.15,0,.15.13l-.19.67a.18.18,0,0,1-.18.15C123.64,36.54,122.82,36.51,121.71,36.51Z"/><path class="cls-5" d="M130.87,35.26A4.81,4.81,0,0,1,134.73,37,5.37,5.37,0,0,1,136,40.63a5.29,5.29,0,0,1-1.59,4A4.91,4.91,0,0,1,130.87,46,4.85,4.85,0,0,1,127,44.25a5.76,5.76,0,0,1,.36-7.58A4.84,4.84,0,0,1,130.87,35.26Zm0,.65a2.18,2.18,0,0,0-2,1.54,7.91,7.91,0,0,0-.56,3.18,7.27,7.27,0,0,0,.71,3.54,2,2,0,0,0,1.84,1.15,2.18,2.18,0,0,0,2-1.54,7.65,7.65,0,0,0,.57-3.15,7.23,7.23,0,0,0-.71-3.57A2.06,2.06,0,0,0,130.87,35.91Z"/><path class="cls-5" d="M139.74,43a1.38,1.38,0,0,1,1.09.49,1.42,1.42,0,0,1,.39,1,1.4,1.4,0,0,1-.49,1.1,1.44,1.44,0,0,1-1,.39,1.43,1.43,0,0,1-1.1-.5,1.44,1.44,0,0,1-.38-1,1.4,1.4,0,0,1,.49-1.09A1.44,1.44,0,0,1,139.74,43Z"/><path class="cls-6" d="M96.92,45.08q.87-.11,1-.15a.88.88,0,0,0,.53-.4,3.11,3.11,0,0,0,.23-1.2c0-.25,0-.83,0-1.76v-8c0-1.15,0-1.86,0-2.11a2.07,2.07,0,0,0-.19-.76.9.9,0,0,0-.65-.41c-.15,0-.51-.08-1.07-.13q-.15,0-.15-.3c0-.2.06-.29.17-.29l1.74.05,1.45,0c.42,0,1,0,1.71,0l1.45,0c.13,0,.2.1.2.31s-.07.26-.2.28a5.61,5.61,0,0,0-1.06.16.89.89,0,0,0-.53.38,9.89,9.89,0,0,0-.23,2.87v8c0,1.26,0,2,0,2.22a1.79,1.79,0,0,0,.2.74.92.92,0,0,0,.66.42c.14,0,.5.07,1.06.13.13,0,.19.1.19.28s-.07.26-.22.26l-1.09,0c-1,0-1.7,0-2.14,0l-3.09.06c-.11,0-.17-.08-.17-.26S96.82,45.09,96.92,45.08Z"/><path class="cls-6" d="M108.76,37.35a3.77,3.77,0,0,1,3.4-2.09,3.48,3.48,0,0,1,2,.62,2.85,2.85,0,0,1,1.22,2.53l0,2.44v1.52a8.12,8.12,0,0,0,.18,2.33A.63.63,0,0,0,116,45a5.65,5.65,0,0,0,.72.1c.11,0,.17.11.17.26s-.06.24-.17.24l-1.31,0-1.09,0-1.32,0-1.19,0q-.18,0-.18-.24c0-.17.06-.26.18-.26a3.77,3.77,0,0,0,.75-.11.58.58,0,0,0,.37-.31,8,8,0,0,0,.18-2.33v-3a4.83,4.83,0,0,0-.27-1.89,1.63,1.63,0,0,0-1.6-1.1,2.08,2.08,0,0,0-1.2.4,2.87,2.87,0,0,0-.78.85,3.35,3.35,0,0,0-.46,1.76v3a10,10,0,0,0,.13,2.33.62.62,0,0,0,.46.32c.09,0,.34.06.75.1.13,0,.19.1.19.26s-.06.24-.19.24l-.79,0c-.73,0-1.25,0-1.56,0l-1.33,0-1.21,0q-.15,0-.15-.24c0-.15,0-.24.15-.26A3.78,3.78,0,0,0,106,45a.56.56,0,0,0,.37-.3,8.45,8.45,0,0,0,.16-2.33V39.11a6.2,6.2,0,0,0-.16-1.84.61.61,0,0,0-.6-.47h-.08l-.59.05H105c-.12,0-.19-.08-.21-.25v-.1c0-.12.09-.2.27-.23a24.08,24.08,0,0,0,3.48-1c.18,0,.26.06.26.18C108.77,35.89,108.76,36.51,108.76,37.35Z"/><path class="cls-6" d="M121.71,36.51v5.82a8,8,0,0,0,.18,2.33c.1.21.59.35,1.46.44.11,0,.17.11.17.26s-.06.26-.17.26l-.94,0c-.86,0-1.45,0-1.77,0l-2.66.06c-.15,0-.23-.08-.23-.26a.23.23,0,0,1,.23-.26c.75-.06,1.18-.21,1.3-.44a8,8,0,0,0,.19-2.33V39.14c0-1.22,0-2.08,0-2.58-.48,0-1.09,0-1.85.06-.09,0-.13,0-.13-.15l.17-.64c0-.09.1-.13.22-.13l1.59,0,0-1.12a6.26,6.26,0,0,1,1.82-4.4,4.43,4.43,0,0,1,3.39-1.52c.86,0,1.3.24,1.3.71a2.19,2.19,0,0,1-.37,1.29.78.78,0,0,1-.62.4.89.89,0,0,1-.56-.17,3.39,3.39,0,0,1-.37-.38c-.39-.44-.68-.65-.87-.65h-.05c-.66.1-1.07.87-1.24,2.31q-.12,1.06-.12,3.51c.88,0,1.78,0,2.68-.07.1,0,.15,0,.15.13l-.19.67a.18.18,0,0,1-.18.15C123.64,36.54,122.82,36.51,121.71,36.51Z"/><path class="cls-6" d="M130.87,35.26A4.81,4.81,0,0,1,134.73,37,5.37,5.37,0,0,1,136,40.63a5.29,5.29,0,0,1-1.59,4A4.91,4.91,0,0,1,130.87,46,4.85,4.85,0,0,1,127,44.25a5.76,5.76,0,0,1,.36-7.58A4.84,4.84,0,0,1,130.87,35.26Zm0,.65a2.18,2.18,0,0,0-2,1.54,7.91,7.91,0,0,0-.56,3.18,7.27,7.27,0,0,0,.71,3.54,2,2,0,0,0,1.84,1.15,2.18,2.18,0,0,0,2-1.54,7.65,7.65,0,0,0,.57-3.15,7.23,7.23,0,0,0-.71-3.57A2.06,2.06,0,0,0,130.87,35.91Z"/><path class="cls-6" d="M139.74,43a1.38,1.38,0,0,1,1.09.49,1.42,1.42,0,0,1,.39,1,1.4,1.4,0,0,1-.49,1.1,1.44,1.44,0,0,1-1,.39,1.43,1.43,0,0,1-1.1-.5,1.44,1.44,0,0,1-.38-1,1.4,1.4,0,0,1,.49-1.09A1.44,1.44,0,0,1,139.74,43Z"/></g></svg>