<svg id="int_l_studies" data-name="int&apos;l studies" xmlns="http://www.w3.org/2000/svg" viewBox="0 0 133.91 70.75"><defs><style>.cls-1,.cls-2{fill:none;}.cls-1{stroke:#fff;stroke-width:3px;}.cls-1,.cls-2,.cls-3{stroke-miterlimit:10;}.cls-2{stroke:#f4b2ce;stroke-width:2px;}.cls-3,.cls-4{fill:#f4b2ce;}.cls-3{stroke:#231815;}</style></defs><title>international</title><g id="futi"><circle class="cls-1" cx="33" cy="37.75" r="31.5"/><line class="cls-1" x1="1.5" y1="37.75" x2="64.5" y2="37.75"/><path class="cls-1" d="M19.34,19.87c15,9.56,29.87,9.79,44.54,0" transform="translate(-9 -4)"/><path class="cls-1" d="M19.34,64.42c15-9.56,29.86-9.79,44.53,0" transform="translate(-9 -4)"/><line class="cls-1" x1="33" y1="6.25" x2="33" y2="69.25"/><ellipse class="cls-1" cx="33" cy="37.75" rx="16.87" ry="31.5"/></g><circle class="cls-2" cx="33" cy="37.75" r="31.5"/><line class="cls-2" x1="1.5" y1="37.75" x2="64.5" y2="37.75"/><path class="cls-2" d="M19.34,19.87c15,9.56,29.87,9.79,44.54,0" transform="translate(-9 -4)"/><path class="cls-2" d="M19.34,64.42c15-9.56,29.86-9.79,44.53,0" transform="translate(-9 -4)"/><line class="cls-2" x1="33" y1="6.25" x2="33" y2="69.25"/><ellipse class="cls-2" cx="33" cy="37.75" rx="16.87" ry="31.5"/><path class="cls-3" d="M62.59,14l.67.15a.6.6,0,0,0,.42-.12,2.06,2.06,0,0,0,.41-.68c.06-.15.2-.5.41-1.06l1.83-4.85c.27-.71.42-1.14.47-1.3a1.24,1.24,0,0,0,0-.5.55.55,0,0,0-.3-.41c-.08,0-.29-.16-.62-.32-.06,0-.06-.09,0-.22s.1-.16.17-.13l1,.43.87.35,1,.37.89.3c.08,0,.1.11,0,.24s-.1.14-.18.12a4.33,4.33,0,0,0-.68-.14.5.5,0,0,0-.41.11A6,6,0,0,0,67.92,8l-1.84,4.86c-.28.76-.45,1.21-.49,1.35a1.24,1.24,0,0,0,0,.49.63.63,0,0,0,.3.41c.09.05.29.16.62.32.08,0,.1.11.06.22s-.11.14-.2.11l-.66-.26c-.59-.25-1-.42-1.29-.52l-1.89-.67c-.07,0-.09-.1,0-.2S62.52,13.94,62.59,14Z" transform="translate(-9 -4)"/><path class="cls-3" d="M71.56,12a2.42,2.42,0,0,1,2.55-.49,2.15,2.15,0,0,1,1.07.83,1.85,1.85,0,0,1,.16,1.82l-.57,1.48-.35.92A5.53,5.53,0,0,0,74,18a.39.39,0,0,0,.19.29,2.64,2.64,0,0,0,.41.23c.07,0,.08.1,0,.19s-.1.14-.16.12l-.79-.33L73,18.23c-.19-.08-.46-.17-.8-.29l-.74-.25c-.07,0-.08-.09,0-.19s.1-.14.17-.12a2.19,2.19,0,0,0,.48.11.44.44,0,0,0,.3-.1A5.58,5.58,0,0,0,73,16l.69-1.82A3.21,3.21,0,0,0,74,13a1.09,1.09,0,0,0-.72-1,1.34,1.34,0,0,0-.82,0,2,2,0,0,0-.68.33,2.28,2.28,0,0,0-.68,1L70.41,15A6.29,6.29,0,0,0,70,16.47a.44.44,0,0,0,.21.3l.43.23a.14.14,0,0,1,.06.2c0,.1-.09.14-.17.11l-.48-.2-.94-.38-.81-.29-.74-.25c-.06,0-.08-.09,0-.19s.09-.13.15-.12a3.67,3.67,0,0,0,.51.11.36.36,0,0,0,.3-.1,5.71,5.71,0,0,0,.63-1.38l.74-2a3.78,3.78,0,0,0,.33-1.16.39.39,0,0,0-.26-.42l-.05,0-.37-.11-.06,0c-.08,0-.1-.09-.07-.2a.14.14,0,0,0,0-.06c0-.07.1-.1.22-.08a14.34,14.34,0,0,0,2.34.21c.1,0,.14.1.11.17C71.9,11.08,71.75,11.46,71.56,12Z" transform="translate(-9 -4)"/><path class="cls-3" d="M78,13.83l-.87-.31c-.1,0-.12-.12-.07-.24a.16.16,0,0,1,.23-.12A2.17,2.17,0,0,0,78.69,13a2.6,2.6,0,0,0,1-.69.23.23,0,0,1,.28,0c.13.05.17.11.14.2-.35.86-.54,1.31-.55,1.35.7.26,1.34.49,1.91.68,0,0,0,0,0,.08v0l-.3.33a.13.13,0,0,1-.16,0c-.65-.29-1.21-.52-1.68-.7l-1.33,3.41a2.66,2.66,0,0,0-.26,1.48.93.93,0,0,0,.59.64,1.39,1.39,0,0,0,1,0,.14.14,0,0,1,.09,0s.08.05.11.12a.21.21,0,0,1,0,.18.17.17,0,0,1-.1.08,2.37,2.37,0,0,1-1.88.09,2.11,2.11,0,0,1-1.23-1,2.3,2.3,0,0,1,.11-1.67c.14-.37.39-1,.75-1.87Z" transform="translate(-9 -4)"/><path class="cls-3" d="M82.94,18a1.74,1.74,0,0,0-.24.47,3.1,3.1,0,0,0-.06,2.35,1.69,1.69,0,0,0,1,1,2.29,2.29,0,0,0,1.23.16,2.72,2.72,0,0,0,1-.42.15.15,0,0,1,.16,0s.06,0,.11.1a.3.3,0,0,1,.05.17.32.32,0,0,1-.12.12,3,3,0,0,1-1.54.63,3.36,3.36,0,0,1-1.44-.23,3.1,3.1,0,0,1-2-1.92,3.49,3.49,0,0,1,.07-2.46,3.54,3.54,0,0,1,1.91-2.08,3.13,3.13,0,0,1,2.44-.06,2.61,2.61,0,0,1,1.66,1.76,2.78,2.78,0,0,1,0,1.71.41.41,0,0,1-.15.21.31.31,0,0,1-.23,0c-.88-.37-1.73-.7-2.56-1Zm.24-.45,1,.38q.72.27,1.53.51c.09,0,.15,0,.2-.16A2.52,2.52,0,0,0,86,17a1,1,0,0,0-.63-.77,1.29,1.29,0,0,0-1.21.22A3.56,3.56,0,0,0,83.18,17.5Z" transform="translate(-9 -4)"/><path class="cls-3" d="M90.68,19.39c.91-.78,1.67-1.05,2.28-.82a1.16,1.16,0,0,1,.52.35.37.37,0,0,1,.06.35,1.25,1.25,0,0,1-.55.63.64.64,0,0,1-.55.09.79.79,0,0,1-.34-.31.74.74,0,0,0-.3-.26.92.92,0,0,0-.77.16,2,2,0,0,0-.82,1l-.61,1.64a6.26,6.26,0,0,0-.45,1.45.43.43,0,0,0,.22.3,5.25,5.25,0,0,0,.48.26c.07,0,.07.09,0,.2s-.08.13-.14.1l-.52-.21-1-.4-1.59-.55c-.06,0-.08-.09-.05-.18s.1-.14.17-.13a2.79,2.79,0,0,0,.52.12.36.36,0,0,0,.29-.1,4.76,4.76,0,0,0,.66-1.37l.75-2a4.7,4.7,0,0,0,.31-1.14.41.41,0,0,0-.29-.45H89l-.34-.11-.07,0c-.07,0-.09-.09-.06-.2s0,0,0-.06.1-.1.22-.08a15.69,15.69,0,0,0,2.37.21c.11,0,.15.11.12.19C90.91,18.82,90.73,19.25,90.68,19.39Z" transform="translate(-9 -4)"/><path class="cls-3" d="M96,21.17a2.46,2.46,0,0,1,2.56-.49,2.21,2.21,0,0,1,1.07.84,1.86,1.86,0,0,1,.16,1.81l-.58,1.48-.35.93a6,6,0,0,0-.43,1.45.47.47,0,0,0,.19.3l.42.22a.15.15,0,0,1,0,.2c0,.1-.09.13-.16.11l-.79-.33-.65-.26-.81-.29-.73-.25c-.07,0-.09-.09,0-.19s.09-.14.16-.12a2.32,2.32,0,0,0,.48.11.39.39,0,0,0,.3-.1,5.21,5.21,0,0,0,.64-1.38l.69-1.82a3.16,3.16,0,0,0,.27-1.21,1.06,1.06,0,0,0-.72-1,1.27,1.27,0,0,0-.82,0,1.85,1.85,0,0,0-.67.34,2.19,2.19,0,0,0-.68,1l-.69,1.81a6.74,6.74,0,0,0-.45,1.45.4.4,0,0,0,.2.3l.44.23c.08,0,.09.11.06.2s-.1.14-.17.11l-.48-.2-.94-.38-.82-.29-.74-.25c-.06,0-.07-.09,0-.19s.08-.13.15-.12a2.29,2.29,0,0,0,.51.11.38.38,0,0,0,.29-.09,6.13,6.13,0,0,0,.63-1.39l.75-2a4.41,4.41,0,0,0,.33-1.16.41.41,0,0,0-.26-.42h0L93.85,20l-.07,0c-.07,0-.09-.09-.06-.2a.08.08,0,0,1,0-.05c0-.08.1-.11.22-.09a14.11,14.11,0,0,0,2.33.21c.11,0,.15.1.12.17C96.3,20.29,96.15,20.66,96,21.17Z" transform="translate(-9 -4)"/><path class="cls-3" d="M103.53,29.12a3,3,0,0,1-1.06.29,3,3,0,0,1-1.11-.21,1.83,1.83,0,0,1-1.2-1.07,1.41,1.41,0,0,1,0-1,1.86,1.86,0,0,1,.91-1A2.44,2.44,0,0,1,102,26l1.08.06a3.23,3.23,0,0,0,1.23-.09.69.69,0,0,0,.5-.41l.14-.37c.36-.95.27-1.52-.27-1.73a1,1,0,0,0-1.32.67.54.54,0,0,1-.47.37,1.5,1.5,0,0,1-.8-.11q-.53-.2-.36-.63c.14-.39.56-.65,1.23-.8a3.67,3.67,0,0,1,2.05.2c.88.33,1.38.75,1.51,1.26a2.43,2.43,0,0,1-.2,1.28c0,.09-.06.16-.08.2l-1.09,2.79c-.3.78-.29,1.23,0,1.35a.82.82,0,0,0,.43.06h.06s.07.06.08.13,0,.08,0,.1,0,.06-.12.08a2,2,0,0,1-1.25-.12A1.19,1.19,0,0,1,103.53,29.12Zm1-2.85a2.78,2.78,0,0,1-1.29.19,1.49,1.49,0,0,0-1.51,1,1.17,1.17,0,0,0,0,1,.77.77,0,0,0,.43.45,1.25,1.25,0,0,0,1-.06,1.18,1.18,0,0,0,.58-.66Z" transform="translate(-9 -4)"/><path class="cls-3" d="M108.9,25.49l-.86-.31c-.1,0-.13-.12-.08-.25a.17.17,0,0,1,.23-.12,2.2,2.2,0,0,0,1.4-.13,3,3,0,0,0,1-.69.24.24,0,0,1,.28,0c.12,0,.17.12.14.2l-.56,1.35c.7.27,1.34.49,1.91.68,0,0,0,0,0,.08v0l-.3.34a.13.13,0,0,1-.17,0q-1-.42-1.68-.69L109,29.38a2.77,2.77,0,0,0-.27,1.48,1,1,0,0,0,.59.63,1.37,1.37,0,0,0,1,0h.09a.25.25,0,0,1,.11.13.29.29,0,0,1,0,.17s-.05.06-.1.09a2.37,2.37,0,0,1-1.88.08,2.1,2.1,0,0,1-1.24-1,2.34,2.34,0,0,1,.12-1.66c.14-.38.39-1,.74-1.88Z" transform="translate(-9 -4)"/><path class="cls-3" d="M113.21,29a8.08,8.08,0,0,0,.36-1.15.38.38,0,0,0-.29-.42l-.1,0-.36-.11-.08,0s-.06-.08,0-.18,0-.07,0-.08.09-.09.2-.07a21.57,21.57,0,0,0,2.4.2c.1,0,.14.11.1.2-.36.86-.68,1.64-.94,2.35l-.66,1.75a5.88,5.88,0,0,0-.45,1.47.43.43,0,0,0,.22.29l.46.23s.06.1,0,.2-.09.15-.15.13l-.49-.2c-.45-.19-.78-.33-1-.4l-1.53-.53c-.09,0-.11-.11-.07-.22s.11-.15.19-.12a3.94,3.94,0,0,0,.5.12.4.4,0,0,0,.29-.08,2.29,2.29,0,0,0,.43-.81l.22-.58Zm2.87-5.85a.89.89,0,0,1,.52.55,1,1,0,0,1-1.2,1.26,1,1,0,0,1-.55-.57.9.9,0,0,1,0-.68,1,1,0,0,1,.57-.54A1,1,0,0,1,116.08,23.11Z" transform="translate(-9 -4)"/><path class="cls-3" d="M120.31,28.9a3.19,3.19,0,0,1,2,2,3.54,3.54,0,0,1-.06,2.5,3.42,3.42,0,0,1-1.88,2,3.18,3.18,0,0,1-2.48,0,3.12,3.12,0,0,1-2-1.94A3.49,3.49,0,0,1,116,31a3.57,3.57,0,0,1,1.9-2.07A3.18,3.18,0,0,1,120.31,28.9Zm-.15.4a1.41,1.41,0,0,0-1.56.48,5.25,5.25,0,0,0-1.07,1.81,4.68,4.68,0,0,0-.38,2.32A1.34,1.34,0,0,0,118,35a1.43,1.43,0,0,0,1.57-.49,4.81,4.81,0,0,0,1.07-1.78,4.66,4.66,0,0,0,.39-2.33A1.34,1.34,0,0,0,120.16,29.3Z" transform="translate(-9 -4)"/><path class="cls-3" d="M126.2,32.58a2.46,2.46,0,0,1,2.56-.49,2.26,2.26,0,0,1,1.07.84,1.88,1.88,0,0,1,.16,1.81l-.58,1.48-.35.93a5.5,5.5,0,0,0-.43,1.45.44.44,0,0,0,.19.3l.42.22a.15.15,0,0,1,0,.2c0,.1-.09.13-.16.11l-.79-.33-.65-.26-.81-.29-.74-.25c-.07,0-.08-.09,0-.19s.09-.14.16-.11a2.09,2.09,0,0,0,.48.1.39.39,0,0,0,.3-.1,5.21,5.21,0,0,0,.64-1.38l.69-1.82a3.16,3.16,0,0,0,.27-1.21,1.06,1.06,0,0,0-.72-1,1.27,1.27,0,0,0-.82,0,1.85,1.85,0,0,0-.67.34,2.13,2.13,0,0,0-.69,1l-.68,1.81a7.93,7.93,0,0,0-.46,1.45.44.44,0,0,0,.21.3s.19.11.44.23a.15.15,0,0,1,.06.2c0,.1-.1.14-.18.11l-.48-.2-.93-.38-.82-.29-.74-.25c-.06,0-.07-.09,0-.19s.09-.13.16-.12a2.29,2.29,0,0,0,.51.11.38.38,0,0,0,.29-.09,6.13,6.13,0,0,0,.63-1.39l.75-2a4.31,4.31,0,0,0,.33-1.16.39.39,0,0,0-.26-.41l0,0-.37-.11-.07,0c-.07,0-.09-.09-.07-.2l0-.05c0-.08.1-.11.21-.09a14.34,14.34,0,0,0,2.34.21c.11,0,.14.1.12.17C126.55,31.7,126.4,32.07,126.2,32.58Z" transform="translate(-9 -4)"/><path class="cls-3" d="M133.78,40.53a3.08,3.08,0,0,1-1.06.29,2.93,2.93,0,0,1-1.11-.21,1.83,1.83,0,0,1-1.2-1.07,1.41,1.41,0,0,1,0-1,1.83,1.83,0,0,1,.91-1,2.44,2.44,0,0,1,.91-.15l1.08.06a3.2,3.2,0,0,0,1.22-.09.71.71,0,0,0,.51-.41l.14-.37c.35-1,.27-1.52-.27-1.73a1,1,0,0,0-1.32.67.56.56,0,0,1-.47.37,1.5,1.5,0,0,1-.8-.11q-.53-.2-.36-.63c.14-.39.55-.65,1.23-.8a3.67,3.67,0,0,1,2,.2c.88.33,1.38.75,1.51,1.26a2.43,2.43,0,0,1-.2,1.28l-.08.2-1.09,2.79c-.3.78-.29,1.23,0,1.36a.91.91,0,0,0,.43,0h.06a.16.16,0,0,1,.08.13.46.46,0,0,1,0,.1.18.18,0,0,1-.12.08,2,2,0,0,1-1.26-.12A1.18,1.18,0,0,1,133.78,40.53Zm1-2.85a2.8,2.8,0,0,1-1.3.19,1.48,1.48,0,0,0-1.5,1,1.17,1.17,0,0,0,0,1,.75.75,0,0,0,.42.45,1.28,1.28,0,0,0,1,0,1.21,1.21,0,0,0,.59-.67Z" transform="translate(-9 -4)"/><path class="cls-3" d="M137.85,40.43l2.27-6a5.34,5.34,0,0,0,.32-1.14.38.38,0,0,0-.28-.45l0,0-.36-.11-.06,0c-.06,0-.08-.09-.05-.19l0-.07c0-.07.09-.1.19-.08a20.26,20.26,0,0,0,2.43.25q.15.06.12.15c-.68,1.67-1.11,2.76-1.31,3.27l-1.86,5a5.65,5.65,0,0,0-.45,1.46.42.42,0,0,0,.2.31,3.11,3.11,0,0,0,.45.25c.06,0,.07.09,0,.19s-.09.13-.16.11c-.49-.22-1-.41-1.44-.59s-1-.37-1.54-.54a.13.13,0,0,1-.09-.2.15.15,0,0,1,.19-.11,2.29,2.29,0,0,0,.5.1.41.41,0,0,0,.28-.11A5.41,5.41,0,0,0,137.85,40.43Z" transform="translate(-9 -4)"/><path class="cls-3" d="M100.52,34.18c-.08.21-.32,1-.72,2.32,0,.08-.09.11-.19.09l-.08,0a.12.12,0,0,1-.09-.13q-.09-2.46-1.62-3a1.63,1.63,0,0,0-1.4.06,1.84,1.84,0,0,0-.84,1c-.25.65,0,1.41.85,2.27l.58.62a6.51,6.51,0,0,1,1.54,2.19,2.81,2.81,0,0,1-.14,1.89,2.74,2.74,0,0,1-1.91,1.82A4.41,4.41,0,0,1,93.74,43a7.86,7.86,0,0,1-2.39-1.44,19.59,19.59,0,0,1,.38-2.41s0,0,0-.06.1-.12.21-.1L92,39c.08,0,.12.08.11.15a5.34,5.34,0,0,0,.62,2.29,2.46,2.46,0,0,0,1.28,1.18,2,2,0,0,0,2.67-1.19,1.93,1.93,0,0,0,0-1.51,6.67,6.67,0,0,0-1.07-1.47l-.54-.6a4.88,4.88,0,0,1-1.24-1.94,2.88,2.88,0,0,1,.18-1.7,2.29,2.29,0,0,1,1.61-1.45,3.7,3.7,0,0,1,2.3.17,5.89,5.89,0,0,1,1.28.7,3.37,3.37,0,0,0,.71.36A4.87,4.87,0,0,0,100.52,34.18Z" transform="translate(-9 -4)"/><path class="cls-3" d="M101.3,39.29l-.86-.3c-.1,0-.12-.13-.08-.25a.18.18,0,0,1,.24-.12,2.24,2.24,0,0,0,1.39-.13,2.73,2.73,0,0,0,1.05-.7.23.23,0,0,1,.28,0c.13,0,.17.11.14.2-.35.86-.54,1.31-.55,1.35.7.27,1.33.49,1.9.68a.05.05,0,0,1,0,.08v0l-.3.34a.12.12,0,0,1-.16,0q-1-.44-1.68-.69l-1.33,3.41a2.77,2.77,0,0,0-.27,1.48,1,1,0,0,0,.6.63,1.39,1.39,0,0,0,1,0h.09a.26.26,0,0,1,.11.12.21.21,0,0,1,0,.18.22.22,0,0,1-.1.09,2.42,2.42,0,0,1-1.88.08,2.08,2.08,0,0,1-1.23-1,2.31,2.31,0,0,1,.11-1.67c.14-.37.39-1,.75-1.87Z" transform="translate(-9 -4)"/><path class="cls-3" d="M107.91,48.33a.15.15,0,0,1-.1-.22c.17-.39.32-.73.43-1a2.48,2.48,0,0,1-3.6-.38,1.82,1.82,0,0,1-.15-1.82l.56-1.42.4-1.06a6.67,6.67,0,0,0,.34-1,.41.41,0,0,0-.29-.5l-.35-.12c-.07,0-.12,0-.13-.07a.28.28,0,0,1,0-.14.45.45,0,0,1,0-.08c0-.07.09-.09.18-.07.86.2,1.62.34,2.3.43.11,0,.14.11.11.2-.36.84-.67,1.61-.94,2.32l-.53,1.41a3.66,3.66,0,0,0-.33,1.34,1,1,0,0,0,.73,1,1.45,1.45,0,0,0,1.47-.33,2.21,2.21,0,0,0,.68-1l.71-1.89a5.11,5.11,0,0,0,.3-1c0-.28,0-.45-.28-.52l-.37-.11h0c-.07,0-.09-.1,0-.21l0-.07c0-.07.09-.09.19-.07a21.39,21.39,0,0,0,2.25.41c.1,0,.13.1.1.18q-.41,1-.93,2.34l-.7,1.85a6.85,6.85,0,0,0-.42,1.35c0,.19.13.34.4.46l.25.11a.15.15,0,0,1,.07.2c0,.1-.1.14-.18.11A21.36,21.36,0,0,0,107.91,48.33Z" transform="translate(-9 -4)"/><path class="cls-3" d="M117.62,45.33l.89-2.37a7.11,7.11,0,0,0,.38-1.17c0-.2-.09-.34-.33-.43l0,0-.33-.1-.09,0c-.07,0-.08-.09-.06-.19a.14.14,0,0,0,0-.06c0-.07.11-.1.23-.08a18.71,18.71,0,0,0,2.41.23c.1.06.14.12.11.19-.4.9-.83,2-1.3,3.22l-1.9,5a6.06,6.06,0,0,0-.43,1.43c0,.15.13.27.34.37l.3.13c.08,0,.1.09.06.19s-.1.15-.18.13a17.53,17.53,0,0,0-2.18-.56c-.09,0-.11-.11-.07-.21.18-.42.3-.72.37-.9a2.09,2.09,0,0,1-2.15.41,2.83,2.83,0,0,1-1.86-1.86,3.83,3.83,0,0,1,.17-2.45,3.62,3.62,0,0,1,1.88-2.15,3.08,3.08,0,0,1,2.44,0A2.27,2.27,0,0,1,117.62,45.33Zm-1.32-.77a1.5,1.5,0,0,0-1.61.4,4.63,4.63,0,0,0-1.11,1.81,3.63,3.63,0,0,0-.26,2.22,1.41,1.41,0,0,0,.91,1,1.55,1.55,0,0,0,1.42-.27,1.45,1.45,0,0,0,.44-.45,5.54,5.54,0,0,0,.24-.54L117,47a3.29,3.29,0,0,0,.19-.64,2.21,2.21,0,0,0,0-.63A1.36,1.36,0,0,0,116.3,44.56Z" transform="translate(-9 -4)"/><path class="cls-3" d="M120.7,48.46a6.05,6.05,0,0,0,.36-1.15.37.37,0,0,0-.29-.42l-.1,0-.36-.11-.07,0c-.06,0-.07-.08,0-.18a.22.22,0,0,1,0-.08c0-.07.09-.09.19-.07a22,22,0,0,0,2.4.2c.11,0,.14.11.11.2-.37.86-.68,1.64-1,2.35l-.66,1.75a5.88,5.88,0,0,0-.45,1.47.43.43,0,0,0,.22.29l.46.23c.06,0,.07.09,0,.2s-.1.15-.16.13l-.49-.2c-.45-.19-.77-.33-1-.4l-1.54-.53c-.08,0-.11-.11-.06-.22s.1-.15.18-.12l.5.12a.39.39,0,0,0,.29-.08,2.29,2.29,0,0,0,.43-.81l.22-.58Zm2.87-5.85a.93.93,0,0,1,.53.55,1,1,0,0,1-1.21,1.26,1,1,0,0,1-.54-.57.88.88,0,0,1,.54-1.22A.94.94,0,0,1,123.57,42.61Z" transform="translate(-9 -4)"/><path class="cls-3" d="M125.21,50.57A1.69,1.69,0,0,0,125,51a3.1,3.1,0,0,0-.06,2.35,1.71,1.71,0,0,0,1,1,2.39,2.39,0,0,0,1.23.16,2.59,2.59,0,0,0,1-.43.18.18,0,0,1,.16,0s.06,0,.11.1a.3.3,0,0,1,0,.17s0,.06-.12.12a3,3,0,0,1-1.54.63,3.21,3.21,0,0,1-1.44-.24A3.09,3.09,0,0,1,123.37,53a3.52,3.52,0,0,1,.07-2.47,3.6,3.6,0,0,1,1.91-2.08,3.13,3.13,0,0,1,2.44-.05,2.59,2.59,0,0,1,1.66,1.76,2.78,2.78,0,0,1,0,1.71.41.41,0,0,1-.15.21.37.37,0,0,1-.23,0c-.88-.37-1.73-.7-2.56-1Zm.24-.46,1,.39c.48.18,1,.35,1.54.51.08,0,.15,0,.2-.16a2.44,2.44,0,0,0,.1-1.29,1,1,0,0,0-.63-.76,1.29,1.29,0,0,0-1.21.22A3.63,3.63,0,0,0,125.45,50.11Z" transform="translate(-9 -4)"/><path class="cls-3" d="M135.36,51.41c-.23.72-.38,1.25-.47,1.6,0,.07-.09.09-.2.07l-.06,0s-.08-.07-.1-.15c-.1-1.08-.45-1.73-1.05-2s-1.17-.07-1.41.56c-.13.36.09.8.65,1.33l.4.38a4.62,4.62,0,0,1,1.08,1.4,1.82,1.82,0,0,1,0,1.39A1.88,1.88,0,0,1,133,57.17a2.75,2.75,0,0,1-1.92-.1,5.18,5.18,0,0,1-1.76-1.1,10.09,10.09,0,0,1,.25-1.56c0-.07.09-.09.18-.07l.09,0s.06.06.07.12a3.2,3.2,0,0,0,.49,1.46,1.63,1.63,0,0,0,.82.73,1.18,1.18,0,0,0,1.06,0,1.34,1.34,0,0,0,.56-.73,1,1,0,0,0-.1-.84,6.44,6.44,0,0,0-.68-.81l-.38-.38a4.25,4.25,0,0,1-.91-1.21,2,2,0,0,1,.08-1.31,1.52,1.52,0,0,1,1-.93,2.63,2.63,0,0,1,1.73.12,5.69,5.69,0,0,1,.91.49,2.1,2.1,0,0,0,.42.22Z" transform="translate(-9 -4)"/><path class="cls-4" d="M62.59,14l.67.15a.6.6,0,0,0,.42-.12,2.06,2.06,0,0,0,.41-.68c.06-.15.2-.5.41-1.06l1.83-4.85c.27-.71.42-1.14.47-1.3a1.24,1.24,0,0,0,0-.5.55.55,0,0,0-.3-.41c-.08,0-.29-.16-.62-.32-.06,0-.06-.09,0-.22s.1-.16.17-.13l1,.43.87.35,1,.37.89.3c.08,0,.1.11,0,.24s-.1.14-.18.12a4.33,4.33,0,0,0-.68-.14.5.5,0,0,0-.41.11A6,6,0,0,0,67.92,8l-1.84,4.86c-.28.76-.45,1.21-.49,1.35a1.24,1.24,0,0,0,0,.49.63.63,0,0,0,.3.41c.09.05.29.16.62.32.08,0,.1.11.06.22s-.11.14-.2.11l-.66-.26c-.59-.25-1-.42-1.29-.52l-1.89-.67c-.07,0-.09-.1,0-.2S62.52,13.94,62.59,14Z" transform="translate(-9 -4)"/><path class="cls-4" d="M71.56,12a2.42,2.42,0,0,1,2.55-.49,2.15,2.15,0,0,1,1.07.83,1.85,1.85,0,0,1,.16,1.82l-.57,1.48-.35.92A5.53,5.53,0,0,0,74,18a.39.39,0,0,0,.19.29,2.64,2.64,0,0,0,.41.23c.07,0,.08.1,0,.19s-.1.14-.16.12l-.79-.33L73,18.23c-.19-.08-.46-.17-.8-.29l-.74-.25c-.07,0-.08-.09,0-.19s.1-.14.17-.12a2.19,2.19,0,0,0,.48.11.44.44,0,0,0,.3-.1A5.58,5.58,0,0,0,73,16l.69-1.82A3.21,3.21,0,0,0,74,13a1.09,1.09,0,0,0-.72-1,1.34,1.34,0,0,0-.82,0,2,2,0,0,0-.68.33,2.28,2.28,0,0,0-.68,1L70.41,15A6.29,6.29,0,0,0,70,16.47a.44.44,0,0,0,.21.3l.43.23a.14.14,0,0,1,.06.2c0,.1-.09.14-.17.11l-.48-.2-.94-.38-.81-.29-.74-.25c-.06,0-.08-.09,0-.19s.09-.13.15-.12a3.67,3.67,0,0,0,.51.11.36.36,0,0,0,.3-.1,5.71,5.71,0,0,0,.63-1.38l.74-2a3.78,3.78,0,0,0,.33-1.16.39.39,0,0,0-.26-.42l-.05,0-.37-.11-.06,0c-.08,0-.1-.09-.07-.2a.14.14,0,0,0,0-.06c0-.07.1-.1.22-.08a14.34,14.34,0,0,0,2.34.21c.1,0,.14.1.11.17C71.9,11.08,71.75,11.46,71.56,12Z" transform="translate(-9 -4)"/><path class="cls-4" d="M78,13.83l-.87-.31c-.1,0-.12-.12-.07-.24a.16.16,0,0,1,.23-.12A2.17,2.17,0,0,0,78.69,13a2.6,2.6,0,0,0,1-.69.23.23,0,0,1,.28,0c.13.05.17.11.14.2-.35.86-.54,1.31-.55,1.35.7.26,1.34.49,1.91.68,0,0,0,0,0,.08v0l-.3.33a.13.13,0,0,1-.16,0c-.65-.29-1.21-.52-1.68-.7l-1.33,3.41a2.66,2.66,0,0,0-.26,1.48.93.93,0,0,0,.59.64,1.39,1.39,0,0,0,1,0,.14.14,0,0,1,.09,0s.08.05.11.12a.21.21,0,0,1,0,.18.17.17,0,0,1-.1.08,2.37,2.37,0,0,1-1.88.09,2.11,2.11,0,0,1-1.23-1,2.3,2.3,0,0,1,.11-1.67c.14-.37.39-1,.75-1.87Z" transform="translate(-9 -4)"/><path class="cls-4" d="M82.94,18a1.74,1.74,0,0,0-.24.47,3.1,3.1,0,0,0-.06,2.35,1.69,1.69,0,0,0,1,1,2.29,2.29,0,0,0,1.23.16,2.72,2.72,0,0,0,1-.42.15.15,0,0,1,.16,0s.06,0,.11.1a.3.3,0,0,1,.05.17.32.32,0,0,1-.12.12,3,3,0,0,1-1.54.63,3.36,3.36,0,0,1-1.44-.23,3.1,3.1,0,0,1-2-1.92,3.49,3.49,0,0,1,.07-2.46,3.54,3.54,0,0,1,1.91-2.08,3.13,3.13,0,0,1,2.44-.06,2.61,2.61,0,0,1,1.66,1.76,2.78,2.78,0,0,1,0,1.71.41.41,0,0,1-.15.21.31.31,0,0,1-.23,0c-.88-.37-1.73-.7-2.56-1Zm.24-.45,1,.38q.72.27,1.53.51c.09,0,.15,0,.2-.16A2.52,2.52,0,0,0,86,17a1,1,0,0,0-.63-.77,1.29,1.29,0,0,0-1.21.22A3.56,3.56,0,0,0,83.18,17.5Z" transform="translate(-9 -4)"/><path class="cls-4" d="M90.68,19.39c.91-.78,1.67-1.05,2.28-.82a1.16,1.16,0,0,1,.52.35.37.37,0,0,1,.06.35,1.25,1.25,0,0,1-.55.63.64.64,0,0,1-.55.09.79.79,0,0,1-.34-.31.74.74,0,0,0-.3-.26.92.92,0,0,0-.77.16,2,2,0,0,0-.82,1l-.61,1.64a6.26,6.26,0,0,0-.45,1.45.43.43,0,0,0,.22.3,5.25,5.25,0,0,0,.48.26c.07,0,.07.09,0,.2s-.08.13-.14.1l-.52-.21-1-.4-1.59-.55c-.06,0-.08-.09-.05-.18s.1-.14.17-.13a2.79,2.79,0,0,0,.52.12.36.36,0,0,0,.29-.1,4.76,4.76,0,0,0,.66-1.37l.75-2a4.7,4.7,0,0,0,.31-1.14.41.41,0,0,0-.29-.45H89l-.34-.11-.07,0c-.07,0-.09-.09-.06-.2s0,0,0-.06.1-.1.22-.08a15.69,15.69,0,0,0,2.37.21c.11,0,.15.11.12.19C90.91,18.82,90.73,19.25,90.68,19.39Z" transform="translate(-9 -4)"/><path class="cls-4" d="M96,21.17a2.46,2.46,0,0,1,2.56-.49,2.21,2.21,0,0,1,1.07.84,1.86,1.86,0,0,1,.16,1.81l-.58,1.48-.35.93a6,6,0,0,0-.43,1.45.47.47,0,0,0,.19.3l.42.22a.15.15,0,0,1,0,.2c0,.1-.09.13-.16.11l-.79-.33-.65-.26-.81-.29-.73-.25c-.07,0-.09-.09,0-.19s.09-.14.16-.12a2.32,2.32,0,0,0,.48.11.39.39,0,0,0,.3-.1,5.21,5.21,0,0,0,.64-1.38l.69-1.82a3.16,3.16,0,0,0,.27-1.21,1.06,1.06,0,0,0-.72-1,1.27,1.27,0,0,0-.82,0,1.85,1.85,0,0,0-.67.34,2.19,2.19,0,0,0-.68,1l-.69,1.81a6.74,6.74,0,0,0-.45,1.45.4.4,0,0,0,.2.3l.44.23c.08,0,.09.11.06.2s-.1.14-.17.11l-.48-.2-.94-.38-.82-.29-.74-.25c-.06,0-.07-.09,0-.19s.08-.13.15-.12a2.29,2.29,0,0,0,.51.11.38.38,0,0,0,.29-.09,6.13,6.13,0,0,0,.63-1.39l.75-2a4.41,4.41,0,0,0,.33-1.16.41.41,0,0,0-.26-.42h0L93.85,20l-.07,0c-.07,0-.09-.09-.06-.2a.08.08,0,0,1,0-.05c0-.08.1-.11.22-.09a14.11,14.11,0,0,0,2.33.21c.11,0,.15.1.12.17C96.3,20.29,96.15,20.66,96,21.17Z" transform="translate(-9 -4)"/><path class="cls-4" d="M103.53,29.12a3,3,0,0,1-1.06.29,3,3,0,0,1-1.11-.21,1.83,1.83,0,0,1-1.2-1.07,1.41,1.41,0,0,1,0-1,1.86,1.86,0,0,1,.91-1A2.44,2.44,0,0,1,102,26l1.08.06a3.23,3.23,0,0,0,1.23-.09.69.69,0,0,0,.5-.41l.14-.37c.36-.95.27-1.52-.27-1.73a1,1,0,0,0-1.32.67.54.54,0,0,1-.47.37,1.5,1.5,0,0,1-.8-.11q-.53-.2-.36-.63c.14-.39.56-.65,1.23-.8a3.67,3.67,0,0,1,2.05.2c.88.33,1.38.75,1.51,1.26a2.43,2.43,0,0,1-.2,1.28c0,.09-.06.16-.08.2l-1.09,2.79c-.3.78-.29,1.23,0,1.35a.82.82,0,0,0,.43.06h.06s.07.06.08.13,0,.08,0,.1,0,.06-.12.08a2,2,0,0,1-1.25-.12A1.19,1.19,0,0,1,103.53,29.12Zm1-2.85a2.78,2.78,0,0,1-1.29.19,1.49,1.49,0,0,0-1.51,1,1.17,1.17,0,0,0,0,1,.77.77,0,0,0,.43.45,1.25,1.25,0,0,0,1-.06,1.18,1.18,0,0,0,.58-.66Z" transform="translate(-9 -4)"/><path class="cls-4" d="M108.9,25.49l-.86-.31c-.1,0-.13-.12-.08-.25a.17.17,0,0,1,.23-.12,2.2,2.2,0,0,0,1.4-.13,3,3,0,0,0,1-.69.24.24,0,0,1,.28,0c.12,0,.17.12.14.2l-.56,1.35c.7.27,1.34.49,1.91.68,0,0,0,0,0,.08v0l-.3.34a.13.13,0,0,1-.17,0q-1-.42-1.68-.69L109,29.38a2.77,2.77,0,0,0-.27,1.48,1,1,0,0,0,.59.63,1.37,1.37,0,0,0,1,0h.09a.25.25,0,0,1,.11.13.29.29,0,0,1,0,.17s-.05.06-.1.09a2.37,2.37,0,0,1-1.88.08,2.1,2.1,0,0,1-1.24-1,2.34,2.34,0,0,1,.12-1.66c.14-.38.39-1,.74-1.88Z" transform="translate(-9 -4)"/><path class="cls-4" d="M113.21,29a8.08,8.08,0,0,0,.36-1.15.38.38,0,0,0-.29-.42l-.1,0-.36-.11-.08,0s-.06-.08,0-.18,0-.07,0-.08.09-.09.2-.07a21.57,21.57,0,0,0,2.4.2c.1,0,.14.11.1.2-.36.86-.68,1.64-.94,2.35l-.66,1.75a5.88,5.88,0,0,0-.45,1.47.43.43,0,0,0,.22.29l.46.23s.06.1,0,.2-.09.15-.15.13l-.49-.2c-.45-.19-.78-.33-1-.4l-1.53-.53c-.09,0-.11-.11-.07-.22s.11-.15.19-.12a3.94,3.94,0,0,0,.5.12.4.4,0,0,0,.29-.08,2.29,2.29,0,0,0,.43-.81l.22-.58Zm2.87-5.85a.89.89,0,0,1,.52.55,1,1,0,0,1-1.2,1.26,1,1,0,0,1-.55-.57.9.9,0,0,1,0-.68,1,1,0,0,1,.57-.54A1,1,0,0,1,116.08,23.11Z" transform="translate(-9 -4)"/><path class="cls-4" d="M120.31,28.9a3.19,3.19,0,0,1,2,2,3.54,3.54,0,0,1-.06,2.5,3.42,3.42,0,0,1-1.88,2,3.18,3.18,0,0,1-2.48,0,3.12,3.12,0,0,1-2-1.94A3.49,3.49,0,0,1,116,31a3.57,3.57,0,0,1,1.9-2.07A3.18,3.18,0,0,1,120.31,28.9Zm-.15.4a1.41,1.41,0,0,0-1.56.48,5.25,5.25,0,0,0-1.07,1.81,4.68,4.68,0,0,0-.38,2.32A1.34,1.34,0,0,0,118,35a1.43,1.43,0,0,0,1.57-.49,4.81,4.81,0,0,0,1.07-1.78,4.66,4.66,0,0,0,.39-2.33A1.34,1.34,0,0,0,120.16,29.3Z" transform="translate(-9 -4)"/><path class="cls-4" d="M126.2,32.58a2.46,2.46,0,0,1,2.56-.49,2.26,2.26,0,0,1,1.07.84,1.88,1.88,0,0,1,.16,1.81l-.58,1.48-.35.93a5.5,5.5,0,0,0-.43,1.45.44.44,0,0,0,.19.3l.42.22a.15.15,0,0,1,0,.2c0,.1-.09.13-.16.11l-.79-.33-.65-.26-.81-.29-.74-.25c-.07,0-.08-.09,0-.19s.09-.14.16-.11a2.09,2.09,0,0,0,.48.1.39.39,0,0,0,.3-.1,5.21,5.21,0,0,0,.64-1.38l.69-1.82a3.16,3.16,0,0,0,.27-1.21,1.06,1.06,0,0,0-.72-1,1.27,1.27,0,0,0-.82,0,1.85,1.85,0,0,0-.67.34,2.13,2.13,0,0,0-.69,1l-.68,1.81a7.93,7.93,0,0,0-.46,1.45.44.44,0,0,0,.21.3s.19.11.44.23a.15.15,0,0,1,.06.2c0,.1-.1.14-.18.11l-.48-.2-.93-.38-.82-.29-.74-.25c-.06,0-.07-.09,0-.19s.09-.13.16-.12a2.29,2.29,0,0,0,.51.11.38.38,0,0,0,.29-.09,6.13,6.13,0,0,0,.63-1.39l.75-2a4.31,4.31,0,0,0,.33-1.16.39.39,0,0,0-.26-.41l0,0-.37-.11-.07,0c-.07,0-.09-.09-.07-.2l0-.05c0-.08.1-.11.21-.09a14.34,14.34,0,0,0,2.34.21c.11,0,.14.1.12.17C126.55,31.7,126.4,32.07,126.2,32.58Z" transform="translate(-9 -4)"/><path class="cls-4" d="M133.78,40.53a3.08,3.08,0,0,1-1.06.29,2.93,2.93,0,0,1-1.11-.21,1.83,1.83,0,0,1-1.2-1.07,1.41,1.41,0,0,1,0-1,1.83,1.83,0,0,1,.91-1,2.44,2.44,0,0,1,.91-.15l1.08.06a3.2,3.2,0,0,0,1.22-.09.71.71,0,0,0,.51-.41l.14-.37c.35-1,.27-1.52-.27-1.73a1,1,0,0,0-1.32.67.56.56,0,0,1-.47.37,1.5,1.5,0,0,1-.8-.11q-.53-.2-.36-.63c.14-.39.55-.65,1.23-.8a3.67,3.67,0,0,1,2,.2c.88.33,1.38.75,1.51,1.26a2.43,2.43,0,0,1-.2,1.28l-.08.2-1.09,2.79c-.3.78-.29,1.23,0,1.36a.91.91,0,0,0,.43,0h.06a.16.16,0,0,1,.08.13.46.46,0,0,1,0,.1.18.18,0,0,1-.12.08,2,2,0,0,1-1.26-.12A1.18,1.18,0,0,1,133.78,40.53Zm1-2.85a2.8,2.8,0,0,1-1.3.19,1.48,1.48,0,0,0-1.5,1,1.17,1.17,0,0,0,0,1,.75.75,0,0,0,.42.45,1.28,1.28,0,0,0,1,0,1.21,1.21,0,0,0,.59-.67Z" transform="translate(-9 -4)"/><path class="cls-4" d="M137.85,40.43l2.27-6a5.34,5.34,0,0,0,.32-1.14.38.38,0,0,0-.28-.45l0,0-.36-.11-.06,0c-.06,0-.08-.09-.05-.19l0-.07c0-.07.09-.1.19-.08a20.26,20.26,0,0,0,2.43.25q.15.06.12.15c-.68,1.67-1.11,2.76-1.31,3.27l-1.86,5a5.65,5.65,0,0,0-.45,1.46.42.42,0,0,0,.2.31,3.11,3.11,0,0,0,.45.25c.06,0,.07.09,0,.19s-.09.13-.16.11c-.49-.22-1-.41-1.44-.59s-1-.37-1.54-.54a.13.13,0,0,1-.09-.2.15.15,0,0,1,.19-.11,2.29,2.29,0,0,0,.5.1.41.41,0,0,0,.28-.11A5.41,5.41,0,0,0,137.85,40.43Z" transform="translate(-9 -4)"/><path class="cls-4" d="M100.52,34.18c-.08.21-.32,1-.72,2.32,0,.08-.09.11-.19.09l-.08,0a.12.12,0,0,1-.09-.13q-.09-2.46-1.62-3a1.63,1.63,0,0,0-1.4.06,1.84,1.84,0,0,0-.84,1c-.25.65,0,1.41.85,2.27l.58.62a6.51,6.51,0,0,1,1.54,2.19,2.81,2.81,0,0,1-.14,1.89,2.74,2.74,0,0,1-1.91,1.82A4.41,4.41,0,0,1,93.74,43a7.86,7.86,0,0,1-2.39-1.44,19.59,19.59,0,0,1,.38-2.41s0,0,0-.06.1-.12.21-.1L92,39c.08,0,.12.08.11.15a5.34,5.34,0,0,0,.62,2.29,2.46,2.46,0,0,0,1.28,1.18,2,2,0,0,0,2.67-1.19,1.93,1.93,0,0,0,0-1.51,6.67,6.67,0,0,0-1.07-1.47l-.54-.6a4.88,4.88,0,0,1-1.24-1.94,2.88,2.88,0,0,1,.18-1.7,2.29,2.29,0,0,1,1.61-1.45,3.7,3.7,0,0,1,2.3.17,5.89,5.89,0,0,1,1.28.7,3.37,3.37,0,0,0,.71.36A4.87,4.87,0,0,0,100.52,34.18Z" transform="translate(-9 -4)"/><path class="cls-4" d="M101.3,39.29l-.86-.3c-.1,0-.12-.13-.08-.25a.18.18,0,0,1,.24-.12,2.24,2.24,0,0,0,1.39-.13,2.73,2.73,0,0,0,1.05-.7.23.23,0,0,1,.28,0c.13,0,.17.11.14.2-.35.86-.54,1.31-.55,1.35.7.27,1.33.49,1.9.68a.05.05,0,0,1,0,.08v0l-.3.34a.12.12,0,0,1-.16,0q-1-.44-1.68-.69l-1.33,3.41a2.77,2.77,0,0,0-.27,1.48,1,1,0,0,0,.6.63,1.39,1.39,0,0,0,1,0h.09a.26.26,0,0,1,.11.12.21.21,0,0,1,0,.18.22.22,0,0,1-.1.09,2.42,2.42,0,0,1-1.88.08,2.08,2.08,0,0,1-1.23-1,2.31,2.31,0,0,1,.11-1.67c.14-.37.39-1,.75-1.87Z" transform="translate(-9 -4)"/><path class="cls-4" d="M107.91,48.33a.15.15,0,0,1-.1-.22c.17-.39.32-.73.43-1a2.48,2.48,0,0,1-3.6-.38,1.82,1.82,0,0,1-.15-1.82l.56-1.42.4-1.06a6.67,6.67,0,0,0,.34-1,.41.41,0,0,0-.29-.5l-.35-.12c-.07,0-.12,0-.13-.07a.28.28,0,0,1,0-.14.45.45,0,0,1,0-.08c0-.07.09-.09.18-.07.86.2,1.62.34,2.3.43.11,0,.14.11.11.2-.36.84-.67,1.61-.94,2.32l-.53,1.41a3.66,3.66,0,0,0-.33,1.34,1,1,0,0,0,.73,1,1.45,1.45,0,0,0,1.47-.33,2.21,2.21,0,0,0,.68-1l.71-1.89a5.11,5.11,0,0,0,.3-1c0-.28,0-.45-.28-.52l-.37-.11h0c-.07,0-.09-.1,0-.21l0-.07c0-.07.09-.09.19-.07a21.39,21.39,0,0,0,2.25.41c.1,0,.13.1.1.18q-.41,1-.93,2.34l-.7,1.85a6.85,6.85,0,0,0-.42,1.35c0,.19.13.34.4.46l.25.11a.15.15,0,0,1,.07.2c0,.1-.1.14-.18.11A21.36,21.36,0,0,0,107.91,48.33Z" transform="translate(-9 -4)"/><path class="cls-4" d="M117.62,45.33l.89-2.37a7.11,7.11,0,0,0,.38-1.17c0-.2-.09-.34-.33-.43l0,0-.33-.1-.09,0c-.07,0-.08-.09-.06-.19a.14.14,0,0,0,0-.06c0-.07.11-.1.23-.08a18.71,18.71,0,0,0,2.41.23c.1.06.14.12.11.19-.4.9-.83,2-1.3,3.22l-1.9,5a6.06,6.06,0,0,0-.43,1.43c0,.15.13.27.34.37l.3.13c.08,0,.1.09.06.19s-.1.15-.18.13a17.53,17.53,0,0,0-2.18-.56c-.09,0-.11-.11-.07-.21.18-.42.3-.72.37-.9a2.09,2.09,0,0,1-2.15.41,2.83,2.83,0,0,1-1.86-1.86,3.83,3.83,0,0,1,.17-2.45,3.62,3.62,0,0,1,1.88-2.15,3.08,3.08,0,0,1,2.44,0A2.27,2.27,0,0,1,117.62,45.33Zm-1.32-.77a1.5,1.5,0,0,0-1.61.4,4.63,4.63,0,0,0-1.11,1.81,3.63,3.63,0,0,0-.26,2.22,1.41,1.41,0,0,0,.91,1,1.55,1.55,0,0,0,1.42-.27,1.45,1.45,0,0,0,.44-.45,5.54,5.54,0,0,0,.24-.54L117,47a3.29,3.29,0,0,0,.19-.64,2.21,2.21,0,0,0,0-.63A1.36,1.36,0,0,0,116.3,44.56Z" transform="translate(-9 -4)"/><path class="cls-4" d="M120.7,48.46a6.05,6.05,0,0,0,.36-1.15.37.37,0,0,0-.29-.42l-.1,0-.36-.11-.07,0c-.06,0-.07-.08,0-.18a.22.22,0,0,1,0-.08c0-.07.09-.09.19-.07a22,22,0,0,0,2.4.2c.11,0,.14.11.11.2-.37.86-.68,1.64-1,2.35l-.66,1.75a5.88,5.88,0,0,0-.45,1.47.43.43,0,0,0,.22.29l.46.23c.06,0,.07.09,0,.2s-.1.15-.16.13l-.49-.2c-.45-.19-.77-.33-1-.4l-1.54-.53c-.08,0-.11-.11-.06-.22s.1-.15.18-.12l.5.12a.39.39,0,0,0,.29-.08,2.29,2.29,0,0,0,.43-.81l.22-.58Zm2.87-5.85a.93.93,0,0,1,.53.55,1,1,0,0,1-1.21,1.26,1,1,0,0,1-.54-.57.88.88,0,0,1,.54-1.22A.94.94,0,0,1,123.57,42.61Z" transform="translate(-9 -4)"/><path class="cls-4" d="M125.21,50.57A1.69,1.69,0,0,0,125,51a3.1,3.1,0,0,0-.06,2.35,1.71,1.71,0,0,0,1,1,2.39,2.39,0,0,0,1.23.16,2.59,2.59,0,0,0,1-.43.18.18,0,0,1,.16,0s.06,0,.11.1a.3.3,0,0,1,0,.17s0,.06-.12.12a3,3,0,0,1-1.54.63,3.21,3.21,0,0,1-1.44-.24A3.09,3.09,0,0,1,123.37,53a3.52,3.52,0,0,1,.07-2.47,3.6,3.6,0,0,1,1.91-2.08,3.13,3.13,0,0,1,2.44-.05,2.59,2.59,0,0,1,1.66,1.76,2.78,2.78,0,0,1,0,1.71.41.41,0,0,1-.15.21.37.37,0,0,1-.23,0c-.88-.37-1.73-.7-2.56-1Zm.24-.46,1,.39c.48.18,1,.35,1.54.51.08,0,.15,0,.2-.16a2.44,2.44,0,0,0,.1-1.29,1,1,0,0,0-.63-.76,1.29,1.29,0,0,0-1.21.22A3.63,3.63,0,0,0,125.45,50.11Z" transform="translate(-9 -4)"/><path class="cls-4" d="M135.36,51.41c-.23.72-.38,1.25-.47,1.6,0,.07-.09.09-.2.07l-.06,0s-.08-.07-.1-.15c-.1-1.08-.45-1.73-1.05-2s-1.17-.07-1.41.56c-.13.36.09.8.65,1.33l.4.38a4.62,4.62,0,0,1,1.08,1.4,1.82,1.82,0,0,1,0,1.39A1.88,1.88,0,0,1,133,57.17a2.75,2.75,0,0,1-1.92-.1,5.18,5.18,0,0,1-1.76-1.1,10.09,10.09,0,0,1,.25-1.56c0-.07.09-.09.18-.07l.09,0s.06.06.07.12a3.2,3.2,0,0,0,.49,1.46,1.63,1.63,0,0,0,.82.73,1.18,1.18,0,0,0,1.06,0,1.34,1.34,0,0,0,.56-.73,1,1,0,0,0-.1-.84,6.44,6.44,0,0,0-.68-.81l-.38-.38a4.25,4.25,0,0,1-.91-1.21,2,2,0,0,1,.08-1.31,1.52,1.52,0,0,1,1-.93,2.63,2.63,0,0,1,1.73.12,5.69,5.69,0,0,1,.91.49,2.1,2.1,0,0,0,.42.22Z" transform="translate(-9 -4)"/></svg>