<svg id="law" xmlns="http://www.w3.org/2000/svg" viewBox="0 0 122.72 86.79"><defs><style>.cls-1,.cls-2{fill:none;}.cls-1{stroke:#fff;stroke-width:3px;}.cls-1,.cls-2,.cls-4{stroke-miterlimit:10;}.cls-2{stroke:#fc9;stroke-width:2px;}.cls-3{font-size:26px;font-family:YuMincho-Demibold, Yu Mincho;font-weight:300;}.cls-3,.cls-4,.cls-5{fill:#fc9;}.cls-4{stroke:#000;}</style></defs><title>law</title><g id="ç¸"><path class="cls-1" d="M19.84,25.78l13.41-3a87.45,87.45,0,0,1,37.83,0l13.41,3" transform="translate(-12.53 -1.78)"/><polyline class="cls-1" points="39.64 39.14 50.88 66.81 28.39 66.81 39.64 39.14 39.64 0"/><rect class="cls-1" x="22.28" y="66.82" width="34.54" height="8.89"/><line class="cls-1" x1="13.07" y1="22.73" x2="5.9" y2="48.54"/><line class="cls-1" x1="13.07" y1="22.73" x2="20.23" y2="48.54"/><path class="cls-1" d="M14,50.32l6.91,1.45a22.52,22.52,0,0,0,9.32,0l6.91-1.45" transform="translate(-12.53 -1.78)"/><path class="cls-1" d="M37.17,47.72c0,6.39-5.18,9.18-11.57,9.18S14,54.11,14,47.72" transform="translate(-12.53 -1.78)"/><line class="cls-1" x1="66.2" y1="22.73" x2="73.37" y2="48.54"/><line class="cls-1" x1="66.2" y1="22.73" x2="59.04" y2="48.54"/><path class="cls-1" d="M90.33,50.32l-6.91,1.45a22.52,22.52,0,0,1-9.32,0l-6.91-1.45" transform="translate(-12.53 -1.78)"/><path class="cls-1" d="M67.16,47.72c0,6.39,5.18,9.18,11.57,9.18S90.3,54.11,90.3,47.72" transform="translate(-12.53 -1.78)"/></g><path class="cls-2" d="M19.84,25.78l13.41-3a87.45,87.45,0,0,1,37.83,0l13.41,3" transform="translate(-12.53 -1.78)"/><polyline class="cls-2" points="39.64 39.14 50.88 66.81 28.39 66.81 39.64 39.14 39.64 0"/><rect class="cls-2" x="22.28" y="66.82" width="34.54" height="8.89"/><line class="cls-2" x1="13.07" y1="22.73" x2="5.9" y2="48.54"/><line class="cls-2" x1="13.07" y1="22.73" x2="20.23" y2="48.54"/><path class="cls-2" d="M14,50.32l6.91,1.45a22.52,22.52,0,0,0,9.32,0l6.91-1.45" transform="translate(-12.53 -1.78)"/><path class="cls-2" d="M37.17,47.72c0,6.39-5.18,9.18-11.57,9.18S14,54.11,14,47.72" transform="translate(-12.53 -1.78)"/><line class="cls-2" x1="66.2" y1="22.73" x2="73.37" y2="48.54"/><line class="cls-2" x1="66.2" y1="22.73" x2="59.04" y2="48.54"/><path class="cls-2" d="M90.33,50.32l-6.91,1.45a22.52,22.52,0,0,1-9.32,0l-6.91-1.45" transform="translate(-12.53 -1.78)"/><path class="cls-2" d="M67.16,47.72c0,6.39,5.18,9.18,11.57,9.18S90.3,54.11,90.3,47.72" transform="translate(-12.53 -1.78)"/><text id="L_A_W" data-name="L  A  W" class="cls-3" transform="translate(90.87 24.85)">L<tspan x="-0.86" y="25">A</tspan><tspan x="-4.44" y="51.25">W</tspan></text><path class="cls-4" d="M118.85,26.06Q115.39,26,112,26q-3.58,0-7.07.09c-.15,0-.23-.11-.23-.32s.08-.31.23-.33a7.3,7.3,0,0,0,1.21-.19,1.06,1.06,0,0,0,.58-.5,9.51,9.51,0,0,0,.34-3.45V11.84q0-2-.06-2.52a2.61,2.61,0,0,0-.25-.9A1,1,0,0,0,106,8a11.76,11.76,0,0,0-1.18-.15c-.17,0-.26-.13-.26-.33s.09-.37.26-.37l2,.07,1.74,0c.48,0,1.15,0,2,0l1.7-.05c.19,0,.28.12.28.37s-.08.3-.23.33a11.93,11.93,0,0,0-1.23.18.9.9,0,0,0-.59.44,11,11,0,0,0-.29,3.42v9.43a8.06,8.06,0,0,0,.35,3.15,1.61,1.61,0,0,0,1.07.66,8.07,8.07,0,0,0,1.41.09,7.21,7.21,0,0,0,4.43-1.32,9.64,9.64,0,0,0,2-2.59c.07-.13.15-.19.24-.19l.2,0c.18.06.27.15.27.26a.58.58,0,0,1,0,.1A32.83,32.83,0,0,1,118.85,26.06Z" transform="translate(-12.53 -1.78)"/><path class="cls-4" d="M114.05,43.91c-1.17-.07-2.16-.1-3-.1s-1.75,0-3.23.1l-1,2.73a6.11,6.11,0,0,0-.43,2,2.4,2.4,0,0,0,.16.9c.18.43.85.71,2,.84.15,0,.23.11.23.33s-.1.35-.29.35q-1-.06-3.24-.06-1.87,0-2.73.06c-.19,0-.29-.12-.29-.35s.1-.33.29-.33a2.91,2.91,0,0,0,1.53-.81,9,9,0,0,0,1.58-3l3.13-8.43c.77-2.1,1.4-3.92,1.87-5.46l2-.94a.31.31,0,0,1,.34.24q.19.59,2.16,6.31l2.93,8.48a11.38,11.38,0,0,0,1.31,3,1.5,1.5,0,0,0,.69.53,4.68,4.68,0,0,0,1,.15.3.3,0,0,1,.34.33.31.31,0,0,1-.34.35q-2.31-.06-3.69-.06c-.89,0-2.12,0-3.67.06-.13,0-.2-.12-.2-.35s.07-.33.2-.33c1.09-.06,1.69-.29,1.81-.68a1.63,1.63,0,0,0,.07-.5,8.13,8.13,0,0,0-.54-2.23Zm-3-9-1.16,3.35-1.67,4.61c.57,0,1.53.05,2.89.05s2.1,0,2.6-.05l-1.56-4.56C111.84,37.51,111.47,36.38,111,34.91Z" transform="translate(-12.53 -1.78)"/><path class="cls-4" d="M117.75,74.21c.09-.29.21-.79.37-1.5s.3-1.26.42-1.73l2-7.89a11.19,11.19,0,0,0,.38-2.36,1.9,1.9,0,0,0-.14-.79c-.21-.43-.84-.72-1.87-.86-.15,0-.23-.12-.23-.36s.08-.37.23-.37c1.23.07,2.32.1,3.28.1.7,0,1.61,0,2.74-.1.15,0,.23.12.23.37s-.09.36-.26.36a3.26,3.26,0,0,0-1.83.88,11,11,0,0,0-1.24,3.13l-2.63,9.28c-.29,1-.55,2-.77,2.88L118,77c-1.25.54-1.91.82-2,.82s-.15-.06-.17-.18c-.6-2.14-1.07-3.84-1.44-5.08l-2-6.75c-.12-.41-.25-.87-.38-1.39s-.23-1-.25-1q-.28,1.36-.57,2.34l-1.94,6.71c-.39,1.31-.81,2.83-1.26,4.55-1.26.56-1.92.84-2,.84s-.16-.06-.22-.18q-.69-2.79-1.34-5.08l-2.68-9.41a11.85,11.85,0,0,0-1.27-3.25,1.83,1.83,0,0,0-.66-.56,3.83,3.83,0,0,0-1.07-.22c-.15,0-.22-.12-.22-.33s.07-.4.22-.4c1.57.07,2.72.1,3.47.1,1.13,0,2.42,0,3.9-.1.15,0,.23.12.23.37s-.09.36-.26.36a7.15,7.15,0,0,0-1.17.19.85.85,0,0,0-.54.49,1.43,1.43,0,0,0-.08.51,14,14,0,0,0,.6,2.84l2.18,8q.45,1.68.75,3.06c0-.18.16-.66.33-1.42.14-.59.28-1.15.43-1.68l1.72-6c.18-.63.35-1.29.5-2s.26-1.07.32-1.29-.11-.32-.24-.72a4.07,4.07,0,0,0-.61-1.29,1.53,1.53,0,0,0-.7-.54,5.78,5.78,0,0,0-1-.17q-.27,0-.27-.36c0-.25.09-.37.27-.37,1.53.07,2.71.1,3.53.1s1.9,0,3.44-.1c.15,0,.23.12.23.37s-.09.36-.27.36a6,6,0,0,0-1.16.19.84.84,0,0,0-.45.49,1.13,1.13,0,0,0-.1.51,16,16,0,0,0,.67,2.82l2.37,8,.51,1.84C117.6,73.62,117.71,74,117.75,74.21Z" transform="translate(-12.53 -1.78)"/><path class="cls-5" d="M118.85,26.06Q115.39,26,112,26q-3.58,0-7.07.09c-.15,0-.23-.11-.23-.32s.08-.31.23-.33a7.3,7.3,0,0,0,1.21-.19,1.06,1.06,0,0,0,.58-.5,9.51,9.51,0,0,0,.34-3.45V11.84q0-2-.06-2.52a2.61,2.61,0,0,0-.25-.9A1,1,0,0,0,106,8a11.76,11.76,0,0,0-1.18-.15c-.17,0-.26-.13-.26-.33s.09-.37.26-.37l2,.07,1.74,0c.48,0,1.15,0,2,0l1.7-.05c.19,0,.28.12.28.37s-.08.3-.23.33a11.93,11.93,0,0,0-1.23.18.9.9,0,0,0-.59.44,11,11,0,0,0-.29,3.42v9.43a8.06,8.06,0,0,0,.35,3.15,1.61,1.61,0,0,0,1.07.66,8.07,8.07,0,0,0,1.41.09,7.21,7.21,0,0,0,4.43-1.32,9.64,9.64,0,0,0,2-2.59c.07-.13.15-.19.24-.19l.2,0c.18.06.27.15.27.26a.58.58,0,0,1,0,.1A32.83,32.83,0,0,1,118.85,26.06Z" transform="translate(-12.53 -1.78)"/><path class="cls-5" d="M114.05,43.91c-1.17-.07-2.16-.1-3-.1s-1.75,0-3.23.1l-1,2.73a6.11,6.11,0,0,0-.43,2,2.4,2.4,0,0,0,.16.9c.18.43.85.71,2,.84.15,0,.23.11.23.33s-.1.35-.29.35q-1-.06-3.24-.06-1.87,0-2.73.06c-.19,0-.29-.12-.29-.35s.1-.33.29-.33a2.91,2.91,0,0,0,1.53-.81,9,9,0,0,0,1.58-3l3.13-8.43c.77-2.1,1.4-3.92,1.87-5.46l2-.94a.31.31,0,0,1,.34.24q.19.59,2.16,6.31l2.93,8.48a11.38,11.38,0,0,0,1.31,3,1.5,1.5,0,0,0,.69.53,4.68,4.68,0,0,0,1,.15.3.3,0,0,1,.34.33.31.31,0,0,1-.34.35q-2.31-.06-3.69-.06c-.89,0-2.12,0-3.67.06-.13,0-.2-.12-.2-.35s.07-.33.2-.33c1.09-.06,1.69-.29,1.81-.68a1.63,1.63,0,0,0,.07-.5,8.13,8.13,0,0,0-.54-2.23Zm-3-9-1.16,3.35-1.67,4.61c.57,0,1.53.05,2.89.05s2.1,0,2.6-.05l-1.56-4.56C111.84,37.51,111.47,36.38,111,34.91Z" transform="translate(-12.53 -1.78)"/><path class="cls-5" d="M117.75,74.21c.09-.29.21-.79.37-1.5s.3-1.26.42-1.73l2-7.89a11.19,11.19,0,0,0,.38-2.36,1.9,1.9,0,0,0-.14-.79c-.21-.43-.84-.72-1.87-.86-.15,0-.23-.12-.23-.36s.08-.37.23-.37c1.23.07,2.32.1,3.28.1.7,0,1.61,0,2.74-.1.15,0,.23.12.23.37s-.09.36-.26.36a3.26,3.26,0,0,0-1.83.88,11,11,0,0,0-1.24,3.13l-2.63,9.28c-.29,1-.55,2-.77,2.88L118,77c-1.25.54-1.91.82-2,.82s-.15-.06-.17-.18c-.6-2.14-1.07-3.84-1.44-5.08l-2-6.75c-.12-.41-.25-.87-.38-1.39s-.23-1-.25-1q-.28,1.36-.57,2.34l-1.94,6.71c-.39,1.31-.81,2.83-1.26,4.55-1.26.56-1.92.84-2,.84s-.16-.06-.22-.18q-.69-2.79-1.34-5.08l-2.68-9.41a11.85,11.85,0,0,0-1.27-3.25,1.83,1.83,0,0,0-.66-.56,3.83,3.83,0,0,0-1.07-.22c-.15,0-.22-.12-.22-.33s.07-.4.22-.4c1.57.07,2.72.1,3.47.1,1.13,0,2.42,0,3.9-.1.15,0,.23.12.23.37s-.09.36-.26.36a7.15,7.15,0,0,0-1.17.19.85.85,0,0,0-.54.49,1.43,1.43,0,0,0-.08.51,14,14,0,0,0,.6,2.84l2.18,8q.45,1.68.75,3.06c0-.18.16-.66.33-1.42.14-.59.28-1.15.43-1.68l1.72-6c.18-.63.35-1.29.5-2s.26-1.07.32-1.29-.11-.32-.24-.72a4.07,4.07,0,0,0-.61-1.29,1.53,1.53,0,0,0-.7-.54,5.78,5.78,0,0,0-1-.17q-.27,0-.27-.36c0-.25.09-.37.27-.37,1.53.07,2.71.1,3.53.1s1.9,0,3.44-.1c.15,0,.23.12.23.37s-.09.36-.27.36a6,6,0,0,0-1.16.19.84.84,0,0,0-.45.49,1.13,1.13,0,0,0-.1.51,16,16,0,0,0,.67,2.82l2.37,8,.51,1.84C117.6,73.62,117.71,74,117.75,74.21Z" transform="translate(-12.53 -1.78)"/></svg>