<svg id="literature" xmlns="http://www.w3.org/2000/svg" viewBox="0 0 140.29 62.32"><defs><style>.cls-1,.cls-3{fill:none;}.cls-1,.cls-2{stroke:#fff;stroke-width:4px;}.cls-1,.cls-2,.cls-3,.cls-4,.cls-5,.cls-7{stroke-miterlimit:10;}.cls-2,.cls-4{fill:#fff;}.cls-3,.cls-4{stroke:#f4b2ce;stroke-width:3px;}.cls-5,.cls-6,.cls-7,.cls-8{fill:#f4b2ce;}.cls-5,.cls-7{stroke:#000;}.cls-7,.cls-8{font-size:17px;font-family:YuMincho-Regular, Yu Mincho;}</style></defs><title>litarature</title><path class="cls-1" d="M4.78,70.91h0c0-2.38,7.35-4.44,14.25-4.44s12.68,2,14.41,4.44h.9v-48c0-3.25-7.06-6.93-15.32-6.93-8,0-13.36,3.29-14.28,6.39a11.71,11.71,0,0,0,0,1.77V70.91Z" transform="translate(-2.71 -10.59)"/><path class="cls-1" d="M64.71,70.91h0c0-2.38-7.51-4.44-14.41-4.44s-12.84,2-14.57,4.44H34.34v-48c0-3.25,7.31-6.93,15.57-6.93,8,0,13.63,3.29,14.56,6.39a11.43,11.43,0,0,1,.24,1.77V70.91Z" transform="translate(-2.71 -10.59)"/><path class="cls-1" d="M9.47,25.48c3.23-1.76,9-2.66,15.12-1.61,1.49.26,2.24.46,3.33.74" transform="translate(-2.71 -10.59)"/><path class="cls-1" d="M9.47,32.06c3.23-1.76,9-2.65,15.12-1.6a33.48,33.48,0,0,1,3.33.73" transform="translate(-2.71 -10.59)"/><path class="cls-1" d="M9.47,38.64c3.23-1.75,9-2.65,15.12-1.6a33.21,33.21,0,0,1,3.33.74" transform="translate(-2.71 -10.59)"/><path class="cls-2" d="M21.83,63.53C24.17,59.42,25.91,56,27,53.84c3.2-6.41,15.65-32.2,22.14-39a7.11,7.11,0,0,1,3.45-2.11,6.54,6.54,0,0,1,6.28,1.83c2.62,3.08.5,8.44-.69,11.44-.8,2-3,7.74-7.06,8.23-.19,0-3,.33-3.88-1.46a3.31,3.31,0,0,1,.61-3.57,3.24,3.24,0,0,1,4-.37A4.08,4.08,0,0,1,53.45,31c1.45,4-2.86,11.57-8.45,12.9-.68.16-3.57.84-4.82-.83a3.28,3.28,0,0,1,0-3.84,2.53,2.53,0,0,1,2.93-.73c1.72.84,1.57,4.1,1.55,4.48-.3,5.31-6.36,8.7-7.75,9.42S31.12,54,27,53.84" transform="translate(-2.71 -10.59)"/><path class="cls-3" d="M4.78,70.91h0c0-2.38,7.35-4.44,14.25-4.44s12.68,2,14.41,4.44h.9v-48c0-3.25-7.06-6.93-15.32-6.93-8,0-13.36,3.29-14.28,6.39a11.71,11.71,0,0,0,0,1.77V70.91Z" transform="translate(-2.71 -10.59)"/><path class="cls-3" d="M64.71,70.91h0c0-2.38-7.51-4.44-14.41-4.44s-12.84,2-14.57,4.44H34.34v-48c0-3.25,7.31-6.93,15.57-6.93,8,0,13.63,3.29,14.56,6.39a11.43,11.43,0,0,1,.24,1.77V70.91Z" transform="translate(-2.71 -10.59)"/><path class="cls-3" d="M9.47,25.48c3.23-1.76,9-2.66,15.12-1.61,1.49.26,2.24.46,3.33.74" transform="translate(-2.71 -10.59)"/><path class="cls-3" d="M9.47,32.06c3.23-1.76,9-2.65,15.12-1.6a33.48,33.48,0,0,1,3.33.73" transform="translate(-2.71 -10.59)"/><path class="cls-3" d="M9.47,38.64c3.23-1.75,9-2.65,15.12-1.6a33.21,33.21,0,0,1,3.33.74" transform="translate(-2.71 -10.59)"/><path class="cls-4" d="M21.83,63.53C24.17,59.42,25.91,56,27,53.84c3.2-6.41,15.65-32.2,22.14-39a7.11,7.11,0,0,1,3.45-2.11,6.54,6.54,0,0,1,6.28,1.83c2.62,3.08.5,8.44-.69,11.44-.8,2-3,7.74-7.06,8.23-.19,0-3,.33-3.88-1.46a3.31,3.31,0,0,1,.61-3.57,3.24,3.24,0,0,1,4-.37A4.08,4.08,0,0,1,53.45,31c1.45,4-2.86,11.57-8.45,12.9-.68.16-3.57.84-4.82-.83a3.28,3.28,0,0,1,0-3.84,2.53,2.53,0,0,1,2.93-.73c1.72.84,1.57,4.1,1.55,4.48-.3,5.31-6.36,8.7-7.75,9.42S31.12,54,27,53.84" transform="translate(-2.71 -10.59)"/><path class="cls-5" d="M71.42,43.64V36.19a4.46,4.46,0,0,0-.14-1.39.5.5,0,0,0-.53-.34l-.6,0c-.08,0-.13-.06-.13-.2a.23.23,0,0,1,.19-.24,16.77,16.77,0,0,0,2.31-.68c.11,0,.17.05.17.14,0,1.05-.07,2.4-.07,4.05v6.08a5.79,5.79,0,0,0,.13,1.75c.1.15.42.25,1,.31.11,0,.16.09.16.21s0,.18-.15.18l-1.62,0-1.76,0c-.09,0-.14-.06-.14-.18s.05-.2.14-.21c.52,0,.82-.14.9-.31A5.1,5.1,0,0,0,71.42,43.64Z" transform="translate(-2.71 -10.59)"/><path class="cls-5" d="M76.2,41.27a4.34,4.34,0,0,0-.14-1.38.5.5,0,0,0-.49-.34l-.63,0c-.09,0-.14-.07-.14-.22s.07-.18.21-.23a16,16,0,0,0,2.26-.69c.13,0,.2.05.2.15,0,1.08-.07,2.06-.07,2.93v2.12a7.06,7.06,0,0,0,.1,1.75c.08.15.42.25,1,.29a.17.17,0,0,1,.14.19c0,.14-.05.22-.14.22l-1.65,0-1.73,0c-.09,0-.14-.08-.14-.22a.17.17,0,0,1,.14-.19,1.47,1.47,0,0,0,.93-.29,5.34,5.34,0,0,0,.14-1.75Zm.5-7.5a.88.88,0,0,1,.68.33.9.9,0,0,1,.26.62.93.93,0,0,1-.32.71,1,1,0,0,1-.62.24.92.92,0,0,1-.69-.31.9.9,0,0,1-.27-.64.87.87,0,0,1,.34-.68A.89.89,0,0,1,76.7,33.77Z" transform="translate(-2.71 -10.59)"/><path class="cls-5" d="M80.85,39.32l-1.06,0c-.11,0-.16-.07-.16-.22s.05-.23.16-.25A2.26,2.26,0,0,0,81,38.19,3.57,3.57,0,0,0,81.68,37a.23.23,0,0,1,.25-.14c.15,0,.23,0,.23.17,0,.83,0,1.37,0,1.63.63,0,1.41,0,2.31,0a.09.09,0,0,1,.1.1l-.15.48a.17.17,0,0,1-.17.12c-.41,0-1.12-.05-2.13-.05l0,4.17a3,3,0,0,0,.34,1.7,1.07,1.07,0,0,0,.9.44,1.47,1.47,0,0,0,1.07-.47.16.16,0,0,1,.1-.05.26.26,0,0,1,.18.11.29.29,0,0,1,.08.17.19.19,0,0,1,0,.1,2.42,2.42,0,0,1-1.79.9,2,2,0,0,1-1.58-.58A2.71,2.71,0,0,1,80.78,44l0-2.3Z" transform="translate(-2.71 -10.59)"/><path class="cls-5" d="M90.32,45.42a3.54,3.54,0,0,1-1.17.75,3.65,3.65,0,0,1-1.25.19,2,2,0,0,1-1.48-.54,1.57,1.57,0,0,1-.48-1.18,2,2,0,0,1,.58-1.49,5.51,5.51,0,0,1,2-.9,4.74,4.74,0,0,0,1.34-.58.82.82,0,0,0,.38-.64v-.44c0-1.17-.36-1.75-1.09-1.75a1.63,1.63,0,0,0-1.15.41,1.1,1.1,0,0,0-.31.84.64.64,0,0,1-.34.54,1.44,1.44,0,0,1-.75.19.4.4,0,0,1-.45-.46c0-.51.34-1,1-1.41a3.78,3.78,0,0,1,2-.56,2.41,2.41,0,0,1,1.85.56,2.3,2.3,0,0,1,.43,1.61l0,3.68c0,1,.2,1.44.64,1.44a.67.67,0,0,0,.41-.13.37.37,0,0,1,.15-.06.17.17,0,0,1,.14.09.29.29,0,0,1,.06.17s0,.07-.07.1a2.11,2.11,0,0,1-1.26.43A1.2,1.2,0,0,1,90.32,45.42Zm-.06-3.48a4.29,4.29,0,0,1-1.56.8,2.47,2.47,0,0,0-1.12.72,1.45,1.45,0,0,0-.29.94,1.26,1.26,0,0,0,.41,1,1.16,1.16,0,0,0,.82.32,1.82,1.82,0,0,0,1.31-.47,1.28,1.28,0,0,0,.41-1Z" transform="translate(-2.71 -10.59)"/><path class="cls-5" d="M96.41,40.2q1.11-1.8,2.16-1.8a1.38,1.38,0,0,1,.69.16.39.39,0,0,1,.23.32,1.17,1.17,0,0,1-.33.78.72.72,0,0,1-.5.29,1.28,1.28,0,0,1-.48-.14,1.12,1.12,0,0,0-.44-.16q-.37,0-.84.63a2.3,2.3,0,0,0-.49,1.43v2a6.3,6.3,0,0,0,.12,1.74c.09.16.43.27,1,.3.09,0,.13.08.13.2s0,.18-.13.18l-1.69,0-1.73,0q-.15,0-.15-.18a.17.17,0,0,1,.15-.2,2.88,2.88,0,0,0,.68-.1.53.53,0,0,0,.22-.2,4.71,4.71,0,0,0,.17-1.74V41.3A4,4,0,0,0,95,39.92a.54.54,0,0,0-.47-.36l-.6,0c-.11,0-.16-.07-.16-.21a.24.24,0,0,1,.21-.24,11.05,11.05,0,0,0,2.22-.69c.14,0,.2,0,.2.15Q96.41,39.6,96.41,40.2Z" transform="translate(-2.71 -10.59)"/><path class="cls-5" d="M105.07,45.42a3.23,3.23,0,0,1-2.43.94,2,2,0,0,1-1.48-.54,1.57,1.57,0,0,1-.48-1.18,2,2,0,0,1,.59-1.49,5.44,5.44,0,0,1,2-.9,5,5,0,0,0,1.35-.58A.81.81,0,0,0,105,41v-.44c0-1.17-.36-1.75-1.09-1.75a1.63,1.63,0,0,0-1.15.41,1.1,1.1,0,0,0-.31.84.64.64,0,0,1-.34.54,1.43,1.43,0,0,1-.74.19.4.4,0,0,1-.46-.46c0-.51.34-1,1-1.41a3.72,3.72,0,0,1,2-.56,2.39,2.39,0,0,1,1.85.56,2.35,2.35,0,0,1,.44,1.61l0,3.68c0,1,.2,1.44.64,1.44a.7.7,0,0,0,.42-.13.29.29,0,0,1,.15-.06s.09,0,.13.09a.29.29,0,0,1,.06.17s0,.07-.07.1a2.11,2.11,0,0,1-1.26.43A1.19,1.19,0,0,1,105.07,45.42ZM105,41.94a4.29,4.29,0,0,1-1.56.8,2.52,2.52,0,0,0-1.12.72,1.5,1.5,0,0,0-.29.94,1.29,1.29,0,0,0,.41,1,1.19,1.19,0,0,0,.83.32,1.79,1.79,0,0,0,1.3-.47,1.24,1.24,0,0,0,.41-1Z" transform="translate(-2.71 -10.59)"/><path class="cls-5" d="M109.62,39.32l-1.06,0c-.11,0-.17-.07-.17-.22s.06-.23.17-.25a2.3,2.3,0,0,0,1.21-.68,3.57,3.57,0,0,0,.68-1.17.23.23,0,0,1,.25-.14c.15,0,.23,0,.23.17,0,.83-.05,1.37-.05,1.63.63,0,1.41,0,2.31,0a.09.09,0,0,1,.1.1l-.16.48a.15.15,0,0,1-.16.12c-.41,0-1.12-.05-2.13-.05l0,4.17a3,3,0,0,0,.34,1.7,1.07,1.07,0,0,0,.9.44,1.47,1.47,0,0,0,1.07-.47.14.14,0,0,1,.1-.05.26.26,0,0,1,.18.11.27.27,0,0,1,.07.17.16.16,0,0,1,0,.1,2.42,2.42,0,0,1-1.79.9,2.06,2.06,0,0,1-1.59-.58,2.77,2.77,0,0,1-.5-1.82l0-2.3Z" transform="translate(-2.71 -10.59)"/><path class="cls-5" d="M120.54,46.36c-.11,0-.17,0-.17-.15,0-.61,0-1.07,0-1.37a2.87,2.87,0,0,1-2.56,1.52,2.36,2.36,0,0,1-1.79-.67,2.17,2.17,0,0,1-.59-1.61V41a4.63,4.63,0,0,0-.12-1.37.51.51,0,0,0-.49-.35l-.53,0q-.15,0-.15-.21a.22.22,0,0,1,.21-.23c.78-.12,1.51-.27,2.19-.44q.18,0,.18.15c0,1-.05,1.94-.05,2.87v1.7a3.69,3.69,0,0,0,.21,1.48,1.46,1.46,0,0,0,1.43.88,2,2,0,0,0,1.68-.95,1.84,1.84,0,0,0,.31-.58,3.18,3.18,0,0,0,.07-.71V41a4.63,4.63,0,0,0-.12-1.37.52.52,0,0,0-.48-.35l-.54,0c-.11,0-.16-.07-.16-.21a.21.21,0,0,1,.19-.23,19.52,19.52,0,0,0,2.19-.44c.13,0,.19.06.19.17,0,.91-.05,1.86-.05,2.85v2.24a6.73,6.73,0,0,0,.11,1.69c.09.16.31.26.67.27l.3,0a.16.16,0,0,1,.16.18.18.18,0,0,1-.15.21A15.65,15.65,0,0,0,120.54,46.36Z" transform="translate(-2.71 -10.59)"/><path class="cls-5" d="M126.64,40.2q1.11-1.8,2.16-1.8a1.38,1.38,0,0,1,.69.16.39.39,0,0,1,.23.32,1.17,1.17,0,0,1-.33.78.72.72,0,0,1-.5.29,1.28,1.28,0,0,1-.48-.14,1.12,1.12,0,0,0-.44-.16q-.37,0-.84.63a2.3,2.3,0,0,0-.49,1.43v2a6.3,6.3,0,0,0,.12,1.74c.09.16.43.27,1,.3.09,0,.13.08.13.2s0,.18-.13.18l-1.69,0-1.73,0q-.15,0-.15-.18a.17.17,0,0,1,.15-.2,2.88,2.88,0,0,0,.68-.1.53.53,0,0,0,.22-.2,4.71,4.71,0,0,0,.17-1.74V41.3a4,4,0,0,0-.15-1.38.54.54,0,0,0-.47-.36l-.6,0c-.11,0-.16-.07-.16-.21a.24.24,0,0,1,.21-.24,11.05,11.05,0,0,0,2.22-.69c.14,0,.2,0,.2.15Q126.64,39.6,126.64,40.2Z" transform="translate(-2.71 -10.59)"/><path class="cls-5" d="M132.31,41.66a6.21,6.21,0,0,0-.05.69,3.52,3.52,0,0,0,.89,2.47,2.19,2.19,0,0,0,1.64.78,2.7,2.7,0,0,0,2.32-1.2.11.11,0,0,1,.11-.06.28.28,0,0,1,.2.09.17.17,0,0,1,.09.13.38.38,0,0,1-.1.22,3.27,3.27,0,0,1-2.85,1.58,3.46,3.46,0,0,1-2.76-1.2,4.48,4.48,0,0,1,.26-5.75,3.34,3.34,0,0,1,2.46-1,2.87,2.87,0,0,1,2.23,1,3.29,3.29,0,0,1,.83,2,.32.32,0,0,1-.08.21.29.29,0,0,1-.18.08c-1.14,0-2.26,0-3.34,0C133.22,41.64,132.66,41.64,132.31,41.66Zm.1-.6,1.39,0c.77,0,1.51,0,2.2-.07.11,0,.17-.08.17-.23a2.39,2.39,0,0,0-.58-1.44,1.44,1.44,0,0,0-1.07-.46,1.79,1.79,0,0,0-1.35.63A3.42,3.42,0,0,0,132.41,41.06Z" transform="translate(-2.71 -10.59)"/><path class="cls-6" d="M71.42,43.64V36.19a4.46,4.46,0,0,0-.14-1.39.5.5,0,0,0-.53-.34l-.6,0c-.08,0-.13-.06-.13-.2a.23.23,0,0,1,.19-.24,16.77,16.77,0,0,0,2.31-.68c.11,0,.17.05.17.14,0,1.05-.07,2.4-.07,4.05v6.08a5.79,5.79,0,0,0,.13,1.75c.1.15.42.25,1,.31.11,0,.16.09.16.21s0,.18-.15.18l-1.62,0-1.76,0c-.09,0-.14-.06-.14-.18s.05-.2.14-.21c.52,0,.82-.14.9-.31A5.1,5.1,0,0,0,71.42,43.64Z" transform="translate(-2.71 -10.59)"/><path class="cls-6" d="M76.2,41.27a4.34,4.34,0,0,0-.14-1.38.5.5,0,0,0-.49-.34l-.63,0c-.09,0-.14-.07-.14-.22s.07-.18.21-.23a16,16,0,0,0,2.26-.69c.13,0,.2.05.2.15,0,1.08-.07,2.06-.07,2.93v2.12a7.06,7.06,0,0,0,.1,1.75c.08.15.42.25,1,.29a.17.17,0,0,1,.14.19c0,.14-.05.22-.14.22l-1.65,0-1.73,0c-.09,0-.14-.08-.14-.22a.17.17,0,0,1,.14-.19,1.47,1.47,0,0,0,.93-.29,5.34,5.34,0,0,0,.14-1.75Zm.5-7.5a.88.88,0,0,1,.68.33.9.9,0,0,1,.26.62.93.93,0,0,1-.32.71,1,1,0,0,1-.62.24.92.92,0,0,1-.69-.31.9.9,0,0,1-.27-.64.87.87,0,0,1,.34-.68A.89.89,0,0,1,76.7,33.77Z" transform="translate(-2.71 -10.59)"/><path class="cls-6" d="M80.85,39.32l-1.06,0c-.11,0-.16-.07-.16-.22s.05-.23.16-.25A2.26,2.26,0,0,0,81,38.19,3.57,3.57,0,0,0,81.68,37a.23.23,0,0,1,.25-.14c.15,0,.23,0,.23.17,0,.83,0,1.37,0,1.63.63,0,1.41,0,2.31,0a.09.09,0,0,1,.1.1l-.15.48a.17.17,0,0,1-.17.12c-.41,0-1.12-.05-2.13-.05l0,4.17a3,3,0,0,0,.34,1.7,1.07,1.07,0,0,0,.9.44,1.47,1.47,0,0,0,1.07-.47.16.16,0,0,1,.1-.05.26.26,0,0,1,.18.11.29.29,0,0,1,.08.17.19.19,0,0,1,0,.1,2.42,2.42,0,0,1-1.79.9,2,2,0,0,1-1.58-.58A2.71,2.71,0,0,1,80.78,44l0-2.3Z" transform="translate(-2.71 -10.59)"/><path class="cls-6" d="M90.32,45.42a3.54,3.54,0,0,1-1.17.75,3.65,3.65,0,0,1-1.25.19,2,2,0,0,1-1.48-.54,1.57,1.57,0,0,1-.48-1.18,2,2,0,0,1,.58-1.49,5.51,5.51,0,0,1,2-.9,4.74,4.74,0,0,0,1.34-.58.82.82,0,0,0,.38-.64v-.44c0-1.17-.36-1.75-1.09-1.75a1.63,1.63,0,0,0-1.15.41,1.1,1.1,0,0,0-.31.84.64.64,0,0,1-.34.54,1.44,1.44,0,0,1-.75.19.4.4,0,0,1-.45-.46c0-.51.34-1,1-1.41a3.78,3.78,0,0,1,2-.56,2.41,2.41,0,0,1,1.85.56,2.3,2.3,0,0,1,.43,1.61l0,3.68c0,1,.2,1.44.64,1.44a.67.67,0,0,0,.41-.13.37.37,0,0,1,.15-.06.17.17,0,0,1,.14.09.29.29,0,0,1,.06.17s0,.07-.07.1a2.11,2.11,0,0,1-1.26.43A1.2,1.2,0,0,1,90.32,45.42Zm-.06-3.48a4.29,4.29,0,0,1-1.56.8,2.47,2.47,0,0,0-1.12.72,1.45,1.45,0,0,0-.29.94,1.26,1.26,0,0,0,.41,1,1.16,1.16,0,0,0,.82.32,1.82,1.82,0,0,0,1.31-.47,1.28,1.28,0,0,0,.41-1Z" transform="translate(-2.71 -10.59)"/><path class="cls-6" d="M96.41,40.2q1.11-1.8,2.16-1.8a1.38,1.38,0,0,1,.69.16.39.39,0,0,1,.23.32,1.17,1.17,0,0,1-.33.78.72.72,0,0,1-.5.29,1.28,1.28,0,0,1-.48-.14,1.12,1.12,0,0,0-.44-.16q-.37,0-.84.63a2.3,2.3,0,0,0-.49,1.43v2a6.3,6.3,0,0,0,.12,1.74c.09.16.43.27,1,.3.09,0,.13.08.13.2s0,.18-.13.18l-1.69,0-1.73,0q-.15,0-.15-.18a.17.17,0,0,1,.15-.2,2.88,2.88,0,0,0,.68-.1.53.53,0,0,0,.22-.2,4.71,4.71,0,0,0,.17-1.74V41.3A4,4,0,0,0,95,39.92a.54.54,0,0,0-.47-.36l-.6,0c-.11,0-.16-.07-.16-.21a.24.24,0,0,1,.21-.24,11.05,11.05,0,0,0,2.22-.69c.14,0,.2,0,.2.15Q96.41,39.6,96.41,40.2Z" transform="translate(-2.71 -10.59)"/><path class="cls-6" d="M105.07,45.42a3.23,3.23,0,0,1-2.43.94,2,2,0,0,1-1.48-.54,1.57,1.57,0,0,1-.48-1.18,2,2,0,0,1,.59-1.49,5.44,5.44,0,0,1,2-.9,5,5,0,0,0,1.35-.58A.81.81,0,0,0,105,41v-.44c0-1.17-.36-1.75-1.09-1.75a1.63,1.63,0,0,0-1.15.41,1.1,1.1,0,0,0-.31.84.64.64,0,0,1-.34.54,1.43,1.43,0,0,1-.74.19.4.4,0,0,1-.46-.46c0-.51.34-1,1-1.41a3.72,3.72,0,0,1,2-.56,2.39,2.39,0,0,1,1.85.56,2.35,2.35,0,0,1,.44,1.61l0,3.68c0,1,.2,1.44.64,1.44a.7.7,0,0,0,.42-.13.29.29,0,0,1,.15-.06s.09,0,.13.09a.29.29,0,0,1,.06.17s0,.07-.07.1a2.11,2.11,0,0,1-1.26.43A1.19,1.19,0,0,1,105.07,45.42ZM105,41.94a4.29,4.29,0,0,1-1.56.8,2.52,2.52,0,0,0-1.12.72,1.5,1.5,0,0,0-.29.94,1.29,1.29,0,0,0,.41,1,1.19,1.19,0,0,0,.83.32,1.79,1.79,0,0,0,1.3-.47,1.24,1.24,0,0,0,.41-1Z" transform="translate(-2.71 -10.59)"/><path class="cls-6" d="M109.62,39.32l-1.06,0c-.11,0-.17-.07-.17-.22s.06-.23.17-.25a2.3,2.3,0,0,0,1.21-.68,3.57,3.57,0,0,0,.68-1.17.23.23,0,0,1,.25-.14c.15,0,.23,0,.23.17,0,.83-.05,1.37-.05,1.63.63,0,1.41,0,2.31,0a.09.09,0,0,1,.1.1l-.16.48a.15.15,0,0,1-.16.12c-.41,0-1.12-.05-2.13-.05l0,4.17a3,3,0,0,0,.34,1.7,1.07,1.07,0,0,0,.9.44,1.47,1.47,0,0,0,1.07-.47.14.14,0,0,1,.1-.05.26.26,0,0,1,.18.11.27.27,0,0,1,.07.17.16.16,0,0,1,0,.1,2.42,2.42,0,0,1-1.79.9,2.06,2.06,0,0,1-1.59-.58,2.77,2.77,0,0,1-.5-1.82l0-2.3Z" transform="translate(-2.71 -10.59)"/><path class="cls-6" d="M120.54,46.36c-.11,0-.17,0-.17-.15,0-.61,0-1.07,0-1.37a2.87,2.87,0,0,1-2.56,1.52,2.36,2.36,0,0,1-1.79-.67,2.17,2.17,0,0,1-.59-1.61V41a4.63,4.63,0,0,0-.12-1.37.51.51,0,0,0-.49-.35l-.53,0q-.15,0-.15-.21a.22.22,0,0,1,.21-.23c.78-.12,1.51-.27,2.19-.44q.18,0,.18.15c0,1-.05,1.94-.05,2.87v1.7a3.69,3.69,0,0,0,.21,1.48,1.46,1.46,0,0,0,1.43.88,2,2,0,0,0,1.68-.95,1.84,1.84,0,0,0,.31-.58,3.18,3.18,0,0,0,.07-.71V41a4.63,4.63,0,0,0-.12-1.37.52.52,0,0,0-.48-.35l-.54,0c-.11,0-.16-.07-.16-.21a.21.21,0,0,1,.19-.23,19.52,19.52,0,0,0,2.19-.44c.13,0,.19.06.19.17,0,.91-.05,1.86-.05,2.85v2.24a6.73,6.73,0,0,0,.11,1.69c.09.16.31.26.67.27l.3,0a.16.16,0,0,1,.16.18.18.18,0,0,1-.15.21A15.65,15.65,0,0,0,120.54,46.36Z" transform="translate(-2.71 -10.59)"/><path class="cls-6" d="M126.64,40.2q1.11-1.8,2.16-1.8a1.38,1.38,0,0,1,.69.16.39.39,0,0,1,.23.32,1.17,1.17,0,0,1-.33.78.72.72,0,0,1-.5.29,1.28,1.28,0,0,1-.48-.14,1.12,1.12,0,0,0-.44-.16q-.37,0-.84.63a2.3,2.3,0,0,0-.49,1.43v2a6.3,6.3,0,0,0,.12,1.74c.09.16.43.27,1,.3.09,0,.13.08.13.2s0,.18-.13.18l-1.69,0-1.73,0q-.15,0-.15-.18a.17.17,0,0,1,.15-.2,2.88,2.88,0,0,0,.68-.1.53.53,0,0,0,.22-.2,4.71,4.71,0,0,0,.17-1.74V41.3a4,4,0,0,0-.15-1.38.54.54,0,0,0-.47-.36l-.6,0c-.11,0-.16-.07-.16-.21a.24.24,0,0,1,.21-.24,11.05,11.05,0,0,0,2.22-.69c.14,0,.2,0,.2.15Q126.64,39.6,126.64,40.2Z" transform="translate(-2.71 -10.59)"/><path class="cls-6" d="M132.31,41.66a6.21,6.21,0,0,0-.05.69,3.52,3.52,0,0,0,.89,2.47,2.19,2.19,0,0,0,1.64.78,2.7,2.7,0,0,0,2.32-1.2.11.11,0,0,1,.11-.06.28.28,0,0,1,.2.09.17.17,0,0,1,.09.13.38.38,0,0,1-.1.22,3.27,3.27,0,0,1-2.85,1.58,3.46,3.46,0,0,1-2.76-1.2,4.48,4.48,0,0,1,.26-5.75,3.34,3.34,0,0,1,2.46-1,2.87,2.87,0,0,1,2.23,1,3.29,3.29,0,0,1,.83,2,.32.32,0,0,1-.08.21.29.29,0,0,1-.18.08c-1.14,0-2.26,0-3.34,0C133.22,41.64,132.66,41.64,132.31,41.66Zm.1-.6,1.39,0c.77,0,1.51,0,2.2-.07.11,0,.17-.08.17-.23a2.39,2.39,0,0,0-.58-1.44,1.44,1.44,0,0,0-1.07-.46,1.79,1.79,0,0,0-1.35.63A3.42,3.42,0,0,0,132.41,41.06Z" transform="translate(-2.71 -10.59)"/><text class="cls-7" transform="translate(66.97 36.05)">litarature</text><text class="cls-8" transform="translate(66.97 36.05)">litarature</text></svg>