<svg id="math" xmlns="http://www.w3.org/2000/svg" viewBox="0 0 128.21 76.77"><defs><style>.cls-1,.cls-6{font-size:54.78px;}.cls-1,.cls-10,.cls-11,.cls-2,.cls-3,.cls-5,.cls-6,.cls-7,.cls-8{fill:#c0b8e0;}.cls-1,.cls-2,.cls-3,.cls-4,.cls-5{stroke:#fff;}.cls-1,.cls-11,.cls-2,.cls-3,.cls-4,.cls-5,.cls-9{stroke-miterlimit:10;}.cls-1,.cls-2,.cls-6,.cls-7{font-family:CenturySchoolbook-BoldItalic, Century Schoolbook;}.cls-1,.cls-10,.cls-2,.cls-5,.cls-6,.cls-7{font-weight:700;font-style:italic;}.cls-10,.cls-2,.cls-5,.cls-7{font-size:27.39px;}.cls-3{stroke-width:2px;}.cls-4,.cls-9{fill:none;}.cls-4{stroke-width:3px;}.cls-10,.cls-5{font-family:TimesNewRomanPS-BoldItalicMT, Times New Roman;}.cls-9{stroke:#c0b8e0;stroke-width:1.75px;}.cls-11{stroke:#000;}</style></defs><title>math</title><text class="cls-1" transform="translate(76.01 57.31)">e</text><text class="cls-2" transform="translate(101.27 31.16)">i</text><path class="cls-3" d="M65.77,39.43,62.16,19.56a26.87,26.87,0,0,1-.16-9,7.56,7.56,0,0,1,1.79-3.92,5.65,5.65,0,0,1,2.93-1.77,4.35,4.35,0,0,1,3.21.5,3.38,3.38,0,0,1,1.81,2.22,3.7,3.7,0,0,1-.35,2.76,3,3,0,0,1-2,1.44,4.14,4.14,0,0,1-2.84-.67A2.33,2.33,0,0,0,65,10.7a1.25,1.25,0,0,0-.86.7,2.84,2.84,0,0,0,0,1.77q.3,1.39,1.36,4.86,4.24,13.7,6.07,22.25.51,2.38,3.75,20.16,1.88,10.08-.16,14.21a5.76,5.76,0,0,1-4.06,3.25A4,4,0,0,1,68,77.36a4.13,4.13,0,0,1-1.75-2.71A3.46,3.46,0,0,1,66.54,72a2.94,2.94,0,0,1,2-1.39,3.11,3.11,0,0,1,2.57.59A2.71,2.71,0,0,0,73,72a1.19,1.19,0,0,0,.85-.68,2.71,2.71,0,0,0,0-1.68,38.69,38.69,0,0,0-1.18-4q-1.6-4.74-3.34-11.29Q67.15,45.92,65.77,39.43Z" transform="translate(-8.29 -2.6)"/><circle class="cls-4" cx="60.74" cy="38.77" r="10.56"/><text class="cls-5" transform="translate(112.11 30.53)">π</text><text class="cls-6" transform="translate(76.01 57.31)">e</text><text class="cls-7" transform="translate(101.27 31.16)">i</text><path class="cls-8" d="M65.77,39.43,62.16,19.56a26.87,26.87,0,0,1-.16-9,7.56,7.56,0,0,1,1.79-3.92,5.65,5.65,0,0,1,2.93-1.77,4.35,4.35,0,0,1,3.21.5,3.38,3.38,0,0,1,1.81,2.22,3.7,3.7,0,0,1-.35,2.76,3,3,0,0,1-2,1.44,4.14,4.14,0,0,1-2.84-.67A2.33,2.33,0,0,0,65,10.7a1.25,1.25,0,0,0-.86.7,2.84,2.84,0,0,0,0,1.77q.3,1.39,1.36,4.86,4.24,13.7,6.07,22.25.51,2.38,3.75,20.16,1.88,10.08-.16,14.21a5.76,5.76,0,0,1-4.06,3.25A4,4,0,0,1,68,77.36a4.13,4.13,0,0,1-1.75-2.71A3.46,3.46,0,0,1,66.54,72a2.94,2.94,0,0,1,2-1.39,3.11,3.11,0,0,1,2.57.59A2.71,2.71,0,0,0,73,72a1.19,1.19,0,0,0,.85-.68,2.71,2.71,0,0,0,0-1.68,38.69,38.69,0,0,0-1.18-4q-1.6-4.74-3.34-11.29Q67.15,45.92,65.77,39.43Z" transform="translate(-8.29 -2.6)"/><circle class="cls-9" cx="60.74" cy="38.77" r="10.56"/><text class="cls-10" transform="translate(112.11 30.53)">π</text><path class="cls-11" d="M33,3.17c.8,0,2.07,0,3.83,0,1.5,0,2.89,0,4.17-.1.2,0,.3.15.3.46S41.17,4,41,4a11.88,11.88,0,0,0-1.75.24,1.3,1.3,0,0,0-.75.63,7.88,7.88,0,0,0-.53,3.52v1l.21,12.7c0,1.75.09,2.92.17,3.49a4.6,4.6,0,0,0,.36,1.16,1.47,1.47,0,0,0,1,.72c.24.05.78.12,1.64.2.2,0,.31.17.31.44s-.12.43-.35.43c-1.62-.07-3.37-.1-5.22-.1s-3.42,0-4.94.1c-.19,0-.28-.15-.28-.46s.09-.39.28-.41a10.55,10.55,0,0,0,1.67-.24,1.36,1.36,0,0,0,.79-.68A7.73,7.73,0,0,0,34,23.59V22.17L33.84,6.84h-.31L28.42,19.37q-.8,2-2.12,5.16c-.66,1.59-1.16,2.82-1.52,3.69a.63.63,0,0,1-.66.39.66.66,0,0,1-.7-.39c-.65-1.72-1.78-4.44-3.37-8.15L14.5,6.84h-.43L14,22.17c0,2.27.22,3.76.67,4.48.33.51,1.19.87,2.58,1.09a.36.36,0,0,1,.36.41c0,.31-.14.46-.4.46-1.34-.07-2.68-.1-4-.1s-2.72,0-4.07.1c-.23,0-.34-.14-.34-.43s.11-.41.34-.44a3.47,3.47,0,0,0,2.36-1.09,10,10,0,0,0,.83-4.48l.35-12.7c0-.7,0-1.26,0-1.67a5.77,5.77,0,0,0-.49-2.89A1.83,1.83,0,0,0,11,4.24c-.1,0-.63-.09-1.59-.2-.2,0-.31-.2-.31-.48s.1-.46.28-.46c1.38.07,2.72.1,4,.1q2.7,0,4.14,0A41.36,41.36,0,0,0,19,7.2l4.91,11.69c.57,1.36,1.14,2.78,1.71,4.25L27.19,19,31.47,7.71C32,6.28,32.51,4.76,33,3.17Z" transform="translate(-8.29 -2.6)"/><path class="cls-8" d="M33,3.17c.8,0,2.07,0,3.83,0,1.5,0,2.89,0,4.17-.1.2,0,.3.15.3.46S41.17,4,41,4a11.88,11.88,0,0,0-1.75.24,1.3,1.3,0,0,0-.75.63,7.88,7.88,0,0,0-.53,3.52v1l.21,12.7c0,1.75.09,2.92.17,3.49a4.6,4.6,0,0,0,.36,1.16,1.47,1.47,0,0,0,1,.72c.24.05.78.12,1.64.2.2,0,.31.17.31.44s-.12.43-.35.43c-1.62-.07-3.37-.1-5.22-.1s-3.42,0-4.94.1c-.19,0-.28-.15-.28-.46s.09-.39.28-.41a10.55,10.55,0,0,0,1.67-.24,1.36,1.36,0,0,0,.79-.68A7.73,7.73,0,0,0,34,23.59V22.17L33.84,6.84h-.31L28.42,19.37q-.8,2-2.12,5.16c-.66,1.59-1.16,2.82-1.52,3.69a.63.63,0,0,1-.66.39.66.66,0,0,1-.7-.39c-.65-1.72-1.78-4.44-3.37-8.15L14.5,6.84h-.43L14,22.17c0,2.27.22,3.76.67,4.48.33.51,1.19.87,2.58,1.09a.36.36,0,0,1,.36.41c0,.31-.14.46-.4.46-1.34-.07-2.68-.1-4-.1s-2.72,0-4.07.1c-.23,0-.34-.14-.34-.43s.11-.41.34-.44a3.47,3.47,0,0,0,2.36-1.09,10,10,0,0,0,.83-4.48l.35-12.7c0-.7,0-1.26,0-1.67a5.77,5.77,0,0,0-.49-2.89A1.83,1.83,0,0,0,11,4.24c-.1,0-.63-.09-1.59-.2-.2,0-.31-.2-.31-.48s.1-.46.28-.46c1.38.07,2.72.1,4,.1q2.7,0,4.14,0A41.36,41.36,0,0,0,19,7.2l4.91,11.69c.57,1.36,1.14,2.78,1.71,4.25L27.19,19,31.47,7.71C32,6.28,32.51,4.76,33,3.17Z" transform="translate(-8.29 -2.6)"/><path class="cls-11" d="M30.33,41.59a4.65,4.65,0,0,1-1.36,1,4.26,4.26,0,0,1-1.72.31A2.86,2.86,0,0,1,25,42a2.2,2.2,0,0,1-.52-1.44,2.86,2.86,0,0,1,.76-2,3.85,3.85,0,0,1,1.23-.69c.2-.08.72-.25,1.58-.51a5.23,5.23,0,0,0,1.72-.79,1.09,1.09,0,0,0,.5-.86v-.62q0-2.34-1.32-2.34a1.58,1.58,0,0,0-1.15.44,1.64,1.64,0,0,0-.38,1.24.88.88,0,0,1-.49.79,2.28,2.28,0,0,1-1.21.27c-.57,0-.86-.23-.86-.71,0-.64.45-1.24,1.34-1.81a5.61,5.61,0,0,1,3.06-.83q2.16,0,2.85,1a3.58,3.58,0,0,1,.41,2v.34l0,4.6c0,1.29.25,1.93.79,1.93a1.41,1.41,0,0,0,.65-.15.15.15,0,0,1,.09,0c.07,0,.13,0,.18.14a.25.25,0,0,1,.07.15s0,.11-.13.17a3.06,3.06,0,0,1-1.87.5A1.81,1.81,0,0,1,30.33,41.59ZM30.22,37a4.26,4.26,0,0,1-1.76,1,2.31,2.31,0,0,0-1.61,2.31,1.88,1.88,0,0,0,.53,1.39,1.15,1.15,0,0,0,.86.41,1.9,1.9,0,0,0,1.48-.64,1.84,1.84,0,0,0,.48-1.27Z" transform="translate(-8.29 -2.6)"/><path class="cls-11" d="M25.44,49.55l-1.41,0c-.16,0-.24-.1-.24-.31a.27.27,0,0,1,.27-.3A3.42,3.42,0,0,0,26,48a4.39,4.39,0,0,0,1.14-1.57.35.35,0,0,1,.37-.22c.21,0,.32.07.32.22-.05,1.42-.07,2.17-.07,2.24q1.72,0,3.12-.06a.08.08,0,0,1,.09.09v.06l-.24.64a.2.2,0,0,1-.22.15c-1.09,0-2-.08-2.79-.08l-.06,5.63a4.18,4.18,0,0,0,.42,2.27,1.47,1.47,0,0,0,1.2.59,2.12,2.12,0,0,0,1.39-.59.27.27,0,0,1,.13,0,.35.35,0,0,1,.23.12.39.39,0,0,1,.14.23.32.32,0,0,1-.1.19A3.65,3.65,0,0,1,28.4,59a3.21,3.21,0,0,1-2.31-.76,3.52,3.52,0,0,1-.75-2.46c0-.61,0-1.65.06-3.1Z" transform="translate(-8.29 -2.6)"/><path class="cls-11" d="M27.7,70.24a3.73,3.73,0,0,1,3.32-2,3.67,3.67,0,0,1,2.09.59,2.82,2.82,0,0,1,1.21,2.54l0,2.49V75.3a9.06,9.06,0,0,0,.15,2.31.54.54,0,0,0,.45.32,5.07,5.07,0,0,0,.76.1c.12,0,.17.11.17.26s-.06.25-.19.25l-1.34-.05-1.11,0-1.31,0-1.15.05c-.14,0-.21-.09-.21-.25s.06-.24.19-.26a3.9,3.9,0,0,0,.79-.12.53.53,0,0,0,.35-.3A3.3,3.3,0,0,0,32,76.3V71.81a4.26,4.26,0,0,0-.2-1.37,1.69,1.69,0,0,0-1.67-1.13,2.17,2.17,0,0,0-1.95,1.26,3.54,3.54,0,0,0-.47,1.76v3a10.76,10.76,0,0,0,.13,2.31.58.58,0,0,0,.42.31,4.69,4.69,0,0,0,.8.11.21.21,0,0,1,.21.24q0,.27-.21.27l-1.28-.05-1.06,0-1.37,0-1.25.05c-.11,0-.17-.09-.17-.27s.06-.22.17-.24a4.09,4.09,0,0,0,.82-.12.51.51,0,0,0,.35-.3,8,8,0,0,0,.18-2.31V65.36a12.16,12.16,0,0,0-.09-1.79.58.58,0,0,0-.65-.52h-.08l-.61,0h-.1c-.09,0-.15-.09-.16-.27a.68.68,0,0,1,0-.12c0-.09.07-.16.22-.19a27.87,27.87,0,0,0,3.64-1c.14,0,.21.06.21.17-.07,1.81-.11,3.6-.11,5.38Z" transform="translate(-8.29 -2.6)"/><path class="cls-11" d="M38.92,75.9a1.5,1.5,0,0,1,1.48,1.49,1.4,1.4,0,0,1-.49,1.09,1.47,1.47,0,0,1-2.09-.1,1.48,1.48,0,0,1,.11-2.09A1.44,1.44,0,0,1,38.92,75.9Z" transform="translate(-8.29 -2.6)"/><path class="cls-8" d="M30.33,41.59a4.65,4.65,0,0,1-1.36,1,4.26,4.26,0,0,1-1.72.31A2.86,2.86,0,0,1,25,42a2.2,2.2,0,0,1-.52-1.44,2.86,2.86,0,0,1,.76-2,3.85,3.85,0,0,1,1.23-.69c.2-.08.72-.25,1.58-.51a5.23,5.23,0,0,0,1.72-.79,1.09,1.09,0,0,0,.5-.86v-.62q0-2.34-1.32-2.34a1.58,1.58,0,0,0-1.15.44,1.64,1.64,0,0,0-.38,1.24.88.88,0,0,1-.49.79,2.28,2.28,0,0,1-1.21.27c-.57,0-.86-.23-.86-.71,0-.64.45-1.24,1.34-1.81a5.61,5.61,0,0,1,3.06-.83q2.16,0,2.85,1a3.58,3.58,0,0,1,.41,2v.34l0,4.6c0,1.29.25,1.93.79,1.93a1.41,1.41,0,0,0,.65-.15.15.15,0,0,1,.09,0c.07,0,.13,0,.18.14a.25.25,0,0,1,.07.15s0,.11-.13.17a3.06,3.06,0,0,1-1.87.5A1.81,1.81,0,0,1,30.33,41.59ZM30.22,37a4.26,4.26,0,0,1-1.76,1,2.31,2.31,0,0,0-1.61,2.31,1.88,1.88,0,0,0,.53,1.39,1.15,1.15,0,0,0,.86.41,1.9,1.9,0,0,0,1.48-.64,1.84,1.84,0,0,0,.48-1.27Z" transform="translate(-8.29 -2.6)"/><path class="cls-8" d="M25.44,49.55l-1.41,0c-.16,0-.24-.1-.24-.31a.27.27,0,0,1,.27-.3A3.42,3.42,0,0,0,26,48a4.39,4.39,0,0,0,1.14-1.57.35.35,0,0,1,.37-.22c.21,0,.32.07.32.22-.05,1.42-.07,2.17-.07,2.24q1.72,0,3.12-.06a.08.08,0,0,1,.09.09v.06l-.24.64a.2.2,0,0,1-.22.15c-1.09,0-2-.08-2.79-.08l-.06,5.63a4.18,4.18,0,0,0,.42,2.27,1.47,1.47,0,0,0,1.2.59,2.12,2.12,0,0,0,1.39-.59.27.27,0,0,1,.13,0,.35.35,0,0,1,.23.12.39.39,0,0,1,.14.23.32.32,0,0,1-.1.19A3.65,3.65,0,0,1,28.4,59a3.21,3.21,0,0,1-2.31-.76,3.52,3.52,0,0,1-.75-2.46c0-.61,0-1.65.06-3.1Z" transform="translate(-8.29 -2.6)"/><path class="cls-8" d="M27.7,70.24a3.73,3.73,0,0,1,3.32-2,3.67,3.67,0,0,1,2.09.59,2.82,2.82,0,0,1,1.21,2.54l0,2.49V75.3a9.06,9.06,0,0,0,.15,2.31.54.54,0,0,0,.45.32,5.07,5.07,0,0,0,.76.1c.12,0,.17.11.17.26s-.06.25-.19.25l-1.34-.05-1.11,0-1.31,0-1.15.05c-.14,0-.21-.09-.21-.25s.06-.24.19-.26a3.9,3.9,0,0,0,.79-.12.53.53,0,0,0,.35-.3A3.3,3.3,0,0,0,32,76.3V71.81a4.26,4.26,0,0,0-.2-1.37,1.69,1.69,0,0,0-1.67-1.13,2.17,2.17,0,0,0-1.95,1.26,3.54,3.54,0,0,0-.47,1.76v3a10.76,10.76,0,0,0,.13,2.31.58.58,0,0,0,.42.31,4.69,4.69,0,0,0,.8.11.21.21,0,0,1,.21.24q0,.27-.21.27l-1.28-.05-1.06,0-1.37,0-1.25.05c-.11,0-.17-.09-.17-.27s.06-.22.17-.24a4.09,4.09,0,0,0,.82-.12.51.51,0,0,0,.35-.3,8,8,0,0,0,.18-2.31V65.36a12.16,12.16,0,0,0-.09-1.79.58.58,0,0,0-.65-.52h-.08l-.61,0h-.1c-.09,0-.15-.09-.16-.27a.68.68,0,0,1,0-.12c0-.09.07-.16.22-.19a27.87,27.87,0,0,0,3.64-1c.14,0,.21.06.21.17-.07,1.81-.11,3.6-.11,5.38Z" transform="translate(-8.29 -2.6)"/><path class="cls-8" d="M38.92,75.9a1.5,1.5,0,0,1,1.48,1.49,1.4,1.4,0,0,1-.49,1.09,1.47,1.47,0,0,1-2.09-.1,1.48,1.48,0,0,1,.11-2.09A1.44,1.44,0,0,1,38.92,75.9Z" transform="translate(-8.29 -2.6)"/></svg>