<svg id="medical" xmlns="http://www.w3.org/2000/svg" viewBox="0 0 123.97 79.18"><defs><style>.cls-1{font-size:24px;stroke:#000;font-family:YuMincho-Demibold, Yu Mincho;font-weight:300;}.cls-1,.cls-2{fill:#f4b2ce;}.cls-1,.cls-3,.cls-4{stroke-miterlimit:10;}.cls-3,.cls-4{fill:none;}.cls-3{stroke:#fff;stroke-width:4px;}.cls-4{stroke:#f4b2ce;stroke-width:3px;}</style></defs><title>medical</title><text class="cls-1" transform="translate(66.72 68.81)">Med.</text><path class="cls-2" d="M97.35,53.83c.55,0,1.43,0,2.63,0,1,0,2,0,2.86-.07.14,0,.21.1.21.31s-.07.32-.21.33a7.38,7.38,0,0,0-1.2.17.9.9,0,0,0-.51.43,5.36,5.36,0,0,0-.37,2.41v.72l.15,8.71c0,1.2.06,2,.11,2.39a3,3,0,0,0,.25.79,1,1,0,0,0,.68.49,10.94,10.94,0,0,0,1.12.15q.21,0,.21.3c0,.2-.07.29-.23.29-1.12,0-2.31-.07-3.59-.07s-2.34,0-3.38.07c-.13,0-.19-.1-.19-.31s.06-.27.19-.28a8.38,8.38,0,0,0,1.15-.17.88.88,0,0,0,.53-.47,5.07,5.07,0,0,0,.3-2.21v-1L98,56.35h-.21l-3.5,8.59c-.37.92-.85,2.1-1.46,3.54l-1,2.53a.44.44,0,0,1-.46.27A.46.46,0,0,1,90.8,71q-.66-1.77-2.3-5.59l-3.81-9.07h-.3l0,10.52a6.83,6.83,0,0,0,.45,3.07,2.61,2.61,0,0,0,1.77.75c.17,0,.25.1.25.28s-.09.31-.27.31c-.92,0-1.84-.07-2.75-.07s-1.86,0-2.79.07c-.16,0-.24-.09-.24-.29a.26.26,0,0,1,.24-.3,2.44,2.44,0,0,0,1.61-.75,6.9,6.9,0,0,0,.58-3.07l.23-8.71c0-.49,0-.87,0-1.15a4,4,0,0,0-.34-2,1.22,1.22,0,0,0-.84-.46l-1.09-.14q-.21,0-.21-.33c0-.21.07-.31.19-.31,1,0,1.87.07,2.77.07,1.23,0,2.18,0,2.83,0a27,27,0,0,0,1,2.77l3.36,8c.39.93.78,1.91,1.17,2.91,0-.07.4-1,1.1-2.87L96.32,57C96.7,56,97,54.93,97.35,53.83Z" transform="translate(-13.26 -3)"/><path class="cls-2" d="M107.94,64.92a3.84,3.84,0,0,0-.11.87,5.19,5.19,0,0,0,1.3,3.72,2.89,2.89,0,0,0,2.13,1,4,4,0,0,0,2-.46,4.7,4.7,0,0,0,1.31-1.27.29.29,0,0,1,.24-.12.44.44,0,0,1,.22.1c.13.1.19.18.19.24a.72.72,0,0,1-.12.26,5,5,0,0,1-2,1.9,5.46,5.46,0,0,1-2.4.48,5.25,5.25,0,0,1-4.21-1.85,6.39,6.39,0,0,1,.43-8.31,5.24,5.24,0,0,1,3.8-1.54,4.38,4.38,0,0,1,3.65,1.79,4.67,4.67,0,0,1,1,2.68.71.71,0,0,1-.12.41.46.46,0,0,1-.36.12c-1.6,0-3.14-.07-4.62-.07C109.46,64.9,108.67,64.9,107.94,64.92Zm.11-.87,1.77,0c.86,0,1.77,0,2.72-.11.14,0,.21-.14.21-.37a4.12,4.12,0,0,0-.59-2.08,1.66,1.66,0,0,0-1.45-.83,2.13,2.13,0,0,0-1.77,1.07A5.9,5.9,0,0,0,108.05,64.05Z" transform="translate(-13.26 -3)"/><path class="cls-2" d="M125.34,61.18V56.93a11,11,0,0,0-.11-2.06c-.07-.33-.33-.49-.76-.49h-.09l-.58,0h-.16c-.12,0-.18-.09-.2-.27v-.09c0-.14.1-.23.29-.27a28.42,28.42,0,0,0,3.94-1.07c.19,0,.28.12.28.24-.09,1.65-.14,3.59-.14,5.83v9a9.78,9.78,0,0,0,.17,2.5c.1.23.35.35.75.39l.55,0c.14,0,.21.08.21.26s-.07.29-.21.31a31.41,31.41,0,0,0-3.75.41c-.16,0-.24-.09-.24-.29,0-.77,0-1.31,0-1.63a3.52,3.52,0,0,1-3.14,1.92,4.79,4.79,0,0,1-4-1.81A6.29,6.29,0,0,1,117,65.93a6.08,6.08,0,0,1,1.67-4.5A5.18,5.18,0,0,1,122.5,60,3.81,3.81,0,0,1,125.34,61.18Zm-2.52-.43a2.5,2.5,0,0,0-2.29,1.59,7.72,7.72,0,0,0-.69,3.49,6.11,6.11,0,0,0,.93,3.65,2.38,2.38,0,0,0,2,1.06,2.6,2.6,0,0,0,2.06-1.27,2.32,2.32,0,0,0,.42-1,5.84,5.84,0,0,0,.06-1V64.23a5.77,5.77,0,0,0-.07-1.11,3.43,3.43,0,0,0-.39-1A2.29,2.29,0,0,0,122.82,60.75Z" transform="translate(-13.26 -3)"/><path class="cls-2" d="M132.71,68.41A1.62,1.62,0,0,1,134.33,70a1.65,1.65,0,0,1-1.62,1.62,1.54,1.54,0,0,1-1.2-.54,1.56,1.56,0,0,1-.42-1.08,1.54,1.54,0,0,1,.54-1.2A1.56,1.56,0,0,1,132.71,68.41Z" transform="translate(-13.26 -3)"/><path class="cls-3" d="M46.89,5.19C43.43,26.78,49.48,44,60,48c2.14.8,4.48,1.68,9.61.19" transform="translate(-13.26 -3)"/><path class="cls-3" d="M83.21,5.19C86.66,26.78,80.62,44,70.11,48c-2.14.8-4.16,1.87-9.3.38" transform="translate(-13.26 -3)"/><line class="cls-3" x1="64.74" y1="2" x2="71.74" y2="2"/><line class="cls-3" x1="31.74" y1="2" x2="40.74" y2="2"/><circle class="cls-3" cx="11.87" cy="22.34" r="4.93"/><circle class="cls-3" cx="11.87" cy="22.34" r="9.87"/><path class="cls-3" d="M25.38,29.88c-5.13,20.66,2.25,38.64,14.26,43.44a21.55,21.55,0,0,0,17.82-.85c8.83-4.76,13.11-12.06,10.86-24.6" transform="translate(-13.26 -3)"/><path class="cls-4" d="M46.89,5.19C43.43,26.78,49.48,44,60,48c2.14.8,4.48,1.68,9.61.19" transform="translate(-13.26 -3)"/><path class="cls-4" d="M83.21,5.19C86.66,26.78,80.62,44,70.11,48c-2.14.8-4.16,1.87-9.3.38" transform="translate(-13.26 -3)"/><line class="cls-4" x1="64.74" y1="2" x2="71.74" y2="2"/><line class="cls-4" x1="31.74" y1="2" x2="40.74" y2="2"/><circle class="cls-4" cx="11.87" cy="22.34" r="4.93"/><circle class="cls-4" cx="11.87" cy="22.34" r="9.87"/><path class="cls-4" d="M25.38,29.88c-5.13,20.66,2.25,38.64,14.26,43.44a21.55,21.55,0,0,0,17.82-.85c8.83-4.76,13.11-12.06,10.86-24.6" transform="translate(-13.26 -3)"/></svg>