<svg id="phylosophy" xmlns="http://www.w3.org/2000/svg" viewBox="0 0 135.77 66.54"><defs><style>.cls-1{fill:#fff;}.cls-2{fill:none;stroke:#a3d2a1;stroke-width:2px;}.cls-2,.cls-3{stroke-miterlimit:10;}.cls-3,.cls-4{fill:#a3d2a1;}.cls-3{stroke:#000;}</style></defs><title>philosophy</title><circle class="cls-1" cx="102.83" cy="18.55" r="9.35"/><path class="cls-1" d="M107,41a10.85,10.85,0,1,1,10.84-10.84A10.86,10.86,0,0,1,107,41Zm0-18.69a7.85,7.85,0,1,0,7.84,7.85A7.86,7.86,0,0,0,107,22.28Z" transform="translate(-4.2 -11.58)"/><path class="cls-1" d="M100.92,37.18c-8.44,3.23-6.37,12.08-5.85,13.25s2.67,4.17,6.33,1c3.11-2.73,4.66-5.7,5.64-11.92" transform="translate(-4.2 -11.58)"/><path class="cls-1" d="M98.32,54.29a4.44,4.44,0,0,1-.94-.1A5.69,5.69,0,0,1,93.7,51a13.57,13.57,0,0,1,.17-9.21,10.89,10.89,0,0,1,6.51-6l1.07,2.8A8,8,0,0,0,96.65,43a10.67,10.67,0,0,0-.21,6.85A2.67,2.67,0,0,0,98,51.26a3.05,3.05,0,0,0,2.39-1c2.57-2.25,4.15-4.68,5.14-11l3,.46c-1,6.37-2.6,9.72-6.13,12.82A6.14,6.14,0,0,1,98.32,54.29Z" transform="translate(-4.2 -11.58)"/><path class="cls-1" d="M103.35,38.72c-1.43,1.46-5.2,9.31-5.2,9.31" transform="translate(-4.2 -11.58)"/><path class="cls-1" d="M99.5,48.67l-2.71-1.29c.65-1.35,4-8.15,5.48-9.71l2.15,2.09C103.55,40.65,101,45.51,99.5,48.67Z" transform="translate(-4.2 -11.58)"/><path class="cls-1" d="M113.24,37.18c4.31,1.34,5.28,6.29,5.48,7.5.25,1.49.5,5.6-3.72,7.3-3.53,1.42-10.77.14-12.81-2.83" transform="translate(-4.2 -11.58)"/><path class="cls-1" d="M111.34,54.07c-4,0-8.58-1.45-10.38-4.07l2.47-1.7c1.52,2.21,7.9,3.54,11,2.29s3.07-4.08,2.8-5.67-1.21-5.31-4.44-6.31l.89-2.86c4.82,1.49,6.16,6.57,6.51,8.68.26,1.56.69,6.8-4.64,9A11.78,11.78,0,0,1,111.34,54.07Z" transform="translate(-4.2 -11.58)"/><path class="cls-1" d="M104.61,47.22c3.08-2,8-.12,7.83-.59l.4-3.26" transform="translate(-4.2 -11.58)"/><path class="cls-1" d="M105.44,48.47,103.79,46c2.4-1.59,5.5-1.25,7.34-1l.22-1.82,3,.36L114,46.48l.16.49-.56.69c-.61.71-1.39.58-2.37.41C109.78,47.82,107.13,47.36,105.44,48.47Z" transform="translate(-4.2 -11.58)"/><path class="cls-1" d="M115.87,51.56c1.79,4.93,1.55,22.83-1,24.59s-3.64-1.76-3.81-3.93-1.13-5.41-3.43-5.41-3.25,3.25-3.43,5.41-1.31,5.69-3.81,3.93S96.57,57.39,98.6,52.57" transform="translate(-4.2 -11.58)"/><path class="cls-1" d="M113.65,78.13a3.05,3.05,0,0,1-1.26-.28c-2.31-1.08-2.72-4.77-2.78-5.5-.16-1.95-.94-4-1.93-4s-1.78,2.09-1.93,4c-.06.72-.48,4.42-2.79,5.5a3.29,3.29,0,0,1-3.39-.47C96,74.84,95.25,56.66,97.22,52L100,53.16C98,57.85,99.7,73.4,101.33,75a.92.92,0,0,0,.38.18,4.86,4.86,0,0,0,1.05-3c.25-3.13,1.69-6.79,4.92-6.79s4.66,3.66,4.92,6.79a4.64,4.64,0,0,0,1.07,3,1.07,1.07,0,0,0,.39-.21c1.57-1.68,2.19-17.93.4-22.85l2.82-1c1.75,4.81,2.07,23.82-1.5,26.33A3.64,3.64,0,0,1,113.65,78.13Z" transform="translate(-4.2 -11.58)"/><circle class="cls-1" cx="119.1" cy="19.38" r="3.07"/><path class="cls-1" d="M123.3,35.53A4.57,4.57,0,1,1,127.87,31,4.58,4.58,0,0,1,123.3,35.53Zm0-6.14A1.57,1.57,0,1,0,124.87,31,1.57,1.57,0,0,0,123.3,29.39Z" transform="translate(-4.2 -11.58)"/><circle class="cls-1" cx="127.49" cy="8.27" r="6.77"/><path class="cls-1" d="M131.7,28.13A8.28,8.28,0,1,1,140,19.85,8.29,8.29,0,0,1,131.7,28.13Zm0-13.55A5.28,5.28,0,1,0,137,19.85,5.29,5.29,0,0,0,131.7,14.58Z" transform="translate(-4.2 -11.58)"/><circle class="cls-2" cx="102.83" cy="18.55" r="9.35"/><path class="cls-2" d="M100.92,37.18c-8.44,3.23-6.37,12.08-5.85,13.25s2.67,4.17,6.33,1c3.11-2.73,4.66-5.7,5.64-11.92" transform="translate(-4.2 -11.58)"/><path class="cls-2" d="M103.35,38.72c-1.43,1.46-5.2,9.31-5.2,9.31" transform="translate(-4.2 -11.58)"/><path class="cls-2" d="M113.24,37.18c4.31,1.34,5.28,6.29,5.48,7.5.25,1.49.5,5.6-3.72,7.3-3.53,1.42-10.77.14-12.81-2.83" transform="translate(-4.2 -11.58)"/><path class="cls-2" d="M104.61,47.22c3.08-2,8-.12,7.83-.59l.4-3.26" transform="translate(-4.2 -11.58)"/><path class="cls-2" d="M115.87,51.56c1.79,4.93,1.55,22.83-1,24.59s-3.64-1.76-3.81-3.93-1.13-5.41-3.43-5.41-3.25,3.25-3.43,5.41-1.31,5.69-3.81,3.93S96.57,57.39,98.6,52.57" transform="translate(-4.2 -11.58)"/><circle class="cls-2" cx="119.1" cy="19.38" r="3.07"/><circle class="cls-2" cx="127.49" cy="8.27" r="6.77"/><path class="cls-3" d="M29,55.9a3,3,0,0,1,1.46-2.64,2.35,2.35,0,0,1,3.41.85c.46.82.7,1.31.91,1.69l.57,1a5.39,5.39,0,0,0,1,1.5c.22.18.5,0,1-.18.1,0,.15,0,.22.11s.06.18,0,.24c-.57.3-1.18.6-1.67.88s-1.09.65-1.63,1c-.12.06-.16.07-.24-.08s-.07-.18,0-.25c.4-.29.64-.42.61-.72a4.85,4.85,0,0,0-.77-1.61l-1.13-2a3.92,3.92,0,0,0-.85-1.18,1.31,1.31,0,0,0-1.55-.12,1.83,1.83,0,0,0-.84,1.58,2.4,2.4,0,0,0,.36,1.36l1.12,2a5.84,5.84,0,0,0,1,1.51c.2.16.46,0,1-.18.13-.05.17-.05.24.08s.07.2,0,.26c-.55.3-1.1.57-1.59.84s-1.17.7-1.74,1c-.09,0-.14,0-.22-.11s-.05-.17,0-.23c.43-.3.65-.43.62-.73a5.42,5.42,0,0,0-.75-1.62l-3.77-6.69a8.2,8.2,0,0,0-.74-1.17.46.46,0,0,0-.69-.08l-.4.26c-.14.1-.16.1-.27-.07s-.1-.18,0-.29a26.08,26.08,0,0,0,2.07-2,.21.21,0,0,1,.22,0c.57,1.12,1.15,2.22,2,3.66Z" transform="translate(-4.2 -11.58)"/><path class="cls-3" d="M35.26,46.49A1.2,1.2,0,0,1,34.85,48a1.24,1.24,0,0,1-1.59-.43A1.22,1.22,0,0,1,33.73,46,1.21,1.21,0,0,1,35.26,46.49Zm1.6,6.64a7.31,7.31,0,0,0-.78-1.21c-.21-.2-.41-.2-.71,0l-.37.25c-.14.09-.17.11-.29-.06s-.11-.19,0-.31c.5-.46,1.45-1.4,2-2a.18.18,0,0,1,.26,0c.56,1.11,1,2,1.41,2.66l1.1,1.94a6.35,6.35,0,0,0,1,1.53c.25.15.5,0,1-.23.1,0,.14,0,.21.14s.09.18,0,.23c-.54.29-1.17.6-1.67.88s-1.16.69-1.65,1c-.12.07-.17,0-.25-.09s-.08-.21,0-.27c.41-.27.64-.42.64-.7a4.67,4.67,0,0,0-.77-1.65Z" transform="translate(-4.2 -11.58)"/><path class="cls-3" d="M38.38,46.27a6.39,6.39,0,0,0-.79-1.15.47.47,0,0,0-.68-.07l-.38.25c-.12.09-.16.09-.27-.06s-.09-.2,0-.3c.54-.46,1.49-1.39,2.08-2,.1-.06.19-.07.24,0,.59,1.13,1.16,2.24,2,3.69l3.09,5.48c.51.9.75,1.37,1,1.52s.49.06,1-.17c.1,0,.13,0,.21.12s.06.18,0,.23c-.56.28-1.15.59-1.64.87s-1.13.65-1.66,1c-.14.08-.18.06-.26-.07s-.06-.18,0-.26c.43-.3.6-.42.59-.72a5.16,5.16,0,0,0-.78-1.65Z" transform="translate(-4.2 -11.58)"/><path class="cls-3" d="M51.73,46A4,4,0,1,1,44.83,50,4,4,0,1,1,51.73,46ZM46.54,49c1.05,1.85,2.33,2.85,3.5,2.19S51,48.76,50,47s-2.34-2.86-3.52-2.2S45.54,47.17,46.54,49Z" transform="translate(-4.2 -11.58)"/><path class="cls-3" d="M55,44.58c-1.37.1-2.2.11-2.92-1.17-.47-.83-.31-2.17,1.34-3.09a5.88,5.88,0,0,1,1.15-.45,3.58,3.58,0,0,0,1-.54c.33.5.77,1.19,1.11,1.64,0,.09,0,.14-.09.23a.19.19,0,0,1-.28,0,2.61,2.61,0,0,0-2.58-.52,1.14,1.14,0,0,0-.56,1.7c.23.42.73.54,1.7.43l.64-.07c1.61-.17,2.6-.14,3.34,1.18.58,1,.44,2.58-1.39,3.62a6.24,6.24,0,0,1-2.34.77,14.24,14.24,0,0,1-1.24-1.44c0-.1,0-.12.08-.21s.15-.11.25,0a3.06,3.06,0,0,0,3,.48,1.37,1.37,0,0,0,.55-2.05c-.36-.63-1-.62-2.1-.55Z" transform="translate(-4.2 -11.58)"/><path class="cls-3" d="M66.11,37.93a4,4,0,1,1-6.9,3.93,4,4,0,1,1,6.9-3.93Zm-5.18,2.92c1,1.85,2.32,2.85,3.49,2.19s.94-2.38,0-4.13S62,36.05,60.86,36.72,59.93,39.07,60.93,40.85Z" transform="translate(-4.2 -11.58)"/><path class="cls-3" d="M72,40.32a6.86,6.86,0,0,0,1.25,1.87c.2.15.57,0,1-.21.12,0,.15,0,.22.09s.09.2,0,.27c-.58.3-1.26.67-1.77.95s-1.21.7-1.76,1c-.09.06-.13.06-.22-.11s-.06-.18,0-.24c.4-.29.68-.48.66-.74a7.4,7.4,0,0,0-1-2l-3-5.38a5.19,5.19,0,0,0-.79-1.15.46.46,0,0,0-.65,0l-.41.27c-.1.08-.15.09-.26-.07s-.09-.2,0-.29a26.43,26.43,0,0,0,2.07-2.05.19.19,0,0,1,.24.05c.22.43.38.75.55,1a2.79,2.79,0,0,1,1.25-2.29c2.06-1.15,4.09-.33,5.26,1.76s.77,4.37-1.4,5.59a2.64,2.64,0,0,1-2.13.23ZM70.11,37a2.63,2.63,0,0,0,1,1.15,1.71,1.71,0,0,0,1.82.11c1.13-.64,1.07-2.33,0-4.19s-2.37-2.45-3.44-1.85a1.88,1.88,0,0,0-.89,1.5A1.94,1.94,0,0,0,69,35Z" transform="translate(-4.2 -11.58)"/><path class="cls-3" d="M76.92,28.92a3,3,0,0,1,1.46-2.64,2.36,2.36,0,0,1,3.41.86c.45.81.69,1.3.91,1.69l.56,1a5.46,5.46,0,0,0,1,1.5c.23.19.51,0,1-.18.09,0,.14,0,.22.11s.06.18,0,.24c-.57.3-1.18.61-1.66.88s-1.1.66-1.64,1c-.12.07-.15.07-.24-.08s-.06-.18,0-.25c.41-.29.65-.42.62-.71a5.06,5.06,0,0,0-.78-1.62l-1.13-2a3.92,3.92,0,0,0-.84-1.19,1.35,1.35,0,0,0-1.55-.12A1.82,1.82,0,0,0,77.35,29a2.5,2.5,0,0,0,.36,1.36l1.13,2a6,6,0,0,0,1,1.5c.21.16.46.06,1-.17.13-.06.17-.06.24.08s.07.19,0,.26c-.56.29-1.11.56-1.6.84s-1.17.69-1.74,1c-.09.05-.13,0-.21-.11s-.06-.16,0-.23c.44-.3.66-.43.63-.72a5.32,5.32,0,0,0-.76-1.62l-3.77-6.7a9.93,9.93,0,0,0-.73-1.16.46.46,0,0,0-.69-.08l-.4.26c-.14.1-.16.09-.28-.08s-.1-.18,0-.29a26.14,26.14,0,0,0,2.08-2c.06,0,.19,0,.21,0,.58,1.12,1.16,2.22,2,3.65Z" transform="translate(-4.2 -11.58)"/><path class="cls-3" d="M89.46,26.8c.15,1.1.29,2,.35,2.88.18,2.3,0,4-1.36,4.79-.5.28-.72.21-.86,0a1.25,1.25,0,0,1,.31-1.59c.34-.2.58-.08.85-.23a.85.85,0,0,0,.41-.62,8.42,8.42,0,0,0,.06-2.38c-.67-.5-1.18-.88-2-1.51l-2.71-2.18A7.7,7.7,0,0,0,83,24.86c-.28-.12-.5-.09-1,.13-.07,0-.13.05-.23-.12s-.07-.2,0-.25c.58-.29,1.26-.65,1.75-.92s1.2-.7,1.75-1.05c.09,0,.15,0,.23.11s.07.21,0,.25c-.38.26-.66.49-.65.72s.44.65,1.24,1.27l1.89,1.55a11.35,11.35,0,0,1,.9.8c0-.33-.09-.61-.18-1.26l-.38-2.36c-.15-.93-.38-1.37-.66-1.52s-.5-.09-.9.1c-.11,0-.16,0-.24-.12s-.07-.2,0-.26c.4-.21,1-.5,1.38-.73s.84-.49,1.24-.75c.1-.06.14-.06.23.1s.07.2,0,.27a1.16,1.16,0,0,0-.49.66,4.14,4.14,0,0,0,0,1.92Z" transform="translate(-4.2 -11.58)"/><path class="cls-4" d="M29,55.9a3,3,0,0,1,1.46-2.64,2.35,2.35,0,0,1,3.41.85c.46.82.7,1.31.91,1.69l.57,1a5.39,5.39,0,0,0,1,1.5c.22.18.5,0,1-.18.1,0,.15,0,.22.11s.06.18,0,.24c-.57.3-1.18.6-1.67.88s-1.09.65-1.63,1c-.12.06-.16.07-.24-.08s-.07-.18,0-.25c.4-.29.64-.42.61-.72a4.85,4.85,0,0,0-.77-1.61l-1.13-2a3.92,3.92,0,0,0-.85-1.18,1.31,1.31,0,0,0-1.55-.12,1.83,1.83,0,0,0-.84,1.58,2.4,2.4,0,0,0,.36,1.36l1.12,2a5.84,5.84,0,0,0,1,1.51c.2.16.46,0,1-.18.13-.05.17-.05.24.08s.07.2,0,.26c-.55.3-1.1.57-1.59.84s-1.17.7-1.74,1c-.09,0-.14,0-.22-.11s-.05-.17,0-.23c.43-.3.65-.43.62-.73a5.42,5.42,0,0,0-.75-1.62l-3.77-6.69a8.2,8.2,0,0,0-.74-1.17.46.46,0,0,0-.69-.08l-.4.26c-.14.1-.16.1-.27-.07s-.1-.18,0-.29a26.08,26.08,0,0,0,2.07-2,.21.21,0,0,1,.22,0c.57,1.12,1.15,2.22,2,3.66Z" transform="translate(-4.2 -11.58)"/><path class="cls-4" d="M35.26,46.49A1.2,1.2,0,0,1,34.85,48a1.24,1.24,0,0,1-1.59-.43A1.22,1.22,0,0,1,33.73,46,1.21,1.21,0,0,1,35.26,46.49Zm1.6,6.64a7.31,7.31,0,0,0-.78-1.21c-.21-.2-.41-.2-.71,0l-.37.25c-.14.09-.17.11-.29-.06s-.11-.19,0-.31c.5-.46,1.45-1.4,2-2a.18.18,0,0,1,.26,0c.56,1.11,1,2,1.41,2.66l1.1,1.94a6.35,6.35,0,0,0,1,1.53c.25.15.5,0,1-.23.1,0,.14,0,.21.14s.09.18,0,.23c-.54.29-1.17.6-1.67.88s-1.16.69-1.65,1c-.12.07-.17,0-.25-.09s-.08-.21,0-.27c.41-.27.64-.42.64-.7a4.67,4.67,0,0,0-.77-1.65Z" transform="translate(-4.2 -11.58)"/><path class="cls-4" d="M38.38,46.27a6.39,6.39,0,0,0-.79-1.15.47.47,0,0,0-.68-.07l-.38.25c-.12.09-.16.09-.27-.06s-.09-.2,0-.3c.54-.46,1.49-1.39,2.08-2,.1-.06.19-.07.24,0,.59,1.13,1.16,2.24,2,3.69l3.09,5.48c.51.9.75,1.37,1,1.52s.49.06,1-.17c.1,0,.13,0,.21.12s.06.18,0,.23c-.56.28-1.15.59-1.64.87s-1.13.65-1.66,1c-.14.08-.18.06-.26-.07s-.06-.18,0-.26c.43-.3.6-.42.59-.72a5.16,5.16,0,0,0-.78-1.65Z" transform="translate(-4.2 -11.58)"/><path class="cls-4" d="M51.73,46A4,4,0,1,1,44.83,50,4,4,0,1,1,51.73,46ZM46.54,49c1.05,1.85,2.33,2.85,3.5,2.19S51,48.76,50,47s-2.34-2.86-3.52-2.2S45.54,47.17,46.54,49Z" transform="translate(-4.2 -11.58)"/><path class="cls-4" d="M55,44.58c-1.37.1-2.2.11-2.92-1.17-.47-.83-.31-2.17,1.34-3.09a5.88,5.88,0,0,1,1.15-.45,3.58,3.58,0,0,0,1-.54c.33.5.77,1.19,1.11,1.64,0,.09,0,.14-.09.23a.19.19,0,0,1-.28,0,2.61,2.61,0,0,0-2.58-.52,1.14,1.14,0,0,0-.56,1.7c.23.42.73.54,1.7.43l.64-.07c1.61-.17,2.6-.14,3.34,1.18.58,1,.44,2.58-1.39,3.62a6.24,6.24,0,0,1-2.34.77,14.24,14.24,0,0,1-1.24-1.44c0-.1,0-.12.08-.21s.15-.11.25,0a3.06,3.06,0,0,0,3,.48,1.37,1.37,0,0,0,.55-2.05c-.36-.63-1-.62-2.1-.55Z" transform="translate(-4.2 -11.58)"/><path class="cls-4" d="M66.11,37.93a4,4,0,1,1-6.9,3.93,4,4,0,1,1,6.9-3.93Zm-5.18,2.92c1,1.85,2.32,2.85,3.49,2.19s.94-2.38,0-4.13S62,36.05,60.86,36.72,59.93,39.07,60.93,40.85Z" transform="translate(-4.2 -11.58)"/><path class="cls-4" d="M72,40.32a6.86,6.86,0,0,0,1.25,1.87c.2.15.57,0,1-.21.12,0,.15,0,.22.09s.09.2,0,.27c-.58.3-1.26.67-1.77.95s-1.21.7-1.76,1c-.09.06-.13.06-.22-.11s-.06-.18,0-.24c.4-.29.68-.48.66-.74a7.4,7.4,0,0,0-1-2l-3-5.38a5.19,5.19,0,0,0-.79-1.15.46.46,0,0,0-.65,0l-.41.27c-.1.08-.15.09-.26-.07s-.09-.2,0-.29a26.43,26.43,0,0,0,2.07-2.05.19.19,0,0,1,.24.05c.22.43.38.75.55,1a2.79,2.79,0,0,1,1.25-2.29c2.06-1.15,4.09-.33,5.26,1.76s.77,4.37-1.4,5.59a2.64,2.64,0,0,1-2.13.23ZM70.11,37a2.63,2.63,0,0,0,1,1.15,1.71,1.71,0,0,0,1.82.11c1.13-.64,1.07-2.33,0-4.19s-2.37-2.45-3.44-1.85a1.88,1.88,0,0,0-.89,1.5A1.94,1.94,0,0,0,69,35Z" transform="translate(-4.2 -11.58)"/><path class="cls-4" d="M76.92,28.92a3,3,0,0,1,1.46-2.64,2.36,2.36,0,0,1,3.41.86c.45.81.69,1.3.91,1.69l.56,1a5.46,5.46,0,0,0,1,1.5c.23.19.51,0,1-.18.09,0,.14,0,.22.11s.06.18,0,.24c-.57.3-1.18.61-1.66.88s-1.1.66-1.64,1c-.12.07-.15.07-.24-.08s-.06-.18,0-.25c.41-.29.65-.42.62-.71a5.06,5.06,0,0,0-.78-1.62l-1.13-2a3.92,3.92,0,0,0-.84-1.19,1.35,1.35,0,0,0-1.55-.12A1.82,1.82,0,0,0,77.35,29a2.5,2.5,0,0,0,.36,1.36l1.13,2a6,6,0,0,0,1,1.5c.21.16.46.06,1-.17.13-.06.17-.06.24.08s.07.19,0,.26c-.56.29-1.11.56-1.6.84s-1.17.69-1.74,1c-.09.05-.13,0-.21-.11s-.06-.16,0-.23c.44-.3.66-.43.63-.72a5.32,5.32,0,0,0-.76-1.62l-3.77-6.7a9.93,9.93,0,0,0-.73-1.16.46.46,0,0,0-.69-.08l-.4.26c-.14.1-.16.09-.28-.08s-.1-.18,0-.29a26.14,26.14,0,0,0,2.08-2c.06,0,.19,0,.21,0,.58,1.12,1.16,2.22,2,3.65Z" transform="translate(-4.2 -11.58)"/><path class="cls-4" d="M89.46,26.8c.15,1.1.29,2,.35,2.88.18,2.3,0,4-1.36,4.79-.5.28-.72.21-.86,0a1.25,1.25,0,0,1,.31-1.59c.34-.2.58-.08.85-.23a.85.85,0,0,0,.41-.62,8.42,8.42,0,0,0,.06-2.38c-.67-.5-1.18-.88-2-1.51l-2.71-2.18A7.7,7.7,0,0,0,83,24.86c-.28-.12-.5-.09-1,.13-.07,0-.13.05-.23-.12s-.07-.2,0-.25c.58-.29,1.26-.65,1.75-.92s1.2-.7,1.75-1.05c.09,0,.15,0,.23.11s.07.21,0,.25c-.38.26-.66.49-.65.72s.44.65,1.24,1.27l1.89,1.55a11.35,11.35,0,0,1,.9.8c0-.33-.09-.61-.18-1.26l-.38-2.36c-.15-.93-.38-1.37-.66-1.52s-.5-.09-.9.1c-.11,0-.16,0-.24-.12s-.07-.2,0-.26c.4-.21,1-.5,1.38-.73s.84-.49,1.24-.75c.1-.06.14-.06.23.1s.07.2,0,.27a1.16,1.16,0,0,0-.49.66,4.14,4.14,0,0,0,0,1.92Z" transform="translate(-4.2 -11.58)"/><path class="cls-3" d="M20.33,53.48c0,7.2-.07,8.28.65,9.58.79,1.51,2.73,1.59,5.83,1.87.5.07.57.22.57.94s-.07.94-.64.94c-3.39-.15-7.2-.22-10.52-.22s-7.27.07-10.29.22c-.44,0-.58-.08-.58-.94s.22-.94.65-.94c2.73-.21,4.17-.28,5-1.87s.79-4.75.79-9.58V27.42c0-6.91,0-7.78-.72-9.36s-2.95-1.51-5.76-1.8c-.5-.07-.65-.15-.65-1s.15-.94.65-.94c3.24.15,7.34.22,10.73.22,2.74,0,7.2-.29,11.81-.29,15.12,0,20.23,5.69,20.23,13.9,0,7.92-4.75,15-22.46,15a44,44,0,0,1-5.33-.29Zm0-13.24a23.91,23.91,0,0,0,4.61.43c10.36,0,14-5.4,14-12.17,0-7.78-4.61-11.81-12.46-11.81-1.66,0-4.25.14-5.19,1.51s-.93,5.26-.93,9.22Z" transform="translate(-4.2 -11.58)"/><path class="cls-4" d="M20.33,53.48c0,7.2-.07,8.28.65,9.58.79,1.51,2.73,1.59,5.83,1.87.5.07.57.22.57.94s-.07.94-.64.94c-3.39-.15-7.2-.22-10.52-.22s-7.27.07-10.29.22c-.44,0-.58-.08-.58-.94s.22-.94.65-.94c2.73-.21,4.17-.28,5-1.87s.79-4.75.79-9.58V27.42c0-6.91,0-7.78-.72-9.36s-2.95-1.51-5.76-1.8c-.5-.07-.65-.15-.65-1s.15-.94.65-.94c3.24.15,7.34.22,10.73.22,2.74,0,7.2-.29,11.81-.29,15.12,0,20.23,5.69,20.23,13.9,0,7.92-4.75,15-22.46,15a44,44,0,0,1-5.33-.29Zm0-13.24a23.91,23.91,0,0,0,4.61.43c10.36,0,14-5.4,14-12.17,0-7.78-4.61-11.81-12.46-11.81-1.66,0-4.25.14-5.19,1.51s-.93,5.26-.93,9.22Z" transform="translate(-4.2 -11.58)"/></svg>