<svg xmlns="http://www.w3.org/2000/svg" viewBox="0 0 144 81">
  <defs>
    <style>
      .a {
        opacity: 0;
      }

      .b {
        fill: #fff;
      }

      .c, .e {
        fill: none;
      }

      .c, .f {
        stroke: #c0b8e0;
      }

      .c, .g {
        stroke-miterlimit: 10;
      }

      .c {
        stroke-width: 2px;
      }

      .d, .f, .g {
        fill: #c0b8e0;
      }

      .e {
        stroke: #fff;
        stroke-width: 3px;
      }

      .g {
        stroke: #000;
      }
    </style>
  </defs>
  <title>physics</title>
  <g class="a">
    <rect class="b" width="144" height="81"/>
  </g>
  <g>
    <g>
      <g>
        <ellipse class="c" cx="97.4" cy="40.22" rx="12.07" ry="35.64"/>
        <path class="c" d="M103.44,31c19.4,9.84,32.42,21.93,29.08,27s-21.76,1.21-41.15-8.63S59,27.47,62.28,22.4,84,21.19,103.44,31Z"/>
        <path class="c" d="M91.37,31c19.4-9.84,37.82-13.71,41.15-8.63s-9.69,17.17-29.08,27S65.62,63.11,62.28,58,72,40.87,91.37,31Z"/>
        <path class="d" d="M97.4,45.27a5.36,5.36,0,0,1-5.61-5.05,5.64,5.64,0,0,1,11.22,0A5.36,5.36,0,0,1,97.4,45.27Zm0-8.1a3.37,3.37,0,0,0-3.61,3.05,3.66,3.66,0,0,0,7.22,0A3.37,3.37,0,0,0,97.4,37.17Z"/>
      </g>
      <g>
        <ellipse class="e" cx="97.4" cy="40.22" rx="12.07" ry="35.64"/>
        <path class="e" d="M103.44,31c19.4,9.84,32.42,21.93,29.08,27s-21.76,1.21-41.15-8.63S59,27.47,62.28,22.4,84,21.19,103.44,31Z"/>
        <path class="e" d="M91.37,31c19.4-9.84,37.82-13.71,41.15-8.63s-9.69,17.17-29.08,27S65.62,63.11,62.28,58,72,40.87,91.37,31Z"/>
        <path class="e" d="M97.4,45.27a5.36,5.36,0,0,1-5.61-5.05,5.64,5.64,0,0,1,11.22,0A5.36,5.36,0,0,1,97.4,45.27Zm0-8.1a3.37,3.37,0,0,0-3.61,3.05,3.66,3.66,0,0,0,7.22,0A3.37,3.37,0,0,0,97.4,37.17Z"/>
      </g>
    </g>
    <g>
      <ellipse class="c" cx="97.4" cy="40.22" rx="12.07" ry="35.64"/>
      <path class="c" d="M103.44,31c19.4,9.84,32.42,21.93,29.08,27s-21.76,1.21-41.15-8.63S59,27.47,62.28,22.4,84,21.19,103.44,31Z"/>
      <path class="c" d="M91.37,31c19.4-9.84,37.82-13.71,41.15-8.63s-9.69,17.17-29.08,27S65.62,63.11,62.28,58,72,40.87,91.37,31Z"/>
      <path class="f" d="M97.4,45.27a5.36,5.36,0,0,1-5.61-5.05,5.64,5.64,0,0,1,11.22,0A5.36,5.36,0,0,1,97.4,45.27Zm0-8.1a3.37,3.37,0,0,0-3.61,3.05,3.66,3.66,0,0,0,7.22,0A3.37,3.37,0,0,0,97.4,37.17Z"/>
    </g>
    <g>
      <g>
        <path class="g" d="M17.79,54.87c-1,1.32-1.14,1.51-1.18,1.84s.31.67.87,1.16c.09.08.08.12,0,.25s-.14.16-.25.08l-2-1.52c-.63-.48-1.39-1-2-1.47-.08-.06-.1-.1,0-.25s.17-.13.25-.07c.51.37.83.57,1.21.4a5.88,5.88,0,0,0,1.49-1.61c1.46-1.88,2.18-2.82,3.6-4.73.94-1.26,1.08-1.43,1.15-1.8s-.28-.65-.7-1.07c-.07-.08-.08-.11,0-.27s.15-.15.23-.08c.5.45,1.17,1,1.73,1.41s1.24.84,2,1.4c2.57,1.82,2.85,3.45,1.87,5.05s-2.77,2.41-6,.1a8.86,8.86,0,0,1-.93-.76Zm1.79-2.44a4.85,4.85,0,0,0,.78.68c1.89,1.35,3.25.75,4.09-.55a2.5,2.5,0,0,0-.7-3.75c-.28-.2-.74-.49-1.08-.35a5.54,5.54,0,0,0-1.37,1.59Z"/>
        <path class="g" d="M28,57.75a2.84,2.84,0,0,1,2.85-.17A2.27,2.27,0,0,1,32,60.76c-.4.81-.67,1.26-.86,1.65l-.5,1A5.54,5.54,0,0,0,29.93,65c0,.27.27.43.72.7.09.06.1.1,0,.24s-.11.15-.22.09l-1.71-.9c-.57-.29-1.18-.57-1.75-.86-.12-.07-.15-.1-.07-.24s.12-.14.23-.1c.46.18.71.31.94.15A4.94,4.94,0,0,0,29,62.6l1-2a3.47,3.47,0,0,0,.51-1.31,1.28,1.28,0,0,0-.7-1.32,1.73,1.73,0,0,0-1.71.13,2.35,2.35,0,0,0-.95,1L26.13,61a5.73,5.73,0,0,0-.78,1.54c0,.25.2.42.67.73.11.08.13.11.06.24s-.13.15-.25.09c-.55-.32-1.08-.66-1.57-.95l-1.8-1c-.09-.05-.1-.1,0-.24s.12-.12.21-.08c.47.21.71.36.95.21a5,5,0,0,0,1-1.41c1.53-2.54,2.29-3.82,3.77-6.39A9.7,9.7,0,0,0,29,52.58a.43.43,0,0,0-.23-.6l-.38-.19c-.14-.06-.14-.09-.05-.27s.1-.17.24-.12a18.21,18.21,0,0,0,2.49.63.19.19,0,0,1,.07.19c-.61,1-1.22,2.08-2,3.47Z"/>
        <path class="g" d="M36.76,66.58c-.77.77-1.43,1.42-2.07,2-1.74,1.46-3.29,2.28-4.84,1.56-.56-.26-.63-.48-.51-.73a1.31,1.31,0,0,1,1.54-.6c.37.17.43.43.72.56a.91.91,0,0,0,.78,0,7.3,7.3,0,0,0,2-1.29c0-.81,0-1.43,0-2.4,0-1.35.06-2,.12-3.36a8.25,8.25,0,0,0,0-1.79c-.07-.28-.21-.44-.63-.68-.07,0-.11-.07,0-.25s.11-.16.2-.12c.54.29,1.19.61,1.67.83s1.22.52,1.79.73c.09,0,.12.09.06.24s-.13.17-.2.15c-.39-.15-.75-.22-.92-.07s-.24.72-.25,1.7,0,1.42-.07,2.36A11.43,11.43,0,0,1,36,66.52c.24-.22.43-.43.87-.89.64-.68,1-1,1.58-1.7s.79-1.12.74-1.42-.23-.43-.61-.62c-.1-.06-.12-.1-.06-.25s.1-.17.22-.12c.4.18,1,.43,1.37.59s.89.3,1.31.44c.1,0,.13.07.07.24s-.1.18-.21.15a1.27,1.27,0,0,0-.79.06,4.48,4.48,0,0,0-1.44,1.17C38.16,65.14,37.7,65.62,36.76,66.58Z"/>
        <path class="g" d="M42.74,67.3c-1-.92-1.54-1.53-1.07-2.87.31-.87,1.37-1.59,3.09-1a6.44,6.44,0,0,1,1.07.51,3.14,3.14,0,0,0,1,.32c-.13.56-.28,1.37-.39,1.87,0,.09-.08.11-.22.09S46.07,66.1,46,66a2.58,2.58,0,0,0-1.36-2.15,1.11,1.11,0,0,0-1.58.71c-.15.44.08.88.82,1.5l.49.41c1.21,1,1.9,1.74,1.48,3.14-.33,1.09-1.59,2-3.69,1.37A6.22,6.22,0,0,1,40,69.74a9.28,9.28,0,0,1,.26-1.81c0-.1.06-.12.21-.08s.18,0,.19.17a3,3,0,0,0,1.71,2.5,1.38,1.38,0,0,0,1.92-.93c.22-.67-.26-1.12-1.06-1.87Z"/>
        <path class="g" d="M48.95,67.67a6.42,6.42,0,0,0,.27-1.37c0-.26-.15-.41-.51-.47l-.43-.08c-.16,0-.2,0-.16-.23s.06-.21.24-.19a25.8,25.8,0,0,0,2.78-.08.18.18,0,0,1,.15.21c-.32,1.16-.56,2-.74,2.81s-.31,1.25-.52,2.09a5.26,5.26,0,0,0-.31,1.73c.06.26.37.34.92.5.1,0,.11.09.07.23s-.06.19-.17.17l-1.92-.5-2-.45c-.14,0-.16-.08-.12-.24s.1-.19.21-.16c.49.11.79.15,1,0a4.21,4.21,0,0,0,.6-1.66C48.59,69,48.71,68.58,48.95,67.67Zm3.26-5.75a1.15,1.15,0,0,1-1.27.84,1.17,1.17,0,0,1-.8-1.35,1.14,1.14,0,0,1,1.31-.8A1.17,1.17,0,0,1,52.21,61.93Z"/>
        <path class="g" d="M59.07,67.06a.91.91,0,0,1,.56.86c-.08.59-.34,1.05-.9,1s-.71-.75-.85-1.15-.34-.75-.77-.82C55.83,66.7,54.93,68,54.54,70s.64,3.4,1.81,3.58a2.56,2.56,0,0,0,2.44-.81c.11-.12.2-.08.32,0s.14.17.07.26a3.58,3.58,0,0,1-3.52,1.23,3.66,3.66,0,0,1-3.15-4.6,4.07,4.07,0,0,1,4.59-3.27A5.32,5.32,0,0,1,59.07,67.06Z"/>
        <path class="g" d="M62.58,71.44c-1.22-.68-1.9-1.16-1.73-2.56.12-.91,1-1.85,2.89-1.69a6.94,6.94,0,0,1,1.2.26,3.36,3.36,0,0,0,1.12.09c0,.58,0,1.4,0,1.91,0,.09-.05.12-.2.14s-.2,0-.25-.13c-.4-.93-1.05-1.73-1.86-1.8s-1.37.37-1.44,1c-.05.46.28.84,1.17,1.28l.58.29c1.46.74,2.32,1.27,2.21,2.73-.09,1.13-1.15,2.35-3.42,2.15a6.57,6.57,0,0,1-2.52-.72,9,9,0,0,1-.15-1.82c0-.11,0-.13.2-.13s.2,0,.23.13a3,3,0,0,0,2.29,2.07,1.42,1.42,0,0,0,1.72-1.33c.07-.7-.52-1-1.49-1.59Z"/>
      </g>
      <g>
        <path class="d" d="M17.79,54.87c-1,1.32-1.14,1.51-1.18,1.84s.31.67.87,1.16c.09.08.08.12,0,.25s-.14.16-.25.08l-2-1.52c-.63-.48-1.39-1-2-1.47-.08-.06-.1-.1,0-.25s.17-.13.25-.07c.51.37.83.57,1.21.4a5.88,5.88,0,0,0,1.49-1.61c1.46-1.88,2.18-2.82,3.6-4.73.94-1.26,1.08-1.43,1.15-1.8s-.28-.65-.7-1.07c-.07-.08-.08-.11,0-.27s.15-.15.23-.08c.5.45,1.17,1,1.73,1.41s1.24.84,2,1.4c2.57,1.82,2.85,3.45,1.87,5.05s-2.77,2.41-6,.1a8.86,8.86,0,0,1-.93-.76Zm1.79-2.44a4.85,4.85,0,0,0,.78.68c1.89,1.35,3.25.75,4.09-.55a2.5,2.5,0,0,0-.7-3.75c-.28-.2-.74-.49-1.08-.35a5.54,5.54,0,0,0-1.37,1.59Z"/>
        <path class="d" d="M28,57.75a2.84,2.84,0,0,1,2.85-.17A2.27,2.27,0,0,1,32,60.76c-.4.81-.67,1.26-.86,1.65l-.5,1A5.54,5.54,0,0,0,29.93,65c0,.27.27.43.72.7.09.06.1.1,0,.24s-.11.15-.22.09l-1.71-.9c-.57-.29-1.18-.57-1.75-.86-.12-.07-.15-.1-.07-.24s.12-.14.23-.1c.46.18.71.31.94.15A4.94,4.94,0,0,0,29,62.6l1-2a3.47,3.47,0,0,0,.51-1.31,1.28,1.28,0,0,0-.7-1.32,1.73,1.73,0,0,0-1.71.13,2.35,2.35,0,0,0-.95,1L26.13,61a5.73,5.73,0,0,0-.78,1.54c0,.25.2.42.67.73.11.08.13.11.06.24s-.13.15-.25.09c-.55-.32-1.08-.66-1.57-.95l-1.8-1c-.09-.05-.1-.1,0-.24s.12-.12.21-.08c.47.21.71.36.95.21a5,5,0,0,0,1-1.41c1.53-2.54,2.29-3.82,3.77-6.39A9.7,9.7,0,0,0,29,52.58a.43.43,0,0,0-.23-.6l-.38-.19c-.14-.06-.14-.09-.05-.27s.1-.17.24-.12a18.21,18.21,0,0,0,2.49.63.19.19,0,0,1,.07.19c-.61,1-1.22,2.08-2,3.47Z"/>
        <path class="d" d="M36.76,66.58c-.77.77-1.43,1.42-2.07,2-1.74,1.46-3.29,2.28-4.84,1.56-.56-.26-.63-.48-.51-.73a1.31,1.31,0,0,1,1.54-.6c.37.17.43.43.72.56a.91.91,0,0,0,.78,0,7.3,7.3,0,0,0,2-1.29c0-.81,0-1.43,0-2.4,0-1.35.06-2,.12-3.36a8.25,8.25,0,0,0,0-1.79c-.07-.28-.21-.44-.63-.68-.07,0-.11-.07,0-.25s.11-.16.2-.12c.54.29,1.19.61,1.67.83s1.22.52,1.79.73c.09,0,.12.09.06.24s-.13.17-.2.15c-.39-.15-.75-.22-.92-.07s-.24.72-.25,1.7,0,1.42-.07,2.36A11.43,11.43,0,0,1,36,66.52c.24-.22.43-.43.87-.89.64-.68,1-1,1.58-1.7s.79-1.12.74-1.42-.23-.43-.61-.62c-.1-.06-.12-.1-.06-.25s.1-.17.22-.12c.4.18,1,.43,1.37.59s.89.3,1.31.44c.1,0,.13.07.07.24s-.1.18-.21.15a1.27,1.27,0,0,0-.79.06,4.48,4.48,0,0,0-1.44,1.17C38.16,65.14,37.7,65.62,36.76,66.58Z"/>
        <path class="d" d="M42.74,67.3c-1-.92-1.54-1.53-1.07-2.87.31-.87,1.37-1.59,3.09-1a6.44,6.44,0,0,1,1.07.51,3.14,3.14,0,0,0,1,.32c-.13.56-.28,1.37-.39,1.87,0,.09-.08.11-.22.09S46.07,66.1,46,66a2.58,2.58,0,0,0-1.36-2.15,1.11,1.11,0,0,0-1.58.71c-.15.44.08.88.82,1.5l.49.41c1.21,1,1.9,1.74,1.48,3.14-.33,1.09-1.59,2-3.69,1.37A6.22,6.22,0,0,1,40,69.74a9.28,9.28,0,0,1,.26-1.81c0-.1.06-.12.21-.08s.18,0,.19.17a3,3,0,0,0,1.71,2.5,1.38,1.38,0,0,0,1.92-.93c.22-.67-.26-1.12-1.06-1.87Z"/>
        <path class="d" d="M48.95,67.67a6.42,6.42,0,0,0,.27-1.37c0-.26-.15-.41-.51-.47l-.43-.08c-.16,0-.2,0-.16-.23s.06-.21.24-.19a25.8,25.8,0,0,0,2.78-.08.18.18,0,0,1,.15.21c-.32,1.16-.56,2-.74,2.81s-.31,1.25-.52,2.09a5.26,5.26,0,0,0-.31,1.73c.06.26.37.34.92.5.1,0,.11.09.07.23s-.06.19-.17.17l-1.92-.5-2-.45c-.14,0-.16-.08-.12-.24s.1-.19.21-.16c.49.11.79.15,1,0a4.21,4.21,0,0,0,.6-1.66C48.59,69,48.71,68.58,48.95,67.67Zm3.26-5.75a1.15,1.15,0,0,1-1.27.84,1.17,1.17,0,0,1-.8-1.35,1.14,1.14,0,0,1,1.31-.8A1.17,1.17,0,0,1,52.21,61.93Z"/>
        <path class="d" d="M59.07,67.06a.91.91,0,0,1,.56.86c-.08.59-.34,1.05-.9,1s-.71-.75-.85-1.15-.34-.75-.77-.82C55.83,66.7,54.93,68,54.54,70s.64,3.4,1.81,3.58a2.56,2.56,0,0,0,2.44-.81c.11-.12.2-.08.32,0s.14.17.07.26a3.58,3.58,0,0,1-3.52,1.23,3.66,3.66,0,0,1-3.15-4.6,4.07,4.07,0,0,1,4.59-3.27A5.32,5.32,0,0,1,59.07,67.06Z"/>
        <path class="d" d="M62.58,71.44c-1.22-.68-1.9-1.16-1.73-2.56.12-.91,1-1.85,2.89-1.69a6.94,6.94,0,0,1,1.2.26,3.36,3.36,0,0,0,1.12.09c0,.58,0,1.4,0,1.91,0,.09-.05.12-.2.14s-.2,0-.25-.13c-.4-.93-1.05-1.73-1.86-1.8s-1.37.37-1.44,1c-.05.46.28.84,1.17,1.28l.58.29c1.46.74,2.32,1.27,2.21,2.73-.09,1.13-1.15,2.35-3.42,2.15a6.57,6.57,0,0,1-2.52-.72,9,9,0,0,1-.15-1.82c0-.11,0-.13.2-.13s.2,0,.23.13a3,3,0,0,0,2.29,2.07,1.42,1.42,0,0,0,1.72-1.33c.07-.7-.52-1-1.49-1.59Z"/>
      </g>
    </g>
  </g>
</svg>
