<svg xmlns="http://www.w3.org/2000/svg" viewBox="0 0 144 81">
  <defs>
    <style>
      .a {
        opacity: 0;
      }

      .b {
        fill: #fff;
      }

      .c, .d {
        fill: none;
      }

      .c {
        stroke: #c0b8e0;
        stroke-miterlimit: 10;
        stroke-width: 2px;
      }

      .d {
        stroke: #fff;
        stroke-width: 3px;
      }

      .e, .f {
        fill: #c0b8e0;
      }

      .e {
        stroke: #000;
      }
    </style>
  </defs>
  <title>psycology</title>
  <g class="a">
    <rect class="b" width="144" height="81"/>
  </g>
  <g>
    <g>
      <g>
        <path class="c" d="M52,19.5C55.25,9.74,63.22,5,72.16,5A18.66,18.66,0,0,1,91,23.74,47.56,47.56,0,0,1,78.87,55.18c-7,8-23,20.08-26.87,22.61,0,0-18.6-14.58-25.59-22.59C19.12,46.82,13,36.08,13,23.74A18.75,18.75,0,0,1,31.94,5c8.84,0,16.71,4.7,19.91,14.46Z"/>
        <line class="c" x1="13.88" y1="29.57" x2="28.61" y2="5.37"/>
        <line class="c" x1="16.52" y1="40.46" x2="37.67" y2="5.73"/>
        <line class="c" x1="21.12" y1="47.51" x2="44.55" y2="9.02"/>
        <line class="c" x1="26.47" y1="54.37" x2="50.13" y2="15.49"/>
        <line class="c" x1="31.99" y1="60.53" x2="65.14" y2="6.09"/>
        <line class="c" x1="37.69" y1="65.75" x2="74.33" y2="5.58"/>
        <line class="c" x1="44.52" y1="70.9" x2="82.72" y2="8.15"/>
        <line class="c" x1="50.45" y1="76.4" x2="88.42" y2="14.03"/>
        <line class="c" x1="64.05" y1="68.66" x2="90.99" y2="24.4"/>
      </g>
      <g>
        <path class="d" d="M52,19.5C55.25,9.74,63.22,5,72.16,5A18.66,18.66,0,0,1,91,23.74,47.56,47.56,0,0,1,78.87,55.18c-7,8-23,20.08-26.87,22.61,0,0-18.6-14.58-25.59-22.59C19.12,46.82,13,36.08,13,23.74A18.75,18.75,0,0,1,31.94,5c8.84,0,16.71,4.7,19.91,14.46Z"/>
        <line class="d" x1="13.88" y1="29.57" x2="28.61" y2="5.37"/>
        <line class="d" x1="16.52" y1="40.46" x2="37.67" y2="5.73"/>
        <line class="d" x1="21.12" y1="47.51" x2="44.55" y2="9.02"/>
        <line class="d" x1="26.47" y1="54.37" x2="50.13" y2="15.49"/>
        <line class="d" x1="31.99" y1="60.53" x2="65.14" y2="6.09"/>
        <line class="d" x1="37.69" y1="65.75" x2="74.33" y2="5.58"/>
        <line class="d" x1="44.52" y1="70.9" x2="82.72" y2="8.15"/>
        <line class="d" x1="50.45" y1="76.4" x2="88.42" y2="14.03"/>
        <line class="d" x1="64.05" y1="68.66" x2="90.99" y2="24.4"/>
      </g>
    </g>
    <g>
      <path class="c" d="M52,19.5C55.25,9.74,63.22,5,72.16,5A18.66,18.66,0,0,1,91,23.74,47.56,47.56,0,0,1,78.87,55.18c-7,8-23,20.08-26.87,22.61,0,0-18.6-14.58-25.59-22.59C19.12,46.82,13,36.08,13,23.74A18.75,18.75,0,0,1,31.94,5c8.84,0,16.71,4.7,19.91,14.46Z"/>
      <line class="c" x1="13.88" y1="29.57" x2="28.61" y2="5.37"/>
      <line class="c" x1="16.52" y1="40.46" x2="37.67" y2="5.73"/>
      <line class="c" x1="21.12" y1="47.51" x2="44.55" y2="9.02"/>
      <line class="c" x1="26.47" y1="54.37" x2="50.13" y2="15.49"/>
      <line class="c" x1="31.99" y1="60.53" x2="65.14" y2="6.09"/>
      <line class="c" x1="37.69" y1="65.75" x2="74.33" y2="5.58"/>
      <line class="c" x1="44.52" y1="70.9" x2="82.72" y2="8.15"/>
      <line class="c" x1="50.45" y1="76.4" x2="88.42" y2="14.03"/>
      <line class="c" x1="64.05" y1="68.66" x2="90.99" y2="24.4"/>
    </g>
    <g>
      <path class="e" d="M82.24,74.29c1.43,1.25,1.64,1.45,2,1.53s.79-.27,1.38-.84c.1-.09.14-.08.29,0s.17.18.07.29c-.62.65-1.29,1.39-1.86,2.05s-1.25,1.46-1.74,2.09c-.07.09-.11.1-.29,0s-.15-.2-.07-.29c.43-.58.67-.88.5-1.33A7.28,7.28,0,0,0,80.77,76l-5.19-4.51c-1.38-1.2-1.55-1.35-2-1.48s-.81.33-1.36.83c-.1.09-.14.1-.31,0s-.16-.19-.07-.29c.59-.62,1.31-1.42,1.9-2.1s1.19-1.48,2-2.4c2.62-3,4.64-3,6.27-1.62s2.17,3.55-.9,7.08a11.72,11.72,0,0,1-1,1ZM79.6,72a6.18,6.18,0,0,0,.88-.84c1.79-2.06,1.34-3.71,0-4.89-1.55-1.35-3.15-1.13-4.51.43-.29.33-.71.87-.6,1.29s.88,1.1,1.67,1.78Z"/>
      <path class="e" d="M89.31,65.5c-1.4.62-2.28.94-3.51-.13-.8-.7-1.13-2.17.25-3.76a6.74,6.74,0,0,1,1-.91,3.91,3.91,0,0,0,.84-.93c.53.41,1.25,1,1.77,1.32.09.08.09.13,0,.27a.22.22,0,0,1-.29.13,2.91,2.91,0,0,0-2.91.42,1.27,1.27,0,0,0,0,2c.4.35,1,.3,2-.19l.65-.31c1.63-.77,2.68-1.12,4,0,1,.86,1.43,2.55-.12,4.33a6.84,6.84,0,0,1-2.17,1.68,15.19,15.19,0,0,1-1.84-1c-.1-.09-.1-.11,0-.26s.12-.17.26-.12a3.41,3.41,0,0,0,3.34-.62A1.53,1.53,0,0,0,92.38,65c-.62-.54-1.3-.27-2.42.21Z"/>
      <path class="e" d="M97.72,58.26c.57,1.11,1.07,2,1.45,2.9,1.05,2.35,1.53,4.2.36,5.55-.42.49-.68.49-.92.28a1.41,1.41,0,0,1-.27-1.8c.29-.33.59-.3.81-.55a.92.92,0,0,0,.2-.81,9.18,9.18,0,0,0-.82-2.53c-.89-.27-1.57-.48-2.63-.85l-3.67-1.28a8.47,8.47,0,0,0-2-.53c-.34,0-.56.09-1,.5-.06.07-.11.1-.28,0s-.15-.18-.07-.26c.5-.52,1.08-1.15,1.49-1.63s1-1.19,1.45-1.76c.08-.09.14-.1.29,0s.15.21.09.28c-.31.41-.51.76-.42,1s.71.52,1.79.87l2.57.93A12.64,12.64,0,0,1,97.4,59c-.16-.34-.32-.61-.67-1.26l-1.28-2.35c-.51-.92-.91-1.3-1.27-1.35s-.56.09-.91.44c-.1.09-.16.09-.3,0s-.15-.18,0-.29c.35-.37.85-.89,1.19-1.28s.7-.83,1-1.26c.09-.1.13-.12.29,0s.15.18.07.29a1.31,1.31,0,0,0-.26.88,4.56,4.56,0,0,0,.71,2Z"/>
      <path class="e" d="M100.15,46.1a1,1,0,0,1,1.17,0c.52.45.81,1,.4,1.45s-1.14.21-1.64.09a1.21,1.21,0,0,0-1.26.24c-1,1.1-.2,2.75,1.56,4.28s3.72,1.4,4.54.45a2.66,2.66,0,0,0,.58-2.69c-.05-.17,0-.23.21-.27s.24,0,.29.1a3.72,3.72,0,0,1-.75,3.9,4.25,4.25,0,0,1-6.27.26,4.48,4.48,0,0,1-.68-6.36A5.41,5.41,0,0,1,100.15,46.1Z"/>
      <path class="e" d="M110.5,40.6a4.44,4.44,0,1,1-5.79,6.72,4.44,4.44,0,1,1,5.79-6.72Zm-4.36,5c1.79,1.56,3.51,2.13,4.5,1s.1-2.86-1.59-4.33-3.53-2.14-4.53-1S104.42,44.12,106.14,45.61Z"/>
      <path class="e" d="M106.75,34.11a7.49,7.49,0,0,0-1.26-.92.53.53,0,0,0-.74.19l-.31.41c-.1.14-.14.16-.31,0s-.17-.18-.09-.33a31.88,31.88,0,0,0,1.43-2.91c.09-.1.18-.15.25-.08,1.05,1,2.06,1.92,3.46,3.14l5.3,4.61a6,6,0,0,0,1.62,1.23c.33.08.54-.13,1-.55.09-.07.13-.06.26,0s.13.17.06.25c-.49.5-1,1.05-1.4,1.52s-.95,1.12-1.38,1.67c-.11.13-.17.13-.29,0s-.13-.17,0-.29c.34-.48.48-.67.35-1a6.11,6.11,0,0,0-1.43-1.45Z"/>
      <path class="e" d="M120.72,28.86a4.44,4.44,0,1,1-5.79,6.72,4.44,4.44,0,1,1,5.79-6.72Zm-4.36,5c1.79,1.56,3.51,2.13,4.5,1s.1-2.86-1.59-4.33-3.53-2.14-4.53-1S114.63,32.38,116.35,33.87Z"/>
      <path class="e" d="M127.27,25.72c2.14-2.52,3.55-1.79,4.34-1.11,1.16,1,2,2.94-.66,6-1.67,1.92-3.45,2.31-4.37,1.51s-.85-1.6-.31-3.06c-1,.66-1.6.6-2.06.2s-.54-1.38-.06-2.8c-1.21.81-2.42,1.07-3.59,0a3.22,3.22,0,0,1,0-4.6,4.48,4.48,0,0,1,1.72-1.28,30,30,0,0,0,1.89-2.41.13.13,0,0,1,.19,0l.27.59c0,.08,0,.15,0,.2-.49.48-.84.88-1.35,1.47a2.31,2.31,0,0,1,1.93.53c1.23,1.07,1.43,2.78-.11,4.56-.15.17-.31.33-.45.46-.14.74-.13,1.17.24,1.49s.74.07,1.21-.46Zm-5.41-.78c1.09.95,2.21,1.11,2.87.35s.33-1.8-.77-2.76-2.21-1.11-2.84-.38S120.81,24,121.86,24.94Zm5.88,2.8c-.26.3-.63.66-.91.92a2.25,2.25,0,0,0,0,.53,2.11,2.11,0,0,0,.78,1.36c.87.76,2.15.56,3.18-.61,1.17-1.35,1.19-2.72.22-3.56-.6-.52-1.35-.85-2.77.78Z"/>
      <path class="e" d="M133.18,17.52c.57,1.1,1.07,2,1.45,2.9,1.05,2.35,1.53,4.2.36,5.55-.42.49-.68.49-.92.28a1.41,1.41,0,0,1-.27-1.8c.29-.33.59-.3.81-.55a.92.92,0,0,0,.2-.81,9.16,9.16,0,0,0-.82-2.53c-.89-.27-1.57-.48-2.63-.85l-3.67-1.28a8.52,8.52,0,0,0-2-.53c-.34,0-.56.09-1,.5-.06.07-.11.1-.28,0s-.15-.18-.07-.26c.5-.52,1.08-1.15,1.49-1.63s1-1.19,1.45-1.76c.08-.09.14-.1.29,0s.15.21.09.28c-.31.41-.51.76-.42,1s.71.52,1.78.87l2.57.93a12.6,12.6,0,0,1,1.25.51c-.16-.34-.32-.61-.67-1.26l-1.28-2.35c-.51-.92-.91-1.3-1.27-1.35s-.56.09-.91.44c-.1.09-.15.09-.3,0s-.15-.18,0-.29c.35-.37.85-.89,1.19-1.28s.7-.83,1-1.26c.09-.1.13-.12.29,0s.15.18.07.29a1.31,1.31,0,0,0-.26.88,4.56,4.56,0,0,0,.71,2Z"/>
    </g>
    <g>
      <path class="f" d="M82.24,74.29c1.43,1.25,1.64,1.45,2,1.53s.79-.27,1.38-.84c.1-.09.14-.08.29,0s.17.18.07.29c-.62.65-1.29,1.39-1.86,2.05s-1.25,1.46-1.74,2.09c-.07.09-.11.1-.29,0s-.15-.2-.07-.29c.43-.58.67-.88.5-1.33A7.28,7.28,0,0,0,80.77,76l-5.19-4.51c-1.38-1.2-1.55-1.35-2-1.48s-.81.33-1.36.83c-.1.09-.14.1-.31,0s-.16-.19-.07-.29c.59-.62,1.31-1.42,1.9-2.1s1.19-1.48,2-2.4c2.62-3,4.64-3,6.27-1.62s2.17,3.55-.9,7.08a11.72,11.72,0,0,1-1,1ZM79.6,72a6.18,6.18,0,0,0,.88-.84c1.79-2.06,1.34-3.71,0-4.89-1.55-1.35-3.15-1.13-4.51.43-.29.33-.71.87-.6,1.29s.88,1.1,1.67,1.78Z"/>
      <path class="f" d="M89.31,65.5c-1.4.62-2.28.94-3.51-.13-.8-.7-1.13-2.17.25-3.76a6.74,6.74,0,0,1,1-.91,3.91,3.91,0,0,0,.84-.93c.53.41,1.25,1,1.77,1.32.09.08.09.13,0,.27a.22.22,0,0,1-.29.13,2.91,2.91,0,0,0-2.91.42,1.27,1.27,0,0,0,0,2c.4.35,1,.3,2-.19l.65-.31c1.63-.77,2.68-1.12,4,0,1,.86,1.43,2.55-.12,4.33a6.84,6.84,0,0,1-2.17,1.68,15.19,15.19,0,0,1-1.84-1c-.1-.09-.1-.11,0-.26s.12-.17.26-.12a3.41,3.41,0,0,0,3.34-.62A1.53,1.53,0,0,0,92.38,65c-.62-.54-1.3-.27-2.42.21Z"/>
      <path class="f" d="M97.72,58.26c.57,1.11,1.07,2,1.45,2.9,1.05,2.35,1.53,4.2.36,5.55-.42.49-.68.49-.92.28a1.41,1.41,0,0,1-.27-1.8c.29-.33.59-.3.81-.55a.92.92,0,0,0,.2-.81,9.18,9.18,0,0,0-.82-2.53c-.89-.27-1.57-.48-2.63-.85l-3.67-1.28a8.47,8.47,0,0,0-2-.53c-.34,0-.56.09-1,.5-.06.07-.11.1-.28,0s-.15-.18-.07-.26c.5-.52,1.08-1.15,1.49-1.63s1-1.19,1.45-1.76c.08-.09.14-.1.29,0s.15.21.09.28c-.31.41-.51.76-.42,1s.71.52,1.79.87l2.57.93A12.64,12.64,0,0,1,97.4,59c-.16-.34-.32-.61-.67-1.26l-1.28-2.35c-.51-.92-.91-1.3-1.27-1.35s-.56.09-.91.44c-.1.09-.16.09-.3,0s-.15-.18,0-.29c.35-.37.85-.89,1.19-1.28s.7-.83,1-1.26c.09-.1.13-.12.29,0s.15.18.07.29a1.31,1.31,0,0,0-.26.88,4.56,4.56,0,0,0,.71,2Z"/>
      <path class="f" d="M100.15,46.1a1,1,0,0,1,1.17,0c.52.45.81,1,.4,1.45s-1.14.21-1.64.09a1.21,1.21,0,0,0-1.26.24c-1,1.1-.2,2.75,1.56,4.28s3.72,1.4,4.54.45a2.66,2.66,0,0,0,.58-2.69c-.05-.17,0-.23.21-.27s.24,0,.29.1a3.72,3.72,0,0,1-.75,3.9,4.25,4.25,0,0,1-6.27.26,4.48,4.48,0,0,1-.68-6.36A5.41,5.41,0,0,1,100.15,46.1Z"/>
      <path class="f" d="M110.5,40.6a4.44,4.44,0,1,1-5.79,6.72,4.44,4.44,0,1,1,5.79-6.72Zm-4.36,5c1.79,1.56,3.51,2.13,4.5,1s.1-2.86-1.59-4.33-3.53-2.14-4.53-1S104.42,44.12,106.14,45.61Z"/>
      <path class="f" d="M106.75,34.11a7.49,7.49,0,0,0-1.26-.92.53.53,0,0,0-.74.19l-.31.41c-.1.14-.14.16-.31,0s-.17-.18-.09-.33a31.88,31.88,0,0,0,1.43-2.91c.09-.1.18-.15.25-.08,1.05,1,2.06,1.92,3.46,3.14l5.3,4.61a6,6,0,0,0,1.62,1.23c.33.08.54-.13,1-.55.09-.07.13-.06.26,0s.13.17.06.25c-.49.5-1,1.05-1.4,1.52s-.95,1.12-1.38,1.67c-.11.13-.17.13-.29,0s-.13-.17,0-.29c.34-.48.48-.67.35-1a6.11,6.11,0,0,0-1.43-1.45Z"/>
      <path class="f" d="M120.72,28.86a4.44,4.44,0,1,1-5.79,6.72,4.44,4.44,0,1,1,5.79-6.72Zm-4.36,5c1.79,1.56,3.51,2.13,4.5,1s.1-2.86-1.59-4.33-3.53-2.14-4.53-1S114.63,32.38,116.35,33.87Z"/>
      <path class="f" d="M127.27,25.72c2.14-2.52,3.55-1.79,4.34-1.11,1.16,1,2,2.94-.66,6-1.67,1.92-3.45,2.31-4.37,1.51s-.85-1.6-.31-3.06c-1,.66-1.6.6-2.06.2s-.54-1.38-.06-2.8c-1.21.81-2.42,1.07-3.59,0a3.22,3.22,0,0,1,0-4.6,4.48,4.48,0,0,1,1.72-1.28,30,30,0,0,0,1.89-2.41.13.13,0,0,1,.19,0l.27.59c0,.08,0,.15,0,.2-.49.48-.84.88-1.35,1.47a2.31,2.31,0,0,1,1.93.53c1.23,1.07,1.43,2.78-.11,4.56-.15.17-.31.33-.45.46-.14.74-.13,1.17.24,1.49s.74.07,1.21-.46Zm-5.41-.78c1.09.95,2.21,1.11,2.87.35s.33-1.8-.77-2.76-2.21-1.11-2.84-.38S120.81,24,121.86,24.94Zm5.88,2.8c-.26.3-.63.66-.91.92a2.25,2.25,0,0,0,0,.53,2.11,2.11,0,0,0,.78,1.36c.87.76,2.15.56,3.18-.61,1.17-1.35,1.19-2.72.22-3.56-.6-.52-1.35-.85-2.77.78Z"/>
      <path class="f" d="M133.18,17.52c.57,1.1,1.07,2,1.45,2.9,1.05,2.35,1.53,4.2.36,5.55-.42.49-.68.49-.92.28a1.41,1.41,0,0,1-.27-1.8c.29-.33.59-.3.81-.55a.92.92,0,0,0,.2-.81,9.16,9.16,0,0,0-.82-2.53c-.89-.27-1.57-.48-2.63-.85l-3.67-1.28a8.52,8.52,0,0,0-2-.53c-.34,0-.56.09-1,.5-.06.07-.11.1-.28,0s-.15-.18-.07-.26c.5-.52,1.08-1.15,1.49-1.63s1-1.19,1.45-1.76c.08-.09.14-.1.29,0s.15.21.09.28c-.31.41-.51.76-.42,1s.71.52,1.78.87l2.57.93a12.6,12.6,0,0,1,1.25.51c-.16-.34-.32-.61-.67-1.26l-1.28-2.35c-.51-.92-.91-1.3-1.27-1.35s-.56.09-.91.44c-.1.09-.15.09-.3,0s-.15-.18,0-.29c.35-.37.85-.89,1.19-1.28s.7-.83,1-1.26c.09-.1.13-.12.29,0s.15.18.07.29a1.31,1.31,0,0,0-.26.88,4.56,4.56,0,0,0,.71,2Z"/>
    </g>
  </g>
</svg>
