<svg xmlns="http://www.w3.org/2000/svg" viewBox="0 0 144 81">
  <defs>
    <style>
      .a {
        opacity: 0;
      }

      .b, .c {
        fill: #fff;
      }

      .c {
        stroke: #a3d2a1;
        stroke-miterlimit: 10;
        stroke-width: 2px;
      }

      .d {
        fill: none;
        stroke: #fff;
        stroke-width: 3px;
      }

      .e, .f {
        fill: #a3d2a1;
      }

      .e {
        stroke: #000;
      }
    </style>
  </defs>
  <title>category_icon-1</title>
  <g class="a">
    <rect class="b" width="144" height="81"/>
  </g>
  <g>
    <g>
      <g>
        <g>
          <path class="c" d="M28.71,43.44c-3.15,3.17,10.47,14.44,10.47,14.44s-3.76,16.66.5,18.75c2,1,7.31-5.16,7.31-5.16s5.26,6.45,7.29,5.42c4.34-2.2-.47-19.25-.47-19.25S67.46,47.46,64.63,44.2c-2.55-2.94-14.54,7.69-14.54,7.69l-7.65.55S31.44,40.68,28.71,43.44Z"/>
          <ellipse class="c" cx="46.02" cy="46.34" rx="6.14" ry="7.67"/>
        </g>
        <g>
          <path class="c" d="M64.26,43c4.36,1.1,7.45-16.16,7.45-16.16S88.23,21.69,87.94,17c-.14-2.21-8.18-3.66-8.18-3.66s3-7.72,1.11-8.94c-4.1-2.61-16.68,10-16.68,10S48.42,7.87,47,11.92c-1.3,3.64,14,8.57,14,8.57l4.31,6.25S60.48,42,64.26,43Z"/>
          <path class="c" d="M55.09,21.5c3.72-2.12,8.11-1.49,9.81,1.41s.05,7-3.67,9.08-8.11,1.49-9.81-1.41S51.37,23.61,55.09,21.5Z"/>
        </g>
        <g>
          <path class="c" d="M46.23,11.62C45,7.34,28.31,13.33,28.31,13.33s-12.76-11.55-16.72-9c-1.87,1.22.88,8.82.88,8.82s-8.3,1.27-8.41,3.52c-.24,4.81,17.15,9.22,17.15,9.22s2.11,16.75,6.39,16c3.85-.71.51-16.26.51-16.26l3.34-6.8S47.28,15.32,46.23,11.62Z"/>
          <path class="c" d="M33,30.18c-3.72-2.12-5.37-6.18-3.67-9.08s6.09-3.52,9.81-1.41,5.37,6.18,3.67,9.08S36.67,32.3,33,30.18Z"/>
        </g>
      </g>
      <g>
        <g>
          <path class="d" d="M28.71,43.44c-3.15,3.17,10.47,14.44,10.47,14.44s-3.76,16.66.5,18.75c2,1,7.31-5.16,7.31-5.16s5.26,6.45,7.29,5.42c4.34-2.2-.47-19.25-.47-19.25S67.46,47.46,64.63,44.2c-2.55-2.94-14.54,7.69-14.54,7.69l-7.65.55S31.44,40.68,28.71,43.44Z"/>
          <ellipse class="d" cx="46.02" cy="46.34" rx="6.14" ry="7.67"/>
        </g>
        <g>
          <path class="d" d="M64.26,43c4.36,1.1,7.45-16.16,7.45-16.16S88.23,21.69,87.94,17c-.14-2.21-8.18-3.66-8.18-3.66s3-7.72,1.11-8.94c-4.1-2.61-16.68,10-16.68,10S48.42,7.87,47,11.92c-1.3,3.64,14,8.57,14,8.57l4.31,6.25S60.48,42,64.26,43Z"/>
          <path class="d" d="M55.09,21.5c3.72-2.12,8.11-1.49,9.81,1.41s.05,7-3.67,9.08-8.11,1.49-9.81-1.41S51.37,23.61,55.09,21.5Z"/>
        </g>
        <g>
          <path class="d" d="M46.23,11.62C45,7.34,28.31,13.33,28.31,13.33s-12.76-11.55-16.72-9c-1.87,1.22.88,8.82.88,8.82s-8.3,1.27-8.41,3.52c-.24,4.81,17.15,9.22,17.15,9.22s2.11,16.75,6.39,16c3.85-.71.51-16.26.51-16.26l3.34-6.8S47.28,15.32,46.23,11.62Z"/>
          <path class="d" d="M33,30.18c-3.72-2.12-5.37-6.18-3.67-9.08s6.09-3.52,9.81-1.41,5.37,6.18,3.67,9.08S36.67,32.3,33,30.18Z"/>
        </g>
      </g>
    </g>
    <g>
      <g>
        <path class="c" d="M28.71,43.44c-3.15,3.17,10.47,14.44,10.47,14.44s-3.76,16.66.5,18.75c2,1,7.31-5.16,7.31-5.16s5.26,6.45,7.29,5.42c4.34-2.2-.47-19.25-.47-19.25S67.46,47.46,64.63,44.2c-2.55-2.94-14.54,7.69-14.54,7.69l-7.65.55S31.44,40.68,28.71,43.44Z"/>
        <ellipse class="c" cx="46.02" cy="46.34" rx="6.14" ry="7.67"/>
      </g>
      <g>
        <path class="c" d="M64.26,43c4.36,1.1,7.45-16.16,7.45-16.16S88.23,21.69,87.94,17c-.14-2.21-8.18-3.66-8.18-3.66s3-7.72,1.11-8.94c-4.1-2.61-16.68,10-16.68,10S48.42,7.87,47,11.92c-1.3,3.64,14,8.57,14,8.57l4.31,6.25S60.48,42,64.26,43Z"/>
        <path class="c" d="M55.09,21.5c3.72-2.12,8.11-1.49,9.81,1.41s.05,7-3.67,9.08-8.11,1.49-9.81-1.41S51.37,23.61,55.09,21.5Z"/>
      </g>
      <g>
        <path class="c" d="M46.23,11.62C45,7.34,28.31,13.33,28.31,13.33s-12.76-11.55-16.72-9c-1.87,1.22.88,8.82.88,8.82s-8.3,1.27-8.41,3.52c-.24,4.81,17.15,9.22,17.15,9.22s2.11,16.75,6.39,16c3.85-.71.51-16.26.51-16.26l3.34-6.8S47.28,15.32,46.23,11.62Z"/>
        <path class="c" d="M33,30.18c-3.72-2.12-5.37-6.18-3.67-9.08s6.09-3.52,9.81-1.41,5.37,6.18,3.67,9.08S36.67,32.3,33,30.18Z"/>
      </g>
    </g>
    <g>
      <path class="e" d="M66.69,64.13c-1.61-.08-2.59-.21-3.24-1.8-.42-1,0-2.58,2-3.42a7.31,7.31,0,0,1,1.41-.36,4.16,4.16,0,0,0,1.23-.48c.3.63.72,1.51,1,2.09,0,.11,0,.16-.14.25a.23.23,0,0,1-.33,0c-.91-.82-2-1.36-2.93-1a1.34,1.34,0,0,0-.92,1.91c.21.52.78.75,1.93.76l.76,0c1.9.05,3.06.24,3.73,1.89.52,1.28.12,3.09-2.18,4a7.21,7.21,0,0,1-2.85.54A16.29,16.29,0,0,1,65,66.67c-.05-.13,0-.16.12-.24s.2-.1.31,0a3.61,3.61,0,0,0,3.44,1,1.61,1.61,0,0,0,.95-2.31c-.32-.8-1.09-.88-2.38-1Z"/>
      <path class="e" d="M80.73,58.05a4.68,4.68,0,1,1-8.67,3.54,4.69,4.69,0,1,1,8.67-3.54Zm-6.51,2.63c.94,2.32,2.29,3.68,3.76,3.09s1.46-2.65.58-4.84c-1-2.36-2.3-3.7-3.78-3.1S73.32,58.45,74.22,60.68Z"/>
      <path class="e" d="M87.12,50.69a1.09,1.09,0,0,1,1.1.57c.27.67.29,1.31-.32,1.56s-1.18-.35-1.58-.7a1.28,1.28,0,0,0-1.3-.38c-1.43.58-1.5,2.49-.58,4.78s2.83,3.1,4.06,2.6a2.8,2.8,0,0,0,1.84-2.26c0-.19.13-.21.33-.15s.23.1.22.23a3.93,3.93,0,0,1-2.58,3.31,4.48,4.48,0,0,1-6-2.76,4.73,4.73,0,0,1,2.4-6.31A5.72,5.72,0,0,1,87.12,50.69Z"/>
      <path class="e" d="M90.57,44.3a1.35,1.35,0,1,1-1.73-.75A1.43,1.43,0,0,1,90.57,44.3Zm.86,8a9.18,9.18,0,0,0-.73-1.54c-.21-.26-.44-.29-.84-.09l-.47.23c-.18.09-.22.11-.32-.11s-.1-.24.09-.36c.66-.46,1.91-1.42,2.67-2.07a.21.21,0,0,1,.3.1c.49,1.38.89,2.43,1.26,3.32l1,2.44a7.13,7.13,0,0,0,.93,1.94c.26.22.58.09,1.19-.11.12,0,.16,0,.23.19s.07.23,0,.28c-.68.25-1.45.52-2.08.78s-1.45.63-2.08.9c-.15.06-.2,0-.28-.15s-.06-.26.07-.31c.52-.25.81-.39.86-.71a5.5,5.5,0,0,0-.65-2Z"/>
      <path class="e" d="M104.87,48.3a4.68,4.68,0,1,1-8.67,3.54,4.69,4.69,0,1,1,8.67-3.54Zm-6.51,2.63c.94,2.32,2.29,3.68,3.76,3.09s1.46-2.65.58-4.84c-1-2.36-2.29-3.7-3.78-3.1S97.47,48.69,98.37,50.93Z"/>
      <path class="e" d="M104.45,40.4a8,8,0,0,0-.75-1.47.57.57,0,0,0-.79-.18l-.49.24c-.16.09-.21.08-.31-.11s-.08-.25.07-.35c.7-.46,1.95-1.39,2.74-2.06.13-.05.24-.05.28,0,.53,1.41,1,2.79,1.76,4.61L109.75,48a6.33,6.33,0,0,0,.93,1.94c.27.24.57.13,1.19,0,.12,0,.15,0,.22.17s0,.22-.07.27c-.7.24-1.43.52-2,.76s-1.42.6-2.1.91c-.17.07-.22,0-.29-.12s0-.22.1-.3c.55-.29.77-.4.8-.75a6.4,6.4,0,0,0-.66-2Z"/>
      <path class="e" d="M120.1,42.15a4.68,4.68,0,1,1-8.67,3.54,4.69,4.69,0,1,1,8.67-3.54Zm-6.51,2.63c.94,2.32,2.29,3.68,3.76,3.09s1.46-2.65.58-4.84c-1-2.36-2.29-3.7-3.78-3.1S112.69,42.54,113.59,44.78Z"/>
      <path class="e" d="M127.76,42.34c3.22-1.34,4.2,0,4.61,1,.61,1.51.47,3.73-3.49,5.33-2.49,1-4.35.53-4.83-.67-.41-1,0-1.91,1.18-3-1.26.14-1.79-.21-2-.8-.31-.76.15-1.55,1.28-2.66-1.53.18-2.79-.15-3.4-1.67a3.39,3.39,0,0,1,2.24-4.3,4.73,4.73,0,0,1,2.23-.38,31.92,31.92,0,0,0,2.93-1.36.14.14,0,0,1,.18.08l0,.68c0,.09,0,.16-.1.19-.69.22-1.21.43-2,.73a2.43,2.43,0,0,1,1.57,1.42c.65,1.6,0,3.3-2.29,4.23-.22.09-.46.16-.65.22-.48.63-.68,1-.49,1.52s.67.42,1.36.14ZM123,39c.57,1.41,1.54,2.1,2.53,1.7s1.17-1.53.6-3-1.54-2.1-2.49-1.72S122.5,37.65,123,39Zm4.19,5.44c-.39.16-.91.32-1.29.44a2.34,2.34,0,0,0-.25.49,2.22,2.22,0,0,0,.08,1.65c.46,1.13,1.75,1.56,3.28.95,1.75-.71,2.42-2,1.91-3.24-.31-.78-.87-1.45-3-.59Z"/>
      <path class="e" d="M137.25,37.44c0,1.32,0,2.43,0,3.43-.13,2.72-.57,4.69-2.32,5.39-.63.26-.87.14-1-.18a1.49,1.49,0,0,1,.6-1.82c.43-.17.69,0,1-.13a1,1,0,0,0,.57-.66,9.67,9.67,0,0,0,.44-2.77c-.71-.69-1.24-1.21-2.07-2.06l-2.84-3A9,9,0,0,0,130,34.2c-.31-.18-.57-.18-1.14,0-.09,0-.16,0-.25-.18s-.05-.24.06-.28c.72-.25,1.56-.57,2.18-.82s1.52-.63,2.21-1c.11,0,.18,0,.26.16s0,.26-.05.3c-.49.24-.85.47-.87.74s.42.83,1.26,1.67l2,2.1a13.73,13.73,0,0,1,.93,1.07c0-.4,0-.73,0-1.5l-.08-2.82c0-1.11-.24-1.66-.54-1.88s-.57-.18-1.07,0c-.14,0-.19,0-.26-.17s-.05-.24.1-.3c.51-.18,1.23-.43,1.73-.64s1.05-.45,1.56-.69c.13-.05.17,0,.26.16s.05.24-.07.31a1.37,1.37,0,0,0-.67.7,4.81,4.81,0,0,0-.3,2.24Z"/>
    </g>
    <g>
      <path class="f" d="M66.69,64.13c-1.61-.08-2.59-.21-3.24-1.8-.42-1,0-2.58,2-3.42a7.31,7.31,0,0,1,1.41-.36,4.16,4.16,0,0,0,1.23-.48c.3.63.72,1.51,1,2.09,0,.11,0,.16-.14.25a.23.23,0,0,1-.33,0c-.91-.82-2-1.36-2.93-1a1.34,1.34,0,0,0-.92,1.91c.21.52.78.75,1.93.76l.76,0c1.9.05,3.06.24,3.73,1.89.52,1.28.12,3.09-2.18,4a7.21,7.21,0,0,1-2.85.54A16.29,16.29,0,0,1,65,66.67c-.05-.13,0-.16.12-.24s.2-.1.31,0a3.61,3.61,0,0,0,3.44,1,1.61,1.61,0,0,0,.95-2.31c-.32-.8-1.09-.88-2.38-1Z"/>
      <path class="f" d="M80.73,58.05a4.68,4.68,0,1,1-8.67,3.54,4.69,4.69,0,1,1,8.67-3.54Zm-6.51,2.63c.94,2.32,2.29,3.68,3.76,3.09s1.46-2.65.58-4.84c-1-2.36-2.3-3.7-3.78-3.1S73.32,58.45,74.22,60.68Z"/>
      <path class="f" d="M87.12,50.69a1.09,1.09,0,0,1,1.1.57c.27.67.29,1.31-.32,1.56s-1.18-.35-1.58-.7a1.28,1.28,0,0,0-1.3-.38c-1.43.58-1.5,2.49-.58,4.78s2.83,3.1,4.06,2.6a2.8,2.8,0,0,0,1.84-2.26c0-.19.13-.21.33-.15s.23.1.22.23a3.93,3.93,0,0,1-2.58,3.31,4.48,4.48,0,0,1-6-2.76,4.73,4.73,0,0,1,2.4-6.31A5.72,5.72,0,0,1,87.12,50.69Z"/>
      <path class="f" d="M90.57,44.3a1.35,1.35,0,1,1-1.73-.75A1.43,1.43,0,0,1,90.57,44.3Zm.86,8a9.18,9.18,0,0,0-.73-1.54c-.21-.26-.44-.29-.84-.09l-.47.23c-.18.09-.22.11-.32-.11s-.1-.24.09-.36c.66-.46,1.91-1.42,2.67-2.07a.21.21,0,0,1,.3.1c.49,1.38.89,2.43,1.26,3.32l1,2.44a7.13,7.13,0,0,0,.93,1.94c.26.22.58.09,1.19-.11.12,0,.16,0,.23.19s.07.23,0,.28c-.68.25-1.45.52-2.08.78s-1.45.63-2.08.9c-.15.06-.2,0-.28-.15s-.06-.26.07-.31c.52-.25.81-.39.86-.71a5.5,5.5,0,0,0-.65-2Z"/>
      <path class="f" d="M104.87,48.3a4.68,4.68,0,1,1-8.67,3.54,4.69,4.69,0,1,1,8.67-3.54Zm-6.51,2.63c.94,2.32,2.29,3.68,3.76,3.09s1.46-2.65.58-4.84c-1-2.36-2.29-3.7-3.78-3.1S97.47,48.69,98.37,50.93Z"/>
      <path class="f" d="M104.45,40.4a8,8,0,0,0-.75-1.47.57.57,0,0,0-.79-.18l-.49.24c-.16.09-.21.08-.31-.11s-.08-.25.07-.35c.7-.46,1.95-1.39,2.74-2.06.13-.05.24-.05.28,0,.53,1.41,1,2.79,1.76,4.61L109.75,48a6.33,6.33,0,0,0,.93,1.94c.27.24.57.13,1.19,0,.12,0,.15,0,.22.17s0,.22-.07.27c-.7.24-1.43.52-2,.76s-1.42.6-2.1.91c-.17.07-.22,0-.29-.12s0-.22.1-.3c.55-.29.77-.4.8-.75a6.4,6.4,0,0,0-.66-2Z"/>
      <path class="f" d="M120.1,42.15a4.68,4.68,0,1,1-8.67,3.54,4.69,4.69,0,1,1,8.67-3.54Zm-6.51,2.63c.94,2.32,2.29,3.68,3.76,3.09s1.46-2.65.58-4.84c-1-2.36-2.29-3.7-3.78-3.1S112.69,42.54,113.59,44.78Z"/>
      <path class="f" d="M127.76,42.34c3.22-1.34,4.2,0,4.61,1,.61,1.51.47,3.73-3.49,5.33-2.49,1-4.35.53-4.83-.67-.41-1,0-1.91,1.18-3-1.26.14-1.79-.21-2-.8-.31-.76.15-1.55,1.28-2.66-1.53.18-2.79-.15-3.4-1.67a3.39,3.39,0,0,1,2.24-4.3,4.73,4.73,0,0,1,2.23-.38,31.92,31.92,0,0,0,2.93-1.36.14.14,0,0,1,.18.08l0,.68c0,.09,0,.16-.1.19-.69.22-1.21.43-2,.73a2.43,2.43,0,0,1,1.57,1.42c.65,1.6,0,3.3-2.29,4.23-.22.09-.46.16-.65.22-.48.63-.68,1-.49,1.52s.67.42,1.36.14ZM123,39c.57,1.41,1.54,2.1,2.53,1.7s1.17-1.53.6-3-1.54-2.1-2.49-1.72S122.5,37.65,123,39Zm4.19,5.44c-.39.16-.91.32-1.29.44a2.34,2.34,0,0,0-.25.49,2.22,2.22,0,0,0,.08,1.65c.46,1.13,1.75,1.56,3.28.95,1.75-.71,2.42-2,1.91-3.24-.31-.78-.87-1.45-3-.59Z"/>
      <path class="f" d="M137.25,37.44c0,1.32,0,2.43,0,3.43-.13,2.72-.57,4.69-2.32,5.39-.63.26-.87.14-1-.18a1.49,1.49,0,0,1,.6-1.82c.43-.17.69,0,1-.13a1,1,0,0,0,.57-.66,9.67,9.67,0,0,0,.44-2.77c-.71-.69-1.24-1.21-2.07-2.06l-2.84-3A9,9,0,0,0,130,34.2c-.31-.18-.57-.18-1.14,0-.09,0-.16,0-.25-.18s-.05-.24.06-.28c.72-.25,1.56-.57,2.18-.82s1.52-.63,2.21-1c.11,0,.18,0,.26.16s0,.26-.05.3c-.49.24-.85.47-.87.74s.42.83,1.26,1.67l2,2.1a13.73,13.73,0,0,1,.93,1.07c0-.4,0-.73,0-1.5l-.08-2.82c0-1.11-.24-1.66-.54-1.88s-.57-.18-1.07,0c-.14,0-.19,0-.26-.17s-.05-.24.1-.3c.51-.18,1.23-.43,1.73-.64s1.05-.45,1.56-.69c.13-.05.17,0,.26.16s.05.24-.07.31a1.37,1.37,0,0,0-.67.7,4.81,4.81,0,0,0-.3,2.24Z"/>
    </g>
  </g>
</svg>
